M48
; DRILL file {KiCad 9.0.1-1.fc42} date 2025-04-12T13:57:22+0200
; FORMAT={-:-/ absolute / inch / decimal}
; #@! TF.CreationDate,2025-04-12T13:57:22+02:00
; #@! TF.GenerationSoftware,Kicad,Pcbnew,9.0.1-1.fc42
; #@! TF.FileFunction,Plated,1,2,PTH
FMAT,2
INCH
; #@! TA.AperFunction,Plated,PTH,ViaDrill
T1C0.0118
; #@! TA.AperFunction,Plated,PTH,ComponentDrill
T2C0.0118
; #@! TA.AperFunction,Plated,PTH,ComponentDrill
T3C0.0394
%
G90
G05
T1
X4.8622Y-3.5039
X4.8622Y-3.5433
X4.8622Y-3.5925
X4.8622Y-3.6417
X4.8622Y-3.7008
X4.8622Y-3.7598
X4.8622Y-3.8189
X4.8622Y-4.1732
X4.8622Y-4.2126
X4.8622Y-4.2618
X4.8622Y-4.311
X4.8622Y-4.3602
X4.8622Y-4.4094
X4.9114Y-4.1732
X4.9114Y-4.2126
X4.9114Y-4.2618
X4.9114Y-4.311
X4.9114Y-4.3602
X4.9114Y-4.4094
X4.9213Y-3.5039
X4.9213Y-3.5433
X4.9213Y-3.5925
X4.9213Y-3.6417
X4.9213Y-3.7008
X4.9213Y-3.7598
X4.9213Y-3.8189
X4.9606Y-4.1732
X4.9606Y-4.2126
X4.9606Y-4.2618
X4.9606Y-4.311
X4.9606Y-4.3602
X4.9606Y-4.4094
X4.9902Y-3.5039
X4.9902Y-3.5433
X4.9902Y-3.5925
X4.9902Y-3.6417
X4.9902Y-3.7008
X4.9902Y-3.7598
X4.9902Y-3.8189
X4.9902Y-3.9469
X4.9902Y-4.0846
X5.0197Y-3.9567
X5.0197Y-4.0748
X5.0197Y-4.1732
X5.0197Y-4.2126
X5.0197Y-4.2618
X5.0197Y-4.311
X5.0197Y-4.3602
X5.0197Y-4.4094
X5.0492Y-3.9665
X5.0492Y-4.065
X5.0591Y-3.5039
X5.0591Y-3.5433
X5.0591Y-3.5925
X5.0591Y-3.6417
X5.0591Y-3.7008
X5.0591Y-3.7598
X5.0591Y-3.8189
X5.0787Y-3.9665
X5.0787Y-4.065
X5.0787Y-4.1732
X5.0787Y-4.2126
X5.0787Y-4.2618
X5.0787Y-4.311
X5.0787Y-4.3602
X5.0787Y-4.4094
X5.1083Y-3.622
X5.1083Y-3.9665
X5.1083Y-4.065
X5.1378Y-3.5039
X5.1378Y-3.5433
X5.1378Y-3.5925
X5.1378Y-3.9665
X5.1378Y-4.065
X5.1378Y-4.2618
X5.1378Y-4.311
X5.1378Y-4.3602
X5.1378Y-4.4094
X5.1614Y-3.6535
X5.1614Y-3.7008
X5.1673Y-3.9665
X5.1673Y-4.065
X5.1772Y-3.622
X5.1969Y-3.9665
X5.1969Y-4.065
X5.1969Y-4.311
X5.1969Y-4.3602
X5.1969Y-4.4094
X5.2047Y-4.126
X5.2047Y-4.1575
X5.2067Y-4.0945
X5.2126Y-4.185
X5.2165Y-3.5039
X5.2165Y-3.5433
X5.2165Y-3.5925
X5.2165Y-3.6378
X5.2165Y-3.7008
X5.2244Y-4.2126
X5.2264Y-3.9665
X5.2441Y-4.2362
X5.2461Y-4.3602
X5.2461Y-4.4094
X5.248Y-3.6535
X5.2559Y-3.9665
X5.2677Y-4.2559
X5.2854Y-3.9665
X5.2913Y-4.2756
X5.2953Y-3.5039
X5.2953Y-3.5433
X5.2953Y-4.4193
X5.3051Y-4.0846
X5.3071Y-4.1142
X5.3071Y-4.1417
X5.315Y-3.9665
X5.3189Y-4.1654
X5.3189Y-4.2874
X5.3248Y-4.065
X5.3386Y-4.185
X5.3445Y-3.9665
X5.3445Y-4.4193
X5.3465Y-4.2992
X5.3543Y-3.7992
X5.3543Y-4.065
X5.3583Y-3.6457
X5.3583Y-3.6772
X5.3622Y-4.1969
X5.374Y-3.5039
X5.374Y-3.5433
X5.374Y-3.9665
X5.374Y-4.3031
X5.3839Y-4.065
X5.3839Y-4.1043
X5.3898Y-4.2008
X5.3937Y-3.7992
X5.3937Y-3.8386
X5.3937Y-4.4193
X5.4055Y-4.3031
X5.4173Y-4.2008
X5.4232Y-3.9173
X5.4232Y-4.0945
X5.4331Y-3.878
X5.437Y-4.3031
X5.4429Y-4.4193
X5.4488Y-4.2008
X5.4528Y-3.7303
X5.4528Y-3.7598
X5.4626Y-3.5039
X5.4685Y-4.3031
X5.4724Y-3.9665
X5.4724Y-4.0453
X5.4803Y-4.2008
X5.4921Y-3.878
X5.4921Y-4.0059
X5.4921Y-4.4193
X5.5Y-4.3031
X5.502Y-3.6811
X5.5118Y-4.2008
X5.5315Y-4.0059
X5.5315Y-4.3031
X5.5413Y-3.5039
X5.5413Y-3.6811
X5.5413Y-4.4193
X5.5433Y-4.2008
X5.5512Y-3.9665
X5.5512Y-4.0453
X5.563Y-4.3031
X5.5748Y-4.2008
X5.5807Y-3.6811
X5.5807Y-3.8878
X5.5906Y-4.4193
X5.5945Y-4.3031
X5.6004Y-3.8583
X5.6004Y-3.9173
X5.6004Y-4.1437
X5.6063Y-4.2008
X5.626Y-4.3031
X5.6299Y-3.5039
X5.6339Y-4.2008
X5.6398Y-3.9173
X5.6398Y-4.1437
X5.6398Y-4.4193
X5.6575Y-4.2992
X5.6614Y-4.1929
X5.6791Y-3.8091
X5.6791Y-3.8583
X5.6791Y-4.1339
X5.685Y-4.2913
X5.689Y-3.6417
X5.689Y-3.6811
X5.689Y-3.9272
X5.689Y-4.0256
X5.689Y-4.185
X5.689Y-4.4193
X5.7087Y-3.5039
X5.7126Y-4.1693
X5.7126Y-4.2835
X5.7185Y-3.8386
X5.7362Y-4.1535
X5.7402Y-4.2717
X5.748Y-3.8091
X5.7598Y-4.1299
X5.7677Y-4.2559
X5.7776Y-3.8484
X5.7835Y-4.1063
X5.7874Y-3.5039
X5.7913Y-4.2402
X5.8071Y-3.9075
X5.8071Y-4.0846
X5.811Y-4.2205
X5.8169Y-3.5728
X5.8169Y-3.6516
X5.8169Y-3.7303
X5.8268Y-4.065
X5.8268Y-4.252
X5.8346Y-4.1969
X5.8465Y-3.6024
X5.8563Y-3.5039
X5.8563Y-3.7106
X5.8661Y-3.6516
X5.8701Y-4.1969
X5.876Y-4.0059
X5.876Y-4.2323
X5.8957Y-3.6024
X5.9055Y-3.7106
X5.9252Y-3.5039
X5.9252Y-3.6516
X5.9252Y-3.9173
X5.9252Y-4.2224
X5.937Y-4.185
X5.9449Y-3.6909
X5.9547Y-3.6024
X5.9744Y-3.7697
X5.9843Y-3.6516
X5.9843Y-4.1831
X5.9843Y-4.2224
X5.9941Y-4.0846
X5.999Y-3.8386
X6.0039Y-3.5039
X6.0039Y-3.6024
X6.0039Y-3.937
X6.0039Y-4.0
X6.0138Y-3.7697
X6.0335Y-3.6319
X6.0335Y-4.3602
X6.0335Y-4.4094
X6.0531Y-3.6024
X6.063Y-3.9961
X6.0669Y-3.937
X6.0827Y-3.5039
X6.1024Y-3.6024
X6.1024Y-4.3602
X6.1024Y-4.4094
X6.1122Y-4.1142
X6.122Y-3.6417
X6.122Y-3.7795
X6.122Y-3.8681
X6.1417Y-4.1535
X6.1516Y-3.5039
X6.1516Y-3.6024
X6.1516Y-3.6713
X6.1608Y-4.287
X6.1713Y-4.4094
X6.1811Y-4.3602
X6.1929Y-4.2205
X6.2205Y-3.5039
X6.2303Y-3.8386
X6.2303Y-4.1929
X6.2402Y-4.3701
X6.2402Y-4.4094
X6.248Y-3.6142
X6.248Y-3.6535
X6.2697Y-3.7697
X6.2697Y-3.8091
X6.2697Y-3.8484
X6.2697Y-4.1929
X6.2894Y-3.5039
X6.2953Y-3.6535
X6.3091Y-4.1929
X6.3091Y-4.3602
X6.3091Y-4.4094
X6.3268Y-3.6142
X6.3583Y-3.5039
X6.3681Y-4.311
X6.3681Y-4.3602
X6.3681Y-4.4094
X6.374Y-4.1811
X6.3878Y-3.8484
X6.4272Y-3.5039
X6.4272Y-4.2618
X6.4272Y-4.311
X6.4272Y-4.3602
X6.4272Y-4.4094
X6.437Y-3.6142
X6.4862Y-3.5039
X6.4862Y-4.2224
X6.4862Y-4.2618
X6.4862Y-4.311
X6.4862Y-4.3602
X6.4862Y-4.4094
X6.4961Y-4.1732
X6.504Y-3.7225
X6.5453Y-3.5039
X6.5453Y-4.311
X6.5453Y-4.3602
X6.5453Y-4.4094
X6.565Y-4.2618
X6.5748Y-3.563
X6.6043Y-3.5039
X6.6043Y-3.6024
X6.6142Y-4.3602
X6.6142Y-4.4094
X6.6339Y-3.563
X6.6339Y-3.7106
X6.6339Y-3.7598
X6.6339Y-4.0354
X6.6634Y-3.5039
X6.6634Y-3.6024
X6.6732Y-4.3602
X6.6732Y-4.4094
X6.6831Y-3.7598
X6.6929Y-3.563
X6.7126Y-3.7205
X6.7224Y-3.5039
X6.7224Y-3.6024
X6.7323Y-3.6614
X6.7323Y-3.7598
X6.7323Y-4.3602
X6.7323Y-4.4094
X6.752Y-3.5433
X6.752Y-3.7992
X6.752Y-3.8386
X6.7717Y-3.5827
X6.7717Y-3.6319
X6.7717Y-3.6811
X6.7717Y-3.7402
X6.7815Y-3.5039
X6.7913Y-3.7894
X6.7913Y-4.0354
X6.7913Y-4.3602
X6.7913Y-4.4094
X6.811Y-3.5433
X6.811Y-4.0748
X6.8209Y-3.5827
X6.8209Y-3.6319
X6.8209Y-3.6811
X6.8209Y-3.7402
X6.8209Y-3.9075
X6.8307Y-4.0354
X6.8406Y-3.5039
X6.8504Y-3.7795
X6.8504Y-4.0748
X6.8504Y-4.3602
X6.8504Y-4.4094
X6.8602Y-3.9075
X6.8701Y-3.5433
X6.8701Y-4.0354
X6.8799Y-3.5827
X6.8799Y-3.6319
X6.8799Y-3.6811
X6.8799Y-3.7402
X6.8996Y-3.5039
X6.8996Y-3.9075
X6.8996Y-4.0846
X6.8996Y-4.1339
X6.9094Y-3.7795
X6.9094Y-4.0354
X6.9094Y-4.3602
X6.9094Y-4.4094
X6.9193Y-4.1831
X6.9193Y-4.2421
X6.939Y-3.5335
X6.939Y-3.5827
X6.939Y-3.6319
X6.939Y-3.6811
X6.939Y-3.7402
X6.939Y-3.8189
X6.939Y-3.8583
X6.939Y-3.9075
X6.939Y-3.9469
X6.939Y-3.9862
X6.9488Y-4.0354
X6.9488Y-4.0945
X6.9488Y-4.1437
X6.9587Y-4.2028
X6.9587Y-4.2717
X6.9587Y-4.3406
X6.9587Y-4.4094
T2
X6.6768Y-3.9563
X6.6768Y-4.0028
X6.7232Y-3.9563
X6.7232Y-4.0028
T3
X6.3386Y-3.7992
X6.3386Y-3.8992
X6.3386Y-3.9992
X6.3386Y-4.0992
X6.4386Y-3.7992
X6.4386Y-3.8992
X6.4386Y-3.9992
X6.4386Y-4.0992
M30
