%TF.GenerationSoftware,KiCad,Pcbnew,9.0.1-1.fc42*%
%TF.CreationDate,2025-04-12T13:57:23+02:00*%
%TF.ProjectId,ADF4158_PCB,41444634-3135-4385-9f50-43422e6b6963,rev?*%
%TF.SameCoordinates,Original*%
%TF.FileFunction,Copper,L2,Bot*%
%TF.FilePolarity,Positive*%
%FSLAX46Y46*%
G04 Gerber Fmt 4.6, Leading zero omitted, Abs format (unit mm)*
G04 Created by KiCad (PCBNEW 9.0.1-1.fc42) date 2025-04-12 13:57:23*
%MOMM*%
%LPD*%
G01*
G04 APERTURE LIST*
%TA.AperFunction,SMDPad,CuDef*%
%ADD10R,1.800000X4.200000*%
%TD*%
%TA.AperFunction,HeatsinkPad*%
%ADD11C,0.500000*%
%TD*%
%TA.AperFunction,HeatsinkPad*%
%ADD12R,1.680000X1.680000*%
%TD*%
%TA.AperFunction,SMDPad,CuDef*%
%ADD13R,4.200000X1.800000*%
%TD*%
%TA.AperFunction,ComponentPad*%
%ADD14R,1.700000X1.700000*%
%TD*%
%TA.AperFunction,ComponentPad*%
%ADD15C,1.700000*%
%TD*%
%TA.AperFunction,ViaPad*%
%ADD16C,0.600000*%
%TD*%
%TA.AperFunction,Conductor*%
%ADD17C,0.400000*%
%TD*%
G04 APERTURE END LIST*
D10*
%TO.P,J3,2,Ext*%
%TO.N,GND*%
X151700000Y-110900000D03*
X146300000Y-110900000D03*
%TD*%
D11*
%TO.P,U7,17,GND*%
%TO.N,GND*%
X169590000Y-101670000D03*
X170770000Y-101670000D03*
D12*
X170180000Y-101080000D03*
D11*
X169590000Y-100490000D03*
X170770000Y-100490000D03*
%TD*%
D13*
%TO.P,J2,2,Ext*%
%TO.N,GND*%
X124600000Y-104700000D03*
X124600000Y-99300000D03*
%TD*%
D14*
%TO.P,J1,1,Pin_1*%
%TO.N,GND*%
X161000000Y-96500000D03*
D15*
%TO.P,J1,2,Pin_2*%
%TO.N,/Connectors/power*%
X163540000Y-96500000D03*
%TO.P,J1,3,Pin_3*%
%TO.N,/muxout*%
X161000000Y-99040000D03*
%TO.P,J1,4,Pin_4*%
%TO.N,/ADF4158 + HMC391/le*%
X163540000Y-99040000D03*
%TO.P,J1,5,Pin_5*%
%TO.N,/ADF4158 + HMC391/data*%
X161000000Y-101580000D03*
%TO.P,J1,6,Pin_6*%
%TO.N,/ADF4158 + HMC391/clk*%
X163540000Y-101580000D03*
%TO.P,J1,7,Pin_7*%
%TO.N,/ADF4158 + HMC391/ce*%
X161000000Y-104120000D03*
%TO.P,J1,8,Pin_8*%
%TO.N,/ADF4158 + HMC391/txdata*%
X163540000Y-104120000D03*
%TD*%
D16*
%TO.N,+3V3*%
X155500000Y-98250000D03*
X152375000Y-97500000D03*
X156483602Y-108890226D03*
X152250000Y-103750000D03*
%TO.N,GND*%
X176250000Y-89750000D03*
X126750000Y-95500000D03*
X164750000Y-107250000D03*
X126000000Y-112000000D03*
X136500000Y-89000000D03*
X130500000Y-100750000D03*
X123500000Y-110750000D03*
X127500000Y-108250000D03*
X138500000Y-94750000D03*
X176500000Y-102500000D03*
X176250000Y-93500000D03*
X128500000Y-97000000D03*
X171000000Y-95500000D03*
X126750000Y-97000000D03*
X160250000Y-106500000D03*
X160700000Y-91800000D03*
X123500000Y-94000000D03*
X129000000Y-106000000D03*
X140750000Y-112250000D03*
X152500000Y-89000000D03*
X136100000Y-92600000D03*
X156250000Y-89000000D03*
X135800000Y-109200000D03*
X156250000Y-93250000D03*
X167000000Y-90500000D03*
X139000000Y-100750000D03*
X171500000Y-90000000D03*
X170750000Y-89000000D03*
X163250000Y-110750000D03*
X166250000Y-89000000D03*
X139500000Y-101750000D03*
X143800000Y-106500000D03*
X132000000Y-103250000D03*
X132000000Y-109500000D03*
X140500000Y-101750000D03*
X134800000Y-105200000D03*
X175500000Y-102500000D03*
X150500000Y-107250000D03*
X132000000Y-100750000D03*
X144250000Y-98000000D03*
X136500000Y-109300000D03*
X147000000Y-89000000D03*
X132400000Y-106300000D03*
X168500000Y-90500000D03*
X145800000Y-108500000D03*
X126000000Y-106000000D03*
X123500000Y-92500000D03*
X144250000Y-105000000D03*
X137300000Y-109300000D03*
X125000000Y-89000000D03*
X124750000Y-108250000D03*
X139200000Y-106700000D03*
X176750000Y-108500000D03*
X174000000Y-112000000D03*
X164750000Y-108250000D03*
X131250000Y-103250000D03*
X175750000Y-107750000D03*
X163250000Y-108250000D03*
X172500000Y-110750000D03*
X149100000Y-106600000D03*
X134800000Y-104500000D03*
X133250000Y-112000000D03*
X169250000Y-89000000D03*
X152000000Y-106250000D03*
X138900000Y-109300000D03*
X125000000Y-90000000D03*
X176250000Y-97000000D03*
X123500000Y-91250000D03*
X134500000Y-89000000D03*
X147100000Y-107700000D03*
X176500000Y-104000000D03*
X130500000Y-89000000D03*
X130500000Y-109500000D03*
X160250000Y-112000000D03*
X158250000Y-97500000D03*
X129750000Y-100750000D03*
X152500000Y-91500000D03*
X141000000Y-100750000D03*
X176250000Y-98000000D03*
X132500000Y-90000000D03*
X133250000Y-110750000D03*
X168500000Y-95500000D03*
X176750000Y-112000000D03*
X129000000Y-109500000D03*
X135000000Y-100750000D03*
X153250000Y-92250000D03*
X126750000Y-89000000D03*
X175750000Y-106250000D03*
X124750000Y-112000000D03*
X130500000Y-110750000D03*
X136200000Y-106600000D03*
X123500000Y-108250000D03*
X129000000Y-108250000D03*
X159250000Y-97750000D03*
X125000000Y-95500000D03*
X123500000Y-106000000D03*
X138250000Y-112250000D03*
X132500000Y-94000000D03*
X172000000Y-92250000D03*
X164750000Y-110750000D03*
X147500000Y-99250000D03*
X138000000Y-98500000D03*
X155250000Y-104500000D03*
X172500000Y-112000000D03*
X154500000Y-89000000D03*
X134500000Y-112250000D03*
X130500000Y-91250000D03*
X176250000Y-99250000D03*
X145100000Y-105900000D03*
X144250000Y-96750000D03*
X175500000Y-96000000D03*
X136100000Y-93400000D03*
X161900000Y-106200000D03*
X125000000Y-94000000D03*
X176250000Y-92250000D03*
X128250000Y-103250000D03*
X150800000Y-106300000D03*
X141750000Y-93500000D03*
X158700000Y-92800000D03*
X175250000Y-99250000D03*
X136000000Y-96500000D03*
X134400000Y-108600000D03*
X164750000Y-89000000D03*
X137000000Y-97500000D03*
X131100000Y-94000000D03*
X168000000Y-112000000D03*
X140500000Y-109300000D03*
X172000000Y-95000000D03*
X127500000Y-100500000D03*
X129000000Y-112000000D03*
X148500000Y-91500000D03*
X143250000Y-99500000D03*
X165000000Y-106000000D03*
X174500000Y-90000000D03*
X159750000Y-89000000D03*
X127500000Y-107000000D03*
X143700000Y-109200000D03*
X135600000Y-106300000D03*
X140750000Y-93500000D03*
X163250000Y-89000000D03*
X134750000Y-103750000D03*
X172500000Y-96250000D03*
X149750000Y-91500000D03*
X173000000Y-103500000D03*
X132000000Y-110750000D03*
X129750000Y-92000000D03*
X124750000Y-107000000D03*
X155500000Y-96000000D03*
X173500000Y-102500000D03*
X133300000Y-92800000D03*
X147500000Y-103750000D03*
X159250000Y-95750000D03*
X154100000Y-100000000D03*
X128500000Y-91250000D03*
X149000000Y-92750000D03*
X138100000Y-109300000D03*
X174750000Y-95000000D03*
X146000000Y-96750000D03*
X124750000Y-106000000D03*
X158500000Y-112000000D03*
X134250000Y-100750000D03*
X129750000Y-103250000D03*
X142900000Y-109300000D03*
X171500000Y-97500000D03*
X129000000Y-103250000D03*
X126750000Y-100250000D03*
X175500000Y-110750000D03*
X155000000Y-112000000D03*
X161500000Y-89000000D03*
X132200000Y-105600000D03*
X174750000Y-91000000D03*
X126750000Y-90000000D03*
X155000000Y-91500000D03*
X176750000Y-106750000D03*
X123500000Y-90000000D03*
X147750000Y-92750000D03*
X127500000Y-106000000D03*
X125000000Y-91250000D03*
X139500000Y-98500000D03*
X163250000Y-109500000D03*
X156000000Y-105500000D03*
X176250000Y-100250000D03*
X153750000Y-91500000D03*
X155000000Y-110750000D03*
X144400000Y-109000000D03*
X170500000Y-94500000D03*
X133500000Y-100750000D03*
X176250000Y-91000000D03*
X150000000Y-94250000D03*
X171000000Y-93000000D03*
X169750000Y-95500000D03*
X166250000Y-110750000D03*
X146900000Y-104300000D03*
X146750000Y-97750000D03*
X133800000Y-108100000D03*
X140800000Y-106700000D03*
X132200000Y-104800000D03*
X137600000Y-106700000D03*
X169250000Y-91500000D03*
X144500000Y-93500000D03*
X145700000Y-105500000D03*
X176750000Y-110250000D03*
X143000000Y-89000000D03*
X175250000Y-89000000D03*
X149250000Y-107500000D03*
X148750000Y-94250000D03*
X173250000Y-92250000D03*
X144500000Y-106300000D03*
X163500000Y-91800000D03*
X153250000Y-112000000D03*
X136750000Y-104250000D03*
X157000000Y-110750000D03*
X126000000Y-107000000D03*
X124750000Y-110750000D03*
X166250000Y-109500000D03*
X174000000Y-103500000D03*
X148750000Y-89000000D03*
X171500000Y-96500000D03*
X142000000Y-112250000D03*
X174000000Y-96000000D03*
X156250000Y-91500000D03*
X137000000Y-96500000D03*
X164750000Y-112000000D03*
X130500000Y-112000000D03*
X176500000Y-105250000D03*
X147750000Y-94750000D03*
X153250000Y-110750000D03*
X138750000Y-89000000D03*
X123500000Y-107000000D03*
X141600000Y-106700000D03*
X159900000Y-92800000D03*
X141300000Y-109300000D03*
X152000000Y-92750000D03*
X152500000Y-101600000D03*
X124750000Y-109500000D03*
X142250000Y-105250000D03*
X163250000Y-112000000D03*
X131250000Y-100750000D03*
X169500000Y-112000000D03*
X160250000Y-110750000D03*
X166250000Y-112000000D03*
X146500000Y-108100000D03*
X132000000Y-112000000D03*
X134500000Y-90000000D03*
X128250000Y-100750000D03*
X123500000Y-89000000D03*
X129000000Y-110750000D03*
X132500000Y-89000000D03*
X172000000Y-91000000D03*
X135750000Y-112250000D03*
X173250000Y-91000000D03*
X147600000Y-107200000D03*
X170000000Y-90500000D03*
X164750000Y-109500000D03*
X136900000Y-106700000D03*
X139700000Y-109300000D03*
X154000000Y-101500000D03*
X126750000Y-92500000D03*
X148000000Y-103250000D03*
X140750000Y-89000000D03*
X132500000Y-92400000D03*
X136000000Y-103250000D03*
X149250000Y-101750000D03*
X145000000Y-89000000D03*
X148200000Y-106600000D03*
X173750000Y-89000000D03*
X135100000Y-105800000D03*
X128500000Y-89000000D03*
X123500000Y-97000000D03*
X144500000Y-112250000D03*
X158700000Y-91800000D03*
X176250000Y-95000000D03*
X123500000Y-95500000D03*
X126000000Y-109500000D03*
X132500000Y-91250000D03*
X128500000Y-95500000D03*
X173250000Y-95000000D03*
X151000000Y-93750000D03*
X162250000Y-97750000D03*
X175500000Y-112000000D03*
X143250000Y-105250000D03*
X146300000Y-104900000D03*
X169500000Y-110750000D03*
X128500000Y-94000000D03*
X131500000Y-92000000D03*
X126750000Y-91250000D03*
X139750000Y-93500000D03*
X170750000Y-91500000D03*
X152750000Y-95750000D03*
X175250000Y-103750000D03*
X168500000Y-102500000D03*
X159250000Y-96750000D03*
X135750000Y-100750000D03*
X143250000Y-112250000D03*
X126000000Y-110750000D03*
X155500000Y-92500000D03*
X127500000Y-112000000D03*
X161750000Y-112000000D03*
X174750000Y-93500000D03*
X142100000Y-109300000D03*
X142250000Y-99500000D03*
X172250000Y-89000000D03*
X158500000Y-111000000D03*
X151250000Y-91500000D03*
X131100000Y-92800000D03*
X159250000Y-106500000D03*
X158000000Y-89000000D03*
X161750000Y-109500000D03*
X136500000Y-90000000D03*
X135250000Y-103250000D03*
X128500000Y-90000000D03*
X150500000Y-92750000D03*
X127500000Y-103500000D03*
X176250000Y-101250000D03*
X126750000Y-103750000D03*
X141750000Y-98750000D03*
X129000000Y-100750000D03*
X150500000Y-99500000D03*
X126750000Y-94000000D03*
X132700000Y-107000000D03*
X145100000Y-108800000D03*
X145250000Y-97500000D03*
X123500000Y-109500000D03*
X161750000Y-110750000D03*
X152500000Y-100000000D03*
X136750000Y-103250000D03*
X173250000Y-99250000D03*
X151750000Y-95750000D03*
X171000000Y-110750000D03*
X157300000Y-107200000D03*
X171000000Y-112000000D03*
X175250000Y-105000000D03*
X158250000Y-106500000D03*
X123500000Y-112000000D03*
X167750000Y-91500000D03*
X167750000Y-89000000D03*
X144500000Y-92500000D03*
X174250000Y-99250000D03*
X174500000Y-102500000D03*
X138400000Y-106700000D03*
X128500000Y-92500000D03*
X172000000Y-93500000D03*
X172500000Y-102500000D03*
X130500000Y-103250000D03*
X141000000Y-102750000D03*
X148000000Y-108000000D03*
X156750000Y-112000000D03*
X142250000Y-98000000D03*
X130500000Y-108250000D03*
X143100000Y-106700000D03*
X137000000Y-112250000D03*
X127500000Y-110750000D03*
X133200000Y-107600000D03*
X125000000Y-97000000D03*
X125000000Y-92500000D03*
X139500000Y-112250000D03*
X132250000Y-104000000D03*
X126000000Y-108250000D03*
X174000000Y-110750000D03*
X168000000Y-110750000D03*
X140000000Y-106700000D03*
X150500000Y-89000000D03*
X129000000Y-107000000D03*
X152000000Y-107250000D03*
X127500000Y-109500000D03*
X139000000Y-102750000D03*
X130500000Y-90000000D03*
X142400000Y-106700000D03*
X174750000Y-92250000D03*
X173250000Y-93500000D03*
X132750000Y-100750000D03*
X136500000Y-100750000D03*
X173000000Y-90000000D03*
X138500000Y-95500000D03*
X135100000Y-108900000D03*
%TO.N,+10V*%
X144500000Y-99750000D03*
X144500000Y-102250000D03*
%TO.N,+3V0*%
X137750000Y-99500000D03*
X137750000Y-104000000D03*
%TO.N,+12V*%
X168500000Y-94250000D03*
X147750000Y-90750000D03*
%TO.N,+5V*%
X166750000Y-108250000D03*
X165201969Y-94551969D03*
%TD*%
D17*
%TO.N,+3V3*%
X155500000Y-102200000D02*
X155500000Y-98250000D01*
X155500000Y-98250000D02*
X153125000Y-98250000D01*
X152250000Y-103750000D02*
X156483602Y-107983602D01*
X153950000Y-103750000D02*
X155500000Y-102200000D01*
X153125000Y-98250000D02*
X152375000Y-97500000D01*
X156483602Y-107983602D02*
X156483602Y-108890226D01*
X152250000Y-103750000D02*
X153950000Y-103750000D01*
%TO.N,+10V*%
X144500000Y-99750000D02*
X144500000Y-102250000D01*
%TO.N,+3V0*%
X137750000Y-99500000D02*
X137750000Y-104000000D01*
%TO.N,+12V*%
X168500000Y-94250000D02*
X165000000Y-90750000D01*
X165000000Y-90750000D02*
X147750000Y-90750000D01*
%TO.N,+5V*%
X165201969Y-94551969D02*
X165250000Y-94600000D01*
X166750000Y-106250000D02*
X166750000Y-108250000D01*
X165250000Y-104750000D02*
X166750000Y-106250000D01*
X165250000Y-94600000D02*
X165250000Y-104750000D01*
%TD*%
%TA.AperFunction,Conductor*%
%TO.N,GND*%
G36*
X177442539Y-88020185D02*
G01*
X177488294Y-88072989D01*
X177499500Y-88124500D01*
X177499500Y-112875500D01*
X177479815Y-112942539D01*
X177427011Y-112988294D01*
X177375500Y-112999500D01*
X122624500Y-112999500D01*
X122557461Y-112979815D01*
X122511706Y-112927011D01*
X122500500Y-112875500D01*
X122500500Y-109378711D01*
X124649500Y-109378711D01*
X124649500Y-109621288D01*
X124681161Y-109861785D01*
X124743947Y-110096104D01*
X124836773Y-110320205D01*
X124836776Y-110320212D01*
X124958064Y-110530289D01*
X124958066Y-110530292D01*
X124958067Y-110530293D01*
X125105733Y-110722736D01*
X125105739Y-110722743D01*
X125277256Y-110894260D01*
X125277262Y-110894265D01*
X125469711Y-111041936D01*
X125679788Y-111163224D01*
X125903900Y-111256054D01*
X126138211Y-111318838D01*
X126318586Y-111342584D01*
X126378711Y-111350500D01*
X126378712Y-111350500D01*
X126621289Y-111350500D01*
X126669388Y-111344167D01*
X126861789Y-111318838D01*
X127096100Y-111256054D01*
X127320212Y-111163224D01*
X127530289Y-111041936D01*
X127722738Y-110894265D01*
X127894265Y-110722738D01*
X128041936Y-110530289D01*
X128163224Y-110320212D01*
X128256054Y-110096100D01*
X128318838Y-109861789D01*
X128350500Y-109621288D01*
X128350500Y-109378712D01*
X128318838Y-109138211D01*
X128256054Y-108903900D01*
X128163224Y-108679788D01*
X128041936Y-108469711D01*
X127930988Y-108325120D01*
X127894266Y-108277263D01*
X127894260Y-108277256D01*
X127722743Y-108105739D01*
X127722736Y-108105733D01*
X127530293Y-107958067D01*
X127530292Y-107958066D01*
X127530289Y-107958064D01*
X127320212Y-107836776D01*
X127320205Y-107836773D01*
X127096104Y-107743947D01*
X126861785Y-107681161D01*
X126621289Y-107649500D01*
X126621288Y-107649500D01*
X126378712Y-107649500D01*
X126378711Y-107649500D01*
X126138214Y-107681161D01*
X125903895Y-107743947D01*
X125679794Y-107836773D01*
X125679785Y-107836777D01*
X125469706Y-107958067D01*
X125277263Y-108105733D01*
X125277256Y-108105739D01*
X125105739Y-108277256D01*
X125105733Y-108277263D01*
X124958067Y-108469706D01*
X124836777Y-108679785D01*
X124836773Y-108679794D01*
X124743947Y-108903895D01*
X124681161Y-109138214D01*
X124649500Y-109378711D01*
X122500500Y-109378711D01*
X122500500Y-99421153D01*
X136949500Y-99421153D01*
X136949500Y-99578846D01*
X136980261Y-99733489D01*
X136980264Y-99733501D01*
X137040061Y-99877864D01*
X137049500Y-99925316D01*
X137049500Y-103574684D01*
X137040061Y-103622136D01*
X136980264Y-103766498D01*
X136980261Y-103766510D01*
X136949500Y-103921153D01*
X136949500Y-104078846D01*
X136980261Y-104233489D01*
X136980264Y-104233501D01*
X137040602Y-104379172D01*
X137040609Y-104379185D01*
X137128210Y-104510288D01*
X137128213Y-104510292D01*
X137239707Y-104621786D01*
X137239711Y-104621789D01*
X137370814Y-104709390D01*
X137370827Y-104709397D01*
X137472385Y-104751463D01*
X137516503Y-104769737D01*
X137671153Y-104800499D01*
X137671156Y-104800500D01*
X137671158Y-104800500D01*
X137828844Y-104800500D01*
X137828845Y-104800499D01*
X137983497Y-104769737D01*
X138129179Y-104709394D01*
X138260289Y-104621789D01*
X138371789Y-104510289D01*
X138459394Y-104379179D01*
X138519737Y-104233497D01*
X138550500Y-104078842D01*
X138550500Y-103921158D01*
X138550500Y-103921155D01*
X138550499Y-103921153D01*
X138519738Y-103766510D01*
X138519737Y-103766503D01*
X138480242Y-103671153D01*
X151449500Y-103671153D01*
X151449500Y-103828846D01*
X151480261Y-103983489D01*
X151480264Y-103983501D01*
X151540602Y-104129172D01*
X151540609Y-104129185D01*
X151628210Y-104260288D01*
X151628213Y-104260292D01*
X151739707Y-104371786D01*
X151739711Y-104371789D01*
X151870814Y-104459390D01*
X151870827Y-104459397D01*
X152015187Y-104519192D01*
X152055416Y-104546072D01*
X155746783Y-108237439D01*
X155761486Y-108264366D01*
X155778079Y-108290185D01*
X155778970Y-108296385D01*
X155780268Y-108298762D01*
X155783102Y-108325120D01*
X155783102Y-108464910D01*
X155773663Y-108512362D01*
X155713866Y-108656724D01*
X155713863Y-108656736D01*
X155683102Y-108811379D01*
X155683102Y-108969072D01*
X155713863Y-109123715D01*
X155713866Y-109123727D01*
X155774204Y-109269398D01*
X155774211Y-109269411D01*
X155861812Y-109400514D01*
X155861815Y-109400518D01*
X155973309Y-109512012D01*
X155973313Y-109512015D01*
X156104416Y-109599616D01*
X156104429Y-109599623D01*
X156250100Y-109659961D01*
X156250105Y-109659963D01*
X156404755Y-109690725D01*
X156404758Y-109690726D01*
X156404760Y-109690726D01*
X156562446Y-109690726D01*
X156562447Y-109690725D01*
X156717099Y-109659963D01*
X156862781Y-109599620D01*
X156993891Y-109512015D01*
X157105391Y-109400515D01*
X157192996Y-109269405D01*
X157253339Y-109123723D01*
X157284102Y-108969068D01*
X157284102Y-108811384D01*
X157284102Y-108811381D01*
X157284101Y-108811379D01*
X157273939Y-108760292D01*
X157253339Y-108656729D01*
X157193541Y-108512362D01*
X157184102Y-108464910D01*
X157184102Y-107914606D01*
X157157183Y-107779279D01*
X157157182Y-107779278D01*
X157157182Y-107779274D01*
X157116543Y-107681162D01*
X157104380Y-107651797D01*
X157104373Y-107651784D01*
X157027717Y-107537061D01*
X157027716Y-107537060D01*
X156930144Y-107439488D01*
X154115782Y-104625125D01*
X154082297Y-104563802D01*
X154087281Y-104494110D01*
X154129153Y-104438177D01*
X154156011Y-104422883D01*
X154281807Y-104370777D01*
X154281808Y-104370776D01*
X154281811Y-104370775D01*
X154396543Y-104294114D01*
X156044114Y-102646543D01*
X156120775Y-102531811D01*
X156173580Y-102404328D01*
X156188595Y-102328842D01*
X156200500Y-102268996D01*
X156200500Y-98933713D01*
X159649500Y-98933713D01*
X159649500Y-99146286D01*
X159668541Y-99266510D01*
X159682754Y-99356243D01*
X159734824Y-99516498D01*
X159748444Y-99558414D01*
X159844951Y-99747820D01*
X159969890Y-99919786D01*
X160120213Y-100070109D01*
X160292182Y-100195050D01*
X160300946Y-100199516D01*
X160351742Y-100247491D01*
X160368536Y-100315312D01*
X160345998Y-100381447D01*
X160300946Y-100420484D01*
X160292182Y-100424949D01*
X160120213Y-100549890D01*
X159969890Y-100700213D01*
X159844951Y-100872179D01*
X159748444Y-101061585D01*
X159682753Y-101263760D01*
X159649500Y-101473713D01*
X159649500Y-101686286D01*
X159678935Y-101872136D01*
X159682754Y-101896243D01*
X159721831Y-102016510D01*
X159748444Y-102098414D01*
X159844951Y-102287820D01*
X159969890Y-102459786D01*
X160120213Y-102610109D01*
X160292182Y-102735050D01*
X160300946Y-102739516D01*
X160351742Y-102787491D01*
X160368536Y-102855312D01*
X160345998Y-102921447D01*
X160300946Y-102960484D01*
X160292182Y-102964949D01*
X160120213Y-103089890D01*
X159969890Y-103240213D01*
X159844951Y-103412179D01*
X159748444Y-103601585D01*
X159682753Y-103803760D01*
X159649500Y-104013713D01*
X159649500Y-104226286D01*
X159682531Y-104434839D01*
X159682754Y-104436243D01*
X159710897Y-104522859D01*
X159748444Y-104638414D01*
X159844951Y-104827820D01*
X159969890Y-104999786D01*
X160120213Y-105150109D01*
X160292179Y-105275048D01*
X160292181Y-105275049D01*
X160292184Y-105275051D01*
X160481588Y-105371557D01*
X160683757Y-105437246D01*
X160893713Y-105470500D01*
X160893714Y-105470500D01*
X161106286Y-105470500D01*
X161106287Y-105470500D01*
X161316243Y-105437246D01*
X161518412Y-105371557D01*
X161707816Y-105275051D01*
X161815870Y-105196546D01*
X161879786Y-105150109D01*
X161879788Y-105150106D01*
X161879792Y-105150104D01*
X162030104Y-104999792D01*
X162030106Y-104999788D01*
X162030109Y-104999786D01*
X162155048Y-104827820D01*
X162155047Y-104827820D01*
X162155051Y-104827816D01*
X162159514Y-104819054D01*
X162207488Y-104768259D01*
X162275308Y-104751463D01*
X162341444Y-104773999D01*
X162380486Y-104819056D01*
X162384951Y-104827820D01*
X162509890Y-104999786D01*
X162660213Y-105150109D01*
X162832179Y-105275048D01*
X162832181Y-105275049D01*
X162832184Y-105275051D01*
X163021588Y-105371557D01*
X163223757Y-105437246D01*
X163433713Y-105470500D01*
X163433714Y-105470500D01*
X163646286Y-105470500D01*
X163646287Y-105470500D01*
X163856243Y-105437246D01*
X164058412Y-105371557D01*
X164247816Y-105275051D01*
X164355870Y-105196546D01*
X164419786Y-105150109D01*
X164419788Y-105150106D01*
X164419792Y-105150104D01*
X164465853Y-105104042D01*
X164527174Y-105070558D01*
X164596865Y-105075542D01*
X164652799Y-105117413D01*
X164656636Y-105122834D01*
X164705887Y-105196545D01*
X164705888Y-105196546D01*
X166013181Y-106503837D01*
X166046666Y-106565160D01*
X166049500Y-106591518D01*
X166049500Y-107824684D01*
X166040061Y-107872136D01*
X165980264Y-108016498D01*
X165980261Y-108016510D01*
X165949500Y-108171153D01*
X165949500Y-108328846D01*
X165980261Y-108483489D01*
X165980264Y-108483501D01*
X166040602Y-108629172D01*
X166040609Y-108629185D01*
X166128210Y-108760288D01*
X166128213Y-108760292D01*
X166239707Y-108871786D01*
X166239711Y-108871789D01*
X166370814Y-108959390D01*
X166370827Y-108959397D01*
X166516498Y-109019735D01*
X166516503Y-109019737D01*
X166671153Y-109050499D01*
X166671156Y-109050500D01*
X166671158Y-109050500D01*
X166828844Y-109050500D01*
X166828845Y-109050499D01*
X166983497Y-109019737D01*
X167129179Y-108959394D01*
X167260289Y-108871789D01*
X167371789Y-108760289D01*
X167459394Y-108629179D01*
X167519737Y-108483497D01*
X167550500Y-108328842D01*
X167550500Y-108171158D01*
X167550500Y-108171155D01*
X167550499Y-108171153D01*
X167519738Y-108016510D01*
X167519737Y-108016503D01*
X167495531Y-107958064D01*
X167459939Y-107872136D01*
X167450500Y-107824684D01*
X167450500Y-106181004D01*
X167423581Y-106045677D01*
X167423580Y-106045676D01*
X167423580Y-106045672D01*
X167423578Y-106045667D01*
X167370778Y-105918195D01*
X167370771Y-105918182D01*
X167294115Y-105803459D01*
X167294114Y-105803458D01*
X167196542Y-105705886D01*
X165986819Y-104496162D01*
X165953334Y-104434839D01*
X165950500Y-104408481D01*
X165950500Y-94861326D01*
X165959939Y-94813873D01*
X165971706Y-94785466D01*
X166002469Y-94630811D01*
X166002469Y-94473127D01*
X166002469Y-94473124D01*
X166002468Y-94473122D01*
X165996791Y-94444583D01*
X165971706Y-94318472D01*
X165971704Y-94318467D01*
X165911366Y-94172796D01*
X165911359Y-94172783D01*
X165823758Y-94041680D01*
X165823755Y-94041676D01*
X165712261Y-93930182D01*
X165712257Y-93930179D01*
X165581154Y-93842578D01*
X165581141Y-93842571D01*
X165435470Y-93782233D01*
X165435458Y-93782230D01*
X165280814Y-93751469D01*
X165280811Y-93751469D01*
X165123127Y-93751469D01*
X165123124Y-93751469D01*
X164968479Y-93782230D01*
X164968467Y-93782233D01*
X164822796Y-93842571D01*
X164822783Y-93842578D01*
X164691680Y-93930179D01*
X164691676Y-93930182D01*
X164580182Y-94041676D01*
X164580179Y-94041680D01*
X164492578Y-94172783D01*
X164492571Y-94172796D01*
X164432233Y-94318467D01*
X164432230Y-94318479D01*
X164401469Y-94473122D01*
X164401469Y-94630815D01*
X164432230Y-94785458D01*
X164432233Y-94785470D01*
X164492571Y-94931141D01*
X164492575Y-94931148D01*
X164528602Y-94985066D01*
X164549480Y-95051743D01*
X164549500Y-95053957D01*
X164549500Y-95320770D01*
X164529815Y-95387809D01*
X164477011Y-95433564D01*
X164407853Y-95443508D01*
X164352615Y-95421089D01*
X164247815Y-95344948D01*
X164058414Y-95248444D01*
X164058413Y-95248443D01*
X164058412Y-95248443D01*
X163856243Y-95182754D01*
X163856241Y-95182753D01*
X163856240Y-95182753D01*
X163694957Y-95157208D01*
X163646287Y-95149500D01*
X163433713Y-95149500D01*
X163385042Y-95157208D01*
X163223760Y-95182753D01*
X163021585Y-95248444D01*
X162832179Y-95344951D01*
X162660213Y-95469890D01*
X162509890Y-95620213D01*
X162384951Y-95792179D01*
X162288444Y-95981585D01*
X162222753Y-96183760D01*
X162189500Y-96393713D01*
X162189500Y-96606287D01*
X162222754Y-96816243D01*
X162279117Y-96989711D01*
X162288444Y-97018414D01*
X162384951Y-97207820D01*
X162509890Y-97379786D01*
X162660213Y-97530109D01*
X162832182Y-97655050D01*
X162840946Y-97659516D01*
X162891742Y-97707491D01*
X162908536Y-97775312D01*
X162885998Y-97841447D01*
X162840946Y-97880484D01*
X162832182Y-97884949D01*
X162660213Y-98009890D01*
X162509890Y-98160213D01*
X162384949Y-98332182D01*
X162380484Y-98340946D01*
X162332509Y-98391742D01*
X162264688Y-98408536D01*
X162198553Y-98385998D01*
X162159516Y-98340946D01*
X162155050Y-98332182D01*
X162030109Y-98160213D01*
X161879786Y-98009890D01*
X161707820Y-97884951D01*
X161518414Y-97788444D01*
X161518413Y-97788443D01*
X161518412Y-97788443D01*
X161316243Y-97722754D01*
X161316241Y-97722753D01*
X161316240Y-97722753D01*
X161154957Y-97697208D01*
X161106287Y-97689500D01*
X160893713Y-97689500D01*
X160845042Y-97697208D01*
X160683760Y-97722753D01*
X160481585Y-97788444D01*
X160292179Y-97884951D01*
X160120213Y-98009890D01*
X159969890Y-98160213D01*
X159844951Y-98332179D01*
X159748444Y-98521585D01*
X159682753Y-98723760D01*
X159649500Y-98933713D01*
X156200500Y-98933713D01*
X156200500Y-98675316D01*
X156209939Y-98627864D01*
X156253959Y-98521588D01*
X156269737Y-98483497D01*
X156300500Y-98328842D01*
X156300500Y-98171158D01*
X156300500Y-98171155D01*
X156300499Y-98171153D01*
X156269738Y-98016510D01*
X156269737Y-98016503D01*
X156213397Y-97880484D01*
X156209397Y-97870827D01*
X156209390Y-97870814D01*
X156121789Y-97739711D01*
X156121786Y-97739707D01*
X156010292Y-97628213D01*
X156010288Y-97628210D01*
X155879185Y-97540609D01*
X155879172Y-97540602D01*
X155733501Y-97480264D01*
X155733489Y-97480261D01*
X155578845Y-97449500D01*
X155578842Y-97449500D01*
X155421158Y-97449500D01*
X155421155Y-97449500D01*
X155266510Y-97480261D01*
X155266498Y-97480264D01*
X155122136Y-97540061D01*
X155074684Y-97549500D01*
X153466519Y-97549500D01*
X153399480Y-97529815D01*
X153378838Y-97513181D01*
X153171071Y-97305414D01*
X153144191Y-97265185D01*
X153084397Y-97120827D01*
X153084390Y-97120814D01*
X152996789Y-96989711D01*
X152996786Y-96989707D01*
X152885292Y-96878213D01*
X152885288Y-96878210D01*
X152754185Y-96790609D01*
X152754172Y-96790602D01*
X152608501Y-96730264D01*
X152608489Y-96730261D01*
X152453845Y-96699500D01*
X152453842Y-96699500D01*
X152296158Y-96699500D01*
X152296155Y-96699500D01*
X152141510Y-96730261D01*
X152141498Y-96730264D01*
X151995827Y-96790602D01*
X151995814Y-96790609D01*
X151864711Y-96878210D01*
X151864707Y-96878213D01*
X151753213Y-96989707D01*
X151753210Y-96989711D01*
X151665609Y-97120814D01*
X151665602Y-97120827D01*
X151605264Y-97266498D01*
X151605261Y-97266510D01*
X151574500Y-97421153D01*
X151574500Y-97578846D01*
X151605261Y-97733489D01*
X151605264Y-97733501D01*
X151665602Y-97879172D01*
X151665609Y-97879185D01*
X151753210Y-98010288D01*
X151753213Y-98010292D01*
X151864707Y-98121786D01*
X151864711Y-98121789D01*
X151995814Y-98209390D01*
X151995827Y-98209397D01*
X152140185Y-98269191D01*
X152180414Y-98296071D01*
X152678453Y-98794111D01*
X152678454Y-98794112D01*
X152793190Y-98870776D01*
X152891790Y-98911617D01*
X152920671Y-98923580D01*
X152920672Y-98923580D01*
X152920677Y-98923582D01*
X152947545Y-98928925D01*
X152947551Y-98928926D01*
X152947591Y-98928934D01*
X153037937Y-98946905D01*
X153056006Y-98950500D01*
X153056007Y-98950500D01*
X154675500Y-98950500D01*
X154742539Y-98970185D01*
X154788294Y-99022989D01*
X154799500Y-99074500D01*
X154799500Y-101858481D01*
X154779815Y-101925520D01*
X154763181Y-101946162D01*
X153696162Y-103013181D01*
X153634839Y-103046666D01*
X153608481Y-103049500D01*
X152675316Y-103049500D01*
X152627864Y-103040061D01*
X152483501Y-102980264D01*
X152483489Y-102980261D01*
X152328845Y-102949500D01*
X152328842Y-102949500D01*
X152171158Y-102949500D01*
X152171155Y-102949500D01*
X152016510Y-102980261D01*
X152016498Y-102980264D01*
X151870827Y-103040602D01*
X151870814Y-103040609D01*
X151739711Y-103128210D01*
X151739707Y-103128213D01*
X151628213Y-103239707D01*
X151628210Y-103239711D01*
X151540609Y-103370814D01*
X151540602Y-103370827D01*
X151480264Y-103516498D01*
X151480261Y-103516510D01*
X151449500Y-103671153D01*
X138480242Y-103671153D01*
X138459939Y-103622136D01*
X138450500Y-103574684D01*
X138450500Y-99925316D01*
X138459939Y-99877864D01*
X138519735Y-99733501D01*
X138519737Y-99733497D01*
X138532138Y-99671153D01*
X143699500Y-99671153D01*
X143699500Y-99828846D01*
X143730261Y-99983489D01*
X143730264Y-99983501D01*
X143790061Y-100127864D01*
X143799500Y-100175316D01*
X143799500Y-101824684D01*
X143790061Y-101872136D01*
X143730264Y-102016498D01*
X143730261Y-102016510D01*
X143699500Y-102171153D01*
X143699500Y-102328846D01*
X143730261Y-102483489D01*
X143730264Y-102483501D01*
X143790602Y-102629172D01*
X143790609Y-102629185D01*
X143878210Y-102760288D01*
X143878213Y-102760292D01*
X143989707Y-102871786D01*
X143989711Y-102871789D01*
X144120814Y-102959390D01*
X144120827Y-102959397D01*
X144250675Y-103013181D01*
X144266503Y-103019737D01*
X144416131Y-103049500D01*
X144421153Y-103050499D01*
X144421156Y-103050500D01*
X144421158Y-103050500D01*
X144578844Y-103050500D01*
X144578845Y-103050499D01*
X144733497Y-103019737D01*
X144876543Y-102960486D01*
X144879172Y-102959397D01*
X144879172Y-102959396D01*
X144879179Y-102959394D01*
X145010289Y-102871789D01*
X145121789Y-102760289D01*
X145209394Y-102629179D01*
X145269737Y-102483497D01*
X145300500Y-102328842D01*
X145300500Y-102171158D01*
X145300500Y-102171155D01*
X145300499Y-102171153D01*
X145269738Y-102016510D01*
X145269737Y-102016503D01*
X145232051Y-101925520D01*
X145209939Y-101872136D01*
X145200500Y-101824684D01*
X145200500Y-100175316D01*
X145209939Y-100127864D01*
X145269735Y-99983501D01*
X145269737Y-99983497D01*
X145300500Y-99828842D01*
X145300500Y-99671158D01*
X145300500Y-99671155D01*
X145300499Y-99671153D01*
X145282137Y-99578842D01*
X145269737Y-99516503D01*
X145230242Y-99421153D01*
X145209397Y-99370827D01*
X145209390Y-99370814D01*
X145121789Y-99239711D01*
X145121786Y-99239707D01*
X145010292Y-99128213D01*
X145010288Y-99128210D01*
X144879185Y-99040609D01*
X144879172Y-99040602D01*
X144733501Y-98980264D01*
X144733489Y-98980261D01*
X144578845Y-98949500D01*
X144578842Y-98949500D01*
X144421158Y-98949500D01*
X144421155Y-98949500D01*
X144266510Y-98980261D01*
X144266498Y-98980264D01*
X144120827Y-99040602D01*
X144120814Y-99040609D01*
X143989711Y-99128210D01*
X143989707Y-99128213D01*
X143878213Y-99239707D01*
X143878210Y-99239711D01*
X143790609Y-99370814D01*
X143790602Y-99370827D01*
X143730264Y-99516498D01*
X143730261Y-99516510D01*
X143699500Y-99671153D01*
X138532138Y-99671153D01*
X138538161Y-99640874D01*
X138550500Y-99578844D01*
X138550500Y-99421155D01*
X138550499Y-99421153D01*
X138540486Y-99370814D01*
X138519737Y-99266503D01*
X138519735Y-99266498D01*
X138459397Y-99120827D01*
X138459390Y-99120814D01*
X138371789Y-98989711D01*
X138371786Y-98989707D01*
X138260292Y-98878213D01*
X138260288Y-98878210D01*
X138129185Y-98790609D01*
X138129172Y-98790602D01*
X137983501Y-98730264D01*
X137983489Y-98730261D01*
X137828845Y-98699500D01*
X137828842Y-98699500D01*
X137671158Y-98699500D01*
X137671155Y-98699500D01*
X137516510Y-98730261D01*
X137516498Y-98730264D01*
X137370827Y-98790602D01*
X137370814Y-98790609D01*
X137239711Y-98878210D01*
X137239707Y-98878213D01*
X137128213Y-98989707D01*
X137128210Y-98989711D01*
X137040609Y-99120814D01*
X137040602Y-99120827D01*
X136980264Y-99266498D01*
X136980261Y-99266510D01*
X136949500Y-99421153D01*
X122500500Y-99421153D01*
X122500500Y-91378711D01*
X124149500Y-91378711D01*
X124149500Y-91621288D01*
X124181161Y-91861785D01*
X124243947Y-92096104D01*
X124336773Y-92320205D01*
X124336776Y-92320212D01*
X124458064Y-92530289D01*
X124458066Y-92530292D01*
X124458067Y-92530293D01*
X124605733Y-92722736D01*
X124605739Y-92722743D01*
X124777256Y-92894260D01*
X124777262Y-92894265D01*
X124969711Y-93041936D01*
X125179788Y-93163224D01*
X125403900Y-93256054D01*
X125638211Y-93318838D01*
X125818586Y-93342584D01*
X125878711Y-93350500D01*
X125878712Y-93350500D01*
X126121289Y-93350500D01*
X126169388Y-93344167D01*
X126361789Y-93318838D01*
X126596100Y-93256054D01*
X126820212Y-93163224D01*
X127030289Y-93041936D01*
X127222738Y-92894265D01*
X127394265Y-92722738D01*
X127541936Y-92530289D01*
X127663224Y-92320212D01*
X127756054Y-92096100D01*
X127818838Y-91861789D01*
X127850500Y-91621288D01*
X127850500Y-91378712D01*
X127818838Y-91138211D01*
X127756054Y-90903900D01*
X127676782Y-90712519D01*
X127663227Y-90679794D01*
X127663222Y-90679785D01*
X127658241Y-90671158D01*
X127658238Y-90671153D01*
X146949500Y-90671153D01*
X146949500Y-90828846D01*
X146980261Y-90983489D01*
X146980264Y-90983501D01*
X147040602Y-91129172D01*
X147040609Y-91129185D01*
X147128210Y-91260288D01*
X147128213Y-91260292D01*
X147239707Y-91371786D01*
X147239711Y-91371789D01*
X147370814Y-91459390D01*
X147370827Y-91459397D01*
X147437031Y-91486819D01*
X147516503Y-91519737D01*
X147671153Y-91550499D01*
X147671156Y-91550500D01*
X147671158Y-91550500D01*
X147828844Y-91550500D01*
X147828845Y-91550499D01*
X147983497Y-91519737D01*
X148062969Y-91486819D01*
X148127864Y-91459939D01*
X148175316Y-91450500D01*
X164658481Y-91450500D01*
X164725520Y-91470185D01*
X164746162Y-91486819D01*
X167703927Y-94444583D01*
X167730807Y-94484812D01*
X167790602Y-94629172D01*
X167790609Y-94629185D01*
X167878210Y-94760288D01*
X167878213Y-94760292D01*
X167989707Y-94871786D01*
X167989711Y-94871789D01*
X168120814Y-94959390D01*
X168120827Y-94959397D01*
X168266498Y-95019735D01*
X168266503Y-95019737D01*
X168421153Y-95050499D01*
X168421156Y-95050500D01*
X168421158Y-95050500D01*
X168578844Y-95050500D01*
X168578845Y-95050499D01*
X168733497Y-95019737D01*
X168879179Y-94959394D01*
X169010289Y-94871789D01*
X169121789Y-94760289D01*
X169209394Y-94629179D01*
X169269737Y-94483497D01*
X169300500Y-94328842D01*
X169300500Y-94171158D01*
X169300500Y-94171155D01*
X169300499Y-94171153D01*
X169269738Y-94016510D01*
X169269737Y-94016503D01*
X169233981Y-93930179D01*
X169209397Y-93870827D01*
X169209390Y-93870814D01*
X169121789Y-93739711D01*
X169121786Y-93739707D01*
X169010292Y-93628213D01*
X169010288Y-93628210D01*
X168879185Y-93540609D01*
X168879172Y-93540602D01*
X168734812Y-93480807D01*
X168694583Y-93453927D01*
X166702991Y-91462334D01*
X166619368Y-91378711D01*
X172149500Y-91378711D01*
X172149500Y-91621288D01*
X172181161Y-91861785D01*
X172243947Y-92096104D01*
X172336773Y-92320205D01*
X172336776Y-92320212D01*
X172458064Y-92530289D01*
X172458066Y-92530292D01*
X172458067Y-92530293D01*
X172605733Y-92722736D01*
X172605739Y-92722743D01*
X172777256Y-92894260D01*
X172777262Y-92894265D01*
X172969711Y-93041936D01*
X173179788Y-93163224D01*
X173403900Y-93256054D01*
X173638211Y-93318838D01*
X173818586Y-93342584D01*
X173878711Y-93350500D01*
X173878712Y-93350500D01*
X174121289Y-93350500D01*
X174169388Y-93344167D01*
X174361789Y-93318838D01*
X174596100Y-93256054D01*
X174820212Y-93163224D01*
X175030289Y-93041936D01*
X175222738Y-92894265D01*
X175394265Y-92722738D01*
X175541936Y-92530289D01*
X175663224Y-92320212D01*
X175756054Y-92096100D01*
X175818838Y-91861789D01*
X175850500Y-91621288D01*
X175850500Y-91378712D01*
X175818838Y-91138211D01*
X175756054Y-90903900D01*
X175663224Y-90679788D01*
X175541936Y-90469711D01*
X175394265Y-90277262D01*
X175394260Y-90277256D01*
X175222743Y-90105739D01*
X175222736Y-90105733D01*
X175030293Y-89958067D01*
X175030292Y-89958066D01*
X175030289Y-89958064D01*
X174820212Y-89836776D01*
X174820205Y-89836773D01*
X174596104Y-89743947D01*
X174361785Y-89681161D01*
X174121289Y-89649500D01*
X174121288Y-89649500D01*
X173878712Y-89649500D01*
X173878711Y-89649500D01*
X173638214Y-89681161D01*
X173403895Y-89743947D01*
X173179794Y-89836773D01*
X173179785Y-89836777D01*
X172969706Y-89958067D01*
X172777263Y-90105733D01*
X172777256Y-90105739D01*
X172605739Y-90277256D01*
X172605733Y-90277263D01*
X172458067Y-90469706D01*
X172336777Y-90679785D01*
X172336773Y-90679794D01*
X172243947Y-90903895D01*
X172181161Y-91138214D01*
X172149500Y-91378711D01*
X166619368Y-91378711D01*
X165446546Y-90205888D01*
X165446545Y-90205887D01*
X165331807Y-90129222D01*
X165204332Y-90076421D01*
X165204322Y-90076418D01*
X165068996Y-90049500D01*
X165068994Y-90049500D01*
X165068993Y-90049500D01*
X148175316Y-90049500D01*
X148127864Y-90040061D01*
X147983501Y-89980264D01*
X147983489Y-89980261D01*
X147828845Y-89949500D01*
X147828842Y-89949500D01*
X147671158Y-89949500D01*
X147671155Y-89949500D01*
X147516510Y-89980261D01*
X147516498Y-89980264D01*
X147370827Y-90040602D01*
X147370814Y-90040609D01*
X147239711Y-90128210D01*
X147239707Y-90128213D01*
X147128213Y-90239707D01*
X147128210Y-90239711D01*
X147040609Y-90370814D01*
X147040602Y-90370827D01*
X146980264Y-90516498D01*
X146980261Y-90516510D01*
X146949500Y-90671153D01*
X127658238Y-90671153D01*
X127541936Y-90469711D01*
X127394265Y-90277262D01*
X127394260Y-90277256D01*
X127222743Y-90105739D01*
X127222736Y-90105733D01*
X127030293Y-89958067D01*
X127030292Y-89958066D01*
X127030289Y-89958064D01*
X126820212Y-89836776D01*
X126820205Y-89836773D01*
X126596104Y-89743947D01*
X126361785Y-89681161D01*
X126121289Y-89649500D01*
X126121288Y-89649500D01*
X125878712Y-89649500D01*
X125878711Y-89649500D01*
X125638214Y-89681161D01*
X125403895Y-89743947D01*
X125179794Y-89836773D01*
X125179785Y-89836777D01*
X124969706Y-89958067D01*
X124777263Y-90105733D01*
X124777256Y-90105739D01*
X124605739Y-90277256D01*
X124605733Y-90277263D01*
X124458067Y-90469706D01*
X124336777Y-90679785D01*
X124336773Y-90679794D01*
X124243947Y-90903895D01*
X124181161Y-91138214D01*
X124149500Y-91378711D01*
X122500500Y-91378711D01*
X122500500Y-88124500D01*
X122520185Y-88057461D01*
X122572989Y-88011706D01*
X122624500Y-88000500D01*
X177375500Y-88000500D01*
X177442539Y-88020185D01*
G37*
%TD.AperFunction*%
%TD*%
M02*
