%TF.GenerationSoftware,KiCad,Pcbnew,9.0.1-1.fc42*%
%TF.CreationDate,2025-04-12T13:57:24+02:00*%
%TF.ProjectId,ADF4158_PCB,41444634-3135-4385-9f50-43422e6b6963,rev?*%
%TF.SameCoordinates,Original*%
%TF.FileFunction,Legend,Top*%
%TF.FilePolarity,Positive*%
%FSLAX46Y46*%
G04 Gerber Fmt 4.6, Leading zero omitted, Abs format (unit mm)*
G04 Created by KiCad (PCBNEW 9.0.1-1.fc42) date 2025-04-12 13:57:24*
%MOMM*%
%LPD*%
G01*
G04 APERTURE LIST*
%ADD10C,0.150000*%
%ADD11C,0.120000*%
%ADD12C,0.100000*%
G04 APERTURE END LIST*
D10*
X172666666Y-87754819D02*
X172333333Y-87278628D01*
X172095238Y-87754819D02*
X172095238Y-86754819D01*
X172095238Y-86754819D02*
X172476190Y-86754819D01*
X172476190Y-86754819D02*
X172571428Y-86802438D01*
X172571428Y-86802438D02*
X172619047Y-86850057D01*
X172619047Y-86850057D02*
X172666666Y-86945295D01*
X172666666Y-86945295D02*
X172666666Y-87088152D01*
X172666666Y-87088152D02*
X172619047Y-87183390D01*
X172619047Y-87183390D02*
X172571428Y-87231009D01*
X172571428Y-87231009D02*
X172476190Y-87278628D01*
X172476190Y-87278628D02*
X172095238Y-87278628D01*
X173095238Y-87231009D02*
X173428571Y-87231009D01*
X173571428Y-87754819D02*
X173095238Y-87754819D01*
X173095238Y-87754819D02*
X173095238Y-86754819D01*
X173095238Y-86754819D02*
X173571428Y-86754819D01*
X174333333Y-87231009D02*
X174000000Y-87231009D01*
X174000000Y-87754819D02*
X174000000Y-86754819D01*
X174000000Y-86754819D02*
X174476190Y-86754819D01*
X175000000Y-86754819D02*
X175000000Y-86992914D01*
X174761905Y-86897676D02*
X175000000Y-86992914D01*
X175000000Y-86992914D02*
X175238095Y-86897676D01*
X174857143Y-87183390D02*
X175000000Y-86992914D01*
X175000000Y-86992914D02*
X175142857Y-87183390D01*
X175761905Y-86754819D02*
X175761905Y-86992914D01*
X175523810Y-86897676D02*
X175761905Y-86992914D01*
X175761905Y-86992914D02*
X176000000Y-86897676D01*
X175619048Y-87183390D02*
X175761905Y-86992914D01*
X175761905Y-86992914D02*
X175904762Y-87183390D01*
X124666666Y-87754819D02*
X124333333Y-87278628D01*
X124095238Y-87754819D02*
X124095238Y-86754819D01*
X124095238Y-86754819D02*
X124476190Y-86754819D01*
X124476190Y-86754819D02*
X124571428Y-86802438D01*
X124571428Y-86802438D02*
X124619047Y-86850057D01*
X124619047Y-86850057D02*
X124666666Y-86945295D01*
X124666666Y-86945295D02*
X124666666Y-87088152D01*
X124666666Y-87088152D02*
X124619047Y-87183390D01*
X124619047Y-87183390D02*
X124571428Y-87231009D01*
X124571428Y-87231009D02*
X124476190Y-87278628D01*
X124476190Y-87278628D02*
X124095238Y-87278628D01*
X125095238Y-87231009D02*
X125428571Y-87231009D01*
X125571428Y-87754819D02*
X125095238Y-87754819D01*
X125095238Y-87754819D02*
X125095238Y-86754819D01*
X125095238Y-86754819D02*
X125571428Y-86754819D01*
X126333333Y-87231009D02*
X126000000Y-87231009D01*
X126000000Y-87754819D02*
X126000000Y-86754819D01*
X126000000Y-86754819D02*
X126476190Y-86754819D01*
X127000000Y-86754819D02*
X127000000Y-86992914D01*
X126761905Y-86897676D02*
X127000000Y-86992914D01*
X127000000Y-86992914D02*
X127238095Y-86897676D01*
X126857143Y-87183390D02*
X127000000Y-86992914D01*
X127000000Y-86992914D02*
X127142857Y-87183390D01*
X127761905Y-86754819D02*
X127761905Y-86992914D01*
X127523810Y-86897676D02*
X127761905Y-86992914D01*
X127761905Y-86992914D02*
X128000000Y-86897676D01*
X127619048Y-87183390D02*
X127761905Y-86992914D01*
X127761905Y-86992914D02*
X127904762Y-87183390D01*
X125166666Y-105754819D02*
X124833333Y-105278628D01*
X124595238Y-105754819D02*
X124595238Y-104754819D01*
X124595238Y-104754819D02*
X124976190Y-104754819D01*
X124976190Y-104754819D02*
X125071428Y-104802438D01*
X125071428Y-104802438D02*
X125119047Y-104850057D01*
X125119047Y-104850057D02*
X125166666Y-104945295D01*
X125166666Y-104945295D02*
X125166666Y-105088152D01*
X125166666Y-105088152D02*
X125119047Y-105183390D01*
X125119047Y-105183390D02*
X125071428Y-105231009D01*
X125071428Y-105231009D02*
X124976190Y-105278628D01*
X124976190Y-105278628D02*
X124595238Y-105278628D01*
X125595238Y-105231009D02*
X125928571Y-105231009D01*
X126071428Y-105754819D02*
X125595238Y-105754819D01*
X125595238Y-105754819D02*
X125595238Y-104754819D01*
X125595238Y-104754819D02*
X126071428Y-104754819D01*
X126833333Y-105231009D02*
X126500000Y-105231009D01*
X126500000Y-105754819D02*
X126500000Y-104754819D01*
X126500000Y-104754819D02*
X126976190Y-104754819D01*
X127500000Y-104754819D02*
X127500000Y-104992914D01*
X127261905Y-104897676D02*
X127500000Y-104992914D01*
X127500000Y-104992914D02*
X127738095Y-104897676D01*
X127357143Y-105183390D02*
X127500000Y-104992914D01*
X127500000Y-104992914D02*
X127642857Y-105183390D01*
X128261905Y-104754819D02*
X128261905Y-104992914D01*
X128023810Y-104897676D02*
X128261905Y-104992914D01*
X128261905Y-104992914D02*
X128500000Y-104897676D01*
X128119048Y-105183390D02*
X128261905Y-104992914D01*
X128261905Y-104992914D02*
X128404762Y-105183390D01*
X140988095Y-97954819D02*
X140988095Y-98764342D01*
X140988095Y-98764342D02*
X141035714Y-98859580D01*
X141035714Y-98859580D02*
X141083333Y-98907200D01*
X141083333Y-98907200D02*
X141178571Y-98954819D01*
X141178571Y-98954819D02*
X141369047Y-98954819D01*
X141369047Y-98954819D02*
X141464285Y-98907200D01*
X141464285Y-98907200D02*
X141511904Y-98859580D01*
X141511904Y-98859580D02*
X141559523Y-98764342D01*
X141559523Y-98764342D02*
X141559523Y-97954819D01*
X142464285Y-98288152D02*
X142464285Y-98954819D01*
X142226190Y-97907200D02*
X141988095Y-98621485D01*
X141988095Y-98621485D02*
X142607142Y-98621485D01*
X153367142Y-110124819D02*
X153033809Y-109648628D01*
X152795714Y-110124819D02*
X152795714Y-109124819D01*
X152795714Y-109124819D02*
X153176666Y-109124819D01*
X153176666Y-109124819D02*
X153271904Y-109172438D01*
X153271904Y-109172438D02*
X153319523Y-109220057D01*
X153319523Y-109220057D02*
X153367142Y-109315295D01*
X153367142Y-109315295D02*
X153367142Y-109458152D01*
X153367142Y-109458152D02*
X153319523Y-109553390D01*
X153319523Y-109553390D02*
X153271904Y-109601009D01*
X153271904Y-109601009D02*
X153176666Y-109648628D01*
X153176666Y-109648628D02*
X152795714Y-109648628D01*
X154319523Y-110124819D02*
X153748095Y-110124819D01*
X154033809Y-110124819D02*
X154033809Y-109124819D01*
X154033809Y-109124819D02*
X153938571Y-109267676D01*
X153938571Y-109267676D02*
X153843333Y-109362914D01*
X153843333Y-109362914D02*
X153748095Y-109410533D01*
X154795714Y-110124819D02*
X154986190Y-110124819D01*
X154986190Y-110124819D02*
X155081428Y-110077200D01*
X155081428Y-110077200D02*
X155129047Y-110029580D01*
X155129047Y-110029580D02*
X155224285Y-109886723D01*
X155224285Y-109886723D02*
X155271904Y-109696247D01*
X155271904Y-109696247D02*
X155271904Y-109315295D01*
X155271904Y-109315295D02*
X155224285Y-109220057D01*
X155224285Y-109220057D02*
X155176666Y-109172438D01*
X155176666Y-109172438D02*
X155081428Y-109124819D01*
X155081428Y-109124819D02*
X154890952Y-109124819D01*
X154890952Y-109124819D02*
X154795714Y-109172438D01*
X154795714Y-109172438D02*
X154748095Y-109220057D01*
X154748095Y-109220057D02*
X154700476Y-109315295D01*
X154700476Y-109315295D02*
X154700476Y-109553390D01*
X154700476Y-109553390D02*
X154748095Y-109648628D01*
X154748095Y-109648628D02*
X154795714Y-109696247D01*
X154795714Y-109696247D02*
X154890952Y-109743866D01*
X154890952Y-109743866D02*
X155081428Y-109743866D01*
X155081428Y-109743866D02*
X155176666Y-109696247D01*
X155176666Y-109696247D02*
X155224285Y-109648628D01*
X155224285Y-109648628D02*
X155271904Y-109553390D01*
X149609580Y-94916666D02*
X149657200Y-94964285D01*
X149657200Y-94964285D02*
X149704819Y-95107142D01*
X149704819Y-95107142D02*
X149704819Y-95202380D01*
X149704819Y-95202380D02*
X149657200Y-95345237D01*
X149657200Y-95345237D02*
X149561961Y-95440475D01*
X149561961Y-95440475D02*
X149466723Y-95488094D01*
X149466723Y-95488094D02*
X149276247Y-95535713D01*
X149276247Y-95535713D02*
X149133390Y-95535713D01*
X149133390Y-95535713D02*
X148942914Y-95488094D01*
X148942914Y-95488094D02*
X148847676Y-95440475D01*
X148847676Y-95440475D02*
X148752438Y-95345237D01*
X148752438Y-95345237D02*
X148704819Y-95202380D01*
X148704819Y-95202380D02*
X148704819Y-95107142D01*
X148704819Y-95107142D02*
X148752438Y-94964285D01*
X148752438Y-94964285D02*
X148800057Y-94916666D01*
X149704819Y-94440475D02*
X149704819Y-94249999D01*
X149704819Y-94249999D02*
X149657200Y-94154761D01*
X149657200Y-94154761D02*
X149609580Y-94107142D01*
X149609580Y-94107142D02*
X149466723Y-94011904D01*
X149466723Y-94011904D02*
X149276247Y-93964285D01*
X149276247Y-93964285D02*
X148895295Y-93964285D01*
X148895295Y-93964285D02*
X148800057Y-94011904D01*
X148800057Y-94011904D02*
X148752438Y-94059523D01*
X148752438Y-94059523D02*
X148704819Y-94154761D01*
X148704819Y-94154761D02*
X148704819Y-94345237D01*
X148704819Y-94345237D02*
X148752438Y-94440475D01*
X148752438Y-94440475D02*
X148800057Y-94488094D01*
X148800057Y-94488094D02*
X148895295Y-94535713D01*
X148895295Y-94535713D02*
X149133390Y-94535713D01*
X149133390Y-94535713D02*
X149228628Y-94488094D01*
X149228628Y-94488094D02*
X149276247Y-94440475D01*
X149276247Y-94440475D02*
X149323866Y-94345237D01*
X149323866Y-94345237D02*
X149323866Y-94154761D01*
X149323866Y-94154761D02*
X149276247Y-94059523D01*
X149276247Y-94059523D02*
X149228628Y-94011904D01*
X149228628Y-94011904D02*
X149133390Y-93964285D01*
X158273809Y-106228628D02*
X158273809Y-106704819D01*
X157940476Y-105704819D02*
X158273809Y-106228628D01*
X158273809Y-106228628D02*
X158607142Y-105704819D01*
X159464285Y-106704819D02*
X158892857Y-106704819D01*
X159178571Y-106704819D02*
X159178571Y-105704819D01*
X159178571Y-105704819D02*
X159083333Y-105847676D01*
X159083333Y-105847676D02*
X158988095Y-105942914D01*
X158988095Y-105942914D02*
X158892857Y-105990533D01*
X139083333Y-91609580D02*
X139035714Y-91657200D01*
X139035714Y-91657200D02*
X138892857Y-91704819D01*
X138892857Y-91704819D02*
X138797619Y-91704819D01*
X138797619Y-91704819D02*
X138654762Y-91657200D01*
X138654762Y-91657200D02*
X138559524Y-91561961D01*
X138559524Y-91561961D02*
X138511905Y-91466723D01*
X138511905Y-91466723D02*
X138464286Y-91276247D01*
X138464286Y-91276247D02*
X138464286Y-91133390D01*
X138464286Y-91133390D02*
X138511905Y-90942914D01*
X138511905Y-90942914D02*
X138559524Y-90847676D01*
X138559524Y-90847676D02*
X138654762Y-90752438D01*
X138654762Y-90752438D02*
X138797619Y-90704819D01*
X138797619Y-90704819D02*
X138892857Y-90704819D01*
X138892857Y-90704819D02*
X139035714Y-90752438D01*
X139035714Y-90752438D02*
X139083333Y-90800057D01*
X139654762Y-91133390D02*
X139559524Y-91085771D01*
X139559524Y-91085771D02*
X139511905Y-91038152D01*
X139511905Y-91038152D02*
X139464286Y-90942914D01*
X139464286Y-90942914D02*
X139464286Y-90895295D01*
X139464286Y-90895295D02*
X139511905Y-90800057D01*
X139511905Y-90800057D02*
X139559524Y-90752438D01*
X139559524Y-90752438D02*
X139654762Y-90704819D01*
X139654762Y-90704819D02*
X139845238Y-90704819D01*
X139845238Y-90704819D02*
X139940476Y-90752438D01*
X139940476Y-90752438D02*
X139988095Y-90800057D01*
X139988095Y-90800057D02*
X140035714Y-90895295D01*
X140035714Y-90895295D02*
X140035714Y-90942914D01*
X140035714Y-90942914D02*
X139988095Y-91038152D01*
X139988095Y-91038152D02*
X139940476Y-91085771D01*
X139940476Y-91085771D02*
X139845238Y-91133390D01*
X139845238Y-91133390D02*
X139654762Y-91133390D01*
X139654762Y-91133390D02*
X139559524Y-91181009D01*
X139559524Y-91181009D02*
X139511905Y-91228628D01*
X139511905Y-91228628D02*
X139464286Y-91323866D01*
X139464286Y-91323866D02*
X139464286Y-91514342D01*
X139464286Y-91514342D02*
X139511905Y-91609580D01*
X139511905Y-91609580D02*
X139559524Y-91657200D01*
X139559524Y-91657200D02*
X139654762Y-91704819D01*
X139654762Y-91704819D02*
X139845238Y-91704819D01*
X139845238Y-91704819D02*
X139940476Y-91657200D01*
X139940476Y-91657200D02*
X139988095Y-91609580D01*
X139988095Y-91609580D02*
X140035714Y-91514342D01*
X140035714Y-91514342D02*
X140035714Y-91323866D01*
X140035714Y-91323866D02*
X139988095Y-91228628D01*
X139988095Y-91228628D02*
X139940476Y-91181009D01*
X139940476Y-91181009D02*
X139845238Y-91133390D01*
X163835783Y-89954819D02*
X163502450Y-89478628D01*
X163264355Y-89954819D02*
X163264355Y-88954819D01*
X163264355Y-88954819D02*
X163645307Y-88954819D01*
X163645307Y-88954819D02*
X163740545Y-89002438D01*
X163740545Y-89002438D02*
X163788164Y-89050057D01*
X163788164Y-89050057D02*
X163835783Y-89145295D01*
X163835783Y-89145295D02*
X163835783Y-89288152D01*
X163835783Y-89288152D02*
X163788164Y-89383390D01*
X163788164Y-89383390D02*
X163740545Y-89431009D01*
X163740545Y-89431009D02*
X163645307Y-89478628D01*
X163645307Y-89478628D02*
X163264355Y-89478628D01*
X164788164Y-89954819D02*
X164216736Y-89954819D01*
X164502450Y-89954819D02*
X164502450Y-88954819D01*
X164502450Y-88954819D02*
X164407212Y-89097676D01*
X164407212Y-89097676D02*
X164311974Y-89192914D01*
X164311974Y-89192914D02*
X164216736Y-89240533D01*
X165121498Y-88954819D02*
X165740545Y-88954819D01*
X165740545Y-88954819D02*
X165407212Y-89335771D01*
X165407212Y-89335771D02*
X165550069Y-89335771D01*
X165550069Y-89335771D02*
X165645307Y-89383390D01*
X165645307Y-89383390D02*
X165692926Y-89431009D01*
X165692926Y-89431009D02*
X165740545Y-89526247D01*
X165740545Y-89526247D02*
X165740545Y-89764342D01*
X165740545Y-89764342D02*
X165692926Y-89859580D01*
X165692926Y-89859580D02*
X165645307Y-89907200D01*
X165645307Y-89907200D02*
X165550069Y-89954819D01*
X165550069Y-89954819D02*
X165264355Y-89954819D01*
X165264355Y-89954819D02*
X165169117Y-89907200D01*
X165169117Y-89907200D02*
X165121498Y-89859580D01*
X144204819Y-99511904D02*
X145014342Y-99511904D01*
X145014342Y-99511904D02*
X145109580Y-99464285D01*
X145109580Y-99464285D02*
X145157200Y-99416666D01*
X145157200Y-99416666D02*
X145204819Y-99321428D01*
X145204819Y-99321428D02*
X145204819Y-99130952D01*
X145204819Y-99130952D02*
X145157200Y-99035714D01*
X145157200Y-99035714D02*
X145109580Y-98988095D01*
X145109580Y-98988095D02*
X145014342Y-98940476D01*
X145014342Y-98940476D02*
X144204819Y-98940476D01*
X144204819Y-97988095D02*
X144204819Y-98464285D01*
X144204819Y-98464285D02*
X144681009Y-98511904D01*
X144681009Y-98511904D02*
X144633390Y-98464285D01*
X144633390Y-98464285D02*
X144585771Y-98369047D01*
X144585771Y-98369047D02*
X144585771Y-98130952D01*
X144585771Y-98130952D02*
X144633390Y-98035714D01*
X144633390Y-98035714D02*
X144681009Y-97988095D01*
X144681009Y-97988095D02*
X144776247Y-97940476D01*
X144776247Y-97940476D02*
X145014342Y-97940476D01*
X145014342Y-97940476D02*
X145109580Y-97988095D01*
X145109580Y-97988095D02*
X145157200Y-98035714D01*
X145157200Y-98035714D02*
X145204819Y-98130952D01*
X145204819Y-98130952D02*
X145204819Y-98369047D01*
X145204819Y-98369047D02*
X145157200Y-98464285D01*
X145157200Y-98464285D02*
X145109580Y-98511904D01*
X152738095Y-91954819D02*
X153309523Y-91954819D01*
X153023809Y-92954819D02*
X153023809Y-91954819D01*
X153642857Y-92954819D02*
X153642857Y-91954819D01*
X153642857Y-91954819D02*
X154023809Y-91954819D01*
X154023809Y-91954819D02*
X154119047Y-92002438D01*
X154119047Y-92002438D02*
X154166666Y-92050057D01*
X154166666Y-92050057D02*
X154214285Y-92145295D01*
X154214285Y-92145295D02*
X154214285Y-92288152D01*
X154214285Y-92288152D02*
X154166666Y-92383390D01*
X154166666Y-92383390D02*
X154119047Y-92431009D01*
X154119047Y-92431009D02*
X154023809Y-92478628D01*
X154023809Y-92478628D02*
X153642857Y-92478628D01*
X155166666Y-92954819D02*
X154595238Y-92954819D01*
X154880952Y-92954819D02*
X154880952Y-91954819D01*
X154880952Y-91954819D02*
X154785714Y-92097676D01*
X154785714Y-92097676D02*
X154690476Y-92192914D01*
X154690476Y-92192914D02*
X154595238Y-92240533D01*
X136096974Y-90954819D02*
X135763641Y-90478628D01*
X135525546Y-90954819D02*
X135525546Y-89954819D01*
X135525546Y-89954819D02*
X135906498Y-89954819D01*
X135906498Y-89954819D02*
X136001736Y-90002438D01*
X136001736Y-90002438D02*
X136049355Y-90050057D01*
X136049355Y-90050057D02*
X136096974Y-90145295D01*
X136096974Y-90145295D02*
X136096974Y-90288152D01*
X136096974Y-90288152D02*
X136049355Y-90383390D01*
X136049355Y-90383390D02*
X136001736Y-90431009D01*
X136001736Y-90431009D02*
X135906498Y-90478628D01*
X135906498Y-90478628D02*
X135525546Y-90478628D01*
X136954117Y-89954819D02*
X136763641Y-89954819D01*
X136763641Y-89954819D02*
X136668403Y-90002438D01*
X136668403Y-90002438D02*
X136620784Y-90050057D01*
X136620784Y-90050057D02*
X136525546Y-90192914D01*
X136525546Y-90192914D02*
X136477927Y-90383390D01*
X136477927Y-90383390D02*
X136477927Y-90764342D01*
X136477927Y-90764342D02*
X136525546Y-90859580D01*
X136525546Y-90859580D02*
X136573165Y-90907200D01*
X136573165Y-90907200D02*
X136668403Y-90954819D01*
X136668403Y-90954819D02*
X136858879Y-90954819D01*
X136858879Y-90954819D02*
X136954117Y-90907200D01*
X136954117Y-90907200D02*
X137001736Y-90859580D01*
X137001736Y-90859580D02*
X137049355Y-90764342D01*
X137049355Y-90764342D02*
X137049355Y-90526247D01*
X137049355Y-90526247D02*
X137001736Y-90431009D01*
X137001736Y-90431009D02*
X136954117Y-90383390D01*
X136954117Y-90383390D02*
X136858879Y-90335771D01*
X136858879Y-90335771D02*
X136668403Y-90335771D01*
X136668403Y-90335771D02*
X136573165Y-90383390D01*
X136573165Y-90383390D02*
X136525546Y-90431009D01*
X136525546Y-90431009D02*
X136477927Y-90526247D01*
X168857142Y-112704819D02*
X168523809Y-112228628D01*
X168285714Y-112704819D02*
X168285714Y-111704819D01*
X168285714Y-111704819D02*
X168666666Y-111704819D01*
X168666666Y-111704819D02*
X168761904Y-111752438D01*
X168761904Y-111752438D02*
X168809523Y-111800057D01*
X168809523Y-111800057D02*
X168857142Y-111895295D01*
X168857142Y-111895295D02*
X168857142Y-112038152D01*
X168857142Y-112038152D02*
X168809523Y-112133390D01*
X168809523Y-112133390D02*
X168761904Y-112181009D01*
X168761904Y-112181009D02*
X168666666Y-112228628D01*
X168666666Y-112228628D02*
X168285714Y-112228628D01*
X169238095Y-111800057D02*
X169285714Y-111752438D01*
X169285714Y-111752438D02*
X169380952Y-111704819D01*
X169380952Y-111704819D02*
X169619047Y-111704819D01*
X169619047Y-111704819D02*
X169714285Y-111752438D01*
X169714285Y-111752438D02*
X169761904Y-111800057D01*
X169761904Y-111800057D02*
X169809523Y-111895295D01*
X169809523Y-111895295D02*
X169809523Y-111990533D01*
X169809523Y-111990533D02*
X169761904Y-112133390D01*
X169761904Y-112133390D02*
X169190476Y-112704819D01*
X169190476Y-112704819D02*
X169809523Y-112704819D01*
X170666666Y-111704819D02*
X170476190Y-111704819D01*
X170476190Y-111704819D02*
X170380952Y-111752438D01*
X170380952Y-111752438D02*
X170333333Y-111800057D01*
X170333333Y-111800057D02*
X170238095Y-111942914D01*
X170238095Y-111942914D02*
X170190476Y-112133390D01*
X170190476Y-112133390D02*
X170190476Y-112514342D01*
X170190476Y-112514342D02*
X170238095Y-112609580D01*
X170238095Y-112609580D02*
X170285714Y-112657200D01*
X170285714Y-112657200D02*
X170380952Y-112704819D01*
X170380952Y-112704819D02*
X170571428Y-112704819D01*
X170571428Y-112704819D02*
X170666666Y-112657200D01*
X170666666Y-112657200D02*
X170714285Y-112609580D01*
X170714285Y-112609580D02*
X170761904Y-112514342D01*
X170761904Y-112514342D02*
X170761904Y-112276247D01*
X170761904Y-112276247D02*
X170714285Y-112181009D01*
X170714285Y-112181009D02*
X170666666Y-112133390D01*
X170666666Y-112133390D02*
X170571428Y-112085771D01*
X170571428Y-112085771D02*
X170380952Y-112085771D01*
X170380952Y-112085771D02*
X170285714Y-112133390D01*
X170285714Y-112133390D02*
X170238095Y-112181009D01*
X170238095Y-112181009D02*
X170190476Y-112276247D01*
X165833333Y-107954819D02*
X165357143Y-107954819D01*
X165357143Y-107954819D02*
X165357143Y-106954819D01*
X166690476Y-107954819D02*
X166119048Y-107954819D01*
X166404762Y-107954819D02*
X166404762Y-106954819D01*
X166404762Y-106954819D02*
X166309524Y-107097676D01*
X166309524Y-107097676D02*
X166214286Y-107192914D01*
X166214286Y-107192914D02*
X166119048Y-107240533D01*
X159359580Y-112142857D02*
X159407200Y-112190476D01*
X159407200Y-112190476D02*
X159454819Y-112333333D01*
X159454819Y-112333333D02*
X159454819Y-112428571D01*
X159454819Y-112428571D02*
X159407200Y-112571428D01*
X159407200Y-112571428D02*
X159311961Y-112666666D01*
X159311961Y-112666666D02*
X159216723Y-112714285D01*
X159216723Y-112714285D02*
X159026247Y-112761904D01*
X159026247Y-112761904D02*
X158883390Y-112761904D01*
X158883390Y-112761904D02*
X158692914Y-112714285D01*
X158692914Y-112714285D02*
X158597676Y-112666666D01*
X158597676Y-112666666D02*
X158502438Y-112571428D01*
X158502438Y-112571428D02*
X158454819Y-112428571D01*
X158454819Y-112428571D02*
X158454819Y-112333333D01*
X158454819Y-112333333D02*
X158502438Y-112190476D01*
X158502438Y-112190476D02*
X158550057Y-112142857D01*
X158550057Y-111761904D02*
X158502438Y-111714285D01*
X158502438Y-111714285D02*
X158454819Y-111619047D01*
X158454819Y-111619047D02*
X158454819Y-111380952D01*
X158454819Y-111380952D02*
X158502438Y-111285714D01*
X158502438Y-111285714D02*
X158550057Y-111238095D01*
X158550057Y-111238095D02*
X158645295Y-111190476D01*
X158645295Y-111190476D02*
X158740533Y-111190476D01*
X158740533Y-111190476D02*
X158883390Y-111238095D01*
X158883390Y-111238095D02*
X159454819Y-111809523D01*
X159454819Y-111809523D02*
X159454819Y-111190476D01*
X158883390Y-110619047D02*
X158835771Y-110714285D01*
X158835771Y-110714285D02*
X158788152Y-110761904D01*
X158788152Y-110761904D02*
X158692914Y-110809523D01*
X158692914Y-110809523D02*
X158645295Y-110809523D01*
X158645295Y-110809523D02*
X158550057Y-110761904D01*
X158550057Y-110761904D02*
X158502438Y-110714285D01*
X158502438Y-110714285D02*
X158454819Y-110619047D01*
X158454819Y-110619047D02*
X158454819Y-110428571D01*
X158454819Y-110428571D02*
X158502438Y-110333333D01*
X158502438Y-110333333D02*
X158550057Y-110285714D01*
X158550057Y-110285714D02*
X158645295Y-110238095D01*
X158645295Y-110238095D02*
X158692914Y-110238095D01*
X158692914Y-110238095D02*
X158788152Y-110285714D01*
X158788152Y-110285714D02*
X158835771Y-110333333D01*
X158835771Y-110333333D02*
X158883390Y-110428571D01*
X158883390Y-110428571D02*
X158883390Y-110619047D01*
X158883390Y-110619047D02*
X158931009Y-110714285D01*
X158931009Y-110714285D02*
X158978628Y-110761904D01*
X158978628Y-110761904D02*
X159073866Y-110809523D01*
X159073866Y-110809523D02*
X159264342Y-110809523D01*
X159264342Y-110809523D02*
X159359580Y-110761904D01*
X159359580Y-110761904D02*
X159407200Y-110714285D01*
X159407200Y-110714285D02*
X159454819Y-110619047D01*
X159454819Y-110619047D02*
X159454819Y-110428571D01*
X159454819Y-110428571D02*
X159407200Y-110333333D01*
X159407200Y-110333333D02*
X159359580Y-110285714D01*
X159359580Y-110285714D02*
X159264342Y-110238095D01*
X159264342Y-110238095D02*
X159073866Y-110238095D01*
X159073866Y-110238095D02*
X158978628Y-110285714D01*
X158978628Y-110285714D02*
X158931009Y-110333333D01*
X158931009Y-110333333D02*
X158883390Y-110428571D01*
X153266666Y-110454819D02*
X153266666Y-111169104D01*
X153266666Y-111169104D02*
X153219047Y-111311961D01*
X153219047Y-111311961D02*
X153123809Y-111407200D01*
X153123809Y-111407200D02*
X152980952Y-111454819D01*
X152980952Y-111454819D02*
X152885714Y-111454819D01*
X153647619Y-110454819D02*
X154266666Y-110454819D01*
X154266666Y-110454819D02*
X153933333Y-110835771D01*
X153933333Y-110835771D02*
X154076190Y-110835771D01*
X154076190Y-110835771D02*
X154171428Y-110883390D01*
X154171428Y-110883390D02*
X154219047Y-110931009D01*
X154219047Y-110931009D02*
X154266666Y-111026247D01*
X154266666Y-111026247D02*
X154266666Y-111264342D01*
X154266666Y-111264342D02*
X154219047Y-111359580D01*
X154219047Y-111359580D02*
X154171428Y-111407200D01*
X154171428Y-111407200D02*
X154076190Y-111454819D01*
X154076190Y-111454819D02*
X153790476Y-111454819D01*
X153790476Y-111454819D02*
X153695238Y-111407200D01*
X153695238Y-111407200D02*
X153647619Y-111359580D01*
X159124819Y-96402857D02*
X158648628Y-96736190D01*
X159124819Y-96974285D02*
X158124819Y-96974285D01*
X158124819Y-96974285D02*
X158124819Y-96593333D01*
X158124819Y-96593333D02*
X158172438Y-96498095D01*
X158172438Y-96498095D02*
X158220057Y-96450476D01*
X158220057Y-96450476D02*
X158315295Y-96402857D01*
X158315295Y-96402857D02*
X158458152Y-96402857D01*
X158458152Y-96402857D02*
X158553390Y-96450476D01*
X158553390Y-96450476D02*
X158601009Y-96498095D01*
X158601009Y-96498095D02*
X158648628Y-96593333D01*
X158648628Y-96593333D02*
X158648628Y-96974285D01*
X159124819Y-95450476D02*
X159124819Y-96021904D01*
X159124819Y-95736190D02*
X158124819Y-95736190D01*
X158124819Y-95736190D02*
X158267676Y-95831428D01*
X158267676Y-95831428D02*
X158362914Y-95926666D01*
X158362914Y-95926666D02*
X158410533Y-96021904D01*
X158220057Y-95069523D02*
X158172438Y-95021904D01*
X158172438Y-95021904D02*
X158124819Y-94926666D01*
X158124819Y-94926666D02*
X158124819Y-94688571D01*
X158124819Y-94688571D02*
X158172438Y-94593333D01*
X158172438Y-94593333D02*
X158220057Y-94545714D01*
X158220057Y-94545714D02*
X158315295Y-94498095D01*
X158315295Y-94498095D02*
X158410533Y-94498095D01*
X158410533Y-94498095D02*
X158553390Y-94545714D01*
X158553390Y-94545714D02*
X159124819Y-95117142D01*
X159124819Y-95117142D02*
X159124819Y-94498095D01*
X145739692Y-90704819D02*
X145406359Y-90228628D01*
X145168264Y-90704819D02*
X145168264Y-89704819D01*
X145168264Y-89704819D02*
X145549216Y-89704819D01*
X145549216Y-89704819D02*
X145644454Y-89752438D01*
X145644454Y-89752438D02*
X145692073Y-89800057D01*
X145692073Y-89800057D02*
X145739692Y-89895295D01*
X145739692Y-89895295D02*
X145739692Y-90038152D01*
X145739692Y-90038152D02*
X145692073Y-90133390D01*
X145692073Y-90133390D02*
X145644454Y-90181009D01*
X145644454Y-90181009D02*
X145549216Y-90228628D01*
X145549216Y-90228628D02*
X145168264Y-90228628D01*
X146596835Y-90038152D02*
X146596835Y-90704819D01*
X146358740Y-89657200D02*
X146120645Y-90371485D01*
X146120645Y-90371485D02*
X146739692Y-90371485D01*
X166704819Y-97916666D02*
X166228628Y-98249999D01*
X166704819Y-98488094D02*
X165704819Y-98488094D01*
X165704819Y-98488094D02*
X165704819Y-98107142D01*
X165704819Y-98107142D02*
X165752438Y-98011904D01*
X165752438Y-98011904D02*
X165800057Y-97964285D01*
X165800057Y-97964285D02*
X165895295Y-97916666D01*
X165895295Y-97916666D02*
X166038152Y-97916666D01*
X166038152Y-97916666D02*
X166133390Y-97964285D01*
X166133390Y-97964285D02*
X166181009Y-98011904D01*
X166181009Y-98011904D02*
X166228628Y-98107142D01*
X166228628Y-98107142D02*
X166228628Y-98488094D01*
X166133390Y-97345237D02*
X166085771Y-97440475D01*
X166085771Y-97440475D02*
X166038152Y-97488094D01*
X166038152Y-97488094D02*
X165942914Y-97535713D01*
X165942914Y-97535713D02*
X165895295Y-97535713D01*
X165895295Y-97535713D02*
X165800057Y-97488094D01*
X165800057Y-97488094D02*
X165752438Y-97440475D01*
X165752438Y-97440475D02*
X165704819Y-97345237D01*
X165704819Y-97345237D02*
X165704819Y-97154761D01*
X165704819Y-97154761D02*
X165752438Y-97059523D01*
X165752438Y-97059523D02*
X165800057Y-97011904D01*
X165800057Y-97011904D02*
X165895295Y-96964285D01*
X165895295Y-96964285D02*
X165942914Y-96964285D01*
X165942914Y-96964285D02*
X166038152Y-97011904D01*
X166038152Y-97011904D02*
X166085771Y-97059523D01*
X166085771Y-97059523D02*
X166133390Y-97154761D01*
X166133390Y-97154761D02*
X166133390Y-97345237D01*
X166133390Y-97345237D02*
X166181009Y-97440475D01*
X166181009Y-97440475D02*
X166228628Y-97488094D01*
X166228628Y-97488094D02*
X166323866Y-97535713D01*
X166323866Y-97535713D02*
X166514342Y-97535713D01*
X166514342Y-97535713D02*
X166609580Y-97488094D01*
X166609580Y-97488094D02*
X166657200Y-97440475D01*
X166657200Y-97440475D02*
X166704819Y-97345237D01*
X166704819Y-97345237D02*
X166704819Y-97154761D01*
X166704819Y-97154761D02*
X166657200Y-97059523D01*
X166657200Y-97059523D02*
X166609580Y-97011904D01*
X166609580Y-97011904D02*
X166514342Y-96964285D01*
X166514342Y-96964285D02*
X166323866Y-96964285D01*
X166323866Y-96964285D02*
X166228628Y-97011904D01*
X166228628Y-97011904D02*
X166181009Y-97059523D01*
X166181009Y-97059523D02*
X166133390Y-97154761D01*
X157954819Y-112142857D02*
X157478628Y-112476190D01*
X157954819Y-112714285D02*
X156954819Y-112714285D01*
X156954819Y-112714285D02*
X156954819Y-112333333D01*
X156954819Y-112333333D02*
X157002438Y-112238095D01*
X157002438Y-112238095D02*
X157050057Y-112190476D01*
X157050057Y-112190476D02*
X157145295Y-112142857D01*
X157145295Y-112142857D02*
X157288152Y-112142857D01*
X157288152Y-112142857D02*
X157383390Y-112190476D01*
X157383390Y-112190476D02*
X157431009Y-112238095D01*
X157431009Y-112238095D02*
X157478628Y-112333333D01*
X157478628Y-112333333D02*
X157478628Y-112714285D01*
X157050057Y-111761904D02*
X157002438Y-111714285D01*
X157002438Y-111714285D02*
X156954819Y-111619047D01*
X156954819Y-111619047D02*
X156954819Y-111380952D01*
X156954819Y-111380952D02*
X157002438Y-111285714D01*
X157002438Y-111285714D02*
X157050057Y-111238095D01*
X157050057Y-111238095D02*
X157145295Y-111190476D01*
X157145295Y-111190476D02*
X157240533Y-111190476D01*
X157240533Y-111190476D02*
X157383390Y-111238095D01*
X157383390Y-111238095D02*
X157954819Y-111809523D01*
X157954819Y-111809523D02*
X157954819Y-111190476D01*
X156954819Y-110857142D02*
X156954819Y-110190476D01*
X156954819Y-110190476D02*
X157954819Y-110619047D01*
X160125595Y-89954819D02*
X160125595Y-90764342D01*
X160125595Y-90764342D02*
X160173214Y-90859580D01*
X160173214Y-90859580D02*
X160220833Y-90907200D01*
X160220833Y-90907200D02*
X160316071Y-90954819D01*
X160316071Y-90954819D02*
X160506547Y-90954819D01*
X160506547Y-90954819D02*
X160601785Y-90907200D01*
X160601785Y-90907200D02*
X160649404Y-90859580D01*
X160649404Y-90859580D02*
X160697023Y-90764342D01*
X160697023Y-90764342D02*
X160697023Y-89954819D01*
X161077976Y-89954819D02*
X161697023Y-89954819D01*
X161697023Y-89954819D02*
X161363690Y-90335771D01*
X161363690Y-90335771D02*
X161506547Y-90335771D01*
X161506547Y-90335771D02*
X161601785Y-90383390D01*
X161601785Y-90383390D02*
X161649404Y-90431009D01*
X161649404Y-90431009D02*
X161697023Y-90526247D01*
X161697023Y-90526247D02*
X161697023Y-90764342D01*
X161697023Y-90764342D02*
X161649404Y-90859580D01*
X161649404Y-90859580D02*
X161601785Y-90907200D01*
X161601785Y-90907200D02*
X161506547Y-90954819D01*
X161506547Y-90954819D02*
X161220833Y-90954819D01*
X161220833Y-90954819D02*
X161125595Y-90907200D01*
X161125595Y-90907200D02*
X161077976Y-90859580D01*
X154657142Y-112559580D02*
X154609523Y-112607200D01*
X154609523Y-112607200D02*
X154466666Y-112654819D01*
X154466666Y-112654819D02*
X154371428Y-112654819D01*
X154371428Y-112654819D02*
X154228571Y-112607200D01*
X154228571Y-112607200D02*
X154133333Y-112511961D01*
X154133333Y-112511961D02*
X154085714Y-112416723D01*
X154085714Y-112416723D02*
X154038095Y-112226247D01*
X154038095Y-112226247D02*
X154038095Y-112083390D01*
X154038095Y-112083390D02*
X154085714Y-111892914D01*
X154085714Y-111892914D02*
X154133333Y-111797676D01*
X154133333Y-111797676D02*
X154228571Y-111702438D01*
X154228571Y-111702438D02*
X154371428Y-111654819D01*
X154371428Y-111654819D02*
X154466666Y-111654819D01*
X154466666Y-111654819D02*
X154609523Y-111702438D01*
X154609523Y-111702438D02*
X154657142Y-111750057D01*
X155038095Y-111750057D02*
X155085714Y-111702438D01*
X155085714Y-111702438D02*
X155180952Y-111654819D01*
X155180952Y-111654819D02*
X155419047Y-111654819D01*
X155419047Y-111654819D02*
X155514285Y-111702438D01*
X155514285Y-111702438D02*
X155561904Y-111750057D01*
X155561904Y-111750057D02*
X155609523Y-111845295D01*
X155609523Y-111845295D02*
X155609523Y-111940533D01*
X155609523Y-111940533D02*
X155561904Y-112083390D01*
X155561904Y-112083390D02*
X154990476Y-112654819D01*
X154990476Y-112654819D02*
X155609523Y-112654819D01*
X156085714Y-112654819D02*
X156276190Y-112654819D01*
X156276190Y-112654819D02*
X156371428Y-112607200D01*
X156371428Y-112607200D02*
X156419047Y-112559580D01*
X156419047Y-112559580D02*
X156514285Y-112416723D01*
X156514285Y-112416723D02*
X156561904Y-112226247D01*
X156561904Y-112226247D02*
X156561904Y-111845295D01*
X156561904Y-111845295D02*
X156514285Y-111750057D01*
X156514285Y-111750057D02*
X156466666Y-111702438D01*
X156466666Y-111702438D02*
X156371428Y-111654819D01*
X156371428Y-111654819D02*
X156180952Y-111654819D01*
X156180952Y-111654819D02*
X156085714Y-111702438D01*
X156085714Y-111702438D02*
X156038095Y-111750057D01*
X156038095Y-111750057D02*
X155990476Y-111845295D01*
X155990476Y-111845295D02*
X155990476Y-112083390D01*
X155990476Y-112083390D02*
X156038095Y-112178628D01*
X156038095Y-112178628D02*
X156085714Y-112226247D01*
X156085714Y-112226247D02*
X156180952Y-112273866D01*
X156180952Y-112273866D02*
X156371428Y-112273866D01*
X156371428Y-112273866D02*
X156466666Y-112226247D01*
X156466666Y-112226247D02*
X156514285Y-112178628D01*
X156514285Y-112178628D02*
X156561904Y-112083390D01*
X156609580Y-92892857D02*
X156657200Y-92940476D01*
X156657200Y-92940476D02*
X156704819Y-93083333D01*
X156704819Y-93083333D02*
X156704819Y-93178571D01*
X156704819Y-93178571D02*
X156657200Y-93321428D01*
X156657200Y-93321428D02*
X156561961Y-93416666D01*
X156561961Y-93416666D02*
X156466723Y-93464285D01*
X156466723Y-93464285D02*
X156276247Y-93511904D01*
X156276247Y-93511904D02*
X156133390Y-93511904D01*
X156133390Y-93511904D02*
X155942914Y-93464285D01*
X155942914Y-93464285D02*
X155847676Y-93416666D01*
X155847676Y-93416666D02*
X155752438Y-93321428D01*
X155752438Y-93321428D02*
X155704819Y-93178571D01*
X155704819Y-93178571D02*
X155704819Y-93083333D01*
X155704819Y-93083333D02*
X155752438Y-92940476D01*
X155752438Y-92940476D02*
X155800057Y-92892857D01*
X156704819Y-91940476D02*
X156704819Y-92511904D01*
X156704819Y-92226190D02*
X155704819Y-92226190D01*
X155704819Y-92226190D02*
X155847676Y-92321428D01*
X155847676Y-92321428D02*
X155942914Y-92416666D01*
X155942914Y-92416666D02*
X155990533Y-92511904D01*
X155704819Y-91607142D02*
X155704819Y-90988095D01*
X155704819Y-90988095D02*
X156085771Y-91321428D01*
X156085771Y-91321428D02*
X156085771Y-91178571D01*
X156085771Y-91178571D02*
X156133390Y-91083333D01*
X156133390Y-91083333D02*
X156181009Y-91035714D01*
X156181009Y-91035714D02*
X156276247Y-90988095D01*
X156276247Y-90988095D02*
X156514342Y-90988095D01*
X156514342Y-90988095D02*
X156609580Y-91035714D01*
X156609580Y-91035714D02*
X156657200Y-91083333D01*
X156657200Y-91083333D02*
X156704819Y-91178571D01*
X156704819Y-91178571D02*
X156704819Y-91464285D01*
X156704819Y-91464285D02*
X156657200Y-91559523D01*
X156657200Y-91559523D02*
X156609580Y-91607142D01*
X148454819Y-95166666D02*
X147978628Y-95499999D01*
X148454819Y-95738094D02*
X147454819Y-95738094D01*
X147454819Y-95738094D02*
X147454819Y-95357142D01*
X147454819Y-95357142D02*
X147502438Y-95261904D01*
X147502438Y-95261904D02*
X147550057Y-95214285D01*
X147550057Y-95214285D02*
X147645295Y-95166666D01*
X147645295Y-95166666D02*
X147788152Y-95166666D01*
X147788152Y-95166666D02*
X147883390Y-95214285D01*
X147883390Y-95214285D02*
X147931009Y-95261904D01*
X147931009Y-95261904D02*
X147978628Y-95357142D01*
X147978628Y-95357142D02*
X147978628Y-95738094D01*
X148454819Y-94214285D02*
X148454819Y-94785713D01*
X148454819Y-94499999D02*
X147454819Y-94499999D01*
X147454819Y-94499999D02*
X147597676Y-94595237D01*
X147597676Y-94595237D02*
X147692914Y-94690475D01*
X147692914Y-94690475D02*
X147740533Y-94785713D01*
X168813501Y-111454819D02*
X168480168Y-110978628D01*
X168242073Y-111454819D02*
X168242073Y-110454819D01*
X168242073Y-110454819D02*
X168623025Y-110454819D01*
X168623025Y-110454819D02*
X168718263Y-110502438D01*
X168718263Y-110502438D02*
X168765882Y-110550057D01*
X168765882Y-110550057D02*
X168813501Y-110645295D01*
X168813501Y-110645295D02*
X168813501Y-110788152D01*
X168813501Y-110788152D02*
X168765882Y-110883390D01*
X168765882Y-110883390D02*
X168718263Y-110931009D01*
X168718263Y-110931009D02*
X168623025Y-110978628D01*
X168623025Y-110978628D02*
X168242073Y-110978628D01*
X169194454Y-110550057D02*
X169242073Y-110502438D01*
X169242073Y-110502438D02*
X169337311Y-110454819D01*
X169337311Y-110454819D02*
X169575406Y-110454819D01*
X169575406Y-110454819D02*
X169670644Y-110502438D01*
X169670644Y-110502438D02*
X169718263Y-110550057D01*
X169718263Y-110550057D02*
X169765882Y-110645295D01*
X169765882Y-110645295D02*
X169765882Y-110740533D01*
X169765882Y-110740533D02*
X169718263Y-110883390D01*
X169718263Y-110883390D02*
X169146835Y-111454819D01*
X169146835Y-111454819D02*
X169765882Y-111454819D01*
X170242073Y-111454819D02*
X170432549Y-111454819D01*
X170432549Y-111454819D02*
X170527787Y-111407200D01*
X170527787Y-111407200D02*
X170575406Y-111359580D01*
X170575406Y-111359580D02*
X170670644Y-111216723D01*
X170670644Y-111216723D02*
X170718263Y-111026247D01*
X170718263Y-111026247D02*
X170718263Y-110645295D01*
X170718263Y-110645295D02*
X170670644Y-110550057D01*
X170670644Y-110550057D02*
X170623025Y-110502438D01*
X170623025Y-110502438D02*
X170527787Y-110454819D01*
X170527787Y-110454819D02*
X170337311Y-110454819D01*
X170337311Y-110454819D02*
X170242073Y-110502438D01*
X170242073Y-110502438D02*
X170194454Y-110550057D01*
X170194454Y-110550057D02*
X170146835Y-110645295D01*
X170146835Y-110645295D02*
X170146835Y-110883390D01*
X170146835Y-110883390D02*
X170194454Y-110978628D01*
X170194454Y-110978628D02*
X170242073Y-111026247D01*
X170242073Y-111026247D02*
X170337311Y-111073866D01*
X170337311Y-111073866D02*
X170527787Y-111073866D01*
X170527787Y-111073866D02*
X170623025Y-111026247D01*
X170623025Y-111026247D02*
X170670644Y-110978628D01*
X170670644Y-110978628D02*
X170718263Y-110883390D01*
X141288095Y-95304819D02*
X141288095Y-96114342D01*
X141288095Y-96114342D02*
X141335714Y-96209580D01*
X141335714Y-96209580D02*
X141383333Y-96257200D01*
X141383333Y-96257200D02*
X141478571Y-96304819D01*
X141478571Y-96304819D02*
X141669047Y-96304819D01*
X141669047Y-96304819D02*
X141764285Y-96257200D01*
X141764285Y-96257200D02*
X141811904Y-96209580D01*
X141811904Y-96209580D02*
X141859523Y-96114342D01*
X141859523Y-96114342D02*
X141859523Y-95304819D01*
X142859523Y-96304819D02*
X142288095Y-96304819D01*
X142573809Y-96304819D02*
X142573809Y-95304819D01*
X142573809Y-95304819D02*
X142478571Y-95447676D01*
X142478571Y-95447676D02*
X142383333Y-95542914D01*
X142383333Y-95542914D02*
X142288095Y-95590533D01*
X176309580Y-99617857D02*
X176357200Y-99665476D01*
X176357200Y-99665476D02*
X176404819Y-99808333D01*
X176404819Y-99808333D02*
X176404819Y-99903571D01*
X176404819Y-99903571D02*
X176357200Y-100046428D01*
X176357200Y-100046428D02*
X176261961Y-100141666D01*
X176261961Y-100141666D02*
X176166723Y-100189285D01*
X176166723Y-100189285D02*
X175976247Y-100236904D01*
X175976247Y-100236904D02*
X175833390Y-100236904D01*
X175833390Y-100236904D02*
X175642914Y-100189285D01*
X175642914Y-100189285D02*
X175547676Y-100141666D01*
X175547676Y-100141666D02*
X175452438Y-100046428D01*
X175452438Y-100046428D02*
X175404819Y-99903571D01*
X175404819Y-99903571D02*
X175404819Y-99808333D01*
X175404819Y-99808333D02*
X175452438Y-99665476D01*
X175452438Y-99665476D02*
X175500057Y-99617857D01*
X176404819Y-98665476D02*
X176404819Y-99236904D01*
X176404819Y-98951190D02*
X175404819Y-98951190D01*
X175404819Y-98951190D02*
X175547676Y-99046428D01*
X175547676Y-99046428D02*
X175642914Y-99141666D01*
X175642914Y-99141666D02*
X175690533Y-99236904D01*
X175500057Y-98284523D02*
X175452438Y-98236904D01*
X175452438Y-98236904D02*
X175404819Y-98141666D01*
X175404819Y-98141666D02*
X175404819Y-97903571D01*
X175404819Y-97903571D02*
X175452438Y-97808333D01*
X175452438Y-97808333D02*
X175500057Y-97760714D01*
X175500057Y-97760714D02*
X175595295Y-97713095D01*
X175595295Y-97713095D02*
X175690533Y-97713095D01*
X175690533Y-97713095D02*
X175833390Y-97760714D01*
X175833390Y-97760714D02*
X176404819Y-98332142D01*
X176404819Y-98332142D02*
X176404819Y-97713095D01*
X152704819Y-107632857D02*
X152228628Y-107966190D01*
X152704819Y-108204285D02*
X151704819Y-108204285D01*
X151704819Y-108204285D02*
X151704819Y-107823333D01*
X151704819Y-107823333D02*
X151752438Y-107728095D01*
X151752438Y-107728095D02*
X151800057Y-107680476D01*
X151800057Y-107680476D02*
X151895295Y-107632857D01*
X151895295Y-107632857D02*
X152038152Y-107632857D01*
X152038152Y-107632857D02*
X152133390Y-107680476D01*
X152133390Y-107680476D02*
X152181009Y-107728095D01*
X152181009Y-107728095D02*
X152228628Y-107823333D01*
X152228628Y-107823333D02*
X152228628Y-108204285D01*
X151800057Y-107251904D02*
X151752438Y-107204285D01*
X151752438Y-107204285D02*
X151704819Y-107109047D01*
X151704819Y-107109047D02*
X151704819Y-106870952D01*
X151704819Y-106870952D02*
X151752438Y-106775714D01*
X151752438Y-106775714D02*
X151800057Y-106728095D01*
X151800057Y-106728095D02*
X151895295Y-106680476D01*
X151895295Y-106680476D02*
X151990533Y-106680476D01*
X151990533Y-106680476D02*
X152133390Y-106728095D01*
X152133390Y-106728095D02*
X152704819Y-107299523D01*
X152704819Y-107299523D02*
X152704819Y-106680476D01*
X152038152Y-105823333D02*
X152704819Y-105823333D01*
X151657200Y-106061428D02*
X152371485Y-106299523D01*
X152371485Y-106299523D02*
X152371485Y-105680476D01*
X166107142Y-110704819D02*
X165773809Y-110228628D01*
X165535714Y-110704819D02*
X165535714Y-109704819D01*
X165535714Y-109704819D02*
X165916666Y-109704819D01*
X165916666Y-109704819D02*
X166011904Y-109752438D01*
X166011904Y-109752438D02*
X166059523Y-109800057D01*
X166059523Y-109800057D02*
X166107142Y-109895295D01*
X166107142Y-109895295D02*
X166107142Y-110038152D01*
X166107142Y-110038152D02*
X166059523Y-110133390D01*
X166059523Y-110133390D02*
X166011904Y-110181009D01*
X166011904Y-110181009D02*
X165916666Y-110228628D01*
X165916666Y-110228628D02*
X165535714Y-110228628D01*
X166440476Y-109704819D02*
X167059523Y-109704819D01*
X167059523Y-109704819D02*
X166726190Y-110085771D01*
X166726190Y-110085771D02*
X166869047Y-110085771D01*
X166869047Y-110085771D02*
X166964285Y-110133390D01*
X166964285Y-110133390D02*
X167011904Y-110181009D01*
X167011904Y-110181009D02*
X167059523Y-110276247D01*
X167059523Y-110276247D02*
X167059523Y-110514342D01*
X167059523Y-110514342D02*
X167011904Y-110609580D01*
X167011904Y-110609580D02*
X166964285Y-110657200D01*
X166964285Y-110657200D02*
X166869047Y-110704819D01*
X166869047Y-110704819D02*
X166583333Y-110704819D01*
X166583333Y-110704819D02*
X166488095Y-110657200D01*
X166488095Y-110657200D02*
X166440476Y-110609580D01*
X167678571Y-109704819D02*
X167773809Y-109704819D01*
X167773809Y-109704819D02*
X167869047Y-109752438D01*
X167869047Y-109752438D02*
X167916666Y-109800057D01*
X167916666Y-109800057D02*
X167964285Y-109895295D01*
X167964285Y-109895295D02*
X168011904Y-110085771D01*
X168011904Y-110085771D02*
X168011904Y-110323866D01*
X168011904Y-110323866D02*
X167964285Y-110514342D01*
X167964285Y-110514342D02*
X167916666Y-110609580D01*
X167916666Y-110609580D02*
X167869047Y-110657200D01*
X167869047Y-110657200D02*
X167773809Y-110704819D01*
X167773809Y-110704819D02*
X167678571Y-110704819D01*
X167678571Y-110704819D02*
X167583333Y-110657200D01*
X167583333Y-110657200D02*
X167535714Y-110609580D01*
X167535714Y-110609580D02*
X167488095Y-110514342D01*
X167488095Y-110514342D02*
X167440476Y-110323866D01*
X167440476Y-110323866D02*
X167440476Y-110085771D01*
X167440476Y-110085771D02*
X167488095Y-109895295D01*
X167488095Y-109895295D02*
X167535714Y-109800057D01*
X167535714Y-109800057D02*
X167583333Y-109752438D01*
X167583333Y-109752438D02*
X167678571Y-109704819D01*
X160704819Y-112142857D02*
X160228628Y-112476190D01*
X160704819Y-112714285D02*
X159704819Y-112714285D01*
X159704819Y-112714285D02*
X159704819Y-112333333D01*
X159704819Y-112333333D02*
X159752438Y-112238095D01*
X159752438Y-112238095D02*
X159800057Y-112190476D01*
X159800057Y-112190476D02*
X159895295Y-112142857D01*
X159895295Y-112142857D02*
X160038152Y-112142857D01*
X160038152Y-112142857D02*
X160133390Y-112190476D01*
X160133390Y-112190476D02*
X160181009Y-112238095D01*
X160181009Y-112238095D02*
X160228628Y-112333333D01*
X160228628Y-112333333D02*
X160228628Y-112714285D01*
X159704819Y-111809523D02*
X159704819Y-111190476D01*
X159704819Y-111190476D02*
X160085771Y-111523809D01*
X160085771Y-111523809D02*
X160085771Y-111380952D01*
X160085771Y-111380952D02*
X160133390Y-111285714D01*
X160133390Y-111285714D02*
X160181009Y-111238095D01*
X160181009Y-111238095D02*
X160276247Y-111190476D01*
X160276247Y-111190476D02*
X160514342Y-111190476D01*
X160514342Y-111190476D02*
X160609580Y-111238095D01*
X160609580Y-111238095D02*
X160657200Y-111285714D01*
X160657200Y-111285714D02*
X160704819Y-111380952D01*
X160704819Y-111380952D02*
X160704819Y-111666666D01*
X160704819Y-111666666D02*
X160657200Y-111761904D01*
X160657200Y-111761904D02*
X160609580Y-111809523D01*
X160704819Y-110238095D02*
X160704819Y-110809523D01*
X160704819Y-110523809D02*
X159704819Y-110523809D01*
X159704819Y-110523809D02*
X159847676Y-110619047D01*
X159847676Y-110619047D02*
X159942914Y-110714285D01*
X159942914Y-110714285D02*
X159990533Y-110809523D01*
X132700595Y-96004819D02*
X132700595Y-96814342D01*
X132700595Y-96814342D02*
X132748214Y-96909580D01*
X132748214Y-96909580D02*
X132795833Y-96957200D01*
X132795833Y-96957200D02*
X132891071Y-97004819D01*
X132891071Y-97004819D02*
X133081547Y-97004819D01*
X133081547Y-97004819D02*
X133176785Y-96957200D01*
X133176785Y-96957200D02*
X133224404Y-96909580D01*
X133224404Y-96909580D02*
X133272023Y-96814342D01*
X133272023Y-96814342D02*
X133272023Y-96004819D01*
X133700595Y-96100057D02*
X133748214Y-96052438D01*
X133748214Y-96052438D02*
X133843452Y-96004819D01*
X133843452Y-96004819D02*
X134081547Y-96004819D01*
X134081547Y-96004819D02*
X134176785Y-96052438D01*
X134176785Y-96052438D02*
X134224404Y-96100057D01*
X134224404Y-96100057D02*
X134272023Y-96195295D01*
X134272023Y-96195295D02*
X134272023Y-96290533D01*
X134272023Y-96290533D02*
X134224404Y-96433390D01*
X134224404Y-96433390D02*
X133652976Y-97004819D01*
X133652976Y-97004819D02*
X134272023Y-97004819D01*
X174761905Y-111704819D02*
X174761905Y-110704819D01*
X174761905Y-110704819D02*
X175000000Y-110704819D01*
X175000000Y-110704819D02*
X175142857Y-110752438D01*
X175142857Y-110752438D02*
X175238095Y-110847676D01*
X175238095Y-110847676D02*
X175285714Y-110942914D01*
X175285714Y-110942914D02*
X175333333Y-111133390D01*
X175333333Y-111133390D02*
X175333333Y-111276247D01*
X175333333Y-111276247D02*
X175285714Y-111466723D01*
X175285714Y-111466723D02*
X175238095Y-111561961D01*
X175238095Y-111561961D02*
X175142857Y-111657200D01*
X175142857Y-111657200D02*
X175000000Y-111704819D01*
X175000000Y-111704819D02*
X174761905Y-111704819D01*
X176285714Y-111704819D02*
X175714286Y-111704819D01*
X176000000Y-111704819D02*
X176000000Y-110704819D01*
X176000000Y-110704819D02*
X175904762Y-110847676D01*
X175904762Y-110847676D02*
X175809524Y-110942914D01*
X175809524Y-110942914D02*
X175714286Y-110990533D01*
X168267261Y-91400057D02*
X168172023Y-91352438D01*
X168172023Y-91352438D02*
X168076785Y-91257200D01*
X168076785Y-91257200D02*
X167933928Y-91114342D01*
X167933928Y-91114342D02*
X167838690Y-91066723D01*
X167838690Y-91066723D02*
X167743452Y-91066723D01*
X167791071Y-91304819D02*
X167695833Y-91257200D01*
X167695833Y-91257200D02*
X167600595Y-91161961D01*
X167600595Y-91161961D02*
X167552976Y-90971485D01*
X167552976Y-90971485D02*
X167552976Y-90638152D01*
X167552976Y-90638152D02*
X167600595Y-90447676D01*
X167600595Y-90447676D02*
X167695833Y-90352438D01*
X167695833Y-90352438D02*
X167791071Y-90304819D01*
X167791071Y-90304819D02*
X167981547Y-90304819D01*
X167981547Y-90304819D02*
X168076785Y-90352438D01*
X168076785Y-90352438D02*
X168172023Y-90447676D01*
X168172023Y-90447676D02*
X168219642Y-90638152D01*
X168219642Y-90638152D02*
X168219642Y-90971485D01*
X168219642Y-90971485D02*
X168172023Y-91161961D01*
X168172023Y-91161961D02*
X168076785Y-91257200D01*
X168076785Y-91257200D02*
X167981547Y-91304819D01*
X167981547Y-91304819D02*
X167791071Y-91304819D01*
X169172023Y-91304819D02*
X168600595Y-91304819D01*
X168886309Y-91304819D02*
X168886309Y-90304819D01*
X168886309Y-90304819D02*
X168791071Y-90447676D01*
X168791071Y-90447676D02*
X168695833Y-90542914D01*
X168695833Y-90542914D02*
X168600595Y-90590533D01*
X171950057Y-105907738D02*
X171902438Y-106002976D01*
X171902438Y-106002976D02*
X171807200Y-106098214D01*
X171807200Y-106098214D02*
X171664342Y-106241071D01*
X171664342Y-106241071D02*
X171616723Y-106336309D01*
X171616723Y-106336309D02*
X171616723Y-106431547D01*
X171854819Y-106383928D02*
X171807200Y-106479166D01*
X171807200Y-106479166D02*
X171711961Y-106574404D01*
X171711961Y-106574404D02*
X171521485Y-106622023D01*
X171521485Y-106622023D02*
X171188152Y-106622023D01*
X171188152Y-106622023D02*
X170997676Y-106574404D01*
X170997676Y-106574404D02*
X170902438Y-106479166D01*
X170902438Y-106479166D02*
X170854819Y-106383928D01*
X170854819Y-106383928D02*
X170854819Y-106193452D01*
X170854819Y-106193452D02*
X170902438Y-106098214D01*
X170902438Y-106098214D02*
X170997676Y-106002976D01*
X170997676Y-106002976D02*
X171188152Y-105955357D01*
X171188152Y-105955357D02*
X171521485Y-105955357D01*
X171521485Y-105955357D02*
X171711961Y-106002976D01*
X171711961Y-106002976D02*
X171807200Y-106098214D01*
X171807200Y-106098214D02*
X171854819Y-106193452D01*
X171854819Y-106193452D02*
X171854819Y-106383928D01*
X170950057Y-105574404D02*
X170902438Y-105526785D01*
X170902438Y-105526785D02*
X170854819Y-105431547D01*
X170854819Y-105431547D02*
X170854819Y-105193452D01*
X170854819Y-105193452D02*
X170902438Y-105098214D01*
X170902438Y-105098214D02*
X170950057Y-105050595D01*
X170950057Y-105050595D02*
X171045295Y-105002976D01*
X171045295Y-105002976D02*
X171140533Y-105002976D01*
X171140533Y-105002976D02*
X171283390Y-105050595D01*
X171283390Y-105050595D02*
X171854819Y-105622023D01*
X171854819Y-105622023D02*
X171854819Y-105002976D01*
X170988095Y-97704819D02*
X170988095Y-98514342D01*
X170988095Y-98514342D02*
X171035714Y-98609580D01*
X171035714Y-98609580D02*
X171083333Y-98657200D01*
X171083333Y-98657200D02*
X171178571Y-98704819D01*
X171178571Y-98704819D02*
X171369047Y-98704819D01*
X171369047Y-98704819D02*
X171464285Y-98657200D01*
X171464285Y-98657200D02*
X171511904Y-98609580D01*
X171511904Y-98609580D02*
X171559523Y-98514342D01*
X171559523Y-98514342D02*
X171559523Y-97704819D01*
X171940476Y-97704819D02*
X172607142Y-97704819D01*
X172607142Y-97704819D02*
X172178571Y-98704819D01*
X155359580Y-90892857D02*
X155407200Y-90940476D01*
X155407200Y-90940476D02*
X155454819Y-91083333D01*
X155454819Y-91083333D02*
X155454819Y-91178571D01*
X155454819Y-91178571D02*
X155407200Y-91321428D01*
X155407200Y-91321428D02*
X155311961Y-91416666D01*
X155311961Y-91416666D02*
X155216723Y-91464285D01*
X155216723Y-91464285D02*
X155026247Y-91511904D01*
X155026247Y-91511904D02*
X154883390Y-91511904D01*
X154883390Y-91511904D02*
X154692914Y-91464285D01*
X154692914Y-91464285D02*
X154597676Y-91416666D01*
X154597676Y-91416666D02*
X154502438Y-91321428D01*
X154502438Y-91321428D02*
X154454819Y-91178571D01*
X154454819Y-91178571D02*
X154454819Y-91083333D01*
X154454819Y-91083333D02*
X154502438Y-90940476D01*
X154502438Y-90940476D02*
X154550057Y-90892857D01*
X155454819Y-89940476D02*
X155454819Y-90511904D01*
X155454819Y-90226190D02*
X154454819Y-90226190D01*
X154454819Y-90226190D02*
X154597676Y-90321428D01*
X154597676Y-90321428D02*
X154692914Y-90416666D01*
X154692914Y-90416666D02*
X154740533Y-90511904D01*
X155454819Y-88988095D02*
X155454819Y-89559523D01*
X155454819Y-89273809D02*
X154454819Y-89273809D01*
X154454819Y-89273809D02*
X154597676Y-89369047D01*
X154597676Y-89369047D02*
X154692914Y-89464285D01*
X154692914Y-89464285D02*
X154740533Y-89559523D01*
X123166666Y-96704819D02*
X123166666Y-97419104D01*
X123166666Y-97419104D02*
X123119047Y-97561961D01*
X123119047Y-97561961D02*
X123023809Y-97657200D01*
X123023809Y-97657200D02*
X122880952Y-97704819D01*
X122880952Y-97704819D02*
X122785714Y-97704819D01*
X123595238Y-96800057D02*
X123642857Y-96752438D01*
X123642857Y-96752438D02*
X123738095Y-96704819D01*
X123738095Y-96704819D02*
X123976190Y-96704819D01*
X123976190Y-96704819D02*
X124071428Y-96752438D01*
X124071428Y-96752438D02*
X124119047Y-96800057D01*
X124119047Y-96800057D02*
X124166666Y-96895295D01*
X124166666Y-96895295D02*
X124166666Y-96990533D01*
X124166666Y-96990533D02*
X124119047Y-97133390D01*
X124119047Y-97133390D02*
X123547619Y-97704819D01*
X123547619Y-97704819D02*
X124166666Y-97704819D01*
X156704819Y-90142857D02*
X156228628Y-90476190D01*
X156704819Y-90714285D02*
X155704819Y-90714285D01*
X155704819Y-90714285D02*
X155704819Y-90333333D01*
X155704819Y-90333333D02*
X155752438Y-90238095D01*
X155752438Y-90238095D02*
X155800057Y-90190476D01*
X155800057Y-90190476D02*
X155895295Y-90142857D01*
X155895295Y-90142857D02*
X156038152Y-90142857D01*
X156038152Y-90142857D02*
X156133390Y-90190476D01*
X156133390Y-90190476D02*
X156181009Y-90238095D01*
X156181009Y-90238095D02*
X156228628Y-90333333D01*
X156228628Y-90333333D02*
X156228628Y-90714285D01*
X156704819Y-89190476D02*
X156704819Y-89761904D01*
X156704819Y-89476190D02*
X155704819Y-89476190D01*
X155704819Y-89476190D02*
X155847676Y-89571428D01*
X155847676Y-89571428D02*
X155942914Y-89666666D01*
X155942914Y-89666666D02*
X155990533Y-89761904D01*
X156704819Y-88238095D02*
X156704819Y-88809523D01*
X156704819Y-88523809D02*
X155704819Y-88523809D01*
X155704819Y-88523809D02*
X155847676Y-88619047D01*
X155847676Y-88619047D02*
X155942914Y-88714285D01*
X155942914Y-88714285D02*
X155990533Y-88809523D01*
X146093333Y-98204819D02*
X145760000Y-97728628D01*
X145521905Y-98204819D02*
X145521905Y-97204819D01*
X145521905Y-97204819D02*
X145902857Y-97204819D01*
X145902857Y-97204819D02*
X145998095Y-97252438D01*
X145998095Y-97252438D02*
X146045714Y-97300057D01*
X146045714Y-97300057D02*
X146093333Y-97395295D01*
X146093333Y-97395295D02*
X146093333Y-97538152D01*
X146093333Y-97538152D02*
X146045714Y-97633390D01*
X146045714Y-97633390D02*
X145998095Y-97681009D01*
X145998095Y-97681009D02*
X145902857Y-97728628D01*
X145902857Y-97728628D02*
X145521905Y-97728628D01*
X146474286Y-97300057D02*
X146521905Y-97252438D01*
X146521905Y-97252438D02*
X146617143Y-97204819D01*
X146617143Y-97204819D02*
X146855238Y-97204819D01*
X146855238Y-97204819D02*
X146950476Y-97252438D01*
X146950476Y-97252438D02*
X146998095Y-97300057D01*
X146998095Y-97300057D02*
X147045714Y-97395295D01*
X147045714Y-97395295D02*
X147045714Y-97490533D01*
X147045714Y-97490533D02*
X146998095Y-97633390D01*
X146998095Y-97633390D02*
X146426667Y-98204819D01*
X146426667Y-98204819D02*
X147045714Y-98204819D01*
X144583333Y-96954819D02*
X144250000Y-96478628D01*
X144011905Y-96954819D02*
X144011905Y-95954819D01*
X144011905Y-95954819D02*
X144392857Y-95954819D01*
X144392857Y-95954819D02*
X144488095Y-96002438D01*
X144488095Y-96002438D02*
X144535714Y-96050057D01*
X144535714Y-96050057D02*
X144583333Y-96145295D01*
X144583333Y-96145295D02*
X144583333Y-96288152D01*
X144583333Y-96288152D02*
X144535714Y-96383390D01*
X144535714Y-96383390D02*
X144488095Y-96431009D01*
X144488095Y-96431009D02*
X144392857Y-96478628D01*
X144392857Y-96478628D02*
X144011905Y-96478628D01*
X144916667Y-95954819D02*
X145535714Y-95954819D01*
X145535714Y-95954819D02*
X145202381Y-96335771D01*
X145202381Y-96335771D02*
X145345238Y-96335771D01*
X145345238Y-96335771D02*
X145440476Y-96383390D01*
X145440476Y-96383390D02*
X145488095Y-96431009D01*
X145488095Y-96431009D02*
X145535714Y-96526247D01*
X145535714Y-96526247D02*
X145535714Y-96764342D01*
X145535714Y-96764342D02*
X145488095Y-96859580D01*
X145488095Y-96859580D02*
X145440476Y-96907200D01*
X145440476Y-96907200D02*
X145345238Y-96954819D01*
X145345238Y-96954819D02*
X145059524Y-96954819D01*
X145059524Y-96954819D02*
X144964286Y-96907200D01*
X144964286Y-96907200D02*
X144916667Y-96859580D01*
X143954819Y-99392857D02*
X143478628Y-99726190D01*
X143954819Y-99964285D02*
X142954819Y-99964285D01*
X142954819Y-99964285D02*
X142954819Y-99583333D01*
X142954819Y-99583333D02*
X143002438Y-99488095D01*
X143002438Y-99488095D02*
X143050057Y-99440476D01*
X143050057Y-99440476D02*
X143145295Y-99392857D01*
X143145295Y-99392857D02*
X143288152Y-99392857D01*
X143288152Y-99392857D02*
X143383390Y-99440476D01*
X143383390Y-99440476D02*
X143431009Y-99488095D01*
X143431009Y-99488095D02*
X143478628Y-99583333D01*
X143478628Y-99583333D02*
X143478628Y-99964285D01*
X143954819Y-98440476D02*
X143954819Y-99011904D01*
X143954819Y-98726190D02*
X142954819Y-98726190D01*
X142954819Y-98726190D02*
X143097676Y-98821428D01*
X143097676Y-98821428D02*
X143192914Y-98916666D01*
X143192914Y-98916666D02*
X143240533Y-99011904D01*
X143288152Y-97583333D02*
X143954819Y-97583333D01*
X142907200Y-97821428D02*
X143621485Y-98059523D01*
X143621485Y-98059523D02*
X143621485Y-97440476D01*
X147109580Y-94416666D02*
X147157200Y-94464285D01*
X147157200Y-94464285D02*
X147204819Y-94607142D01*
X147204819Y-94607142D02*
X147204819Y-94702380D01*
X147204819Y-94702380D02*
X147157200Y-94845237D01*
X147157200Y-94845237D02*
X147061961Y-94940475D01*
X147061961Y-94940475D02*
X146966723Y-94988094D01*
X146966723Y-94988094D02*
X146776247Y-95035713D01*
X146776247Y-95035713D02*
X146633390Y-95035713D01*
X146633390Y-95035713D02*
X146442914Y-94988094D01*
X146442914Y-94988094D02*
X146347676Y-94940475D01*
X146347676Y-94940475D02*
X146252438Y-94845237D01*
X146252438Y-94845237D02*
X146204819Y-94702380D01*
X146204819Y-94702380D02*
X146204819Y-94607142D01*
X146204819Y-94607142D02*
X146252438Y-94464285D01*
X146252438Y-94464285D02*
X146300057Y-94416666D01*
X146204819Y-94083332D02*
X146204819Y-93464285D01*
X146204819Y-93464285D02*
X146585771Y-93797618D01*
X146585771Y-93797618D02*
X146585771Y-93654761D01*
X146585771Y-93654761D02*
X146633390Y-93559523D01*
X146633390Y-93559523D02*
X146681009Y-93511904D01*
X146681009Y-93511904D02*
X146776247Y-93464285D01*
X146776247Y-93464285D02*
X147014342Y-93464285D01*
X147014342Y-93464285D02*
X147109580Y-93511904D01*
X147109580Y-93511904D02*
X147157200Y-93559523D01*
X147157200Y-93559523D02*
X147204819Y-93654761D01*
X147204819Y-93654761D02*
X147204819Y-93940475D01*
X147204819Y-93940475D02*
X147157200Y-94035713D01*
X147157200Y-94035713D02*
X147109580Y-94083332D01*
X138333333Y-95609580D02*
X138285714Y-95657200D01*
X138285714Y-95657200D02*
X138142857Y-95704819D01*
X138142857Y-95704819D02*
X138047619Y-95704819D01*
X138047619Y-95704819D02*
X137904762Y-95657200D01*
X137904762Y-95657200D02*
X137809524Y-95561961D01*
X137809524Y-95561961D02*
X137761905Y-95466723D01*
X137761905Y-95466723D02*
X137714286Y-95276247D01*
X137714286Y-95276247D02*
X137714286Y-95133390D01*
X137714286Y-95133390D02*
X137761905Y-94942914D01*
X137761905Y-94942914D02*
X137809524Y-94847676D01*
X137809524Y-94847676D02*
X137904762Y-94752438D01*
X137904762Y-94752438D02*
X138047619Y-94704819D01*
X138047619Y-94704819D02*
X138142857Y-94704819D01*
X138142857Y-94704819D02*
X138285714Y-94752438D01*
X138285714Y-94752438D02*
X138333333Y-94800057D01*
X139190476Y-95038152D02*
X139190476Y-95704819D01*
X138952381Y-94657200D02*
X138714286Y-95371485D01*
X138714286Y-95371485D02*
X139333333Y-95371485D01*
X136623221Y-97416666D02*
X136670841Y-97464285D01*
X136670841Y-97464285D02*
X136718460Y-97607142D01*
X136718460Y-97607142D02*
X136718460Y-97702380D01*
X136718460Y-97702380D02*
X136670841Y-97845237D01*
X136670841Y-97845237D02*
X136575602Y-97940475D01*
X136575602Y-97940475D02*
X136480364Y-97988094D01*
X136480364Y-97988094D02*
X136289888Y-98035713D01*
X136289888Y-98035713D02*
X136147031Y-98035713D01*
X136147031Y-98035713D02*
X135956555Y-97988094D01*
X135956555Y-97988094D02*
X135861317Y-97940475D01*
X135861317Y-97940475D02*
X135766079Y-97845237D01*
X135766079Y-97845237D02*
X135718460Y-97702380D01*
X135718460Y-97702380D02*
X135718460Y-97607142D01*
X135718460Y-97607142D02*
X135766079Y-97464285D01*
X135766079Y-97464285D02*
X135813698Y-97416666D01*
X135718460Y-96511904D02*
X135718460Y-96988094D01*
X135718460Y-96988094D02*
X136194650Y-97035713D01*
X136194650Y-97035713D02*
X136147031Y-96988094D01*
X136147031Y-96988094D02*
X136099412Y-96892856D01*
X136099412Y-96892856D02*
X136099412Y-96654761D01*
X136099412Y-96654761D02*
X136147031Y-96559523D01*
X136147031Y-96559523D02*
X136194650Y-96511904D01*
X136194650Y-96511904D02*
X136289888Y-96464285D01*
X136289888Y-96464285D02*
X136527983Y-96464285D01*
X136527983Y-96464285D02*
X136623221Y-96511904D01*
X136623221Y-96511904D02*
X136670841Y-96559523D01*
X136670841Y-96559523D02*
X136718460Y-96654761D01*
X136718460Y-96654761D02*
X136718460Y-96892856D01*
X136718460Y-96892856D02*
X136670841Y-96988094D01*
X136670841Y-96988094D02*
X136623221Y-97035713D01*
X152109580Y-95166666D02*
X152157200Y-95214285D01*
X152157200Y-95214285D02*
X152204819Y-95357142D01*
X152204819Y-95357142D02*
X152204819Y-95452380D01*
X152204819Y-95452380D02*
X152157200Y-95595237D01*
X152157200Y-95595237D02*
X152061961Y-95690475D01*
X152061961Y-95690475D02*
X151966723Y-95738094D01*
X151966723Y-95738094D02*
X151776247Y-95785713D01*
X151776247Y-95785713D02*
X151633390Y-95785713D01*
X151633390Y-95785713D02*
X151442914Y-95738094D01*
X151442914Y-95738094D02*
X151347676Y-95690475D01*
X151347676Y-95690475D02*
X151252438Y-95595237D01*
X151252438Y-95595237D02*
X151204819Y-95452380D01*
X151204819Y-95452380D02*
X151204819Y-95357142D01*
X151204819Y-95357142D02*
X151252438Y-95214285D01*
X151252438Y-95214285D02*
X151300057Y-95166666D01*
X151204819Y-94309523D02*
X151204819Y-94499999D01*
X151204819Y-94499999D02*
X151252438Y-94595237D01*
X151252438Y-94595237D02*
X151300057Y-94642856D01*
X151300057Y-94642856D02*
X151442914Y-94738094D01*
X151442914Y-94738094D02*
X151633390Y-94785713D01*
X151633390Y-94785713D02*
X152014342Y-94785713D01*
X152014342Y-94785713D02*
X152109580Y-94738094D01*
X152109580Y-94738094D02*
X152157200Y-94690475D01*
X152157200Y-94690475D02*
X152204819Y-94595237D01*
X152204819Y-94595237D02*
X152204819Y-94404761D01*
X152204819Y-94404761D02*
X152157200Y-94309523D01*
X152157200Y-94309523D02*
X152109580Y-94261904D01*
X152109580Y-94261904D02*
X152014342Y-94214285D01*
X152014342Y-94214285D02*
X151776247Y-94214285D01*
X151776247Y-94214285D02*
X151681009Y-94261904D01*
X151681009Y-94261904D02*
X151633390Y-94309523D01*
X151633390Y-94309523D02*
X151585771Y-94404761D01*
X151585771Y-94404761D02*
X151585771Y-94595237D01*
X151585771Y-94595237D02*
X151633390Y-94690475D01*
X151633390Y-94690475D02*
X151681009Y-94738094D01*
X151681009Y-94738094D02*
X151776247Y-94785713D01*
X171607142Y-112704819D02*
X171273809Y-112228628D01*
X171035714Y-112704819D02*
X171035714Y-111704819D01*
X171035714Y-111704819D02*
X171416666Y-111704819D01*
X171416666Y-111704819D02*
X171511904Y-111752438D01*
X171511904Y-111752438D02*
X171559523Y-111800057D01*
X171559523Y-111800057D02*
X171607142Y-111895295D01*
X171607142Y-111895295D02*
X171607142Y-112038152D01*
X171607142Y-112038152D02*
X171559523Y-112133390D01*
X171559523Y-112133390D02*
X171511904Y-112181009D01*
X171511904Y-112181009D02*
X171416666Y-112228628D01*
X171416666Y-112228628D02*
X171035714Y-112228628D01*
X171940476Y-111704819D02*
X172559523Y-111704819D01*
X172559523Y-111704819D02*
X172226190Y-112085771D01*
X172226190Y-112085771D02*
X172369047Y-112085771D01*
X172369047Y-112085771D02*
X172464285Y-112133390D01*
X172464285Y-112133390D02*
X172511904Y-112181009D01*
X172511904Y-112181009D02*
X172559523Y-112276247D01*
X172559523Y-112276247D02*
X172559523Y-112514342D01*
X172559523Y-112514342D02*
X172511904Y-112609580D01*
X172511904Y-112609580D02*
X172464285Y-112657200D01*
X172464285Y-112657200D02*
X172369047Y-112704819D01*
X172369047Y-112704819D02*
X172083333Y-112704819D01*
X172083333Y-112704819D02*
X171988095Y-112657200D01*
X171988095Y-112657200D02*
X171940476Y-112609580D01*
X173416666Y-112038152D02*
X173416666Y-112704819D01*
X173178571Y-111657200D02*
X172940476Y-112371485D01*
X172940476Y-112371485D02*
X173559523Y-112371485D01*
X166359580Y-105892857D02*
X166407200Y-105940476D01*
X166407200Y-105940476D02*
X166454819Y-106083333D01*
X166454819Y-106083333D02*
X166454819Y-106178571D01*
X166454819Y-106178571D02*
X166407200Y-106321428D01*
X166407200Y-106321428D02*
X166311961Y-106416666D01*
X166311961Y-106416666D02*
X166216723Y-106464285D01*
X166216723Y-106464285D02*
X166026247Y-106511904D01*
X166026247Y-106511904D02*
X165883390Y-106511904D01*
X165883390Y-106511904D02*
X165692914Y-106464285D01*
X165692914Y-106464285D02*
X165597676Y-106416666D01*
X165597676Y-106416666D02*
X165502438Y-106321428D01*
X165502438Y-106321428D02*
X165454819Y-106178571D01*
X165454819Y-106178571D02*
X165454819Y-106083333D01*
X165454819Y-106083333D02*
X165502438Y-105940476D01*
X165502438Y-105940476D02*
X165550057Y-105892857D01*
X165454819Y-105559523D02*
X165454819Y-104940476D01*
X165454819Y-104940476D02*
X165835771Y-105273809D01*
X165835771Y-105273809D02*
X165835771Y-105130952D01*
X165835771Y-105130952D02*
X165883390Y-105035714D01*
X165883390Y-105035714D02*
X165931009Y-104988095D01*
X165931009Y-104988095D02*
X166026247Y-104940476D01*
X166026247Y-104940476D02*
X166264342Y-104940476D01*
X166264342Y-104940476D02*
X166359580Y-104988095D01*
X166359580Y-104988095D02*
X166407200Y-105035714D01*
X166407200Y-105035714D02*
X166454819Y-105130952D01*
X166454819Y-105130952D02*
X166454819Y-105416666D01*
X166454819Y-105416666D02*
X166407200Y-105511904D01*
X166407200Y-105511904D02*
X166359580Y-105559523D01*
X165454819Y-104321428D02*
X165454819Y-104226190D01*
X165454819Y-104226190D02*
X165502438Y-104130952D01*
X165502438Y-104130952D02*
X165550057Y-104083333D01*
X165550057Y-104083333D02*
X165645295Y-104035714D01*
X165645295Y-104035714D02*
X165835771Y-103988095D01*
X165835771Y-103988095D02*
X166073866Y-103988095D01*
X166073866Y-103988095D02*
X166264342Y-104035714D01*
X166264342Y-104035714D02*
X166359580Y-104083333D01*
X166359580Y-104083333D02*
X166407200Y-104130952D01*
X166407200Y-104130952D02*
X166454819Y-104226190D01*
X166454819Y-104226190D02*
X166454819Y-104321428D01*
X166454819Y-104321428D02*
X166407200Y-104416666D01*
X166407200Y-104416666D02*
X166359580Y-104464285D01*
X166359580Y-104464285D02*
X166264342Y-104511904D01*
X166264342Y-104511904D02*
X166073866Y-104559523D01*
X166073866Y-104559523D02*
X165835771Y-104559523D01*
X165835771Y-104559523D02*
X165645295Y-104511904D01*
X165645295Y-104511904D02*
X165550057Y-104464285D01*
X165550057Y-104464285D02*
X165502438Y-104416666D01*
X165502438Y-104416666D02*
X165454819Y-104321428D01*
X158109580Y-90642857D02*
X158157200Y-90690476D01*
X158157200Y-90690476D02*
X158204819Y-90833333D01*
X158204819Y-90833333D02*
X158204819Y-90928571D01*
X158204819Y-90928571D02*
X158157200Y-91071428D01*
X158157200Y-91071428D02*
X158061961Y-91166666D01*
X158061961Y-91166666D02*
X157966723Y-91214285D01*
X157966723Y-91214285D02*
X157776247Y-91261904D01*
X157776247Y-91261904D02*
X157633390Y-91261904D01*
X157633390Y-91261904D02*
X157442914Y-91214285D01*
X157442914Y-91214285D02*
X157347676Y-91166666D01*
X157347676Y-91166666D02*
X157252438Y-91071428D01*
X157252438Y-91071428D02*
X157204819Y-90928571D01*
X157204819Y-90928571D02*
X157204819Y-90833333D01*
X157204819Y-90833333D02*
X157252438Y-90690476D01*
X157252438Y-90690476D02*
X157300057Y-90642857D01*
X158204819Y-89690476D02*
X158204819Y-90261904D01*
X158204819Y-89976190D02*
X157204819Y-89976190D01*
X157204819Y-89976190D02*
X157347676Y-90071428D01*
X157347676Y-90071428D02*
X157442914Y-90166666D01*
X157442914Y-90166666D02*
X157490533Y-90261904D01*
X157204819Y-88833333D02*
X157204819Y-89023809D01*
X157204819Y-89023809D02*
X157252438Y-89119047D01*
X157252438Y-89119047D02*
X157300057Y-89166666D01*
X157300057Y-89166666D02*
X157442914Y-89261904D01*
X157442914Y-89261904D02*
X157633390Y-89309523D01*
X157633390Y-89309523D02*
X158014342Y-89309523D01*
X158014342Y-89309523D02*
X158109580Y-89261904D01*
X158109580Y-89261904D02*
X158157200Y-89214285D01*
X158157200Y-89214285D02*
X158204819Y-89119047D01*
X158204819Y-89119047D02*
X158204819Y-88928571D01*
X158204819Y-88928571D02*
X158157200Y-88833333D01*
X158157200Y-88833333D02*
X158109580Y-88785714D01*
X158109580Y-88785714D02*
X158014342Y-88738095D01*
X158014342Y-88738095D02*
X157776247Y-88738095D01*
X157776247Y-88738095D02*
X157681009Y-88785714D01*
X157681009Y-88785714D02*
X157633390Y-88833333D01*
X157633390Y-88833333D02*
X157585771Y-88928571D01*
X157585771Y-88928571D02*
X157585771Y-89119047D01*
X157585771Y-89119047D02*
X157633390Y-89214285D01*
X157633390Y-89214285D02*
X157681009Y-89261904D01*
X157681009Y-89261904D02*
X157776247Y-89309523D01*
X127357142Y-94734580D02*
X127309523Y-94782200D01*
X127309523Y-94782200D02*
X127166666Y-94829819D01*
X127166666Y-94829819D02*
X127071428Y-94829819D01*
X127071428Y-94829819D02*
X126928571Y-94782200D01*
X126928571Y-94782200D02*
X126833333Y-94686961D01*
X126833333Y-94686961D02*
X126785714Y-94591723D01*
X126785714Y-94591723D02*
X126738095Y-94401247D01*
X126738095Y-94401247D02*
X126738095Y-94258390D01*
X126738095Y-94258390D02*
X126785714Y-94067914D01*
X126785714Y-94067914D02*
X126833333Y-93972676D01*
X126833333Y-93972676D02*
X126928571Y-93877438D01*
X126928571Y-93877438D02*
X127071428Y-93829819D01*
X127071428Y-93829819D02*
X127166666Y-93829819D01*
X127166666Y-93829819D02*
X127309523Y-93877438D01*
X127309523Y-93877438D02*
X127357142Y-93925057D01*
X128309523Y-94829819D02*
X127738095Y-94829819D01*
X128023809Y-94829819D02*
X128023809Y-93829819D01*
X128023809Y-93829819D02*
X127928571Y-93972676D01*
X127928571Y-93972676D02*
X127833333Y-94067914D01*
X127833333Y-94067914D02*
X127738095Y-94115533D01*
X128928571Y-93829819D02*
X129023809Y-93829819D01*
X129023809Y-93829819D02*
X129119047Y-93877438D01*
X129119047Y-93877438D02*
X129166666Y-93925057D01*
X129166666Y-93925057D02*
X129214285Y-94020295D01*
X129214285Y-94020295D02*
X129261904Y-94210771D01*
X129261904Y-94210771D02*
X129261904Y-94448866D01*
X129261904Y-94448866D02*
X129214285Y-94639342D01*
X129214285Y-94639342D02*
X129166666Y-94734580D01*
X129166666Y-94734580D02*
X129119047Y-94782200D01*
X129119047Y-94782200D02*
X129023809Y-94829819D01*
X129023809Y-94829819D02*
X128928571Y-94829819D01*
X128928571Y-94829819D02*
X128833333Y-94782200D01*
X128833333Y-94782200D02*
X128785714Y-94734580D01*
X128785714Y-94734580D02*
X128738095Y-94639342D01*
X128738095Y-94639342D02*
X128690476Y-94448866D01*
X128690476Y-94448866D02*
X128690476Y-94210771D01*
X128690476Y-94210771D02*
X128738095Y-94020295D01*
X128738095Y-94020295D02*
X128785714Y-93925057D01*
X128785714Y-93925057D02*
X128833333Y-93877438D01*
X128833333Y-93877438D02*
X128928571Y-93829819D01*
X161954819Y-112142857D02*
X161478628Y-112476190D01*
X161954819Y-112714285D02*
X160954819Y-112714285D01*
X160954819Y-112714285D02*
X160954819Y-112333333D01*
X160954819Y-112333333D02*
X161002438Y-112238095D01*
X161002438Y-112238095D02*
X161050057Y-112190476D01*
X161050057Y-112190476D02*
X161145295Y-112142857D01*
X161145295Y-112142857D02*
X161288152Y-112142857D01*
X161288152Y-112142857D02*
X161383390Y-112190476D01*
X161383390Y-112190476D02*
X161431009Y-112238095D01*
X161431009Y-112238095D02*
X161478628Y-112333333D01*
X161478628Y-112333333D02*
X161478628Y-112714285D01*
X161050057Y-111761904D02*
X161002438Y-111714285D01*
X161002438Y-111714285D02*
X160954819Y-111619047D01*
X160954819Y-111619047D02*
X160954819Y-111380952D01*
X160954819Y-111380952D02*
X161002438Y-111285714D01*
X161002438Y-111285714D02*
X161050057Y-111238095D01*
X161050057Y-111238095D02*
X161145295Y-111190476D01*
X161145295Y-111190476D02*
X161240533Y-111190476D01*
X161240533Y-111190476D02*
X161383390Y-111238095D01*
X161383390Y-111238095D02*
X161954819Y-111809523D01*
X161954819Y-111809523D02*
X161954819Y-111190476D01*
X161050057Y-110809523D02*
X161002438Y-110761904D01*
X161002438Y-110761904D02*
X160954819Y-110666666D01*
X160954819Y-110666666D02*
X160954819Y-110428571D01*
X160954819Y-110428571D02*
X161002438Y-110333333D01*
X161002438Y-110333333D02*
X161050057Y-110285714D01*
X161050057Y-110285714D02*
X161145295Y-110238095D01*
X161145295Y-110238095D02*
X161240533Y-110238095D01*
X161240533Y-110238095D02*
X161383390Y-110285714D01*
X161383390Y-110285714D02*
X161954819Y-110857142D01*
X161954819Y-110857142D02*
X161954819Y-110238095D01*
X163204819Y-112142857D02*
X162728628Y-112476190D01*
X163204819Y-112714285D02*
X162204819Y-112714285D01*
X162204819Y-112714285D02*
X162204819Y-112333333D01*
X162204819Y-112333333D02*
X162252438Y-112238095D01*
X162252438Y-112238095D02*
X162300057Y-112190476D01*
X162300057Y-112190476D02*
X162395295Y-112142857D01*
X162395295Y-112142857D02*
X162538152Y-112142857D01*
X162538152Y-112142857D02*
X162633390Y-112190476D01*
X162633390Y-112190476D02*
X162681009Y-112238095D01*
X162681009Y-112238095D02*
X162728628Y-112333333D01*
X162728628Y-112333333D02*
X162728628Y-112714285D01*
X162300057Y-111761904D02*
X162252438Y-111714285D01*
X162252438Y-111714285D02*
X162204819Y-111619047D01*
X162204819Y-111619047D02*
X162204819Y-111380952D01*
X162204819Y-111380952D02*
X162252438Y-111285714D01*
X162252438Y-111285714D02*
X162300057Y-111238095D01*
X162300057Y-111238095D02*
X162395295Y-111190476D01*
X162395295Y-111190476D02*
X162490533Y-111190476D01*
X162490533Y-111190476D02*
X162633390Y-111238095D01*
X162633390Y-111238095D02*
X163204819Y-111809523D01*
X163204819Y-111809523D02*
X163204819Y-111190476D01*
X163204819Y-110238095D02*
X163204819Y-110809523D01*
X163204819Y-110523809D02*
X162204819Y-110523809D01*
X162204819Y-110523809D02*
X162347676Y-110619047D01*
X162347676Y-110619047D02*
X162442914Y-110714285D01*
X162442914Y-110714285D02*
X162490533Y-110809523D01*
X150954819Y-95166666D02*
X150478628Y-95499999D01*
X150954819Y-95738094D02*
X149954819Y-95738094D01*
X149954819Y-95738094D02*
X149954819Y-95357142D01*
X149954819Y-95357142D02*
X150002438Y-95261904D01*
X150002438Y-95261904D02*
X150050057Y-95214285D01*
X150050057Y-95214285D02*
X150145295Y-95166666D01*
X150145295Y-95166666D02*
X150288152Y-95166666D01*
X150288152Y-95166666D02*
X150383390Y-95214285D01*
X150383390Y-95214285D02*
X150431009Y-95261904D01*
X150431009Y-95261904D02*
X150478628Y-95357142D01*
X150478628Y-95357142D02*
X150478628Y-95738094D01*
X149954819Y-94261904D02*
X149954819Y-94738094D01*
X149954819Y-94738094D02*
X150431009Y-94785713D01*
X150431009Y-94785713D02*
X150383390Y-94738094D01*
X150383390Y-94738094D02*
X150335771Y-94642856D01*
X150335771Y-94642856D02*
X150335771Y-94404761D01*
X150335771Y-94404761D02*
X150383390Y-94309523D01*
X150383390Y-94309523D02*
X150431009Y-94261904D01*
X150431009Y-94261904D02*
X150526247Y-94214285D01*
X150526247Y-94214285D02*
X150764342Y-94214285D01*
X150764342Y-94214285D02*
X150859580Y-94261904D01*
X150859580Y-94261904D02*
X150907200Y-94309523D01*
X150907200Y-94309523D02*
X150954819Y-94404761D01*
X150954819Y-94404761D02*
X150954819Y-94642856D01*
X150954819Y-94642856D02*
X150907200Y-94738094D01*
X150907200Y-94738094D02*
X150859580Y-94785713D01*
X165859580Y-94142857D02*
X165907200Y-94190476D01*
X165907200Y-94190476D02*
X165954819Y-94333333D01*
X165954819Y-94333333D02*
X165954819Y-94428571D01*
X165954819Y-94428571D02*
X165907200Y-94571428D01*
X165907200Y-94571428D02*
X165811961Y-94666666D01*
X165811961Y-94666666D02*
X165716723Y-94714285D01*
X165716723Y-94714285D02*
X165526247Y-94761904D01*
X165526247Y-94761904D02*
X165383390Y-94761904D01*
X165383390Y-94761904D02*
X165192914Y-94714285D01*
X165192914Y-94714285D02*
X165097676Y-94666666D01*
X165097676Y-94666666D02*
X165002438Y-94571428D01*
X165002438Y-94571428D02*
X164954819Y-94428571D01*
X164954819Y-94428571D02*
X164954819Y-94333333D01*
X164954819Y-94333333D02*
X165002438Y-94190476D01*
X165002438Y-94190476D02*
X165050057Y-94142857D01*
X165954819Y-93190476D02*
X165954819Y-93761904D01*
X165954819Y-93476190D02*
X164954819Y-93476190D01*
X164954819Y-93476190D02*
X165097676Y-93571428D01*
X165097676Y-93571428D02*
X165192914Y-93666666D01*
X165192914Y-93666666D02*
X165240533Y-93761904D01*
X165288152Y-92333333D02*
X165954819Y-92333333D01*
X164907200Y-92571428D02*
X165621485Y-92809523D01*
X165621485Y-92809523D02*
X165621485Y-92190476D01*
X151359580Y-107642857D02*
X151407200Y-107690476D01*
X151407200Y-107690476D02*
X151454819Y-107833333D01*
X151454819Y-107833333D02*
X151454819Y-107928571D01*
X151454819Y-107928571D02*
X151407200Y-108071428D01*
X151407200Y-108071428D02*
X151311961Y-108166666D01*
X151311961Y-108166666D02*
X151216723Y-108214285D01*
X151216723Y-108214285D02*
X151026247Y-108261904D01*
X151026247Y-108261904D02*
X150883390Y-108261904D01*
X150883390Y-108261904D02*
X150692914Y-108214285D01*
X150692914Y-108214285D02*
X150597676Y-108166666D01*
X150597676Y-108166666D02*
X150502438Y-108071428D01*
X150502438Y-108071428D02*
X150454819Y-107928571D01*
X150454819Y-107928571D02*
X150454819Y-107833333D01*
X150454819Y-107833333D02*
X150502438Y-107690476D01*
X150502438Y-107690476D02*
X150550057Y-107642857D01*
X150550057Y-107261904D02*
X150502438Y-107214285D01*
X150502438Y-107214285D02*
X150454819Y-107119047D01*
X150454819Y-107119047D02*
X150454819Y-106880952D01*
X150454819Y-106880952D02*
X150502438Y-106785714D01*
X150502438Y-106785714D02*
X150550057Y-106738095D01*
X150550057Y-106738095D02*
X150645295Y-106690476D01*
X150645295Y-106690476D02*
X150740533Y-106690476D01*
X150740533Y-106690476D02*
X150883390Y-106738095D01*
X150883390Y-106738095D02*
X151454819Y-107309523D01*
X151454819Y-107309523D02*
X151454819Y-106690476D01*
X150788152Y-105833333D02*
X151454819Y-105833333D01*
X150407200Y-106071428D02*
X151121485Y-106309523D01*
X151121485Y-106309523D02*
X151121485Y-105690476D01*
X152109580Y-92666666D02*
X152157200Y-92714285D01*
X152157200Y-92714285D02*
X152204819Y-92857142D01*
X152204819Y-92857142D02*
X152204819Y-92952380D01*
X152204819Y-92952380D02*
X152157200Y-93095237D01*
X152157200Y-93095237D02*
X152061961Y-93190475D01*
X152061961Y-93190475D02*
X151966723Y-93238094D01*
X151966723Y-93238094D02*
X151776247Y-93285713D01*
X151776247Y-93285713D02*
X151633390Y-93285713D01*
X151633390Y-93285713D02*
X151442914Y-93238094D01*
X151442914Y-93238094D02*
X151347676Y-93190475D01*
X151347676Y-93190475D02*
X151252438Y-93095237D01*
X151252438Y-93095237D02*
X151204819Y-92952380D01*
X151204819Y-92952380D02*
X151204819Y-92857142D01*
X151204819Y-92857142D02*
X151252438Y-92714285D01*
X151252438Y-92714285D02*
X151300057Y-92666666D01*
X152204819Y-91714285D02*
X152204819Y-92285713D01*
X152204819Y-91999999D02*
X151204819Y-91999999D01*
X151204819Y-91999999D02*
X151347676Y-92095237D01*
X151347676Y-92095237D02*
X151442914Y-92190475D01*
X151442914Y-92190475D02*
X151490533Y-92285713D01*
X168168394Y-96109580D02*
X168120775Y-96157200D01*
X168120775Y-96157200D02*
X167977918Y-96204819D01*
X167977918Y-96204819D02*
X167882680Y-96204819D01*
X167882680Y-96204819D02*
X167739823Y-96157200D01*
X167739823Y-96157200D02*
X167644585Y-96061961D01*
X167644585Y-96061961D02*
X167596966Y-95966723D01*
X167596966Y-95966723D02*
X167549347Y-95776247D01*
X167549347Y-95776247D02*
X167549347Y-95633390D01*
X167549347Y-95633390D02*
X167596966Y-95442914D01*
X167596966Y-95442914D02*
X167644585Y-95347676D01*
X167644585Y-95347676D02*
X167739823Y-95252438D01*
X167739823Y-95252438D02*
X167882680Y-95204819D01*
X167882680Y-95204819D02*
X167977918Y-95204819D01*
X167977918Y-95204819D02*
X168120775Y-95252438D01*
X168120775Y-95252438D02*
X168168394Y-95300057D01*
X169120775Y-96204819D02*
X168549347Y-96204819D01*
X168835061Y-96204819D02*
X168835061Y-95204819D01*
X168835061Y-95204819D02*
X168739823Y-95347676D01*
X168739823Y-95347676D02*
X168644585Y-95442914D01*
X168644585Y-95442914D02*
X168549347Y-95490533D01*
X170025537Y-95204819D02*
X169549347Y-95204819D01*
X169549347Y-95204819D02*
X169501728Y-95681009D01*
X169501728Y-95681009D02*
X169549347Y-95633390D01*
X169549347Y-95633390D02*
X169644585Y-95585771D01*
X169644585Y-95585771D02*
X169882680Y-95585771D01*
X169882680Y-95585771D02*
X169977918Y-95633390D01*
X169977918Y-95633390D02*
X170025537Y-95681009D01*
X170025537Y-95681009D02*
X170073156Y-95776247D01*
X170073156Y-95776247D02*
X170073156Y-96014342D01*
X170073156Y-96014342D02*
X170025537Y-96109580D01*
X170025537Y-96109580D02*
X169977918Y-96157200D01*
X169977918Y-96157200D02*
X169882680Y-96204819D01*
X169882680Y-96204819D02*
X169644585Y-96204819D01*
X169644585Y-96204819D02*
X169549347Y-96157200D01*
X169549347Y-96157200D02*
X169501728Y-96109580D01*
X127833333Y-97204819D02*
X127500000Y-96728628D01*
X127261905Y-97204819D02*
X127261905Y-96204819D01*
X127261905Y-96204819D02*
X127642857Y-96204819D01*
X127642857Y-96204819D02*
X127738095Y-96252438D01*
X127738095Y-96252438D02*
X127785714Y-96300057D01*
X127785714Y-96300057D02*
X127833333Y-96395295D01*
X127833333Y-96395295D02*
X127833333Y-96538152D01*
X127833333Y-96538152D02*
X127785714Y-96633390D01*
X127785714Y-96633390D02*
X127738095Y-96681009D01*
X127738095Y-96681009D02*
X127642857Y-96728628D01*
X127642857Y-96728628D02*
X127261905Y-96728628D01*
X128166667Y-96204819D02*
X128833333Y-96204819D01*
X128833333Y-96204819D02*
X128404762Y-97204819D01*
X156124819Y-105142857D02*
X155648628Y-105476190D01*
X156124819Y-105714285D02*
X155124819Y-105714285D01*
X155124819Y-105714285D02*
X155124819Y-105333333D01*
X155124819Y-105333333D02*
X155172438Y-105238095D01*
X155172438Y-105238095D02*
X155220057Y-105190476D01*
X155220057Y-105190476D02*
X155315295Y-105142857D01*
X155315295Y-105142857D02*
X155458152Y-105142857D01*
X155458152Y-105142857D02*
X155553390Y-105190476D01*
X155553390Y-105190476D02*
X155601009Y-105238095D01*
X155601009Y-105238095D02*
X155648628Y-105333333D01*
X155648628Y-105333333D02*
X155648628Y-105714285D01*
X155220057Y-104761904D02*
X155172438Y-104714285D01*
X155172438Y-104714285D02*
X155124819Y-104619047D01*
X155124819Y-104619047D02*
X155124819Y-104380952D01*
X155124819Y-104380952D02*
X155172438Y-104285714D01*
X155172438Y-104285714D02*
X155220057Y-104238095D01*
X155220057Y-104238095D02*
X155315295Y-104190476D01*
X155315295Y-104190476D02*
X155410533Y-104190476D01*
X155410533Y-104190476D02*
X155553390Y-104238095D01*
X155553390Y-104238095D02*
X156124819Y-104809523D01*
X156124819Y-104809523D02*
X156124819Y-104190476D01*
X155124819Y-103857142D02*
X155124819Y-103238095D01*
X155124819Y-103238095D02*
X155505771Y-103571428D01*
X155505771Y-103571428D02*
X155505771Y-103428571D01*
X155505771Y-103428571D02*
X155553390Y-103333333D01*
X155553390Y-103333333D02*
X155601009Y-103285714D01*
X155601009Y-103285714D02*
X155696247Y-103238095D01*
X155696247Y-103238095D02*
X155934342Y-103238095D01*
X155934342Y-103238095D02*
X156029580Y-103285714D01*
X156029580Y-103285714D02*
X156077200Y-103333333D01*
X156077200Y-103333333D02*
X156124819Y-103428571D01*
X156124819Y-103428571D02*
X156124819Y-103714285D01*
X156124819Y-103714285D02*
X156077200Y-103809523D01*
X156077200Y-103809523D02*
X156029580Y-103857142D01*
D11*
%TO.C,U4*%
X137902500Y-99627500D02*
X137902500Y-100102500D01*
X137902500Y-103847500D02*
X137902500Y-103372500D01*
X138377500Y-99627500D02*
X137902500Y-99627500D01*
X138377500Y-103847500D02*
X137902500Y-103847500D01*
X141647500Y-99627500D02*
X142122500Y-99627500D01*
X141647500Y-103847500D02*
X141822500Y-103847500D01*
X142122500Y-99627500D02*
X142122500Y-100102500D01*
X142122500Y-103372500D02*
X142122500Y-103607500D01*
X142362500Y-104177500D02*
X141882500Y-104177500D01*
X142122500Y-103847500D01*
X142362500Y-104177500D01*
G36*
X142362500Y-104177500D02*
G01*
X141882500Y-104177500D01*
X142122500Y-103847500D01*
X142362500Y-104177500D01*
G37*
%TO.C,C19*%
X136377836Y-101640000D02*
X136162164Y-101640000D01*
X136377836Y-102360000D02*
X136162164Y-102360000D01*
%TO.C,R25*%
X157653641Y-100870000D02*
X157346359Y-100870000D01*
X157653641Y-101630000D02*
X157346359Y-101630000D01*
%TO.C,R19*%
X154163641Y-108120000D02*
X153856359Y-108120000D01*
X154163641Y-108880000D02*
X153856359Y-108880000D01*
%TO.C,C9*%
X148890000Y-97127836D02*
X148890000Y-96912164D01*
X149610000Y-97127836D02*
X149610000Y-96912164D01*
%TO.C,Y1*%
D12*
X157750000Y-108650000D02*
X155550000Y-108650000D01*
X155550000Y-106050000D01*
X157750000Y-106050000D01*
X157750000Y-108650000D01*
X157700000Y-108850000D02*
G75*
G02*
X157600000Y-108850000I-50000J0D01*
G01*
X157600000Y-108850000D02*
G75*
G02*
X157700000Y-108850000I50000J0D01*
G01*
D11*
%TO.C,C8*%
X138190000Y-92822164D02*
X138190000Y-93037836D01*
X138910000Y-92822164D02*
X138910000Y-93037836D01*
%TO.C,C20*%
X150390000Y-104837836D02*
X150390000Y-104622164D01*
X151110000Y-104837836D02*
X151110000Y-104622164D01*
%TO.C,R13*%
X164478641Y-90420000D02*
X164171359Y-90420000D01*
X164478641Y-91180000D02*
X164171359Y-91180000D01*
%TO.C,U5*%
X146862500Y-99890000D02*
X146062500Y-99890000D01*
X146862500Y-99890000D02*
X147662500Y-99890000D01*
X146862500Y-103010000D02*
X146062500Y-103010000D01*
X146862500Y-103010000D02*
X147662500Y-103010000D01*
X148402500Y-103290000D02*
X147922500Y-103290000D01*
X148162500Y-102960000D01*
X148402500Y-103290000D01*
G36*
X148402500Y-103290000D02*
G01*
X147922500Y-103290000D01*
X148162500Y-102960000D01*
X148402500Y-103290000D01*
G37*
%TO.C,TP1*%
X155200000Y-94250000D02*
G75*
G02*
X152800000Y-94250000I-1200000J0D01*
G01*
X152800000Y-94250000D02*
G75*
G02*
X155200000Y-94250000I1200000J0D01*
G01*
%TO.C,R6*%
X136263641Y-91220000D02*
X135956359Y-91220000D01*
X136263641Y-91980000D02*
X135956359Y-91980000D01*
%TO.C,R26*%
X169763641Y-109120000D02*
X169456359Y-109120000D01*
X169763641Y-109880000D02*
X169456359Y-109880000D01*
%TO.C,C21*%
X129627836Y-101640000D02*
X129412164Y-101640000D01*
X129627836Y-102360000D02*
X129412164Y-102360000D01*
%TO.C,L1*%
X168936252Y-104390000D02*
X168413748Y-104390000D01*
X168936252Y-106610000D02*
X168413748Y-106610000D01*
%TO.C,C28*%
X158390000Y-107662164D02*
X158390000Y-107877836D01*
X159110000Y-107662164D02*
X159110000Y-107877836D01*
%TO.C,C23*%
X145587836Y-103640000D02*
X145372164Y-103640000D01*
X145587836Y-104360000D02*
X145372164Y-104360000D01*
%TO.C,R12*%
X157120000Y-95606359D02*
X157120000Y-95913641D01*
X157880000Y-95606359D02*
X157880000Y-95913641D01*
%TO.C,R4*%
X146213641Y-91070000D02*
X145906359Y-91070000D01*
X146213641Y-91830000D02*
X145906359Y-91830000D01*
%TO.C,U6*%
X151140000Y-99190000D02*
X151140000Y-98955000D01*
X151140000Y-102935000D02*
X151140000Y-102460000D01*
X151615000Y-98715000D02*
X151440000Y-98715000D01*
X151615000Y-102935000D02*
X151140000Y-102935000D01*
X154885000Y-98715000D02*
X155360000Y-98715000D01*
X154885000Y-102935000D02*
X155360000Y-102935000D01*
X155360000Y-98715000D02*
X155360000Y-99190000D01*
X155360000Y-102935000D02*
X155360000Y-102460000D01*
X151140000Y-98715000D02*
X150900000Y-98385000D01*
X151380000Y-98385000D01*
X151140000Y-98715000D01*
G36*
X151140000Y-98715000D02*
G01*
X150900000Y-98385000D01*
X151380000Y-98385000D01*
X151140000Y-98715000D01*
G37*
%TO.C,R8*%
X166686359Y-99370000D02*
X166993641Y-99370000D01*
X166686359Y-100130000D02*
X166993641Y-100130000D01*
%TO.C,R27*%
X157606359Y-109120000D02*
X157913641Y-109120000D01*
X157606359Y-109880000D02*
X157913641Y-109880000D01*
%TO.C,U3*%
X160887500Y-91240000D02*
X160087500Y-91240000D01*
X160887500Y-91240000D02*
X161687500Y-91240000D01*
X160887500Y-94360000D02*
X160087500Y-94360000D01*
X160887500Y-94360000D02*
X161687500Y-94360000D01*
X162427500Y-94640000D02*
X161947500Y-94640000D01*
X162187500Y-94310000D01*
X162427500Y-94640000D01*
G36*
X162427500Y-94640000D02*
G01*
X161947500Y-94640000D01*
X162187500Y-94310000D01*
X162427500Y-94640000D01*
G37*
%TO.C,R28*%
X157653641Y-103370000D02*
X157346359Y-103370000D01*
X157653641Y-104130000D02*
X157346359Y-104130000D01*
%TO.C,C29*%
X155640000Y-109872164D02*
X155640000Y-110087836D01*
X156360000Y-109872164D02*
X156360000Y-110087836D01*
%TO.C,C13*%
X155890000Y-96892164D02*
X155890000Y-97107836D01*
X156610000Y-96892164D02*
X156610000Y-97107836D01*
%TO.C,R1*%
X147620000Y-96856359D02*
X147620000Y-97163641D01*
X148380000Y-96856359D02*
X148380000Y-97163641D01*
%TO.C,R29*%
X169763641Y-107620000D02*
X169456359Y-107620000D01*
X169763641Y-108380000D02*
X169456359Y-108380000D01*
%TO.C,C26*%
X151640000Y-104837836D02*
X151640000Y-104622164D01*
X152360000Y-104837836D02*
X152360000Y-104622164D01*
%TO.C,R10*%
X157673641Y-99620000D02*
X157366359Y-99620000D01*
X157673641Y-100380000D02*
X157366359Y-100380000D01*
%TO.C,U1*%
X142050000Y-91890000D02*
X141250000Y-91890000D01*
X142050000Y-91890000D02*
X142850000Y-91890000D01*
X142050000Y-95010000D02*
X141250000Y-95010000D01*
X142050000Y-95010000D02*
X142850000Y-95010000D01*
X143590000Y-95290000D02*
X143110000Y-95290000D01*
X143350000Y-94960000D01*
X143590000Y-95290000D01*
G36*
X143590000Y-95290000D02*
G01*
X143110000Y-95290000D01*
X143350000Y-94960000D01*
X143590000Y-95290000D01*
G37*
%TO.C,C12*%
X173190000Y-98263748D02*
X173190000Y-99686252D01*
X175010000Y-98263748D02*
X175010000Y-99686252D01*
%TO.C,R24*%
X154120000Y-106836359D02*
X154120000Y-107143641D01*
X154880000Y-106836359D02*
X154880000Y-107143641D01*
%TO.C,R30*%
X167220000Y-108346359D02*
X167220000Y-108653641D01*
X167980000Y-108346359D02*
X167980000Y-108653641D01*
%TO.C,R31*%
X159620000Y-107893641D02*
X159620000Y-107586359D01*
X160380000Y-107893641D02*
X160380000Y-107586359D01*
%TO.C,U2*%
X133462500Y-92590000D02*
X132662500Y-92590000D01*
X133462500Y-92590000D02*
X134262500Y-92590000D01*
X133462500Y-95710000D02*
X132662500Y-95710000D01*
X133462500Y-95710000D02*
X134262500Y-95710000D01*
X135002500Y-95990000D02*
X134522500Y-95990000D01*
X134762500Y-95660000D01*
X135002500Y-95990000D01*
G36*
X135002500Y-95990000D02*
G01*
X134522500Y-95990000D01*
X134762500Y-95660000D01*
X135002500Y-95990000D01*
G37*
%TO.C,D1*%
X174012500Y-110235000D02*
X176297500Y-110235000D01*
X176297500Y-108765000D02*
X174012500Y-108765000D01*
X176297500Y-110235000D02*
X176297500Y-108765000D01*
%TO.C,Q1*%
X168362500Y-91690000D02*
X167562500Y-91690000D01*
X168362500Y-91690000D02*
X169162500Y-91690000D01*
X168362500Y-94810000D02*
X167562500Y-94810000D01*
X168362500Y-94810000D02*
X169162500Y-94810000D01*
X167062500Y-91740000D02*
X166822500Y-91410000D01*
X167302500Y-91410000D01*
X167062500Y-91740000D01*
G36*
X167062500Y-91740000D02*
G01*
X166822500Y-91410000D01*
X167302500Y-91410000D01*
X167062500Y-91740000D01*
G37*
%TO.C,Q2*%
X172240000Y-105812500D02*
X172240000Y-105162500D01*
X172240000Y-105812500D02*
X172240000Y-106462500D01*
X175360000Y-105812500D02*
X175360000Y-105162500D01*
X175360000Y-105812500D02*
X175360000Y-106462500D01*
X172290000Y-106975000D02*
X171960000Y-107215000D01*
X171960000Y-106735000D01*
X172290000Y-106975000D01*
G36*
X172290000Y-106975000D02*
G01*
X171960000Y-107215000D01*
X171960000Y-106735000D01*
X172290000Y-106975000D01*
G37*
%TO.C,R32*%
X157653641Y-104620000D02*
X157346359Y-104620000D01*
X157653641Y-105380000D02*
X157346359Y-105380000D01*
%TO.C,R18*%
X133120000Y-103913641D02*
X133120000Y-103606359D01*
X133880000Y-103913641D02*
X133880000Y-103606359D01*
%TO.C,R33*%
X157673641Y-102120000D02*
X157366359Y-102120000D01*
X157673641Y-102880000D02*
X157366359Y-102880000D01*
%TO.C,U7*%
X168570000Y-99470000D02*
X169045000Y-99470000D01*
X168570000Y-99945000D02*
X168570000Y-99470000D01*
X168570000Y-102215000D02*
X168570000Y-102390000D01*
X169045000Y-102690000D02*
X168810000Y-102690000D01*
X171790000Y-99470000D02*
X171315000Y-99470000D01*
X171790000Y-99945000D02*
X171790000Y-99470000D01*
X171790000Y-102215000D02*
X171790000Y-102690000D01*
X171790000Y-102690000D02*
X171315000Y-102690000D01*
X168570000Y-102690000D02*
X168240000Y-102930000D01*
X168240000Y-102450000D01*
X168570000Y-102690000D01*
G36*
X168570000Y-102690000D02*
G01*
X168240000Y-102930000D01*
X168240000Y-102450000D01*
X168570000Y-102690000D01*
G37*
%TO.C,C11*%
X154640000Y-96912164D02*
X154640000Y-97127836D01*
X155360000Y-96912164D02*
X155360000Y-97127836D01*
%TO.C,R15*%
X149339940Y-106077341D02*
X149122659Y-105860060D01*
X149877341Y-105539940D02*
X149660060Y-105322659D01*
%TO.C,R11*%
X155870000Y-94893641D02*
X155870000Y-94586359D01*
X156630000Y-94893641D02*
X156630000Y-94586359D01*
%TO.C,R2*%
X146413641Y-98370000D02*
X146106359Y-98370000D01*
X146413641Y-99130000D02*
X146106359Y-99130000D01*
%TO.C,R3*%
X142406359Y-96570000D02*
X142713641Y-96570000D01*
X142406359Y-97330000D02*
X142713641Y-97330000D01*
%TO.C,R14*%
X143370000Y-100856359D02*
X143370000Y-101163641D01*
X144130000Y-100856359D02*
X144130000Y-101163641D01*
%TO.C,C3*%
X145040000Y-94415580D02*
X145040000Y-94134420D01*
X146060000Y-94415580D02*
X146060000Y-94134420D01*
%TO.C,C4*%
X139761252Y-96215000D02*
X139238748Y-96215000D01*
X139761252Y-97685000D02*
X139238748Y-97685000D01*
%TO.C,C5*%
X135940000Y-94727836D02*
X135940000Y-94512164D01*
X136660000Y-94727836D02*
X136660000Y-94512164D01*
%TO.C,C6*%
X151390000Y-96912164D02*
X151390000Y-97127836D01*
X152110000Y-96912164D02*
X152110000Y-97127836D01*
%TO.C,R34*%
X172013641Y-109120000D02*
X171706359Y-109120000D01*
X172013641Y-109880000D02*
X171706359Y-109880000D01*
%TO.C,C30*%
X166090000Y-102365580D02*
X166090000Y-102084420D01*
X167110000Y-102365580D02*
X167110000Y-102084420D01*
%TO.C,C16*%
X157315000Y-93165580D02*
X157315000Y-92884420D01*
X158335000Y-93165580D02*
X158335000Y-92884420D01*
%TO.C,C10*%
X129590000Y-94515580D02*
X129590000Y-94234420D01*
X130610000Y-94515580D02*
X130610000Y-94234420D01*
%TO.C,C18*%
X140704664Y-104890000D02*
X140920336Y-104890000D01*
X140704664Y-105610000D02*
X140920336Y-105610000D01*
%TO.C,C17*%
X149232282Y-103258601D02*
X149079779Y-103411104D01*
X149741399Y-103767718D02*
X149588896Y-103920221D01*
%TO.C,R17*%
X143370000Y-103356359D02*
X143370000Y-103663641D01*
X144130000Y-103356359D02*
X144130000Y-103663641D01*
%TO.C,R16*%
X131913641Y-101630000D02*
X131606359Y-101630000D01*
X131913641Y-102390000D02*
X131606359Y-102390000D01*
%TO.C,J1*%
X159620000Y-95120000D02*
X161000000Y-95120000D01*
X159620000Y-96500000D02*
X159620000Y-95120000D01*
X159620000Y-97770000D02*
X159620000Y-105500000D01*
X159620000Y-97770000D02*
X162270000Y-97770000D01*
X159620000Y-105500000D02*
X164920000Y-105500000D01*
X162270000Y-95120000D02*
X164920000Y-95120000D01*
X162270000Y-97770000D02*
X162270000Y-95120000D01*
X164920000Y-95120000D02*
X164920000Y-105500000D01*
%TO.C,R22*%
X160870000Y-107893641D02*
X160870000Y-107586359D01*
X161630000Y-107893641D02*
X161630000Y-107586359D01*
%TO.C,R9*%
X157366359Y-98370000D02*
X157673641Y-98370000D01*
X157366359Y-99130000D02*
X157673641Y-99130000D01*
%TO.C,C27*%
X138640000Y-105607836D02*
X138640000Y-105392164D01*
X139360000Y-105607836D02*
X139360000Y-105392164D01*
%TO.C,C7*%
X149627836Y-98390000D02*
X149412164Y-98390000D01*
X149627836Y-99110000D02*
X149412164Y-99110000D01*
%TO.C,R21*%
X162120000Y-107596359D02*
X162120000Y-107903641D01*
X162880000Y-107596359D02*
X162880000Y-107903641D01*
%TO.C,R5*%
X150120000Y-96836359D02*
X150120000Y-97143641D01*
X150880000Y-96836359D02*
X150880000Y-97143641D01*
%TO.C,C2*%
X149640000Y-100607836D02*
X149640000Y-100392164D01*
X150360000Y-100607836D02*
X150360000Y-100392164D01*
%TO.C,C25*%
X152890000Y-104857836D02*
X152890000Y-104642164D01*
X153610000Y-104857836D02*
X153610000Y-104642164D01*
%TO.C,C14*%
X163565000Y-93215580D02*
X163565000Y-92934420D01*
X164585000Y-93215580D02*
X164585000Y-92934420D01*
%TO.C,C24*%
X152890000Y-107087836D02*
X152890000Y-106872164D01*
X153610000Y-107087836D02*
X153610000Y-106872164D01*
%TO.C,R20*%
X134143641Y-101630000D02*
X133836359Y-101630000D01*
X134143641Y-102390000D02*
X133836359Y-102390000D01*
%TO.C,C22*%
X137390000Y-105627836D02*
X137390000Y-105412164D01*
X138110000Y-105627836D02*
X138110000Y-105412164D01*
%TO.C,C1*%
X152640000Y-96912164D02*
X152640000Y-97127836D01*
X153360000Y-96912164D02*
X153360000Y-97127836D01*
%TO.C,C15*%
X168811252Y-96765000D02*
X168288748Y-96765000D01*
X168811252Y-98235000D02*
X168288748Y-98235000D01*
%TO.C,R7*%
X130436359Y-96420000D02*
X130743641Y-96420000D01*
X130436359Y-97180000D02*
X130743641Y-97180000D01*
%TO.C,R23*%
X154120000Y-104586359D02*
X154120000Y-104893641D01*
X154880000Y-104586359D02*
X154880000Y-104893641D01*
%TD*%
M02*
