%TF.GenerationSoftware,KiCad,Pcbnew,9.0.1-1.fc42*%
%TF.CreationDate,2025-04-12T13:57:23+02:00*%
%TF.ProjectId,ADF4158_PCB,41444634-3135-4385-9f50-43422e6b6963,rev?*%
%TF.SameCoordinates,Original*%
%TF.FileFunction,Copper,L1,Top*%
%TF.FilePolarity,Positive*%
%FSLAX46Y46*%
G04 Gerber Fmt 4.6, Leading zero omitted, Abs format (unit mm)*
G04 Created by KiCad (PCBNEW 9.0.1-1.fc42) date 2025-04-12 13:57:23*
%MOMM*%
%LPD*%
G01*
G04 APERTURE LIST*
G04 Aperture macros list*
%AMRoundRect*
0 Rectangle with rounded corners*
0 $1 Rounding radius*
0 $2 $3 $4 $5 $6 $7 $8 $9 X,Y pos of 4 corners*
0 Add a 4 corners polygon primitive as box body*
4,1,4,$2,$3,$4,$5,$6,$7,$8,$9,$2,$3,0*
0 Add four circle primitives for the rounded corners*
1,1,$1+$1,$2,$3*
1,1,$1+$1,$4,$5*
1,1,$1+$1,$6,$7*
1,1,$1+$1,$8,$9*
0 Add four rect primitives between the rounded corners*
20,1,$1+$1,$2,$3,$4,$5,0*
20,1,$1+$1,$4,$5,$6,$7,0*
20,1,$1+$1,$6,$7,$8,$9,0*
20,1,$1+$1,$8,$9,$2,$3,0*%
G04 Aperture macros list end*
%TA.AperFunction,Conductor*%
%ADD10C,0.200000*%
%TD*%
%TA.AperFunction,SMDPad,CuDef*%
%ADD11RoundRect,0.062500X0.325000X0.062500X-0.325000X0.062500X-0.325000X-0.062500X0.325000X-0.062500X0*%
%TD*%
%TA.AperFunction,SMDPad,CuDef*%
%ADD12RoundRect,0.062500X0.062500X0.325000X-0.062500X0.325000X-0.062500X-0.325000X0.062500X-0.325000X0*%
%TD*%
%TA.AperFunction,HeatsinkPad*%
%ADD13R,2.800000X2.800000*%
%TD*%
%TA.AperFunction,SMDPad,CuDef*%
%ADD14RoundRect,0.140000X0.140000X0.170000X-0.140000X0.170000X-0.140000X-0.170000X0.140000X-0.170000X0*%
%TD*%
%TA.AperFunction,SMDPad,CuDef*%
%ADD15RoundRect,0.135000X0.135000X0.185000X-0.135000X0.185000X-0.135000X-0.185000X0.135000X-0.185000X0*%
%TD*%
%TA.AperFunction,SMDPad,CuDef*%
%ADD16RoundRect,0.140000X0.170000X-0.140000X0.170000X0.140000X-0.170000X0.140000X-0.170000X-0.140000X0*%
%TD*%
%TA.AperFunction,SMDPad,CuDef*%
%ADD17R,0.800000X0.600000*%
%TD*%
%TA.AperFunction,SMDPad,CuDef*%
%ADD18RoundRect,0.140000X-0.170000X0.140000X-0.170000X-0.140000X0.170000X-0.140000X0.170000X0.140000X0*%
%TD*%
%TA.AperFunction,SMDPad,CuDef*%
%ADD19RoundRect,0.150000X0.512500X0.150000X-0.512500X0.150000X-0.512500X-0.150000X0.512500X-0.150000X0*%
%TD*%
%TA.AperFunction,SMDPad,CuDef*%
%ADD20C,2.000000*%
%TD*%
%TA.AperFunction,SMDPad,CuDef*%
%ADD21RoundRect,0.250000X0.375000X0.850000X-0.375000X0.850000X-0.375000X-0.850000X0.375000X-0.850000X0*%
%TD*%
%TA.AperFunction,SMDPad,CuDef*%
%ADD22R,1.800000X4.200000*%
%TD*%
%TA.AperFunction,SMDPad,CuDef*%
%ADD23RoundRect,0.135000X-0.185000X0.135000X-0.185000X-0.135000X0.185000X-0.135000X0.185000X0.135000X0*%
%TD*%
%TA.AperFunction,SMDPad,CuDef*%
%ADD24RoundRect,0.062500X-0.375000X-0.062500X0.375000X-0.062500X0.375000X0.062500X-0.375000X0.062500X0*%
%TD*%
%TA.AperFunction,SMDPad,CuDef*%
%ADD25RoundRect,0.062500X-0.062500X-0.375000X0.062500X-0.375000X0.062500X0.375000X-0.062500X0.375000X0*%
%TD*%
%TA.AperFunction,HeatsinkPad*%
%ADD26R,2.500000X2.500000*%
%TD*%
%TA.AperFunction,SMDPad,CuDef*%
%ADD27RoundRect,0.135000X-0.135000X-0.185000X0.135000X-0.185000X0.135000X0.185000X-0.135000X0.185000X0*%
%TD*%
%TA.AperFunction,SMDPad,CuDef*%
%ADD28RoundRect,0.250000X-0.650000X0.325000X-0.650000X-0.325000X0.650000X-0.325000X0.650000X0.325000X0*%
%TD*%
%TA.AperFunction,SMDPad,CuDef*%
%ADD29RoundRect,0.135000X0.185000X-0.135000X0.185000X0.135000X-0.185000X0.135000X-0.185000X-0.135000X0*%
%TD*%
%TA.AperFunction,SMDPad,CuDef*%
%ADD30RoundRect,0.218750X0.218750X0.256250X-0.218750X0.256250X-0.218750X-0.256250X0.218750X-0.256250X0*%
%TD*%
%TA.AperFunction,SMDPad,CuDef*%
%ADD31RoundRect,0.150000X-0.512500X-0.150000X0.512500X-0.150000X0.512500X0.150000X-0.512500X0.150000X0*%
%TD*%
%TA.AperFunction,SMDPad,CuDef*%
%ADD32RoundRect,0.150000X0.150000X-0.587500X0.150000X0.587500X-0.150000X0.587500X-0.150000X-0.587500X0*%
%TD*%
%TA.AperFunction,SMDPad,CuDef*%
%ADD33RoundRect,0.062500X0.062500X-0.350000X0.062500X0.350000X-0.062500X0.350000X-0.062500X-0.350000X0*%
%TD*%
%TA.AperFunction,SMDPad,CuDef*%
%ADD34RoundRect,0.062500X0.350000X-0.062500X0.350000X0.062500X-0.350000X0.062500X-0.350000X-0.062500X0*%
%TD*%
%TA.AperFunction,HeatsinkPad*%
%ADD35C,0.500000*%
%TD*%
%TA.AperFunction,HeatsinkPad*%
%ADD36R,1.680000X1.680000*%
%TD*%
%TA.AperFunction,SMDPad,CuDef*%
%ADD37RoundRect,0.135000X0.226274X0.035355X0.035355X0.226274X-0.226274X-0.035355X-0.035355X-0.226274X0*%
%TD*%
%TA.AperFunction,SMDPad,CuDef*%
%ADD38R,4.200000X1.800000*%
%TD*%
%TA.AperFunction,SMDPad,CuDef*%
%ADD39RoundRect,0.225000X0.250000X-0.225000X0.250000X0.225000X-0.250000X0.225000X-0.250000X-0.225000X0*%
%TD*%
%TA.AperFunction,SMDPad,CuDef*%
%ADD40RoundRect,0.250000X0.250000X0.475000X-0.250000X0.475000X-0.250000X-0.475000X0.250000X-0.475000X0*%
%TD*%
%TA.AperFunction,SMDPad,CuDef*%
%ADD41RoundRect,0.140000X-0.140000X-0.170000X0.140000X-0.170000X0.140000X0.170000X-0.140000X0.170000X0*%
%TD*%
%TA.AperFunction,SMDPad,CuDef*%
%ADD42RoundRect,0.140000X-0.021213X0.219203X-0.219203X0.021213X0.021213X-0.219203X0.219203X-0.021213X0*%
%TD*%
%TA.AperFunction,ComponentPad*%
%ADD43R,1.700000X1.700000*%
%TD*%
%TA.AperFunction,ComponentPad*%
%ADD44C,1.700000*%
%TD*%
%TA.AperFunction,ViaPad*%
%ADD45C,0.600000*%
%TD*%
%TA.AperFunction,Conductor*%
%ADD46C,0.400000*%
%TD*%
%TA.AperFunction,Conductor*%
%ADD47C,0.820000*%
%TD*%
G04 APERTURE END LIST*
D10*
%TO.N,Net-(U1-ON{slash}~{OFF})*%
X145850000Y-91750000D02*
X143850000Y-91750000D01*
X143850000Y-92750000D01*
X142550000Y-92750000D01*
X142550000Y-91050000D01*
X145850000Y-91050000D01*
X145850000Y-91750000D01*
%TA.AperFunction,Conductor*%
G36*
X145850000Y-91750000D02*
G01*
X143850000Y-91750000D01*
X143850000Y-92750000D01*
X142550000Y-92750000D01*
X142550000Y-91050000D01*
X145850000Y-91050000D01*
X145850000Y-91750000D01*
G37*
%TD.AperFunction*%
%TO.N,Net-(U2-EN)*%
X135900000Y-92000000D02*
X135300000Y-92000000D01*
X135300000Y-93500000D01*
X134000000Y-93500000D01*
X134000000Y-91200000D01*
X135900000Y-91200000D01*
X135900000Y-92000000D01*
%TA.AperFunction,Conductor*%
G36*
X135900000Y-92000000D02*
G01*
X135300000Y-92000000D01*
X135300000Y-93500000D01*
X134000000Y-93500000D01*
X134000000Y-91200000D01*
X135900000Y-91200000D01*
X135900000Y-92000000D01*
G37*
%TD.AperFunction*%
%TO.N,Net-(U2-OUT)*%
X133200000Y-95600000D02*
X130400000Y-95600000D01*
X130400000Y-97100000D01*
X129500000Y-97100000D01*
X129500000Y-94800000D01*
X133200000Y-94800000D01*
X133200000Y-95600000D01*
%TA.AperFunction,Conductor*%
G36*
X133200000Y-95600000D02*
G01*
X130400000Y-95600000D01*
X130400000Y-97100000D01*
X129500000Y-97100000D01*
X129500000Y-94800000D01*
X133200000Y-94800000D01*
X133200000Y-95600000D01*
G37*
%TD.AperFunction*%
%TO.N,GND*%
X161025000Y-92500000D02*
X163125000Y-92500000D01*
X163125000Y-91600000D01*
X164625000Y-91600000D01*
X164625000Y-93000000D01*
X156925000Y-93000000D01*
X156925000Y-91000000D01*
X161000000Y-91000000D01*
X161025000Y-92500000D01*
%TA.AperFunction,Conductor*%
G36*
X161025000Y-92500000D02*
G01*
X163125000Y-92500000D01*
X163125000Y-91600000D01*
X164625000Y-91600000D01*
X164625000Y-93000000D01*
X156925000Y-93000000D01*
X156925000Y-91000000D01*
X161000000Y-91000000D01*
X161025000Y-92500000D01*
G37*
%TD.AperFunction*%
%TO.N,Net-(U3-OUT)*%
X160625000Y-94500000D02*
X158000000Y-94500000D01*
X158000000Y-95500000D01*
X157000000Y-95500000D01*
X157025000Y-93400000D01*
X160625000Y-93400000D01*
X160625000Y-94500000D01*
%TA.AperFunction,Conductor*%
G36*
X160625000Y-94500000D02*
G01*
X158000000Y-94500000D01*
X158000000Y-95500000D01*
X157000000Y-95500000D01*
X157025000Y-93400000D01*
X160625000Y-93400000D01*
X160625000Y-94500000D01*
G37*
%TD.AperFunction*%
%TO.N,Net-(U3-EN)*%
X164025000Y-91000000D02*
X162725000Y-91000000D01*
X162725000Y-92100000D01*
X161425000Y-92100000D01*
X161425000Y-90400000D01*
X164025000Y-90400000D01*
X164025000Y-91000000D01*
%TA.AperFunction,Conductor*%
G36*
X164025000Y-91000000D02*
G01*
X162725000Y-91000000D01*
X162725000Y-92100000D01*
X161425000Y-92100000D01*
X161425000Y-90400000D01*
X164025000Y-90400000D01*
X164025000Y-91000000D01*
G37*
%TD.AperFunction*%
%TO.N,+5V*%
X137300000Y-95700000D02*
X133900000Y-95700000D01*
X133900000Y-94800000D01*
X137000000Y-94800000D01*
X137000000Y-92000000D01*
X136300000Y-92000000D01*
X136300000Y-91100000D01*
X137300000Y-91100000D01*
X137300000Y-95700000D01*
%TA.AperFunction,Conductor*%
G36*
X137300000Y-95700000D02*
G01*
X133900000Y-95700000D01*
X133900000Y-94800000D01*
X137000000Y-94800000D01*
X137000000Y-92000000D01*
X136300000Y-92000000D01*
X136300000Y-91100000D01*
X137300000Y-91100000D01*
X137300000Y-95700000D01*
G37*
%TD.AperFunction*%
%TO.N,Net-(U7-EN)*%
X170300000Y-98400000D02*
X170000000Y-99149999D01*
X170000000Y-99600000D01*
X169100000Y-99600000D01*
X168800000Y-99000000D01*
X168800000Y-96500000D01*
X170300000Y-96500000D01*
X170300000Y-98400000D01*
%TA.AperFunction,Conductor*%
G36*
X170300000Y-98400000D02*
G01*
X170000000Y-99149999D01*
X170000000Y-99600000D01*
X169100000Y-99600000D01*
X168800000Y-99000000D01*
X168800000Y-96500000D01*
X170300000Y-96500000D01*
X170300000Y-98400000D01*
G37*
%TD.AperFunction*%
%TO.N,Net-(L1-Pad1)*%
X170400000Y-103000000D02*
X171100000Y-103700000D01*
X171100000Y-106500000D01*
X168600000Y-106500000D01*
X168600000Y-105300000D01*
X168600000Y-103500000D01*
X169400000Y-103100000D01*
X169400000Y-102300000D01*
X170400000Y-102300000D01*
X170400000Y-103000000D01*
%TA.AperFunction,Conductor*%
G36*
X170400000Y-103000000D02*
G01*
X171100000Y-103700000D01*
X171100000Y-106500000D01*
X168600000Y-106500000D01*
X168600000Y-105300000D01*
X168600000Y-103500000D01*
X169400000Y-103100000D01*
X169400000Y-102300000D01*
X170400000Y-102300000D01*
X170400000Y-103000000D01*
G37*
%TD.AperFunction*%
%TO.N,GND*%
X145950000Y-93700000D02*
X139150000Y-93750000D01*
X139150000Y-97950000D01*
X138050000Y-97950000D01*
X138050000Y-93150000D01*
X144250000Y-93150000D01*
X144250000Y-92150000D01*
X145950000Y-92150000D01*
X145950000Y-93700000D01*
%TA.AperFunction,Conductor*%
G36*
X145950000Y-93700000D02*
G01*
X139150000Y-93750000D01*
X139150000Y-97950000D01*
X138050000Y-97950000D01*
X138050000Y-93150000D01*
X144250000Y-93150000D01*
X144250000Y-92150000D01*
X145950000Y-92150000D01*
X145950000Y-93700000D01*
G37*
%TD.AperFunction*%
%TO.N,Net-(Y1-Vcon)*%
X160250000Y-108500000D02*
X158500000Y-109750000D01*
X158000000Y-109750000D01*
X158000000Y-108900000D01*
X157250000Y-108500000D01*
X157000000Y-108500000D01*
X157000000Y-108000000D01*
X160250000Y-108000000D01*
X160250000Y-108500000D01*
%TA.AperFunction,Conductor*%
G36*
X160250000Y-108500000D02*
G01*
X158500000Y-109750000D01*
X158000000Y-109750000D01*
X158000000Y-108900000D01*
X157250000Y-108500000D01*
X157000000Y-108500000D01*
X157000000Y-108000000D01*
X160250000Y-108000000D01*
X160250000Y-108500000D01*
G37*
%TD.AperFunction*%
%TO.N,+5V*%
X165425000Y-94600000D02*
X161125000Y-94600000D01*
X161125000Y-93400000D01*
X165025000Y-93400000D01*
X165025000Y-90600000D01*
X165425000Y-90600000D01*
X165425000Y-94600000D01*
%TA.AperFunction,Conductor*%
G36*
X165425000Y-94600000D02*
G01*
X161125000Y-94600000D01*
X161125000Y-93400000D01*
X165025000Y-93400000D01*
X165025000Y-90600000D01*
X165425000Y-90600000D01*
X165425000Y-94600000D01*
G37*
%TD.AperFunction*%
%TO.N,+3V3*%
X156500000Y-108750000D02*
X157500000Y-109250000D01*
X157500000Y-109750000D01*
X155500000Y-109750000D01*
X155500000Y-108000000D01*
X156500000Y-108000000D01*
X156500000Y-108750000D01*
%TA.AperFunction,Conductor*%
G36*
X156500000Y-108750000D02*
G01*
X157500000Y-109250000D01*
X157500000Y-109750000D01*
X155500000Y-109750000D01*
X155500000Y-108000000D01*
X156500000Y-108000000D01*
X156500000Y-108750000D01*
G37*
%TD.AperFunction*%
%TO.N,+12V*%
X146950000Y-95750000D02*
X142550000Y-95750000D01*
X142550000Y-94150000D01*
X144650000Y-94150000D01*
X145350000Y-94550000D01*
X146350000Y-94550000D01*
X146350000Y-91150000D01*
X146950000Y-91150000D01*
X146950000Y-95750000D01*
%TA.AperFunction,Conductor*%
G36*
X146950000Y-95750000D02*
G01*
X142550000Y-95750000D01*
X142550000Y-94150000D01*
X144650000Y-94150000D01*
X145350000Y-94550000D01*
X146350000Y-94550000D01*
X146350000Y-91150000D01*
X146950000Y-91150000D01*
X146950000Y-95750000D01*
G37*
%TD.AperFunction*%
%TO.N,GND*%
X175200000Y-101800000D02*
X171000000Y-101800000D01*
X171000000Y-100350000D01*
X171927272Y-100350000D01*
X172400000Y-99700000D01*
X175200000Y-99700000D01*
X175200000Y-101800000D01*
%TA.AperFunction,Conductor*%
G36*
X175200000Y-101800000D02*
G01*
X171000000Y-101800000D01*
X171000000Y-100350000D01*
X171927272Y-100350000D01*
X172400000Y-99700000D01*
X175200000Y-99700000D01*
X175200000Y-101800000D01*
G37*
%TD.AperFunction*%
%TO.N,+3V0*%
X137500000Y-104750000D02*
X139250000Y-104750000D01*
X139250000Y-105250000D01*
X137500000Y-105250000D01*
X137500000Y-104750000D01*
%TA.AperFunction,Conductor*%
G36*
X137500000Y-104750000D02*
G01*
X139250000Y-104750000D01*
X139250000Y-105250000D01*
X137500000Y-105250000D01*
X137500000Y-104750000D01*
G37*
%TD.AperFunction*%
%TO.N,+3V3*%
X151500000Y-97250000D02*
X153250000Y-97250000D01*
X153250000Y-97750000D01*
X151500000Y-97750000D01*
X151500000Y-97250000D01*
%TA.AperFunction,Conductor*%
G36*
X151500000Y-97250000D02*
G01*
X153250000Y-97250000D01*
X153250000Y-97750000D01*
X151500000Y-97750000D01*
X151500000Y-97250000D01*
G37*
%TD.AperFunction*%
X156500000Y-97750000D02*
X155750000Y-99500000D01*
X155000000Y-99500000D01*
X154500000Y-99000000D01*
X154500000Y-98500000D01*
X154750000Y-98000000D01*
X154750000Y-97250000D01*
X156500000Y-97250000D01*
X156500000Y-97750000D01*
%TA.AperFunction,Conductor*%
G36*
X156500000Y-97750000D02*
G01*
X155750000Y-99500000D01*
X155000000Y-99500000D01*
X154500000Y-99000000D01*
X154500000Y-98500000D01*
X154750000Y-98000000D01*
X154750000Y-97250000D01*
X156500000Y-97250000D01*
X156500000Y-97750000D01*
G37*
%TD.AperFunction*%
%TO.N,GND*%
X136500000Y-94300000D02*
X129500000Y-94300000D01*
X129500000Y-92500000D01*
X133600000Y-92500000D01*
X133600000Y-93900000D01*
X135700000Y-93900000D01*
X135700000Y-92400000D01*
X136500000Y-92400000D01*
X136500000Y-94300000D01*
%TA.AperFunction,Conductor*%
G36*
X136500000Y-94300000D02*
G01*
X129500000Y-94300000D01*
X129500000Y-92500000D01*
X133600000Y-92500000D01*
X133600000Y-93900000D01*
X135700000Y-93900000D01*
X135700000Y-92400000D01*
X136500000Y-92400000D01*
X136500000Y-94300000D01*
G37*
%TD.AperFunction*%
%TO.N,+3V3*%
X151850000Y-102500000D02*
X152500000Y-102500000D01*
X152500000Y-104500000D01*
X150500000Y-104500000D01*
X150500000Y-103750000D01*
X151000000Y-102250000D01*
X151000000Y-102100000D01*
X151650000Y-102100000D01*
X151850000Y-102500000D01*
%TA.AperFunction,Conductor*%
G36*
X151850000Y-102500000D02*
G01*
X152500000Y-102500000D01*
X152500000Y-104500000D01*
X150500000Y-104500000D01*
X150500000Y-103750000D01*
X151000000Y-102250000D01*
X151000000Y-102100000D01*
X151650000Y-102100000D01*
X151850000Y-102500000D01*
G37*
%TD.AperFunction*%
%TO.N,Net-(U1-BP)*%
X138250000Y-91150000D02*
X141550000Y-91150000D01*
X141550000Y-92750000D01*
X138250000Y-92750000D01*
X138250000Y-91150000D01*
%TA.AperFunction,Conductor*%
G36*
X138250000Y-91150000D02*
G01*
X141550000Y-91150000D01*
X141550000Y-92750000D01*
X138250000Y-92750000D01*
X138250000Y-91150000D01*
G37*
%TD.AperFunction*%
%TO.N,GND*%
X168300000Y-101300000D02*
X169400000Y-101300000D01*
X169400000Y-101800000D01*
X166200000Y-101800000D01*
X166200000Y-101200000D01*
X168000000Y-101200000D01*
X168300000Y-101300000D01*
%TA.AperFunction,Conductor*%
G36*
X168300000Y-101300000D02*
G01*
X169400000Y-101300000D01*
X169400000Y-101800000D01*
X166200000Y-101800000D01*
X166200000Y-101200000D01*
X168000000Y-101200000D01*
X168300000Y-101300000D01*
G37*
%TD.AperFunction*%
%TO.N,Net-(U7-VOS)*%
X168200000Y-104400000D02*
X168200000Y-106600000D01*
X165900000Y-106600000D01*
X165900000Y-102400000D01*
X167300000Y-102400000D01*
X168200000Y-104400000D01*
%TA.AperFunction,Conductor*%
G36*
X168200000Y-104400000D02*
G01*
X168200000Y-106600000D01*
X165900000Y-106600000D01*
X165900000Y-102400000D01*
X167300000Y-102400000D01*
X168200000Y-104400000D01*
G37*
%TD.AperFunction*%
%TO.N,Net-(U1-VOUT)*%
X142050000Y-96450000D02*
X142050000Y-97250000D01*
X141050000Y-97950000D01*
X140050000Y-97950000D01*
X140050000Y-94150000D01*
X142050000Y-94150000D01*
X142050000Y-96450000D01*
%TA.AperFunction,Conductor*%
G36*
X142050000Y-96450000D02*
G01*
X142050000Y-97250000D01*
X141050000Y-97950000D01*
X140050000Y-97950000D01*
X140050000Y-94150000D01*
X142050000Y-94150000D01*
X142050000Y-96450000D01*
G37*
%TD.AperFunction*%
%TD*%
D11*
%TO.P,U4,1,NC*%
%TO.N,unconnected-(U4-NC-Pad1)*%
X142000000Y-102987500D03*
%TO.P,U4,2,NC*%
%TO.N,unconnected-(U4-NC-Pad1)_15*%
X142000000Y-102487500D03*
%TO.P,U4,3,NC*%
%TO.N,unconnected-(U4-NC-Pad1)_9*%
X142000000Y-101987500D03*
%TO.P,U4,4,NC*%
%TO.N,unconnected-(U4-NC-Pad1)_14*%
X142000000Y-101487500D03*
%TO.P,U4,5,NC*%
%TO.N,unconnected-(U4-NC-Pad1)_19*%
X142000000Y-100987500D03*
%TO.P,U4,6,NC*%
%TO.N,unconnected-(U4-NC-Pad1)_1*%
X142000000Y-100487500D03*
D12*
%TO.P,U4,7,NC*%
%TO.N,unconnected-(U4-NC-Pad1)_17*%
X141262500Y-99750000D03*
%TO.P,U4,8,NC*%
%TO.N,unconnected-(U4-NC-Pad1)_10*%
X140762500Y-99750000D03*
%TO.P,U4,9,NC*%
%TO.N,unconnected-(U4-NC-Pad1)_3*%
X140262500Y-99750000D03*
%TO.P,U4,10,NC*%
%TO.N,unconnected-(U4-NC-Pad1)_16*%
X139762500Y-99750000D03*
%TO.P,U4,11,NC*%
%TO.N,unconnected-(U4-NC-Pad1)_6*%
X139262500Y-99750000D03*
%TO.P,U4,12,NC*%
%TO.N,unconnected-(U4-NC-Pad1)_18*%
X138762500Y-99750000D03*
D11*
%TO.P,U4,13,NC*%
%TO.N,unconnected-(U4-NC-Pad1)_7*%
X138025000Y-100487500D03*
%TO.P,U4,14,NC*%
%TO.N,unconnected-(U4-NC-Pad1)_13*%
X138025000Y-100987500D03*
%TO.P,U4,15,GND*%
%TO.N,GND*%
X138025000Y-101487500D03*
%TO.P,U4,16,RFOUT*%
%TO.N,Net-(U4-RFOUT)*%
X138025000Y-101987500D03*
%TO.P,U4,17,NC*%
%TO.N,unconnected-(U4-NC-Pad1)_2*%
X138025000Y-102487500D03*
%TO.P,U4,18,NC*%
%TO.N,unconnected-(U4-NC-Pad1)_5*%
X138025000Y-102987500D03*
D12*
%TO.P,U4,19,NC*%
%TO.N,unconnected-(U4-NC-Pad1)_12*%
X138762500Y-103725000D03*
%TO.P,U4,20,VCC*%
%TO.N,+3V0*%
X139262500Y-103725000D03*
%TO.P,U4,21,NC*%
%TO.N,unconnected-(U4-NC-Pad1)_8*%
X139762500Y-103725000D03*
%TO.P,U4,22,VTUNE*%
%TO.N,Net-(U4-VTUNE)*%
X140262500Y-103725000D03*
%TO.P,U4,23,NC*%
%TO.N,unconnected-(U4-NC-Pad1)_4*%
X140762500Y-103725000D03*
%TO.P,U4,24,NC*%
%TO.N,unconnected-(U4-NC-Pad1)_11*%
X141262500Y-103725000D03*
D13*
%TO.P,U4,25,GND*%
%TO.N,GND*%
X140012500Y-101737500D03*
%TD*%
D14*
%TO.P,C19,1*%
%TO.N,Net-(U4-RFOUT)*%
X136750000Y-102000000D03*
%TO.P,C19,2*%
%TO.N,Net-(C19-Pad2)*%
X135790000Y-102000000D03*
%TD*%
D15*
%TO.P,R25,1*%
%TO.N,/ADF4158 + HMC391/data*%
X158010000Y-101250000D03*
%TO.P,R25,2*%
%TO.N,Net-(U6-DATA)*%
X156990000Y-101250000D03*
%TD*%
%TO.P,R19,1*%
%TO.N,Net-(C24-Pad1)*%
X154520000Y-108500000D03*
%TO.P,R19,2*%
%TO.N,/ADF4158 + HMC391/external_reference*%
X153500000Y-108500000D03*
%TD*%
D16*
%TO.P,C9,1*%
%TO.N,Net-(U5-+)*%
X149250000Y-97500000D03*
%TO.P,C9,2*%
%TO.N,GND*%
X149250000Y-96540000D03*
%TD*%
D17*
%TO.P,Y1,1,Vcon*%
%TO.N,Net-(Y1-Vcon)*%
X157250000Y-108250000D03*
%TO.P,Y1,2,GND*%
%TO.N,GND*%
X157250000Y-106450000D03*
%TO.P,Y1,3,OUT*%
%TO.N,Net-(Y1-OUT)*%
X156050000Y-106450000D03*
%TO.P,Y1,4,Vcc*%
%TO.N,+3V3*%
X156050000Y-108250000D03*
%TD*%
D18*
%TO.P,C8,1*%
%TO.N,Net-(U1-BP)*%
X138550000Y-92450000D03*
%TO.P,C8,2*%
%TO.N,GND*%
X138550000Y-93410000D03*
%TD*%
D16*
%TO.P,C20,1*%
%TO.N,GND*%
X150750000Y-105210000D03*
%TO.P,C20,2*%
%TO.N,+3V3*%
X150750000Y-104250000D03*
%TD*%
D15*
%TO.P,R13,1*%
%TO.N,+5V*%
X164835000Y-90800000D03*
%TO.P,R13,2*%
%TO.N,Net-(U3-EN)*%
X163815000Y-90800000D03*
%TD*%
D19*
%TO.P,U5,1*%
%TO.N,Net-(R14-Pad2)*%
X148000000Y-102400000D03*
%TO.P,U5,2,V-*%
%TO.N,GND*%
X148000000Y-101450000D03*
%TO.P,U5,3,+*%
%TO.N,Net-(U5-+)*%
X148000000Y-100500000D03*
%TO.P,U5,4,-*%
%TO.N,Net-(U5--)*%
X145725000Y-100500000D03*
%TO.P,U5,5,V+*%
%TO.N,+10V*%
X145725000Y-102400000D03*
%TD*%
D20*
%TO.P,TP1,1,1*%
%TO.N,Net-(U6-SW2)*%
X154000000Y-94250000D03*
%TD*%
D15*
%TO.P,R6,1*%
%TO.N,+5V*%
X136620000Y-91600000D03*
%TO.P,R6,2*%
%TO.N,Net-(U2-EN)*%
X135600000Y-91600000D03*
%TD*%
%TO.P,R26,1*%
%TO.N,Net-(R26-Pad1)*%
X170120000Y-109500000D03*
%TO.P,R26,2*%
%TO.N,Net-(U7-VOS)*%
X169100000Y-109500000D03*
%TD*%
D14*
%TO.P,C21,1*%
%TO.N,Net-(C21-Pad1)*%
X130000000Y-102000000D03*
%TO.P,C21,2*%
%TO.N,/rf_out*%
X129040000Y-102000000D03*
%TD*%
D21*
%TO.P,L1,1,1*%
%TO.N,Net-(L1-Pad1)*%
X169750000Y-105500000D03*
%TO.P,L1,2,2*%
%TO.N,Net-(U7-VOS)*%
X167600000Y-105500000D03*
%TD*%
D18*
%TO.P,C28,1*%
%TO.N,GND*%
X158750000Y-107290000D03*
%TO.P,C28,2*%
%TO.N,Net-(Y1-Vcon)*%
X158750000Y-108250000D03*
%TD*%
D22*
%TO.P,J3,1,In*%
%TO.N,/ADF4158 + HMC391/external_reference*%
X149000000Y-110900000D03*
%TO.P,J3,2,Ext*%
%TO.N,GND*%
X151700000Y-110900000D03*
X146300000Y-110900000D03*
%TD*%
D14*
%TO.P,C23,1*%
%TO.N,GND*%
X145960000Y-104000000D03*
%TO.P,C23,2*%
%TO.N,+10V*%
X145000000Y-104000000D03*
%TD*%
D23*
%TO.P,R12,1*%
%TO.N,Net-(U3-OUT)*%
X157500000Y-95250000D03*
%TO.P,R12,2*%
%TO.N,+3V3*%
X157500000Y-96270000D03*
%TD*%
D15*
%TO.P,R4,1*%
%TO.N,+12V*%
X146570000Y-91450000D03*
%TO.P,R4,2*%
%TO.N,Net-(U1-ON{slash}~{OFF})*%
X145550000Y-91450000D03*
%TD*%
D24*
%TO.P,U6,1,CPGND*%
%TO.N,GND*%
X151312500Y-99575000D03*
%TO.P,U6,2,AGND*%
X151312500Y-100075000D03*
%TO.P,U6,3,AGND*%
X151312500Y-100575000D03*
%TO.P,U6,4,RFINB*%
%TO.N,Net-(U6-RFINB)*%
X151312500Y-101075000D03*
%TO.P,U6,5,RFINA*%
%TO.N,Net-(U6-RFINA)*%
X151312500Y-101575000D03*
%TO.P,U6,6,AVDD*%
%TO.N,+3V3*%
X151312500Y-102075000D03*
D25*
%TO.P,U6,7,AVDD*%
X152000000Y-102762500D03*
%TO.P,U6,8,AVDD*%
X152500000Y-102762500D03*
%TO.P,U6,9,REFIN*%
%TO.N,Net-(U6-REFIN)*%
X153000000Y-102762500D03*
%TO.P,U6,10,DGND*%
%TO.N,GND*%
X153500000Y-102762500D03*
%TO.P,U6,11,SDGND*%
X154000000Y-102762500D03*
%TO.P,U6,12,TXDATA*%
%TO.N,Net-(U6-TXDATA)*%
X154500000Y-102762500D03*
D24*
%TO.P,U6,13,CE*%
%TO.N,Net-(U6-CE)*%
X155187500Y-102075000D03*
%TO.P,U6,14,CLK*%
%TO.N,Net-(U6-CLK)*%
X155187500Y-101575000D03*
%TO.P,U6,15,DATA*%
%TO.N,Net-(U6-DATA)*%
X155187500Y-101075000D03*
%TO.P,U6,16,LE*%
%TO.N,Net-(U6-LE)*%
X155187500Y-100575000D03*
%TO.P,U6,17,MUXOUT*%
%TO.N,Net-(U6-MUXOUT)*%
X155187500Y-100075000D03*
%TO.P,U6,18,SDVDD*%
%TO.N,+3V3*%
X155187500Y-99575000D03*
D25*
%TO.P,U6,19,DVDD*%
X154500000Y-98887500D03*
%TO.P,U6,20,SW1*%
%TO.N,Net-(U6-SW1)*%
X154000000Y-98887500D03*
%TO.P,U6,21,SW2*%
%TO.N,Net-(U6-SW2)*%
X153500000Y-98887500D03*
%TO.P,U6,22,VP*%
%TO.N,+3V3*%
X153000000Y-98887500D03*
%TO.P,U6,23,RSET*%
%TO.N,Net-(U6-RSET)*%
X152500000Y-98887500D03*
%TO.P,U6,24,CP*%
%TO.N,Net-(U5-+)*%
X152000000Y-98887500D03*
D26*
%TO.P,U6,25,AGND*%
%TO.N,GND*%
X153250000Y-100825000D03*
%TD*%
D27*
%TO.P,R8,1*%
%TO.N,+12V*%
X166330000Y-99750000D03*
%TO.P,R8,2*%
%TO.N,Net-(U7-EN)*%
X167350000Y-99750000D03*
%TD*%
%TO.P,R27,1*%
%TO.N,+3V3*%
X157250000Y-109500000D03*
%TO.P,R27,2*%
%TO.N,Net-(Y1-Vcon)*%
X158270000Y-109500000D03*
%TD*%
D19*
%TO.P,U3,1,IN*%
%TO.N,+5V*%
X162025000Y-93750000D03*
%TO.P,U3,2,GND*%
%TO.N,GND*%
X162025000Y-92800000D03*
%TO.P,U3,3,EN*%
%TO.N,Net-(U3-EN)*%
X162025000Y-91850000D03*
%TO.P,U3,4,NC*%
%TO.N,GND*%
X159750000Y-91850000D03*
%TO.P,U3,5,OUT*%
%TO.N,Net-(U3-OUT)*%
X159750000Y-93750000D03*
%TD*%
D15*
%TO.P,R28,1*%
%TO.N,/ADF4158 + HMC391/ce*%
X158010000Y-103750000D03*
%TO.P,R28,2*%
%TO.N,Net-(U6-CE)*%
X156990000Y-103750000D03*
%TD*%
D18*
%TO.P,C29,1*%
%TO.N,+3V3*%
X156000000Y-109500000D03*
%TO.P,C29,2*%
%TO.N,GND*%
X156000000Y-110460000D03*
%TD*%
%TO.P,C13,1*%
%TO.N,GND*%
X156250000Y-96520000D03*
%TO.P,C13,2*%
%TO.N,+3V3*%
X156250000Y-97480000D03*
%TD*%
D23*
%TO.P,R1,1*%
%TO.N,GND*%
X148000000Y-96500000D03*
%TO.P,R1,2*%
%TO.N,Net-(C7-Pad2)*%
X148000000Y-97520000D03*
%TD*%
D15*
%TO.P,R29,1*%
%TO.N,Net-(Q2-G)*%
X170120000Y-108000000D03*
%TO.P,R29,2*%
%TO.N,Net-(U7-VOS)*%
X169100000Y-108000000D03*
%TD*%
D16*
%TO.P,C26,1*%
%TO.N,GND*%
X152000000Y-105210000D03*
%TO.P,C26,2*%
%TO.N,+3V3*%
X152000000Y-104250000D03*
%TD*%
D15*
%TO.P,R10,1*%
%TO.N,/ADF4158 + HMC391/le*%
X158030000Y-100000000D03*
%TO.P,R10,2*%
%TO.N,Net-(U6-LE)*%
X157010000Y-100000000D03*
%TD*%
D19*
%TO.P,U1,1,VIN*%
%TO.N,+12V*%
X143187500Y-94400000D03*
%TO.P,U1,2,GND*%
%TO.N,GND*%
X143187500Y-93450000D03*
%TO.P,U1,3,ON/~{OFF}*%
%TO.N,Net-(U1-ON{slash}~{OFF})*%
X143187500Y-92500000D03*
%TO.P,U1,4,BP*%
%TO.N,Net-(U1-BP)*%
X140912500Y-92500000D03*
%TO.P,U1,5,VOUT*%
%TO.N,Net-(U1-VOUT)*%
X140912500Y-94400000D03*
%TD*%
D28*
%TO.P,C12,1*%
%TO.N,Net-(U7-SS{slash}TR)*%
X174100000Y-97500000D03*
%TO.P,C12,2*%
%TO.N,GND*%
X174100000Y-100450000D03*
%TD*%
D23*
%TO.P,R24,1*%
%TO.N,Net-(Y1-OUT)*%
X154500000Y-106480000D03*
%TO.P,R24,2*%
%TO.N,Net-(C24-Pad1)*%
X154500000Y-107500000D03*
%TD*%
%TO.P,R30,1*%
%TO.N,Net-(U7-VOS)*%
X167600000Y-107990000D03*
%TO.P,R30,2*%
%TO.N,+5V*%
X167600000Y-109010000D03*
%TD*%
D29*
%TO.P,R31,1*%
%TO.N,Net-(Y1-Vcon)*%
X160000000Y-108250000D03*
%TO.P,R31,2*%
%TO.N,GND*%
X160000000Y-107230000D03*
%TD*%
D19*
%TO.P,U2,1,IN*%
%TO.N,+5V*%
X134600000Y-95100000D03*
%TO.P,U2,2,GND*%
%TO.N,GND*%
X134600000Y-94150000D03*
%TO.P,U2,3,EN*%
%TO.N,Net-(U2-EN)*%
X134600000Y-93200000D03*
%TO.P,U2,4,NC*%
%TO.N,GND*%
X132325000Y-93200000D03*
%TO.P,U2,5,OUT*%
%TO.N,Net-(U2-OUT)*%
X132325000Y-95100000D03*
%TD*%
D30*
%TO.P,D1,1,K*%
%TO.N,Net-(D1-K)*%
X175600000Y-109500000D03*
%TO.P,D1,2,A*%
%TO.N,Net-(D1-A)*%
X174025000Y-109500000D03*
%TD*%
D31*
%TO.P,Q1,1,G*%
%TO.N,GND*%
X167225000Y-92300000D03*
%TO.P,Q1,2,S*%
%TO.N,+12V*%
X167225000Y-94200000D03*
%TO.P,Q1,3,D*%
%TO.N,/Connectors/power*%
X169500000Y-93250000D03*
%TD*%
D32*
%TO.P,Q2,1,G*%
%TO.N,Net-(Q2-G)*%
X172850000Y-106750000D03*
%TO.P,Q2,2,S*%
%TO.N,GND*%
X174750000Y-106750000D03*
%TO.P,Q2,3,D*%
%TO.N,Net-(D1-K)*%
X173800000Y-104875000D03*
%TD*%
D15*
%TO.P,R32,1*%
%TO.N,/ADF4158 + HMC391/txdata*%
X158010000Y-105000000D03*
%TO.P,R32,2*%
%TO.N,Net-(U6-TXDATA)*%
X156990000Y-105000000D03*
%TD*%
D29*
%TO.P,R18,1*%
%TO.N,Net-(C17-Pad2)*%
X133500000Y-104270000D03*
%TO.P,R18,2*%
%TO.N,Net-(R16-Pad1)*%
X133500000Y-103250000D03*
%TD*%
D15*
%TO.P,R33,1*%
%TO.N,/ADF4158 + HMC391/clk*%
X158030000Y-102500000D03*
%TO.P,R33,2*%
%TO.N,Net-(U6-CLK)*%
X157010000Y-102500000D03*
%TD*%
D33*
%TO.P,U7,1,SW*%
%TO.N,Net-(L1-Pad1)*%
X169430000Y-102542500D03*
%TO.P,U7,2,SW*%
X169930000Y-102542500D03*
%TO.P,U7,3,SW*%
X170430000Y-102542500D03*
%TO.P,U7,4,PG*%
%TO.N,Net-(Q2-G)*%
X170930000Y-102542500D03*
D34*
%TO.P,U7,5,FB*%
%TO.N,GND*%
X171642500Y-101830000D03*
%TO.P,U7,6,GND*%
X171642500Y-101330000D03*
%TO.P,U7,7,FSW*%
X171642500Y-100830000D03*
%TO.P,U7,8,DEF*%
X171642500Y-100330000D03*
D33*
%TO.P,U7,9,SS/TR*%
%TO.N,Net-(U7-SS{slash}TR)*%
X170930000Y-99617500D03*
%TO.P,U7,10,VIN*%
%TO.N,Net-(U7-EN)*%
X170430000Y-99617500D03*
%TO.P,U7,11,VIN*%
X169930000Y-99617500D03*
%TO.P,U7,12,VIN*%
X169430000Y-99617500D03*
D34*
%TO.P,U7,13,EN*%
X168717500Y-100330000D03*
%TO.P,U7,14,VOS*%
%TO.N,Net-(U7-VOS)*%
X168717500Y-100830000D03*
%TO.P,U7,15,GND*%
%TO.N,GND*%
X168717500Y-101330000D03*
%TO.P,U7,16,GND*%
X168717500Y-101830000D03*
D35*
%TO.P,U7,17,GND*%
X169590000Y-101670000D03*
X170770000Y-101670000D03*
D36*
X170180000Y-101080000D03*
D35*
X169590000Y-100490000D03*
X170770000Y-100490000D03*
%TD*%
D18*
%TO.P,C11,1*%
%TO.N,GND*%
X155000000Y-96540000D03*
%TO.P,C11,2*%
%TO.N,+3V3*%
X155000000Y-97500000D03*
%TD*%
D37*
%TO.P,R15,1*%
%TO.N,GND*%
X149860624Y-106060624D03*
%TO.P,R15,2*%
%TO.N,Net-(C17-Pad2)*%
X149139376Y-105339376D03*
%TD*%
D38*
%TO.P,J2,1,In*%
%TO.N,/rf_out*%
X124600000Y-102000000D03*
%TO.P,J2,2,Ext*%
%TO.N,GND*%
X124600000Y-104700000D03*
X124600000Y-99300000D03*
%TD*%
D29*
%TO.P,R11,1*%
%TO.N,Net-(U6-SW1)*%
X156250000Y-95250000D03*
%TO.P,R11,2*%
%TO.N,Net-(C7-Pad2)*%
X156250000Y-94230000D03*
%TD*%
D15*
%TO.P,R2,1*%
%TO.N,GND*%
X146770000Y-98750000D03*
%TO.P,R2,2*%
%TO.N,Net-(U5--)*%
X145750000Y-98750000D03*
%TD*%
D27*
%TO.P,R3,1*%
%TO.N,Net-(U1-VOUT)*%
X142050000Y-96950000D03*
%TO.P,R3,2*%
%TO.N,+10V*%
X143070000Y-96950000D03*
%TD*%
D23*
%TO.P,R14,1*%
%TO.N,Net-(U5--)*%
X143750000Y-100500000D03*
%TO.P,R14,2*%
%TO.N,Net-(R14-Pad2)*%
X143750000Y-101520000D03*
%TD*%
D39*
%TO.P,C3,1*%
%TO.N,+12V*%
X145550000Y-95050000D03*
%TO.P,C3,2*%
%TO.N,GND*%
X145550000Y-93500000D03*
%TD*%
D40*
%TO.P,C4,1*%
%TO.N,Net-(U1-VOUT)*%
X140450000Y-96950000D03*
%TO.P,C4,2*%
%TO.N,GND*%
X138550000Y-96950000D03*
%TD*%
D16*
%TO.P,C5,1*%
%TO.N,+5V*%
X136300000Y-95100000D03*
%TO.P,C5,2*%
%TO.N,GND*%
X136300000Y-94140000D03*
%TD*%
D18*
%TO.P,C6,1*%
%TO.N,GND*%
X151750000Y-96540000D03*
%TO.P,C6,2*%
%TO.N,+3V3*%
X151750000Y-97500000D03*
%TD*%
D15*
%TO.P,R34,1*%
%TO.N,Net-(D1-A)*%
X172370000Y-109500000D03*
%TO.P,R34,2*%
%TO.N,Net-(R26-Pad1)*%
X171350000Y-109500000D03*
%TD*%
D39*
%TO.P,C30,1*%
%TO.N,Net-(U7-VOS)*%
X166600000Y-103000000D03*
%TO.P,C30,2*%
%TO.N,GND*%
X166600000Y-101450000D03*
%TD*%
%TO.P,C16,1*%
%TO.N,Net-(U3-OUT)*%
X157825000Y-93800000D03*
%TO.P,C16,2*%
%TO.N,GND*%
X157825000Y-92250000D03*
%TD*%
%TO.P,C10,1*%
%TO.N,Net-(U2-OUT)*%
X130100000Y-95150000D03*
%TO.P,C10,2*%
%TO.N,GND*%
X130100000Y-93600000D03*
%TD*%
D41*
%TO.P,C18,1*%
%TO.N,Net-(U4-VTUNE)*%
X140332500Y-105250000D03*
%TO.P,C18,2*%
%TO.N,GND*%
X141292500Y-105250000D03*
%TD*%
D42*
%TO.P,C17,1*%
%TO.N,Net-(U6-RFINA)*%
X149750000Y-103250000D03*
%TO.P,C17,2*%
%TO.N,Net-(C17-Pad2)*%
X149071178Y-103928822D03*
%TD*%
D23*
%TO.P,R17,1*%
%TO.N,Net-(R14-Pad2)*%
X143750000Y-103000000D03*
%TO.P,R17,2*%
%TO.N,Net-(U4-VTUNE)*%
X143750000Y-104020000D03*
%TD*%
D15*
%TO.P,R16,1*%
%TO.N,Net-(R16-Pad1)*%
X132270000Y-102010000D03*
%TO.P,R16,2*%
%TO.N,Net-(C21-Pad1)*%
X131250000Y-102010000D03*
%TD*%
D43*
%TO.P,J1,1,Pin_1*%
%TO.N,GND*%
X161000000Y-96500000D03*
D44*
%TO.P,J1,2,Pin_2*%
%TO.N,/Connectors/power*%
X163540000Y-96500000D03*
%TO.P,J1,3,Pin_3*%
%TO.N,/muxout*%
X161000000Y-99040000D03*
%TO.P,J1,4,Pin_4*%
%TO.N,/ADF4158 + HMC391/le*%
X163540000Y-99040000D03*
%TO.P,J1,5,Pin_5*%
%TO.N,/ADF4158 + HMC391/data*%
X161000000Y-101580000D03*
%TO.P,J1,6,Pin_6*%
%TO.N,/ADF4158 + HMC391/clk*%
X163540000Y-101580000D03*
%TO.P,J1,7,Pin_7*%
%TO.N,/ADF4158 + HMC391/ce*%
X161000000Y-104120000D03*
%TO.P,J1,8,Pin_8*%
%TO.N,/ADF4158 + HMC391/txdata*%
X163540000Y-104120000D03*
%TD*%
D29*
%TO.P,R22,1*%
%TO.N,+3V3*%
X161250000Y-108250000D03*
%TO.P,R22,2*%
%TO.N,/ADF4158 + HMC391/ce*%
X161250000Y-107230000D03*
%TD*%
D27*
%TO.P,R9,1*%
%TO.N,Net-(U6-MUXOUT)*%
X157010000Y-98750000D03*
%TO.P,R9,2*%
%TO.N,/muxout*%
X158030000Y-98750000D03*
%TD*%
D16*
%TO.P,C27,1*%
%TO.N,GND*%
X139000000Y-105980000D03*
%TO.P,C27,2*%
%TO.N,+3V0*%
X139000000Y-105020000D03*
%TD*%
D14*
%TO.P,C7,1*%
%TO.N,Net-(U5-+)*%
X150000000Y-98750000D03*
%TO.P,C7,2*%
%TO.N,Net-(C7-Pad2)*%
X149040000Y-98750000D03*
%TD*%
D23*
%TO.P,R21,1*%
%TO.N,/ADF4158 + HMC391/ce*%
X162500000Y-107240000D03*
%TO.P,R21,2*%
%TO.N,GND*%
X162500000Y-108260000D03*
%TD*%
%TO.P,R5,1*%
%TO.N,GND*%
X150500000Y-96480000D03*
%TO.P,R5,2*%
%TO.N,Net-(U6-RSET)*%
X150500000Y-97500000D03*
%TD*%
D16*
%TO.P,C2,1*%
%TO.N,Net-(U6-RFINB)*%
X150000000Y-100980000D03*
%TO.P,C2,2*%
%TO.N,GND*%
X150000000Y-100020000D03*
%TD*%
%TO.P,C25,1*%
%TO.N,Net-(C24-Pad2)*%
X153250000Y-105230000D03*
%TO.P,C25,2*%
%TO.N,Net-(U6-REFIN)*%
X153250000Y-104270000D03*
%TD*%
D39*
%TO.P,C14,1*%
%TO.N,+5V*%
X164075000Y-93850000D03*
%TO.P,C14,2*%
%TO.N,GND*%
X164075000Y-92300000D03*
%TD*%
D16*
%TO.P,C24,1*%
%TO.N,Net-(C24-Pad1)*%
X153250000Y-107460000D03*
%TO.P,C24,2*%
%TO.N,Net-(C24-Pad2)*%
X153250000Y-106500000D03*
%TD*%
D15*
%TO.P,R20,1*%
%TO.N,Net-(C19-Pad2)*%
X134500000Y-102010000D03*
%TO.P,R20,2*%
%TO.N,Net-(R16-Pad1)*%
X133480000Y-102010000D03*
%TD*%
D16*
%TO.P,C22,1*%
%TO.N,GND*%
X137750000Y-106000000D03*
%TO.P,C22,2*%
%TO.N,+3V0*%
X137750000Y-105040000D03*
%TD*%
D18*
%TO.P,C1,1*%
%TO.N,GND*%
X153000000Y-96540000D03*
%TO.P,C1,2*%
%TO.N,+3V3*%
X153000000Y-97500000D03*
%TD*%
D40*
%TO.P,C15,1*%
%TO.N,Net-(U7-EN)*%
X169500000Y-97500000D03*
%TO.P,C15,2*%
%TO.N,GND*%
X167600000Y-97500000D03*
%TD*%
D27*
%TO.P,R7,1*%
%TO.N,Net-(U2-OUT)*%
X130080000Y-96800000D03*
%TO.P,R7,2*%
%TO.N,+3V0*%
X131100000Y-96800000D03*
%TD*%
D23*
%TO.P,R23,1*%
%TO.N,GND*%
X154500000Y-104230000D03*
%TO.P,R23,2*%
%TO.N,Net-(C24-Pad2)*%
X154500000Y-105250000D03*
%TD*%
D45*
%TO.N,+3V3*%
X155500000Y-98250000D03*
X152375000Y-97500000D03*
X156483602Y-108890226D03*
X152250000Y-103750000D03*
%TO.N,GND*%
X176250000Y-89750000D03*
X126750000Y-95500000D03*
X164750000Y-107250000D03*
X126000000Y-112000000D03*
X136500000Y-89000000D03*
X130500000Y-100750000D03*
X123500000Y-110750000D03*
X127500000Y-108250000D03*
X138500000Y-94750000D03*
X176500000Y-102500000D03*
X176250000Y-93500000D03*
X128500000Y-97000000D03*
X171000000Y-95500000D03*
X126750000Y-97000000D03*
X160250000Y-106500000D03*
X160700000Y-91800000D03*
X123500000Y-94000000D03*
X129000000Y-106000000D03*
X140750000Y-112250000D03*
X152500000Y-89000000D03*
X136100000Y-92600000D03*
X156250000Y-89000000D03*
X135800000Y-109200000D03*
X156250000Y-93250000D03*
X167000000Y-90500000D03*
X139000000Y-100750000D03*
X171500000Y-90000000D03*
X170750000Y-89000000D03*
X163250000Y-110750000D03*
X166250000Y-89000000D03*
X139500000Y-101750000D03*
X143800000Y-106500000D03*
X132000000Y-103250000D03*
X132000000Y-109500000D03*
X140500000Y-101750000D03*
X134800000Y-105200000D03*
X175500000Y-102500000D03*
X150500000Y-107250000D03*
X132000000Y-100750000D03*
X144250000Y-98000000D03*
X136500000Y-109300000D03*
X147000000Y-89000000D03*
X132400000Y-106300000D03*
X168500000Y-90500000D03*
X145800000Y-108500000D03*
X126000000Y-106000000D03*
X123500000Y-92500000D03*
X144250000Y-105000000D03*
X137300000Y-109300000D03*
X125000000Y-89000000D03*
X124750000Y-108250000D03*
X139200000Y-106700000D03*
X176750000Y-108500000D03*
X174000000Y-112000000D03*
X164750000Y-108250000D03*
X131250000Y-103250000D03*
X175750000Y-107750000D03*
X163250000Y-108250000D03*
X172500000Y-110750000D03*
X149100000Y-106600000D03*
X134800000Y-104500000D03*
X133250000Y-112000000D03*
X169250000Y-89000000D03*
X152000000Y-106250000D03*
X138900000Y-109300000D03*
X125000000Y-90000000D03*
X176250000Y-97000000D03*
X123500000Y-91250000D03*
X134500000Y-89000000D03*
X147100000Y-107700000D03*
X176500000Y-104000000D03*
X130500000Y-89000000D03*
X130500000Y-109500000D03*
X160250000Y-112000000D03*
X158250000Y-97500000D03*
X129750000Y-100750000D03*
X152500000Y-91500000D03*
X141000000Y-100750000D03*
X176250000Y-98000000D03*
X132500000Y-90000000D03*
X133250000Y-110750000D03*
X168500000Y-95500000D03*
X176750000Y-112000000D03*
X129000000Y-109500000D03*
X135000000Y-100750000D03*
X153250000Y-92250000D03*
X126750000Y-89000000D03*
X175750000Y-106250000D03*
X124750000Y-112000000D03*
X130500000Y-110750000D03*
X136200000Y-106600000D03*
X123500000Y-108250000D03*
X129000000Y-108250000D03*
X159250000Y-97750000D03*
X125000000Y-95500000D03*
X123500000Y-106000000D03*
X138250000Y-112250000D03*
X132500000Y-94000000D03*
X172000000Y-92250000D03*
X164750000Y-110750000D03*
X147500000Y-99250000D03*
X138000000Y-98500000D03*
X155250000Y-104500000D03*
X172500000Y-112000000D03*
X154500000Y-89000000D03*
X134500000Y-112250000D03*
X130500000Y-91250000D03*
X176250000Y-99250000D03*
X145100000Y-105900000D03*
X144250000Y-96750000D03*
X175500000Y-96000000D03*
X136100000Y-93400000D03*
X161900000Y-106200000D03*
X125000000Y-94000000D03*
X176250000Y-92250000D03*
X128250000Y-103250000D03*
X150800000Y-106300000D03*
X141750000Y-93500000D03*
X158700000Y-92800000D03*
X175250000Y-99250000D03*
X136000000Y-96500000D03*
X134400000Y-108600000D03*
X164750000Y-89000000D03*
X137000000Y-97500000D03*
X131100000Y-94000000D03*
X168000000Y-112000000D03*
X140500000Y-109300000D03*
X172000000Y-95000000D03*
X127500000Y-100500000D03*
X129000000Y-112000000D03*
X148500000Y-91500000D03*
X143250000Y-99500000D03*
X165000000Y-106000000D03*
X174500000Y-90000000D03*
X159750000Y-89000000D03*
X127500000Y-107000000D03*
X143700000Y-109200000D03*
X135600000Y-106300000D03*
X140750000Y-93500000D03*
X163250000Y-89000000D03*
X134750000Y-103750000D03*
X172500000Y-96250000D03*
X149750000Y-91500000D03*
X173000000Y-103500000D03*
X132000000Y-110750000D03*
X129750000Y-92000000D03*
X124750000Y-107000000D03*
X155500000Y-96000000D03*
X173500000Y-102500000D03*
X133300000Y-92800000D03*
X147500000Y-103750000D03*
X159250000Y-95750000D03*
X154100000Y-100000000D03*
X128500000Y-91250000D03*
X149000000Y-92750000D03*
X138100000Y-109300000D03*
X174750000Y-95000000D03*
X146000000Y-96750000D03*
X124750000Y-106000000D03*
X158500000Y-112000000D03*
X134250000Y-100750000D03*
X129750000Y-103250000D03*
X142900000Y-109300000D03*
X171500000Y-97500000D03*
X129000000Y-103250000D03*
X126750000Y-100250000D03*
X175500000Y-110750000D03*
X155000000Y-112000000D03*
X161500000Y-89000000D03*
X132200000Y-105600000D03*
X174750000Y-91000000D03*
X126750000Y-90000000D03*
X155000000Y-91500000D03*
X176750000Y-106750000D03*
X123500000Y-90000000D03*
X147750000Y-92750000D03*
X127500000Y-106000000D03*
X125000000Y-91250000D03*
X139500000Y-98500000D03*
X163250000Y-109500000D03*
X156000000Y-105500000D03*
X176250000Y-100250000D03*
X153750000Y-91500000D03*
X155000000Y-110750000D03*
X144400000Y-109000000D03*
X170500000Y-94500000D03*
X133500000Y-100750000D03*
X176250000Y-91000000D03*
X150000000Y-94250000D03*
X171000000Y-93000000D03*
X169750000Y-95500000D03*
X166250000Y-110750000D03*
X146900000Y-104300000D03*
X146750000Y-97750000D03*
X133800000Y-108100000D03*
X140800000Y-106700000D03*
X132200000Y-104800000D03*
X137600000Y-106700000D03*
X169250000Y-91500000D03*
X144500000Y-93500000D03*
X145700000Y-105500000D03*
X176750000Y-110250000D03*
X143000000Y-89000000D03*
X175250000Y-89000000D03*
X149250000Y-107500000D03*
X148750000Y-94250000D03*
X173250000Y-92250000D03*
X144500000Y-106300000D03*
X163500000Y-91800000D03*
X153250000Y-112000000D03*
X136750000Y-104250000D03*
X157000000Y-110750000D03*
X126000000Y-107000000D03*
X124750000Y-110750000D03*
X166250000Y-109500000D03*
X174000000Y-103500000D03*
X148750000Y-89000000D03*
X171500000Y-96500000D03*
X142000000Y-112250000D03*
X174000000Y-96000000D03*
X156250000Y-91500000D03*
X137000000Y-96500000D03*
X164750000Y-112000000D03*
X130500000Y-112000000D03*
X176500000Y-105250000D03*
X147750000Y-94750000D03*
X153250000Y-110750000D03*
X138750000Y-89000000D03*
X123500000Y-107000000D03*
X141600000Y-106700000D03*
X159900000Y-92800000D03*
X141300000Y-109300000D03*
X152000000Y-92750000D03*
X152500000Y-101600000D03*
X124750000Y-109500000D03*
X142250000Y-105250000D03*
X163250000Y-112000000D03*
X131250000Y-100750000D03*
X169500000Y-112000000D03*
X160250000Y-110750000D03*
X166250000Y-112000000D03*
X146500000Y-108100000D03*
X132000000Y-112000000D03*
X134500000Y-90000000D03*
X128250000Y-100750000D03*
X123500000Y-89000000D03*
X129000000Y-110750000D03*
X132500000Y-89000000D03*
X172000000Y-91000000D03*
X135750000Y-112250000D03*
X173250000Y-91000000D03*
X147600000Y-107200000D03*
X170000000Y-90500000D03*
X164750000Y-109500000D03*
X136900000Y-106700000D03*
X139700000Y-109300000D03*
X154000000Y-101500000D03*
X126750000Y-92500000D03*
X148000000Y-103250000D03*
X140750000Y-89000000D03*
X132500000Y-92400000D03*
X136000000Y-103250000D03*
X149250000Y-101750000D03*
X145000000Y-89000000D03*
X148200000Y-106600000D03*
X173750000Y-89000000D03*
X135100000Y-105800000D03*
X128500000Y-89000000D03*
X123500000Y-97000000D03*
X144500000Y-112250000D03*
X158700000Y-91800000D03*
X176250000Y-95000000D03*
X123500000Y-95500000D03*
X126000000Y-109500000D03*
X132500000Y-91250000D03*
X128500000Y-95500000D03*
X173250000Y-95000000D03*
X151000000Y-93750000D03*
X162250000Y-97750000D03*
X175500000Y-112000000D03*
X143250000Y-105250000D03*
X146300000Y-104900000D03*
X169500000Y-110750000D03*
X128500000Y-94000000D03*
X131500000Y-92000000D03*
X126750000Y-91250000D03*
X139750000Y-93500000D03*
X170750000Y-91500000D03*
X152750000Y-95750000D03*
X175250000Y-103750000D03*
X168500000Y-102500000D03*
X159250000Y-96750000D03*
X135750000Y-100750000D03*
X143250000Y-112250000D03*
X126000000Y-110750000D03*
X155500000Y-92500000D03*
X127500000Y-112000000D03*
X161750000Y-112000000D03*
X174750000Y-93500000D03*
X142100000Y-109300000D03*
X142250000Y-99500000D03*
X172250000Y-89000000D03*
X158500000Y-111000000D03*
X151250000Y-91500000D03*
X131100000Y-92800000D03*
X159250000Y-106500000D03*
X158000000Y-89000000D03*
X161750000Y-109500000D03*
X136500000Y-90000000D03*
X135250000Y-103250000D03*
X128500000Y-90000000D03*
X150500000Y-92750000D03*
X127500000Y-103500000D03*
X176250000Y-101250000D03*
X126750000Y-103750000D03*
X141750000Y-98750000D03*
X129000000Y-100750000D03*
X150500000Y-99500000D03*
X126750000Y-94000000D03*
X132700000Y-107000000D03*
X145100000Y-108800000D03*
X145250000Y-97500000D03*
X123500000Y-109500000D03*
X161750000Y-110750000D03*
X152500000Y-100000000D03*
X136750000Y-103250000D03*
X173250000Y-99250000D03*
X151750000Y-95750000D03*
X171000000Y-110750000D03*
X157300000Y-107200000D03*
X171000000Y-112000000D03*
X175250000Y-105000000D03*
X158250000Y-106500000D03*
X123500000Y-112000000D03*
X167750000Y-91500000D03*
X167750000Y-89000000D03*
X144500000Y-92500000D03*
X174250000Y-99250000D03*
X174500000Y-102500000D03*
X138400000Y-106700000D03*
X128500000Y-92500000D03*
X172000000Y-93500000D03*
X172500000Y-102500000D03*
X130500000Y-103250000D03*
X141000000Y-102750000D03*
X148000000Y-108000000D03*
X156750000Y-112000000D03*
X142250000Y-98000000D03*
X130500000Y-108250000D03*
X143100000Y-106700000D03*
X137000000Y-112250000D03*
X127500000Y-110750000D03*
X133200000Y-107600000D03*
X125000000Y-97000000D03*
X125000000Y-92500000D03*
X139500000Y-112250000D03*
X132250000Y-104000000D03*
X126000000Y-108250000D03*
X174000000Y-110750000D03*
X168000000Y-110750000D03*
X140000000Y-106700000D03*
X150500000Y-89000000D03*
X129000000Y-107000000D03*
X152000000Y-107250000D03*
X127500000Y-109500000D03*
X139000000Y-102750000D03*
X130500000Y-90000000D03*
X142400000Y-106700000D03*
X174750000Y-92250000D03*
X173250000Y-93500000D03*
X132750000Y-100750000D03*
X136500000Y-100750000D03*
X173000000Y-90000000D03*
X138500000Y-95500000D03*
X135100000Y-108900000D03*
%TO.N,+10V*%
X144500000Y-99750000D03*
X144500000Y-102250000D03*
%TO.N,+3V0*%
X137750000Y-99500000D03*
X137750000Y-104000000D03*
%TO.N,+12V*%
X168500000Y-94250000D03*
X147750000Y-90750000D03*
%TO.N,+5V*%
X166750000Y-108250000D03*
X165201969Y-94551969D03*
%TD*%
D46*
%TO.N,+3V3*%
X156559999Y-97480000D02*
X156250000Y-97480000D01*
D10*
X159349000Y-110151000D02*
X157833900Y-110151000D01*
X161250000Y-108250000D02*
X159349000Y-110151000D01*
X153000000Y-98887500D02*
X153000000Y-97500000D01*
X157250000Y-109567100D02*
X157250000Y-109500000D01*
X157833900Y-110151000D02*
X157250000Y-109567100D01*
D46*
X155500000Y-98375000D02*
X155500000Y-98250000D01*
X157500000Y-96539999D02*
X156559999Y-97480000D01*
X157500000Y-96270000D02*
X157500000Y-96539999D01*
D10*
%TO.N,GND*%
X138025000Y-101487500D02*
X139762500Y-101487500D01*
D46*
X149881030Y-100020000D02*
X150000000Y-100020000D01*
D10*
X153500000Y-102762500D02*
X154000000Y-102762500D01*
X151312500Y-100075000D02*
X152500000Y-100075000D01*
D46*
X149289000Y-100612030D02*
X149881030Y-100020000D01*
X149289000Y-100961000D02*
X149289000Y-100612030D01*
X161217479Y-92601000D02*
X161356900Y-92601000D01*
X147337501Y-101450000D02*
X146788500Y-100900999D01*
D10*
X154000000Y-102762500D02*
X154000000Y-103730000D01*
D46*
X146788500Y-98768500D02*
X146770000Y-98750000D01*
X160775000Y-92000000D02*
X160775000Y-92158521D01*
X148000000Y-101450000D02*
X147337501Y-101450000D01*
D10*
X153250000Y-100825000D02*
X153500000Y-101075000D01*
X154000000Y-103730000D02*
X154500000Y-104230000D01*
X152500000Y-100075000D02*
X153250000Y-100825000D01*
X151312500Y-100575000D02*
X151312500Y-100075000D01*
X150055000Y-100075000D02*
X150000000Y-100020000D01*
D46*
X148000000Y-101450000D02*
X148800000Y-101450000D01*
D10*
X151312500Y-100075000D02*
X150055000Y-100075000D01*
X139762500Y-101487500D02*
X140012500Y-101737500D01*
X151312500Y-99575000D02*
X151312500Y-100075000D01*
D46*
X160775000Y-92158521D02*
X161217479Y-92601000D01*
X146788500Y-100900999D02*
X146788500Y-98768500D01*
X148800000Y-101450000D02*
X149289000Y-100961000D01*
D10*
X153500000Y-101075000D02*
X153500000Y-102762500D01*
%TO.N,Net-(U6-RFINB)*%
X151312500Y-101075000D02*
X150095000Y-101075000D01*
X150095000Y-101075000D02*
X150000000Y-100980000D01*
%TO.N,Net-(U5-+)*%
X150000000Y-98750000D02*
X148250000Y-100500000D01*
X148250000Y-100500000D02*
X148000000Y-100500000D01*
X150000000Y-98750000D02*
X150000000Y-98250000D01*
X151862500Y-98750000D02*
X150000000Y-98750000D01*
X152000000Y-98887500D02*
X151862500Y-98750000D01*
X150000000Y-98250000D02*
X149250000Y-97500000D01*
%TO.N,Net-(C7-Pad2)*%
X153301000Y-92949000D02*
X151000000Y-95250000D01*
X156250000Y-94230000D02*
X154969000Y-92949000D01*
X147250000Y-96309660D02*
X147250000Y-96770000D01*
X148309660Y-95250000D02*
X147250000Y-96309660D01*
X149040000Y-98560000D02*
X148000000Y-97520000D01*
X154969000Y-92949000D02*
X153301000Y-92949000D01*
X151000000Y-95250000D02*
X148309660Y-95250000D01*
X149040000Y-98750000D02*
X149040000Y-98560000D01*
X147250000Y-96770000D02*
X148000000Y-97520000D01*
D47*
%TO.N,Net-(C17-Pad2)*%
X134111647Y-106611647D02*
X134500000Y-107000000D01*
X149071178Y-103928822D02*
X148500000Y-104500000D01*
X142525126Y-108000000D02*
X136914213Y-108000000D01*
X146750000Y-106250000D02*
X148500000Y-104500000D01*
X133500000Y-105135000D02*
X133500000Y-104270000D01*
X149139376Y-105339376D02*
X148400000Y-104600000D01*
X133500000Y-105135000D02*
G75*
G03*
X134111646Y-106611648I2088300J0D01*
G01*
X134500000Y-107000000D02*
G75*
G03*
X136914213Y-107999994I2414200J2414200D01*
G01*
X146750000Y-106250000D02*
G75*
G02*
X142525126Y-108000011I-4224900J4224900D01*
G01*
D10*
%TO.N,+10V*%
X145790000Y-102465000D02*
X145725000Y-102400000D01*
D46*
X145000000Y-102750000D02*
X144500000Y-102250000D01*
X145000000Y-102750000D02*
X145250000Y-102500000D01*
X143070000Y-96950000D02*
X143070000Y-98320000D01*
X145000000Y-104000000D02*
X145000000Y-102750000D01*
X143070000Y-98320000D02*
X144500000Y-99750000D01*
D10*
%TO.N,Net-(U6-RFINA)*%
X150725000Y-101575000D02*
X151312500Y-101575000D01*
X149750000Y-102550000D02*
X150725000Y-101575000D01*
X149750000Y-103250000D02*
X149750000Y-102550000D01*
D46*
%TO.N,+3V0*%
X137750000Y-104000000D02*
X137750000Y-104375000D01*
X135050000Y-96800000D02*
X137750000Y-99500000D01*
X137750000Y-104375000D02*
X138375000Y-105000000D01*
D10*
X139000000Y-105020000D02*
X139262500Y-104757500D01*
X139262500Y-104757500D02*
X139262500Y-103725000D01*
D46*
X131100000Y-96800000D02*
X135050000Y-96800000D01*
D10*
%TO.N,Net-(U4-VTUNE)*%
X143357500Y-104412500D02*
X140412500Y-104412500D01*
X140332500Y-105250000D02*
X140332500Y-104332500D01*
X140332500Y-104332500D02*
X140262500Y-104262500D01*
X140412500Y-104412500D02*
X140262500Y-104262500D01*
X143750000Y-104020000D02*
X143357500Y-104412500D01*
X140262500Y-104262500D02*
X140262500Y-103725000D01*
%TO.N,Net-(U4-RFOUT)*%
X138025000Y-101987500D02*
X136762500Y-101987500D01*
X136762500Y-101987500D02*
X136750000Y-102000000D01*
D47*
%TO.N,/rf_out*%
X124600000Y-102000000D02*
X128979000Y-102000000D01*
%TO.N,Net-(C19-Pad2)*%
X135790000Y-102000000D02*
X134510000Y-102000000D01*
X134510000Y-102000000D02*
X134500000Y-102010000D01*
%TO.N,Net-(C21-Pad1)*%
X131250000Y-102010000D02*
X130010000Y-102010000D01*
X130010000Y-102010000D02*
X130000000Y-102000000D01*
D10*
%TO.N,Net-(C24-Pad1)*%
X154500000Y-108480000D02*
X154520000Y-108500000D01*
X153250000Y-107460000D02*
X154460000Y-107460000D01*
X154460000Y-107460000D02*
X154500000Y-107500000D01*
X154500000Y-107500000D02*
X154500000Y-108480000D01*
D46*
%TO.N,+12V*%
X166330000Y-97117420D02*
X166330000Y-99750000D01*
X167225000Y-94200000D02*
X168450000Y-94200000D01*
X168450000Y-94200000D02*
X168500000Y-94250000D01*
X147750000Y-90750000D02*
X147270000Y-90750000D01*
X167225000Y-96222420D02*
X166330000Y-97117420D01*
X147270000Y-90750000D02*
X146570000Y-91450000D01*
X167225000Y-94200000D02*
X167225000Y-96222420D01*
%TO.N,+5V*%
X138321000Y-89899000D02*
X164253999Y-89899000D01*
X164850000Y-93850000D02*
X164075000Y-93850000D01*
X165201969Y-94551969D02*
X165201969Y-94201969D01*
X166750000Y-108250000D02*
X167510000Y-109010000D01*
X165201969Y-94201969D02*
X164850000Y-93850000D01*
X164253999Y-89899000D02*
X164835000Y-90480001D01*
X136620000Y-91600000D02*
X138321000Y-89899000D01*
X164835000Y-90480001D02*
X164835000Y-90800000D01*
X167510000Y-109010000D02*
X167600000Y-109010000D01*
D10*
%TO.N,Net-(C24-Pad2)*%
X153250000Y-105230000D02*
X153250000Y-106500000D01*
X154480000Y-105230000D02*
X154500000Y-105250000D01*
X153250000Y-105230000D02*
X154480000Y-105230000D01*
%TO.N,Net-(U6-REFIN)*%
X153000000Y-104020000D02*
X153250000Y-104270000D01*
X153000000Y-102762500D02*
X153000000Y-104020000D01*
D46*
%TO.N,Net-(U7-EN)*%
X167350000Y-99750000D02*
X167850000Y-99750000D01*
D10*
X170430000Y-99617500D02*
X170430000Y-99070000D01*
X170430000Y-99070000D02*
X170700000Y-98800000D01*
X170350000Y-98050000D02*
X169550000Y-98050000D01*
X170700000Y-98400000D02*
X170350000Y-98050000D01*
D46*
X167850000Y-99750000D02*
X169550000Y-98050000D01*
D10*
X168137500Y-99750000D02*
X167850000Y-99750000D01*
X168717500Y-100330000D02*
X168137500Y-99750000D01*
X170700000Y-98800000D02*
X170700000Y-98400000D01*
%TO.N,Net-(U7-SS{slash}TR)*%
X170930000Y-99617500D02*
X173047500Y-97500000D01*
X173047500Y-97500000D02*
X174100000Y-97500000D01*
%TO.N,Net-(U7-VOS)*%
X167610000Y-108000000D02*
X167600000Y-107990000D01*
X169100000Y-108000000D02*
X167610000Y-108000000D01*
X167600000Y-107990000D02*
X167600000Y-105050000D01*
X166124890Y-100700000D02*
X168100000Y-100700000D01*
X169100000Y-108000000D02*
X169100000Y-109500000D01*
X165799000Y-102199000D02*
X165799000Y-101025890D01*
X168230000Y-100830000D02*
X168717500Y-100830000D01*
X165799000Y-101025890D02*
X166124890Y-100700000D01*
X166600000Y-103000000D02*
X165799000Y-102199000D01*
X168100000Y-100700000D02*
X168230000Y-100830000D01*
%TO.N,/ADF4158 + HMC391/external_reference*%
X149000000Y-109700000D02*
X149000000Y-110900000D01*
X150200000Y-108500000D02*
X149000000Y-109700000D01*
X153500000Y-108500000D02*
X150200000Y-108500000D01*
%TO.N,Net-(Q2-G)*%
X172850000Y-106750000D02*
X171600000Y-108000000D01*
X170930000Y-102542500D02*
X172850000Y-104462500D01*
X172850000Y-104462500D02*
X172850000Y-106750000D01*
X171600000Y-108000000D02*
X170120000Y-108000000D01*
%TO.N,Net-(U5--)*%
X145725000Y-100500000D02*
X143750000Y-100500000D01*
X145750000Y-98750000D02*
X145750000Y-100475000D01*
X145750000Y-100475000D02*
X145725000Y-100500000D01*
%TO.N,Net-(U6-RSET)*%
X152214386Y-98150000D02*
X152500000Y-98435614D01*
X152500000Y-98435614D02*
X152500000Y-98887500D01*
X151150000Y-98150000D02*
X152214386Y-98150000D01*
X150500000Y-97500000D02*
X151150000Y-98150000D01*
%TO.N,Net-(U6-MUXOUT)*%
X155187500Y-100075000D02*
X155925000Y-100075000D01*
X157010000Y-98990000D02*
X157010000Y-98750000D01*
X155925000Y-100075000D02*
X157010000Y-98990000D01*
%TO.N,/ADF4158 + HMC391/txdata*%
X158281000Y-105271000D02*
X162389000Y-105271000D01*
X158010000Y-105000000D02*
X158281000Y-105271000D01*
X162389000Y-105271000D02*
X163540000Y-104120000D01*
%TO.N,Net-(U6-LE)*%
X155187500Y-100575000D02*
X156435000Y-100575000D01*
X156435000Y-100575000D02*
X157010000Y-100000000D01*
%TO.N,/ADF4158 + HMC391/clk*%
X158030000Y-102500000D02*
X158261000Y-102731000D01*
X162389000Y-102731000D02*
X163540000Y-101580000D01*
X158261000Y-102731000D02*
X162389000Y-102731000D01*
%TO.N,/ADF4158 + HMC391/le*%
X158030000Y-100000000D02*
X158430000Y-100400000D01*
X162180000Y-100400000D02*
X163540000Y-99040000D01*
X158430000Y-100400000D02*
X162180000Y-100400000D01*
%TO.N,Net-(U6-SW1)*%
X154250000Y-97881371D02*
X154250000Y-96000000D01*
X154250000Y-96000000D02*
X155000000Y-95250000D01*
X154000000Y-98887500D02*
X154000000Y-98131371D01*
X155000000Y-95250000D02*
X156250000Y-95250000D01*
X154000000Y-98131371D02*
X154250000Y-97881371D01*
%TO.N,/ADF4158 + HMC391/data*%
X158010000Y-101250000D02*
X160790000Y-101250000D01*
X160790000Y-101250000D02*
X161000000Y-101460000D01*
%TO.N,Net-(R14-Pad2)*%
X146148052Y-101520000D02*
X143750000Y-101520000D01*
X148000000Y-102400000D02*
X147028052Y-102400000D01*
X143750000Y-101520000D02*
X143750000Y-103000000D01*
X147028052Y-102400000D02*
X146148052Y-101520000D01*
%TO.N,/ADF4158 + HMC391/ce*%
X160750000Y-103750000D02*
X161000000Y-104000000D01*
X161250000Y-107230000D02*
X162490000Y-107230000D01*
X162490000Y-107230000D02*
X162500000Y-107240000D01*
X164016760Y-102849000D02*
X163063240Y-102849000D01*
X164691000Y-103523240D02*
X164016760Y-102849000D01*
X161912240Y-104000000D02*
X161000000Y-104000000D01*
X163063240Y-102849000D02*
X161912240Y-104000000D01*
X164691000Y-105049000D02*
X164691000Y-103523240D01*
X158010000Y-103750000D02*
X160750000Y-103750000D01*
X162500000Y-107240000D02*
X164691000Y-105049000D01*
D47*
%TO.N,Net-(R16-Pad1)*%
X133480000Y-102010000D02*
X132270000Y-102010000D01*
X133480000Y-102010000D02*
X133480000Y-103230000D01*
X133480000Y-103230000D02*
X133500000Y-103250000D01*
D10*
%TO.N,Net-(U6-DATA)*%
X155187500Y-101075000D02*
X156815000Y-101075000D01*
X156815000Y-101075000D02*
X156990000Y-101250000D01*
%TO.N,Net-(R26-Pad1)*%
X170120000Y-109500000D02*
X171350000Y-109500000D01*
%TO.N,/muxout*%
X160830000Y-98750000D02*
X161000000Y-98920000D01*
X158030000Y-98750000D02*
X160830000Y-98750000D01*
%TO.N,Net-(U6-CE)*%
X156862500Y-103750000D02*
X156990000Y-103750000D01*
X155187500Y-102075000D02*
X156862500Y-103750000D01*
%TO.N,Net-(U6-TXDATA)*%
X154500000Y-102762500D02*
X156737500Y-105000000D01*
X156737500Y-105000000D02*
X156990000Y-105000000D01*
%TO.N,Net-(U6-CLK)*%
X155187500Y-101575000D02*
X156085000Y-101575000D01*
X156085000Y-101575000D02*
X157010000Y-102500000D01*
%TO.N,Net-(U6-SW2)*%
X153500000Y-98887500D02*
X153500000Y-98065685D01*
X153750000Y-94500000D02*
X154000000Y-94250000D01*
X153500000Y-98065685D02*
X153750000Y-97815685D01*
X153750000Y-97815685D02*
X153750000Y-94500000D01*
%TO.N,Net-(Y1-OUT)*%
X154500000Y-106480000D02*
X156020000Y-106480000D01*
X156020000Y-106480000D02*
X156050000Y-106450000D01*
%TO.N,Net-(D1-K)*%
X173800000Y-107700000D02*
X173800000Y-104875000D01*
X175600000Y-109500000D02*
X173800000Y-107700000D01*
%TO.N,Net-(D1-A)*%
X172370000Y-109500000D02*
X174025000Y-109500000D01*
D46*
%TO.N,/Connectors/power*%
X163540000Y-96500000D02*
X164243888Y-96500000D01*
X166729112Y-93250000D02*
X169500000Y-93250000D01*
X164243888Y-96500000D02*
X166161500Y-94582388D01*
X166161500Y-94582388D02*
X166161500Y-93817612D01*
X166161500Y-93817612D02*
X166729112Y-93250000D01*
%TD*%
%TA.AperFunction,Conductor*%
%TO.N,GND*%
G36*
X129552174Y-102799235D02*
G01*
X129555906Y-102801634D01*
X129568512Y-102810057D01*
X129568515Y-102810059D01*
X129578714Y-102816874D01*
X129578715Y-102816874D01*
X129578716Y-102816875D01*
X129744417Y-102885511D01*
X129882024Y-102912882D01*
X129920318Y-102920499D01*
X129920322Y-102920500D01*
X129920323Y-102920500D01*
X131339677Y-102920500D01*
X131339678Y-102920499D01*
X131398311Y-102908836D01*
X131515575Y-102885512D01*
X131515578Y-102885510D01*
X131515583Y-102885510D01*
X131681284Y-102816875D01*
X131691109Y-102810309D01*
X131757782Y-102789431D01*
X131825163Y-102807913D01*
X131828827Y-102810267D01*
X131838716Y-102816875D01*
X132004417Y-102885510D01*
X132004419Y-102885510D01*
X132004424Y-102885512D01*
X132180319Y-102920499D01*
X132180323Y-102920500D01*
X132180324Y-102920500D01*
X132445500Y-102920500D01*
X132512539Y-102940185D01*
X132558294Y-102992989D01*
X132569500Y-103044500D01*
X132569500Y-103319681D01*
X132604487Y-103495575D01*
X132604489Y-103495583D01*
X132659868Y-103629280D01*
X132668983Y-103651284D01*
X132673125Y-103661284D01*
X132698386Y-103699091D01*
X132700228Y-103702230D01*
X132707852Y-103732743D01*
X132717249Y-103762754D01*
X132716256Y-103766373D01*
X132717166Y-103770015D01*
X132707085Y-103799802D01*
X132698764Y-103830134D01*
X132696374Y-103833852D01*
X132693131Y-103838705D01*
X132693121Y-103838723D01*
X132624490Y-104004415D01*
X132624487Y-104004424D01*
X132589500Y-104180319D01*
X132589500Y-105230779D01*
X132589502Y-105230820D01*
X132589502Y-105282321D01*
X132597273Y-105361227D01*
X132618380Y-105575542D01*
X132618380Y-105575544D01*
X132675857Y-105864504D01*
X132675860Y-105864515D01*
X132761393Y-106146482D01*
X132789728Y-106214888D01*
X132842883Y-106343216D01*
X132874149Y-106418697D01*
X132874151Y-106418702D01*
X133013040Y-106678546D01*
X133176741Y-106923542D01*
X133346368Y-107130232D01*
X133363653Y-107151294D01*
X133467825Y-107255466D01*
X133531235Y-107318878D01*
X133531241Y-107318882D01*
X133789642Y-107577283D01*
X133789655Y-107577297D01*
X133792767Y-107580409D01*
X133792768Y-107580410D01*
X133819856Y-107607498D01*
X133819867Y-107607518D01*
X133989688Y-107777338D01*
X134278983Y-108020085D01*
X134588313Y-108236680D01*
X134588320Y-108236684D01*
X134588331Y-108236692D01*
X134915379Y-108425513D01*
X134915393Y-108425519D01*
X134915396Y-108425521D01*
X135257635Y-108585109D01*
X135257638Y-108585110D01*
X135257640Y-108585111D01*
X135612508Y-108714272D01*
X135612509Y-108714272D01*
X135612514Y-108714274D01*
X135727111Y-108744979D01*
X135977283Y-108812012D01*
X136349189Y-108877588D01*
X136725395Y-108910501D01*
X136914216Y-108910500D01*
X142435448Y-108910500D01*
X142435453Y-108910501D01*
X142473760Y-108910500D01*
X142473792Y-108910509D01*
X142525130Y-108910509D01*
X142525130Y-108910510D01*
X142771042Y-108910509D01*
X143261612Y-108875421D01*
X143748429Y-108805425D01*
X143798149Y-108794609D01*
X144229004Y-108700881D01*
X144229007Y-108700880D01*
X144229012Y-108700879D01*
X144700913Y-108562315D01*
X145161726Y-108390439D01*
X145609104Y-108186128D01*
X146040767Y-107950421D01*
X146454515Y-107684521D01*
X146848239Y-107389782D01*
X147219934Y-107067706D01*
X147323335Y-106964304D01*
X147330406Y-106957233D01*
X147330410Y-106957231D01*
X147393820Y-106893820D01*
X147393821Y-106893821D01*
X147457232Y-106830410D01*
X147457234Y-106830406D01*
X148312319Y-105975320D01*
X148373640Y-105941837D01*
X148443332Y-105946821D01*
X148487679Y-105975322D01*
X148558962Y-106046605D01*
X148558966Y-106046608D01*
X148708086Y-106146247D01*
X148708090Y-106146249D01*
X148708093Y-106146251D01*
X148873793Y-106214887D01*
X149049695Y-106249876D01*
X149049699Y-106249877D01*
X149049700Y-106249877D01*
X149229055Y-106249877D01*
X149229056Y-106249876D01*
X149404959Y-106214887D01*
X149570660Y-106146251D01*
X149570661Y-106146250D01*
X149570662Y-106146250D01*
X149698996Y-106060500D01*
X149719787Y-106046608D01*
X149846608Y-105919787D01*
X149912950Y-105820499D01*
X149946250Y-105770662D01*
X149946250Y-105770661D01*
X149946251Y-105770660D01*
X150014887Y-105604959D01*
X150049877Y-105429053D01*
X150049877Y-105249700D01*
X150033059Y-105165150D01*
X150039286Y-105095560D01*
X150082149Y-105040383D01*
X150148038Y-105017138D01*
X150202129Y-105026399D01*
X150343285Y-105084868D01*
X150500000Y-105105500D01*
X152315500Y-105105500D01*
X152382539Y-105125185D01*
X152428294Y-105177989D01*
X152439500Y-105229500D01*
X152439500Y-105434697D01*
X152442356Y-105470991D01*
X152442357Y-105470997D01*
X152487504Y-105626390D01*
X152487505Y-105626393D01*
X152487506Y-105626395D01*
X152493585Y-105636674D01*
X152569881Y-105765684D01*
X152569887Y-105765692D01*
X152581514Y-105777319D01*
X152614999Y-105838642D01*
X152610015Y-105908334D01*
X152581514Y-105952681D01*
X152569887Y-105964307D01*
X152569881Y-105964315D01*
X152487505Y-106103606D01*
X152487504Y-106103609D01*
X152442357Y-106259002D01*
X152442356Y-106259008D01*
X152439501Y-106295295D01*
X152439500Y-106295317D01*
X152439500Y-106704697D01*
X152442356Y-106740991D01*
X152442357Y-106740997D01*
X152487504Y-106896391D01*
X152487506Y-106896397D01*
X152499620Y-106916880D01*
X152516801Y-106984604D01*
X152499620Y-107043120D01*
X152487506Y-107063602D01*
X152487504Y-107063608D01*
X152442357Y-107219002D01*
X152442356Y-107219008D01*
X152439500Y-107255302D01*
X152439500Y-107664697D01*
X152442356Y-107700991D01*
X152442357Y-107700997D01*
X152453952Y-107740905D01*
X152453753Y-107810775D01*
X152415811Y-107869445D01*
X152352172Y-107898288D01*
X152334876Y-107899500D01*
X150120942Y-107899500D01*
X149968213Y-107940423D01*
X149929338Y-107962869D01*
X149929337Y-107962869D01*
X149831287Y-108019477D01*
X149831282Y-108019481D01*
X149719480Y-108131283D01*
X149719480Y-108131284D01*
X149719478Y-108131286D01*
X149614084Y-108236680D01*
X149587582Y-108263182D01*
X149526259Y-108296666D01*
X149499901Y-108299500D01*
X148052129Y-108299500D01*
X148052123Y-108299501D01*
X147992516Y-108305908D01*
X147857671Y-108356202D01*
X147857664Y-108356206D01*
X147742455Y-108442452D01*
X147742452Y-108442455D01*
X147656206Y-108557664D01*
X147656202Y-108557671D01*
X147605908Y-108692517D01*
X147599501Y-108752116D01*
X147599500Y-108752135D01*
X147599501Y-112875500D01*
X147579816Y-112942539D01*
X147527012Y-112988294D01*
X147475501Y-112999500D01*
X122624500Y-112999500D01*
X122557461Y-112979815D01*
X122511706Y-112927011D01*
X122500500Y-112875500D01*
X122500500Y-109378711D01*
X124649500Y-109378711D01*
X124649500Y-109621288D01*
X124681161Y-109861785D01*
X124743947Y-110096104D01*
X124835721Y-110317665D01*
X124836776Y-110320212D01*
X124958064Y-110530289D01*
X124958066Y-110530292D01*
X124958067Y-110530293D01*
X125105733Y-110722736D01*
X125105739Y-110722743D01*
X125277256Y-110894260D01*
X125277262Y-110894265D01*
X125469711Y-111041936D01*
X125679788Y-111163224D01*
X125903900Y-111256054D01*
X126138211Y-111318838D01*
X126318586Y-111342584D01*
X126378711Y-111350500D01*
X126378712Y-111350500D01*
X126621289Y-111350500D01*
X126669388Y-111344167D01*
X126861789Y-111318838D01*
X127096100Y-111256054D01*
X127320212Y-111163224D01*
X127530289Y-111041936D01*
X127722738Y-110894265D01*
X127894265Y-110722738D01*
X128041936Y-110530289D01*
X128163224Y-110320212D01*
X128256054Y-110096100D01*
X128318838Y-109861789D01*
X128350500Y-109621288D01*
X128350500Y-109378712D01*
X128318838Y-109138211D01*
X128256054Y-108903900D01*
X128254231Y-108899500D01*
X128217993Y-108812012D01*
X128163224Y-108679788D01*
X128041936Y-108469711D01*
X127894265Y-108277262D01*
X127894260Y-108277256D01*
X127722743Y-108105739D01*
X127722736Y-108105733D01*
X127530293Y-107958067D01*
X127530292Y-107958066D01*
X127530289Y-107958064D01*
X127320212Y-107836776D01*
X127257440Y-107810775D01*
X127096104Y-107743947D01*
X126978944Y-107712554D01*
X126861789Y-107681162D01*
X126861788Y-107681161D01*
X126861785Y-107681161D01*
X126621289Y-107649500D01*
X126621288Y-107649500D01*
X126378712Y-107649500D01*
X126378711Y-107649500D01*
X126138214Y-107681161D01*
X125903895Y-107743947D01*
X125679794Y-107836773D01*
X125679785Y-107836777D01*
X125500266Y-107940423D01*
X125471319Y-107957136D01*
X125469706Y-107958067D01*
X125277263Y-108105733D01*
X125277256Y-108105739D01*
X125105739Y-108277256D01*
X125105733Y-108277263D01*
X124958067Y-108469706D01*
X124836777Y-108679785D01*
X124836773Y-108679794D01*
X124743947Y-108903895D01*
X124681161Y-109138214D01*
X124649500Y-109378711D01*
X122500500Y-109378711D01*
X122500500Y-103524499D01*
X122520185Y-103457460D01*
X122572989Y-103411705D01*
X122624500Y-103400499D01*
X126738529Y-103400499D01*
X126749479Y-103400904D01*
X126758384Y-103399958D01*
X126769441Y-103398180D01*
X126807483Y-103394091D01*
X126942331Y-103343796D01*
X126942331Y-103343795D01*
X126942333Y-103343795D01*
X126949424Y-103339921D01*
X126951006Y-103338905D01*
X127710147Y-102925594D01*
X127769440Y-102910500D01*
X129068677Y-102910500D01*
X129068678Y-102910499D01*
X129127311Y-102898836D01*
X129244575Y-102875512D01*
X129244578Y-102875510D01*
X129244583Y-102875510D01*
X129410284Y-102806875D01*
X129418122Y-102801637D01*
X129484793Y-102780756D01*
X129552174Y-102799235D01*
G37*
%TD.AperFunction*%
%TA.AperFunction,Conductor*%
G36*
X177442539Y-88020185D02*
G01*
X177488294Y-88072989D01*
X177499500Y-88124500D01*
X177499500Y-112875500D01*
X177479815Y-112942539D01*
X177427011Y-112988294D01*
X177375500Y-112999500D01*
X150524500Y-112999500D01*
X150457461Y-112979815D01*
X150411706Y-112927011D01*
X150400500Y-112875500D01*
X150400499Y-109224500D01*
X150420184Y-109157461D01*
X150472988Y-109111706D01*
X150524499Y-109100500D01*
X152830405Y-109100500D01*
X152897444Y-109120185D01*
X152918081Y-109136814D01*
X152972402Y-109191135D01*
X153110607Y-109272869D01*
X153150197Y-109284371D01*
X153264791Y-109317664D01*
X153264794Y-109317664D01*
X153264796Y-109317665D01*
X153300819Y-109320500D01*
X153699180Y-109320499D01*
X153735204Y-109317665D01*
X153889393Y-109272869D01*
X153946882Y-109238869D01*
X154014602Y-109221688D01*
X154073117Y-109238869D01*
X154130607Y-109272869D01*
X154130610Y-109272869D01*
X154130612Y-109272871D01*
X154284791Y-109317664D01*
X154284794Y-109317664D01*
X154284796Y-109317665D01*
X154320819Y-109320500D01*
X154719180Y-109320499D01*
X154755204Y-109317665D01*
X154755207Y-109317663D01*
X154760773Y-109317226D01*
X154829150Y-109331591D01*
X154878906Y-109380643D01*
X154894500Y-109440844D01*
X154894500Y-109750007D01*
X154901631Y-109804168D01*
X154914601Y-109902685D01*
X154915132Y-109906714D01*
X154915132Y-109906715D01*
X154975620Y-110052747D01*
X154975621Y-110052749D01*
X154975622Y-110052750D01*
X155071847Y-110178153D01*
X155197250Y-110274378D01*
X155343285Y-110334868D01*
X155500000Y-110355500D01*
X157137803Y-110355500D01*
X157167243Y-110364144D01*
X157197230Y-110370668D01*
X157202245Y-110374422D01*
X157204842Y-110375185D01*
X157225484Y-110391819D01*
X157349039Y-110515374D01*
X157349049Y-110515385D01*
X157353379Y-110519715D01*
X157353380Y-110519716D01*
X157465184Y-110631520D01*
X157551995Y-110681639D01*
X157551997Y-110681641D01*
X157602113Y-110710576D01*
X157602115Y-110710577D01*
X157754842Y-110751500D01*
X157754843Y-110751500D01*
X159262331Y-110751500D01*
X159262347Y-110751501D01*
X159269943Y-110751501D01*
X159428054Y-110751501D01*
X159428057Y-110751501D01*
X159580785Y-110710577D01*
X159630904Y-110681639D01*
X159717716Y-110631520D01*
X159829520Y-110519716D01*
X159829520Y-110519714D01*
X159839728Y-110509507D01*
X159839730Y-110509504D01*
X161292416Y-109056818D01*
X161353739Y-109023333D01*
X161380097Y-109020499D01*
X161499168Y-109020499D01*
X161499180Y-109020499D01*
X161535204Y-109017665D01*
X161689393Y-108972869D01*
X161827598Y-108891135D01*
X161941135Y-108777598D01*
X162022869Y-108639393D01*
X162060558Y-108509665D01*
X162067664Y-108485208D01*
X162067665Y-108485202D01*
X162067800Y-108483489D01*
X162070500Y-108449181D01*
X162070499Y-108130008D01*
X162090183Y-108062970D01*
X162142987Y-108017215D01*
X162208428Y-108007805D01*
X162208479Y-108007168D01*
X162211311Y-108007390D01*
X162212146Y-108007271D01*
X162214340Y-108007629D01*
X162214795Y-108007664D01*
X162214796Y-108007665D01*
X162250819Y-108010500D01*
X162749180Y-108010499D01*
X162785204Y-108007665D01*
X162939393Y-107962869D01*
X163077598Y-107881135D01*
X163191135Y-107767598D01*
X163272869Y-107629393D01*
X163317665Y-107475204D01*
X163320500Y-107439181D01*
X163320499Y-107320095D01*
X163340183Y-107253057D01*
X163356813Y-107232420D01*
X165059713Y-105529521D01*
X165059716Y-105529520D01*
X165082823Y-105506413D01*
X165118309Y-105487038D01*
X165144142Y-105472932D01*
X165144144Y-105472932D01*
X165144147Y-105472931D01*
X165175684Y-105475187D01*
X165213834Y-105477916D01*
X165213836Y-105477917D01*
X165213839Y-105477918D01*
X165241715Y-105498788D01*
X165269767Y-105519788D01*
X165269767Y-105519790D01*
X165269770Y-105519792D01*
X165277205Y-105539729D01*
X165294184Y-105585252D01*
X165294500Y-105594098D01*
X165294500Y-106600007D01*
X165315132Y-106756714D01*
X165315132Y-106756715D01*
X165375620Y-106902747D01*
X165375621Y-106902749D01*
X165375622Y-106902750D01*
X165471847Y-107028153D01*
X165597250Y-107124378D01*
X165743285Y-107184868D01*
X165892072Y-107204456D01*
X165899498Y-107205434D01*
X165900000Y-107205500D01*
X166638834Y-107205500D01*
X166705873Y-107225185D01*
X166751628Y-107277989D01*
X166761572Y-107347147D01*
X166732547Y-107410703D01*
X166673769Y-107448477D01*
X166663026Y-107451117D01*
X166516508Y-107480261D01*
X166516498Y-107480264D01*
X166370827Y-107540602D01*
X166370814Y-107540609D01*
X166239711Y-107628210D01*
X166239707Y-107628213D01*
X166128213Y-107739707D01*
X166128210Y-107739711D01*
X166040609Y-107870814D01*
X166040602Y-107870827D01*
X165980264Y-108016498D01*
X165980261Y-108016510D01*
X165949500Y-108171153D01*
X165949500Y-108328846D01*
X165980261Y-108483489D01*
X165980264Y-108483501D01*
X166040602Y-108629172D01*
X166040609Y-108629185D01*
X166128210Y-108760288D01*
X166128213Y-108760292D01*
X166239707Y-108871786D01*
X166239711Y-108871789D01*
X166370814Y-108959390D01*
X166370827Y-108959397D01*
X166515185Y-109019191D01*
X166555414Y-109046071D01*
X166771201Y-109261858D01*
X166802595Y-109314941D01*
X166807433Y-109331591D01*
X166827131Y-109399393D01*
X166908863Y-109537595D01*
X166908869Y-109537603D01*
X167022396Y-109651130D01*
X167022400Y-109651133D01*
X167022402Y-109651135D01*
X167160607Y-109732869D01*
X167201268Y-109744682D01*
X167314791Y-109777664D01*
X167314794Y-109777664D01*
X167314796Y-109777665D01*
X167350819Y-109780500D01*
X167849180Y-109780499D01*
X167885204Y-109777665D01*
X168039393Y-109732869D01*
X168144233Y-109670866D01*
X168211956Y-109653684D01*
X168278218Y-109675844D01*
X168321982Y-109730310D01*
X168330971Y-109767870D01*
X168332335Y-109785205D01*
X168377129Y-109939388D01*
X168377131Y-109939393D01*
X168458863Y-110077595D01*
X168458869Y-110077603D01*
X168572396Y-110191130D01*
X168572400Y-110191133D01*
X168572402Y-110191135D01*
X168710607Y-110272869D01*
X168751268Y-110284682D01*
X168864791Y-110317664D01*
X168864794Y-110317664D01*
X168864796Y-110317665D01*
X168900819Y-110320500D01*
X169299180Y-110320499D01*
X169335204Y-110317665D01*
X169489393Y-110272869D01*
X169546882Y-110238869D01*
X169614602Y-110221688D01*
X169673117Y-110238869D01*
X169730607Y-110272869D01*
X169730610Y-110272869D01*
X169730612Y-110272871D01*
X169884791Y-110317664D01*
X169884794Y-110317664D01*
X169884796Y-110317665D01*
X169920819Y-110320500D01*
X170319180Y-110320499D01*
X170355204Y-110317665D01*
X170509393Y-110272869D01*
X170647598Y-110191135D01*
X170647603Y-110191129D01*
X170653764Y-110186352D01*
X170654605Y-110187437D01*
X170708630Y-110157931D01*
X170778322Y-110162909D01*
X170815758Y-110186967D01*
X170816236Y-110186352D01*
X170822399Y-110191132D01*
X170822402Y-110191135D01*
X170960607Y-110272869D01*
X171001268Y-110284682D01*
X171114791Y-110317664D01*
X171114794Y-110317664D01*
X171114796Y-110317665D01*
X171150819Y-110320500D01*
X171549180Y-110320499D01*
X171585204Y-110317665D01*
X171739393Y-110272869D01*
X171796882Y-110238869D01*
X171864602Y-110221688D01*
X171923117Y-110238869D01*
X171980607Y-110272869D01*
X171980610Y-110272869D01*
X171980612Y-110272871D01*
X172134791Y-110317664D01*
X172134794Y-110317664D01*
X172134796Y-110317665D01*
X172170819Y-110320500D01*
X172569180Y-110320499D01*
X172605204Y-110317665D01*
X172759393Y-110272869D01*
X172897598Y-110191135D01*
X172951915Y-110136817D01*
X172978846Y-110122111D01*
X173004660Y-110105523D01*
X173010859Y-110104631D01*
X173013236Y-110103334D01*
X173039595Y-110100500D01*
X173104315Y-110100500D01*
X173171354Y-110120185D01*
X173209851Y-110159400D01*
X173235845Y-110201542D01*
X173238220Y-110205392D01*
X173357108Y-110324280D01*
X173357112Y-110324283D01*
X173500204Y-110412544D01*
X173500207Y-110412545D01*
X173500213Y-110412549D01*
X173659815Y-110465436D01*
X173758326Y-110475500D01*
X173758331Y-110475500D01*
X174291669Y-110475500D01*
X174291674Y-110475500D01*
X174390185Y-110465436D01*
X174549787Y-110412549D01*
X174692891Y-110324281D01*
X174724819Y-110292353D01*
X174786142Y-110258868D01*
X174855834Y-110263852D01*
X174900181Y-110292353D01*
X174932108Y-110324280D01*
X174932112Y-110324283D01*
X175075204Y-110412544D01*
X175075207Y-110412545D01*
X175075213Y-110412549D01*
X175234815Y-110465436D01*
X175333326Y-110475500D01*
X175333331Y-110475500D01*
X175866669Y-110475500D01*
X175866674Y-110475500D01*
X175965185Y-110465436D01*
X176124787Y-110412549D01*
X176267891Y-110324281D01*
X176386781Y-110205391D01*
X176475049Y-110062287D01*
X176527936Y-109902685D01*
X176538000Y-109804174D01*
X176538000Y-109195826D01*
X176527936Y-109097315D01*
X176475049Y-108937713D01*
X176475045Y-108937707D01*
X176475044Y-108937704D01*
X176386783Y-108794612D01*
X176386780Y-108794608D01*
X176267891Y-108675719D01*
X176267887Y-108675716D01*
X176124795Y-108587455D01*
X176124789Y-108587452D01*
X176124787Y-108587451D01*
X175965185Y-108534564D01*
X175965183Y-108534563D01*
X175866681Y-108524500D01*
X175866674Y-108524500D01*
X175525097Y-108524500D01*
X175458058Y-108504815D01*
X175437416Y-108488181D01*
X174436819Y-107487584D01*
X174403334Y-107426261D01*
X174400500Y-107399903D01*
X174400500Y-105983308D01*
X174420185Y-105916269D01*
X174436820Y-105895626D01*
X174468076Y-105864370D01*
X174468081Y-105864365D01*
X174551744Y-105722898D01*
X174593958Y-105577598D01*
X174597597Y-105565073D01*
X174597598Y-105565067D01*
X174600069Y-105533671D01*
X174600500Y-105528194D01*
X174600500Y-104221806D01*
X174597598Y-104184931D01*
X174596259Y-104180323D01*
X174551745Y-104027106D01*
X174551744Y-104027103D01*
X174551744Y-104027102D01*
X174468081Y-103885635D01*
X174468079Y-103885633D01*
X174468076Y-103885629D01*
X174351870Y-103769423D01*
X174351862Y-103769417D01*
X174219434Y-103691100D01*
X174210398Y-103685756D01*
X174210397Y-103685755D01*
X174210396Y-103685755D01*
X174210393Y-103685754D01*
X174052573Y-103639902D01*
X174052567Y-103639901D01*
X174015701Y-103637000D01*
X174015694Y-103637000D01*
X173584306Y-103637000D01*
X173584298Y-103637000D01*
X173547432Y-103639901D01*
X173547426Y-103639902D01*
X173389606Y-103685754D01*
X173389603Y-103685755D01*
X173248137Y-103769417D01*
X173248129Y-103769423D01*
X173214825Y-103802728D01*
X173153502Y-103836213D01*
X173083810Y-103831229D01*
X173039463Y-103802728D01*
X171591818Y-102355083D01*
X171558333Y-102293760D01*
X171555499Y-102267402D01*
X171555499Y-102155596D01*
X171541011Y-102045536D01*
X171541009Y-102045529D01*
X171541009Y-102045528D01*
X171484279Y-101908571D01*
X171394036Y-101790964D01*
X171276429Y-101700721D01*
X171276425Y-101700719D01*
X171139472Y-101643991D01*
X171139470Y-101643990D01*
X171029401Y-101629500D01*
X170830596Y-101629500D01*
X170720531Y-101643989D01*
X170712678Y-101646094D01*
X170711802Y-101642824D01*
X170657853Y-101648567D01*
X170647477Y-101645518D01*
X170647323Y-101646095D01*
X170639470Y-101643990D01*
X170529401Y-101629500D01*
X170330596Y-101629500D01*
X170220531Y-101643989D01*
X170212678Y-101646094D01*
X170211802Y-101642824D01*
X170157853Y-101648567D01*
X170147477Y-101645518D01*
X170147323Y-101646095D01*
X170139470Y-101643990D01*
X170029401Y-101629500D01*
X169830596Y-101629500D01*
X169720531Y-101643989D01*
X169712678Y-101646094D01*
X169711802Y-101642824D01*
X169657853Y-101648567D01*
X169647477Y-101645518D01*
X169647323Y-101646095D01*
X169639470Y-101643990D01*
X169529402Y-101629500D01*
X169382802Y-101629500D01*
X169315763Y-101609815D01*
X169270008Y-101557011D01*
X169260064Y-101487853D01*
X169289089Y-101424297D01*
X169335349Y-101390939D01*
X169351429Y-101384279D01*
X169469036Y-101294036D01*
X169559279Y-101176429D01*
X169616009Y-101039472D01*
X169630500Y-100929401D01*
X169630499Y-100730600D01*
X169630102Y-100727588D01*
X169627221Y-100705700D01*
X169621254Y-100660375D01*
X169632019Y-100591344D01*
X169678399Y-100539088D01*
X169745668Y-100520203D01*
X169760371Y-100521254D01*
X169830599Y-100530500D01*
X170029400Y-100530499D01*
X170029401Y-100530499D01*
X170055896Y-100527011D01*
X170139472Y-100516009D01*
X170139475Y-100516007D01*
X170147326Y-100513905D01*
X170148210Y-100517207D01*
X170201925Y-100511392D01*
X170212514Y-100514501D01*
X170212674Y-100513905D01*
X170220524Y-100516008D01*
X170220526Y-100516008D01*
X170220528Y-100516009D01*
X170330599Y-100530500D01*
X170529400Y-100530499D01*
X170529401Y-100530499D01*
X170555896Y-100527011D01*
X170639472Y-100516009D01*
X170639475Y-100516007D01*
X170647326Y-100513905D01*
X170648210Y-100517207D01*
X170701925Y-100511392D01*
X170712514Y-100514501D01*
X170712674Y-100513905D01*
X170720524Y-100516008D01*
X170720526Y-100516008D01*
X170720528Y-100516009D01*
X170830599Y-100530500D01*
X171029400Y-100530499D01*
X171029403Y-100530499D01*
X171139463Y-100516011D01*
X171139467Y-100516009D01*
X171139472Y-100516009D01*
X171276429Y-100459279D01*
X171394036Y-100369036D01*
X171484279Y-100251429D01*
X171541009Y-100114472D01*
X171555500Y-100004401D01*
X171555499Y-99892595D01*
X171575183Y-99825557D01*
X171591813Y-99804920D01*
X172910580Y-98486153D01*
X172971901Y-98452670D01*
X173041593Y-98457654D01*
X173063355Y-98468297D01*
X173130659Y-98509810D01*
X173130660Y-98509810D01*
X173130666Y-98509814D01*
X173297203Y-98564999D01*
X173399991Y-98575500D01*
X174800008Y-98575499D01*
X174902797Y-98564999D01*
X175069334Y-98509814D01*
X175218656Y-98417712D01*
X175342712Y-98293656D01*
X175434814Y-98144334D01*
X175489999Y-97977797D01*
X175500500Y-97875009D01*
X175500499Y-97124992D01*
X175489999Y-97022203D01*
X175434814Y-96855666D01*
X175342712Y-96706344D01*
X175218656Y-96582288D01*
X175085232Y-96499992D01*
X175069336Y-96490187D01*
X175069331Y-96490185D01*
X175067862Y-96489698D01*
X174902797Y-96435001D01*
X174902795Y-96435000D01*
X174800010Y-96424500D01*
X173399998Y-96424500D01*
X173399981Y-96424501D01*
X173297203Y-96435000D01*
X173297200Y-96435001D01*
X173130668Y-96490185D01*
X173130663Y-96490187D01*
X172981342Y-96582289D01*
X172857289Y-96706342D01*
X172765186Y-96855666D01*
X172733343Y-96951760D01*
X172693570Y-97009205D01*
X172680340Y-97018286D01*
X172678781Y-97019482D01*
X171468602Y-98229662D01*
X171407279Y-98263147D01*
X171337587Y-98258163D01*
X171281654Y-98216291D01*
X171261146Y-98174072D01*
X171260699Y-98172404D01*
X171259577Y-98168216D01*
X171254954Y-98160208D01*
X171180524Y-98031290D01*
X171180518Y-98031282D01*
X170941819Y-97792583D01*
X170908334Y-97731260D01*
X170905500Y-97704902D01*
X170905500Y-96500006D01*
X170905499Y-96499992D01*
X170902801Y-96479500D01*
X170884868Y-96343285D01*
X170824378Y-96197250D01*
X170728153Y-96071847D01*
X170602750Y-95975622D01*
X170602749Y-95975621D01*
X170602747Y-95975620D01*
X170508344Y-95936517D01*
X170456715Y-95915132D01*
X170437125Y-95912553D01*
X170300007Y-95894500D01*
X170300000Y-95894500D01*
X168800000Y-95894500D01*
X168799992Y-95894500D01*
X168643285Y-95915132D01*
X168643284Y-95915132D01*
X168497252Y-95975620D01*
X168371847Y-96071847D01*
X168275620Y-96197252D01*
X168215132Y-96343284D01*
X168215132Y-96343285D01*
X168194500Y-96499992D01*
X168194500Y-98363480D01*
X168174815Y-98430519D01*
X168158181Y-98451161D01*
X167708194Y-98901147D01*
X167646871Y-98934632D01*
X167591568Y-98932735D01*
X167591434Y-98933473D01*
X167586433Y-98932559D01*
X167585918Y-98932542D01*
X167585208Y-98932335D01*
X167585202Y-98932334D01*
X167549188Y-98929500D01*
X167154500Y-98929500D01*
X167087461Y-98909815D01*
X167041706Y-98857011D01*
X167030500Y-98805500D01*
X167030500Y-97458939D01*
X167050185Y-97391900D01*
X167066819Y-97371258D01*
X167769112Y-96668965D01*
X167769114Y-96668963D01*
X167845775Y-96554231D01*
X167898580Y-96426749D01*
X167906781Y-96385518D01*
X167913158Y-96353461D01*
X167913158Y-96353458D01*
X167925500Y-96291413D01*
X167925500Y-95064526D01*
X167930861Y-95046268D01*
X167931238Y-95027242D01*
X167940501Y-95013436D01*
X167945185Y-94997487D01*
X167959564Y-94985027D01*
X167970169Y-94969223D01*
X167996472Y-94953046D01*
X167997989Y-94951732D01*
X168000232Y-94950734D01*
X168003551Y-94949297D01*
X168072893Y-94940725D01*
X168115013Y-94957348D01*
X168115454Y-94956525D01*
X168120825Y-94959396D01*
X168212786Y-94997487D01*
X168266503Y-95019737D01*
X168421153Y-95050499D01*
X168421156Y-95050500D01*
X168421158Y-95050500D01*
X168578844Y-95050500D01*
X168578845Y-95050499D01*
X168733497Y-95019737D01*
X168879179Y-94959394D01*
X169010289Y-94871789D01*
X169121789Y-94760289D01*
X169209394Y-94629179D01*
X169213448Y-94619393D01*
X169234709Y-94568062D01*
X169269737Y-94483497D01*
X169300500Y-94328842D01*
X169300500Y-94174500D01*
X169320185Y-94107461D01*
X169372989Y-94061706D01*
X169424500Y-94050500D01*
X170078186Y-94050500D01*
X170078194Y-94050500D01*
X170115069Y-94047598D01*
X170115071Y-94047597D01*
X170115073Y-94047597D01*
X170177964Y-94029325D01*
X170272898Y-94001744D01*
X170414365Y-93918081D01*
X170530581Y-93801865D01*
X170614244Y-93660398D01*
X170653635Y-93524815D01*
X170660097Y-93502573D01*
X170660098Y-93502567D01*
X170660283Y-93500221D01*
X170663000Y-93465694D01*
X170663000Y-93034306D01*
X170660098Y-92997431D01*
X170651192Y-92966778D01*
X170614245Y-92839606D01*
X170614244Y-92839603D01*
X170614244Y-92839602D01*
X170530581Y-92698135D01*
X170530579Y-92698133D01*
X170530576Y-92698129D01*
X170414370Y-92581923D01*
X170414362Y-92581917D01*
X170336181Y-92535681D01*
X170272898Y-92498256D01*
X170272897Y-92498255D01*
X170272896Y-92498255D01*
X170272893Y-92498254D01*
X170115073Y-92452402D01*
X170115067Y-92452401D01*
X170078201Y-92449500D01*
X170078194Y-92449500D01*
X168921806Y-92449500D01*
X168921798Y-92449500D01*
X168884932Y-92452401D01*
X168884926Y-92452402D01*
X168727106Y-92498254D01*
X168727103Y-92498255D01*
X168689455Y-92520520D01*
X168672931Y-92530293D01*
X168669652Y-92532232D01*
X168606531Y-92549500D01*
X166660116Y-92549500D01*
X166524789Y-92576418D01*
X166524779Y-92576421D01*
X166397304Y-92629222D01*
X166282566Y-92705887D01*
X166282565Y-92705888D01*
X166242181Y-92746273D01*
X166180858Y-92779758D01*
X166111166Y-92774774D01*
X166055233Y-92732902D01*
X166030816Y-92667438D01*
X166030500Y-92658592D01*
X166030500Y-91378711D01*
X172149500Y-91378711D01*
X172149500Y-91621288D01*
X172181161Y-91861785D01*
X172243947Y-92096104D01*
X172336773Y-92320205D01*
X172336777Y-92320214D01*
X172353108Y-92348500D01*
X172458064Y-92530289D01*
X172458066Y-92530292D01*
X172458067Y-92530293D01*
X172605733Y-92722736D01*
X172605739Y-92722743D01*
X172777256Y-92894260D01*
X172777262Y-92894265D01*
X172969711Y-93041936D01*
X173179788Y-93163224D01*
X173403900Y-93256054D01*
X173638211Y-93318838D01*
X173818586Y-93342584D01*
X173878711Y-93350500D01*
X173878712Y-93350500D01*
X174121289Y-93350500D01*
X174169388Y-93344167D01*
X174361789Y-93318838D01*
X174596100Y-93256054D01*
X174820212Y-93163224D01*
X175030289Y-93041936D01*
X175222738Y-92894265D01*
X175394265Y-92722738D01*
X175541936Y-92530289D01*
X175663224Y-92320212D01*
X175756054Y-92096100D01*
X175818838Y-91861789D01*
X175850500Y-91621288D01*
X175850500Y-91378712D01*
X175818838Y-91138211D01*
X175756054Y-90903900D01*
X175753299Y-90897250D01*
X175699701Y-90767852D01*
X175663224Y-90679788D01*
X175541936Y-90469711D01*
X175394265Y-90277262D01*
X175394260Y-90277256D01*
X175222743Y-90105739D01*
X175222736Y-90105733D01*
X175030293Y-89958067D01*
X175030292Y-89958066D01*
X175030289Y-89958064D01*
X174820212Y-89836776D01*
X174820205Y-89836773D01*
X174596104Y-89743947D01*
X174361785Y-89681161D01*
X174121289Y-89649500D01*
X174121288Y-89649500D01*
X173878712Y-89649500D01*
X173878711Y-89649500D01*
X173638214Y-89681161D01*
X173403895Y-89743947D01*
X173179794Y-89836773D01*
X173179785Y-89836777D01*
X172969706Y-89958067D01*
X172777263Y-90105733D01*
X172777256Y-90105739D01*
X172605739Y-90277256D01*
X172605733Y-90277263D01*
X172458067Y-90469706D01*
X172336777Y-90679785D01*
X172336773Y-90679794D01*
X172243947Y-90903895D01*
X172181161Y-91138214D01*
X172149500Y-91378711D01*
X166030500Y-91378711D01*
X166030500Y-90600006D01*
X166030499Y-90599992D01*
X166027291Y-90575623D01*
X166009868Y-90443285D01*
X165949378Y-90297250D01*
X165853153Y-90171847D01*
X165727750Y-90075622D01*
X165727749Y-90075621D01*
X165727747Y-90075620D01*
X165633344Y-90036517D01*
X165581715Y-90015132D01*
X165562125Y-90012553D01*
X165425007Y-89994500D01*
X165425000Y-89994500D01*
X165391517Y-89994500D01*
X165362076Y-89985855D01*
X165332090Y-89979332D01*
X165327074Y-89975577D01*
X165324478Y-89974815D01*
X165303836Y-89958181D01*
X165281542Y-89935887D01*
X164700545Y-89354888D01*
X164700544Y-89354887D01*
X164585806Y-89278222D01*
X164458331Y-89225421D01*
X164458321Y-89225418D01*
X164322995Y-89198500D01*
X164322993Y-89198500D01*
X164322992Y-89198500D01*
X138252007Y-89198500D01*
X138252003Y-89198500D01*
X138143590Y-89220065D01*
X138143589Y-89220065D01*
X138116681Y-89225418D01*
X138116671Y-89225420D01*
X137989190Y-89278224D01*
X137874454Y-89354887D01*
X137874453Y-89354888D01*
X136771162Y-90458181D01*
X136709839Y-90491666D01*
X136683481Y-90494500D01*
X136299992Y-90494500D01*
X136143285Y-90515132D01*
X136143284Y-90515132D01*
X135997247Y-90575623D01*
X135990214Y-90579684D01*
X135988596Y-90576881D01*
X135937520Y-90596596D01*
X135911090Y-90595960D01*
X135900000Y-90594500D01*
X134000000Y-90594500D01*
X133999992Y-90594500D01*
X133843285Y-90615132D01*
X133843284Y-90615132D01*
X133697252Y-90675620D01*
X133571847Y-90771847D01*
X133475620Y-90897252D01*
X133415132Y-91043284D01*
X133415132Y-91043285D01*
X133394500Y-91199992D01*
X133394500Y-93500007D01*
X133415132Y-93656714D01*
X133415132Y-93656715D01*
X133475620Y-93802747D01*
X133475621Y-93802749D01*
X133475622Y-93802750D01*
X133571847Y-93928153D01*
X133697250Y-94024378D01*
X133697252Y-94024378D01*
X133703698Y-94029325D01*
X133701934Y-94031622D01*
X133713594Y-94037459D01*
X133724523Y-94055880D01*
X133739308Y-94071383D01*
X133741997Y-94085331D01*
X133749246Y-94097548D01*
X133748481Y-94118953D01*
X133752538Y-94139989D01*
X133747258Y-94153178D01*
X133746752Y-94167373D01*
X133734536Y-94184967D01*
X133726576Y-94204856D01*
X133714229Y-94214214D01*
X133706904Y-94224765D01*
X133676550Y-94242774D01*
X133597452Y-94275537D01*
X133527983Y-94283006D01*
X133502548Y-94275537D01*
X133356718Y-94215133D01*
X133356716Y-94215132D01*
X133356715Y-94215132D01*
X133337125Y-94212553D01*
X133200007Y-94194500D01*
X133200000Y-94194500D01*
X129500000Y-94194500D01*
X129499992Y-94194500D01*
X129343285Y-94215132D01*
X129343284Y-94215132D01*
X129197252Y-94275620D01*
X129071847Y-94371847D01*
X128975620Y-94497252D01*
X128915132Y-94643284D01*
X128915132Y-94643285D01*
X128894500Y-94799992D01*
X128894500Y-97100007D01*
X128915132Y-97256714D01*
X128915132Y-97256715D01*
X128975620Y-97402747D01*
X128975621Y-97402749D01*
X128975622Y-97402750D01*
X129071847Y-97528153D01*
X129197250Y-97624378D01*
X129343285Y-97684868D01*
X129500000Y-97705500D01*
X129500007Y-97705500D01*
X130399993Y-97705500D01*
X130400000Y-97705500D01*
X130556715Y-97684868D01*
X130702750Y-97624378D01*
X130703792Y-97623578D01*
X130704834Y-97623175D01*
X130709790Y-97620314D01*
X130710235Y-97621086D01*
X130768957Y-97598379D01*
X130813876Y-97602871D01*
X130864796Y-97617665D01*
X130900819Y-97620500D01*
X131299180Y-97620499D01*
X131335204Y-97617665D01*
X131489393Y-97572869D01*
X131582564Y-97517767D01*
X131645685Y-97500500D01*
X134708481Y-97500500D01*
X134775520Y-97520185D01*
X134796162Y-97536819D01*
X136953928Y-99694585D01*
X136980808Y-99734814D01*
X137040602Y-99879172D01*
X137040609Y-99879185D01*
X137128210Y-100010288D01*
X137128213Y-100010292D01*
X137164504Y-100046583D01*
X137197989Y-100107906D01*
X137193005Y-100177598D01*
X137191384Y-100181716D01*
X137151492Y-100278024D01*
X137151490Y-100278029D01*
X137137000Y-100388098D01*
X137137000Y-100586903D01*
X137151489Y-100696968D01*
X137153594Y-100704822D01*
X137150314Y-100705700D01*
X137156081Y-100759573D01*
X137153017Y-100770022D01*
X137153595Y-100770177D01*
X137151490Y-100778029D01*
X137137000Y-100888098D01*
X137137000Y-101070325D01*
X137117315Y-101137364D01*
X137064511Y-101183119D01*
X136997315Y-101192780D01*
X136997310Y-101192854D01*
X136996984Y-101192828D01*
X136995353Y-101193063D01*
X136991054Y-101192361D01*
X136954697Y-101189500D01*
X136954690Y-101189500D01*
X136545310Y-101189500D01*
X136545302Y-101189500D01*
X136509010Y-101192356D01*
X136363138Y-101234736D01*
X136293268Y-101234536D01*
X136259653Y-101218762D01*
X136221287Y-101193127D01*
X136221286Y-101193126D01*
X136221284Y-101193125D01*
X136221281Y-101193123D01*
X136221276Y-101193121D01*
X136055584Y-101124490D01*
X136055575Y-101124487D01*
X135879680Y-101089500D01*
X135879676Y-101089500D01*
X134599677Y-101089500D01*
X134420323Y-101089500D01*
X134420318Y-101089500D01*
X134244424Y-101124487D01*
X134244416Y-101124489D01*
X134094710Y-101186499D01*
X134094703Y-101186502D01*
X134087465Y-101189501D01*
X134078716Y-101193125D01*
X134052805Y-101210437D01*
X134049022Y-101212599D01*
X134019087Y-101219715D01*
X133989725Y-101228908D01*
X133985405Y-101227722D01*
X133981047Y-101228759D01*
X133952016Y-101218562D01*
X133922345Y-101210421D01*
X133918628Y-101208032D01*
X133915138Y-101205700D01*
X133911284Y-101203125D01*
X133911282Y-101203124D01*
X133911279Y-101203122D01*
X133745584Y-101134490D01*
X133745575Y-101134487D01*
X133569680Y-101099500D01*
X133569676Y-101099500D01*
X132180324Y-101099500D01*
X132180319Y-101099500D01*
X132004424Y-101134487D01*
X132004415Y-101134490D01*
X131838723Y-101203121D01*
X131838711Y-101203128D01*
X131828887Y-101209692D01*
X131762208Y-101230567D01*
X131694829Y-101212080D01*
X131691113Y-101209692D01*
X131681288Y-101203128D01*
X131681284Y-101203125D01*
X131681280Y-101203123D01*
X131681276Y-101203121D01*
X131515584Y-101134490D01*
X131515575Y-101134487D01*
X131339680Y-101099500D01*
X131339676Y-101099500D01*
X130152166Y-101099500D01*
X130127976Y-101097118D01*
X130089677Y-101089500D01*
X129910323Y-101089500D01*
X129910318Y-101089500D01*
X129734424Y-101124487D01*
X129734416Y-101124489D01*
X129568714Y-101193125D01*
X129558386Y-101200026D01*
X129491708Y-101220901D01*
X129424329Y-101202414D01*
X129420614Y-101200026D01*
X129410294Y-101193131D01*
X129410287Y-101193127D01*
X129410284Y-101193125D01*
X129410280Y-101193123D01*
X129410276Y-101193121D01*
X129244584Y-101124490D01*
X129244575Y-101124487D01*
X129068680Y-101089500D01*
X129068676Y-101089500D01*
X127769441Y-101089500D01*
X127710148Y-101074405D01*
X126952166Y-100661725D01*
X126952135Y-100661709D01*
X126946691Y-100658745D01*
X126943709Y-100657235D01*
X126942331Y-100656204D01*
X126939822Y-100655268D01*
X126933209Y-100651921D01*
X126933136Y-100651883D01*
X126919604Y-100645034D01*
X126918379Y-100644460D01*
X126918376Y-100644458D01*
X126918372Y-100644457D01*
X126863918Y-100624200D01*
X126840400Y-100615451D01*
X126838738Y-100615232D01*
X126829063Y-100613957D01*
X126807483Y-100605909D01*
X126747873Y-100599500D01*
X126719297Y-100599500D01*
X126711232Y-100598437D01*
X126697756Y-100596662D01*
X126697734Y-100596661D01*
X126688829Y-100596766D01*
X126688789Y-100596768D01*
X126653637Y-100599073D01*
X126651193Y-100599234D01*
X126643080Y-100599500D01*
X122624500Y-100599500D01*
X122557461Y-100579815D01*
X122511706Y-100527011D01*
X122500500Y-100475500D01*
X122500500Y-91378711D01*
X124149500Y-91378711D01*
X124149500Y-91621288D01*
X124181161Y-91861785D01*
X124243947Y-92096104D01*
X124336773Y-92320205D01*
X124336777Y-92320214D01*
X124353108Y-92348500D01*
X124458064Y-92530289D01*
X124458066Y-92530292D01*
X124458067Y-92530293D01*
X124605733Y-92722736D01*
X124605739Y-92722743D01*
X124777256Y-92894260D01*
X124777262Y-92894265D01*
X124969711Y-93041936D01*
X125179788Y-93163224D01*
X125403900Y-93256054D01*
X125638211Y-93318838D01*
X125818586Y-93342584D01*
X125878711Y-93350500D01*
X125878712Y-93350500D01*
X126121289Y-93350500D01*
X126169388Y-93344167D01*
X126361789Y-93318838D01*
X126596100Y-93256054D01*
X126820212Y-93163224D01*
X127030289Y-93041936D01*
X127222738Y-92894265D01*
X127394265Y-92722738D01*
X127541936Y-92530289D01*
X127663224Y-92320212D01*
X127756054Y-92096100D01*
X127818838Y-91861789D01*
X127850500Y-91621288D01*
X127850500Y-91378712D01*
X127818838Y-91138211D01*
X127756054Y-90903900D01*
X127753299Y-90897250D01*
X127699701Y-90767852D01*
X127663224Y-90679788D01*
X127541936Y-90469711D01*
X127394265Y-90277262D01*
X127394260Y-90277256D01*
X127222743Y-90105739D01*
X127222736Y-90105733D01*
X127030293Y-89958067D01*
X127030292Y-89958066D01*
X127030289Y-89958064D01*
X126820212Y-89836776D01*
X126820205Y-89836773D01*
X126596104Y-89743947D01*
X126361785Y-89681161D01*
X126121289Y-89649500D01*
X126121288Y-89649500D01*
X125878712Y-89649500D01*
X125878711Y-89649500D01*
X125638214Y-89681161D01*
X125403895Y-89743947D01*
X125179794Y-89836773D01*
X125179785Y-89836777D01*
X124969706Y-89958067D01*
X124777263Y-90105733D01*
X124777256Y-90105739D01*
X124605739Y-90277256D01*
X124605733Y-90277263D01*
X124458067Y-90469706D01*
X124336777Y-90679785D01*
X124336773Y-90679794D01*
X124243947Y-90903895D01*
X124181161Y-91138214D01*
X124149500Y-91378711D01*
X122500500Y-91378711D01*
X122500500Y-88124500D01*
X122520185Y-88057461D01*
X122572989Y-88011706D01*
X122624500Y-88000500D01*
X177375500Y-88000500D01*
X177442539Y-88020185D01*
G37*
%TD.AperFunction*%
%TA.AperFunction,Conductor*%
G36*
X163181473Y-105423506D02*
G01*
X163204728Y-105431063D01*
X163262402Y-105470501D01*
X163289600Y-105534859D01*
X163277685Y-105603706D01*
X163254089Y-105636674D01*
X162457582Y-106433181D01*
X162396259Y-106466666D01*
X162369902Y-106469500D01*
X162250831Y-106469500D01*
X162250807Y-106469501D01*
X162214794Y-106472335D01*
X162060611Y-106517129D01*
X162060608Y-106517130D01*
X161946574Y-106584569D01*
X161878850Y-106601750D01*
X161820333Y-106584568D01*
X161689394Y-106507131D01*
X161689388Y-106507129D01*
X161535208Y-106462335D01*
X161535202Y-106462334D01*
X161499181Y-106459500D01*
X161000830Y-106459500D01*
X161000808Y-106459501D01*
X160964794Y-106462335D01*
X160810611Y-106507129D01*
X160810606Y-106507131D01*
X160672404Y-106588863D01*
X160672396Y-106588869D01*
X160558869Y-106702396D01*
X160558863Y-106702404D01*
X160477131Y-106840606D01*
X160477129Y-106840611D01*
X160432335Y-106994791D01*
X160432334Y-106994797D01*
X160429500Y-107030811D01*
X160429500Y-107276736D01*
X160409815Y-107343775D01*
X160357011Y-107389530D01*
X160289317Y-107399675D01*
X160250015Y-107394501D01*
X160250003Y-107394500D01*
X160250000Y-107394500D01*
X157000000Y-107394500D01*
X156999992Y-107394500D01*
X156843285Y-107415132D01*
X156843281Y-107415133D01*
X156797452Y-107434116D01*
X156766948Y-107437395D01*
X156736745Y-107442845D01*
X156730674Y-107441295D01*
X156727982Y-107441585D01*
X156702548Y-107434116D01*
X156683589Y-107426263D01*
X156629185Y-107382422D01*
X156607120Y-107316128D01*
X156624399Y-107248429D01*
X156675536Y-107200818D01*
X156687706Y-107195520D01*
X156692331Y-107193796D01*
X156807546Y-107107546D01*
X156893796Y-106992331D01*
X156944091Y-106857483D01*
X156950500Y-106797873D01*
X156950499Y-106102128D01*
X156944531Y-106046608D01*
X156944091Y-106042516D01*
X156923695Y-105987832D01*
X156918711Y-105918140D01*
X156952196Y-105856817D01*
X157013519Y-105823333D01*
X157039877Y-105820499D01*
X157189168Y-105820499D01*
X157189180Y-105820499D01*
X157225204Y-105817665D01*
X157379393Y-105772869D01*
X157436882Y-105738869D01*
X157504602Y-105721688D01*
X157563117Y-105738869D01*
X157620607Y-105772869D01*
X157620610Y-105772869D01*
X157620612Y-105772871D01*
X157774791Y-105817664D01*
X157774794Y-105817664D01*
X157774796Y-105817665D01*
X157810819Y-105820500D01*
X158000218Y-105820499D01*
X158041310Y-105828672D01*
X158041364Y-105828473D01*
X158044412Y-105829289D01*
X158047671Y-105829938D01*
X158049209Y-105830575D01*
X158049213Y-105830576D01*
X158049215Y-105830577D01*
X158201943Y-105871501D01*
X158201946Y-105871501D01*
X158367653Y-105871501D01*
X158367669Y-105871500D01*
X162302331Y-105871500D01*
X162302347Y-105871501D01*
X162309943Y-105871501D01*
X162468054Y-105871501D01*
X162468057Y-105871501D01*
X162620785Y-105830577D01*
X162677828Y-105797643D01*
X162757716Y-105751520D01*
X162869520Y-105639716D01*
X162869520Y-105639714D01*
X162879723Y-105629512D01*
X162879727Y-105629506D01*
X163055478Y-105453755D01*
X163116799Y-105420272D01*
X163181473Y-105423506D01*
G37*
%TD.AperFunction*%
%TA.AperFunction,Conductor*%
G36*
X136363137Y-102765264D02*
G01*
X136509002Y-102807642D01*
X136509005Y-102807642D01*
X136509007Y-102807643D01*
X136545310Y-102810500D01*
X136545318Y-102810500D01*
X136954682Y-102810500D01*
X136954690Y-102810500D01*
X136987562Y-102807913D01*
X136997310Y-102807146D01*
X136997408Y-102808401D01*
X137060186Y-102815003D01*
X137114691Y-102858717D01*
X137136910Y-102924960D01*
X137137000Y-102929673D01*
X137137000Y-103086903D01*
X137151488Y-103196963D01*
X137151492Y-103196975D01*
X137198706Y-103310961D01*
X137206175Y-103380430D01*
X137174900Y-103442909D01*
X137171827Y-103446093D01*
X137128214Y-103489706D01*
X137128210Y-103489711D01*
X137040609Y-103620814D01*
X137040602Y-103620827D01*
X136980264Y-103766498D01*
X136980261Y-103766510D01*
X136949500Y-103921153D01*
X136949500Y-104078846D01*
X136980260Y-104233488D01*
X136980262Y-104233493D01*
X136980263Y-104233497D01*
X136995794Y-104270993D01*
X137008888Y-104302605D01*
X137016355Y-104372074D01*
X137001714Y-104412055D01*
X136940423Y-104518215D01*
X136940423Y-104518216D01*
X136899500Y-104670943D01*
X136899500Y-105329057D01*
X136939963Y-105480065D01*
X136940423Y-105481783D01*
X136940426Y-105481790D01*
X137019475Y-105618709D01*
X137019479Y-105618714D01*
X137019480Y-105618716D01*
X137131284Y-105730520D01*
X137131286Y-105730521D01*
X137131290Y-105730524D01*
X137268209Y-105809573D01*
X137268216Y-105809577D01*
X137420943Y-105850500D01*
X137420945Y-105850500D01*
X139329055Y-105850500D01*
X139329057Y-105850500D01*
X139481784Y-105809577D01*
X139523381Y-105785560D01*
X139591281Y-105769088D01*
X139657308Y-105791941D01*
X139676589Y-105810447D01*
X139676866Y-105810171D01*
X139796807Y-105930112D01*
X139796811Y-105930115D01*
X139796813Y-105930117D01*
X139936105Y-106012494D01*
X139977087Y-106024400D01*
X140091502Y-106057642D01*
X140091505Y-106057642D01*
X140091507Y-106057643D01*
X140127810Y-106060500D01*
X140127818Y-106060500D01*
X140537182Y-106060500D01*
X140537190Y-106060500D01*
X140573493Y-106057643D01*
X140573495Y-106057642D01*
X140573497Y-106057642D01*
X140625560Y-106042516D01*
X140728895Y-106012494D01*
X140868187Y-105930117D01*
X140982617Y-105815687D01*
X141064994Y-105676395D01*
X141110143Y-105520993D01*
X141113000Y-105484690D01*
X141113000Y-105137000D01*
X141132685Y-105069961D01*
X141185489Y-105024206D01*
X141237000Y-105013000D01*
X143270831Y-105013000D01*
X143270847Y-105013001D01*
X143278443Y-105013001D01*
X143436554Y-105013001D01*
X143436557Y-105013001D01*
X143589285Y-104972077D01*
X143659942Y-104931283D01*
X143726216Y-104893020D01*
X143797677Y-104821558D01*
X143803525Y-104816967D01*
X143829341Y-104806655D01*
X143853740Y-104793333D01*
X143865996Y-104792015D01*
X143868411Y-104791051D01*
X143870751Y-104791504D01*
X143880099Y-104790499D01*
X143999168Y-104790499D01*
X143999180Y-104790499D01*
X144035204Y-104787665D01*
X144189393Y-104742869D01*
X144318792Y-104666342D01*
X144386511Y-104649161D01*
X144452774Y-104671321D01*
X144457919Y-104675627D01*
X144458147Y-104675334D01*
X144464310Y-104680114D01*
X144464313Y-104680117D01*
X144603605Y-104762494D01*
X144603960Y-104762597D01*
X144759002Y-104807642D01*
X144759005Y-104807642D01*
X144759007Y-104807643D01*
X144795310Y-104810500D01*
X144795318Y-104810500D01*
X145204682Y-104810500D01*
X145204690Y-104810500D01*
X145240993Y-104807643D01*
X145240995Y-104807642D01*
X145240997Y-104807642D01*
X145309760Y-104787664D01*
X145396395Y-104762494D01*
X145535687Y-104680117D01*
X145650117Y-104565687D01*
X145732494Y-104426395D01*
X145777643Y-104270993D01*
X145780500Y-104234690D01*
X145780500Y-103765310D01*
X145777643Y-103729007D01*
X145775780Y-103722595D01*
X145732495Y-103573609D01*
X145732495Y-103573608D01*
X145732494Y-103573607D01*
X145732494Y-103573605D01*
X145717766Y-103548702D01*
X145713416Y-103532801D01*
X145705523Y-103520518D01*
X145700500Y-103485583D01*
X145700500Y-103324500D01*
X145720185Y-103257461D01*
X145772989Y-103211706D01*
X145824500Y-103200500D01*
X146303186Y-103200500D01*
X146303194Y-103200500D01*
X146340069Y-103197598D01*
X146340071Y-103197597D01*
X146340073Y-103197597D01*
X146381691Y-103185505D01*
X146497898Y-103151744D01*
X146639365Y-103068081D01*
X146707475Y-102999970D01*
X146715276Y-102995710D01*
X146720586Y-102988580D01*
X146745466Y-102979226D01*
X146768796Y-102966487D01*
X146779387Y-102966473D01*
X146785987Y-102963992D01*
X146811885Y-102966431D01*
X146821197Y-102966419D01*
X146824243Y-102967073D01*
X146948995Y-103000501D01*
X146979858Y-103000501D01*
X146992735Y-103003267D01*
X147012335Y-103013903D01*
X147033732Y-103020186D01*
X147053977Y-103036500D01*
X147054146Y-103036592D01*
X147054189Y-103036671D01*
X147054375Y-103036821D01*
X147085629Y-103068076D01*
X147085633Y-103068079D01*
X147085635Y-103068081D01*
X147227102Y-103151744D01*
X147256631Y-103160323D01*
X147384926Y-103197597D01*
X147384929Y-103197597D01*
X147384931Y-103197598D01*
X147421806Y-103200500D01*
X148212496Y-103200500D01*
X148279535Y-103220185D01*
X148325290Y-103272989D01*
X148335234Y-103342147D01*
X148306209Y-103405703D01*
X148300177Y-103412181D01*
X148109109Y-103603250D01*
X147919590Y-103792769D01*
X146169593Y-105542765D01*
X146169590Y-105542768D01*
X146136816Y-105575542D01*
X146107903Y-105604455D01*
X146104393Y-105607829D01*
X145817752Y-105872797D01*
X145810349Y-105879120D01*
X145505715Y-106119274D01*
X145497838Y-106124997D01*
X145175299Y-106340512D01*
X145167006Y-106345593D01*
X144860706Y-106517131D01*
X144828561Y-106535133D01*
X144819886Y-106539553D01*
X144467601Y-106701960D01*
X144458606Y-106705686D01*
X144094663Y-106839952D01*
X144085403Y-106842960D01*
X143712068Y-106948253D01*
X143702601Y-106950526D01*
X143322141Y-107026206D01*
X143312524Y-107027729D01*
X142927308Y-107073324D01*
X142917602Y-107074088D01*
X142527819Y-107089404D01*
X142522950Y-107089500D01*
X137010018Y-107089500D01*
X137003890Y-107089499D01*
X137003886Y-107089499D01*
X136961415Y-107089499D01*
X136917687Y-107089499D01*
X136917686Y-107089498D01*
X136910736Y-107089304D01*
X136640834Y-107074148D01*
X136627016Y-107072591D01*
X136363951Y-107027896D01*
X136350393Y-107024802D01*
X136093970Y-106950927D01*
X136080846Y-106946334D01*
X135834327Y-106844224D01*
X135821798Y-106838191D01*
X135588249Y-106709113D01*
X135576475Y-106701715D01*
X135358850Y-106547302D01*
X135347978Y-106538632D01*
X135146486Y-106358568D01*
X135141433Y-106353791D01*
X135128154Y-106340512D01*
X135080410Y-106292768D01*
X135080406Y-106292765D01*
X134823214Y-106035573D01*
X134823210Y-106035568D01*
X134758912Y-105971270D01*
X134752314Y-105964133D01*
X134641775Y-105834708D01*
X134630340Y-105818969D01*
X134629540Y-105817664D01*
X134570727Y-105721688D01*
X134543972Y-105678027D01*
X134535139Y-105660691D01*
X134530504Y-105649501D01*
X134471878Y-105507968D01*
X134465868Y-105489468D01*
X134464844Y-105485204D01*
X134427280Y-105328736D01*
X134424237Y-105309520D01*
X134422096Y-105282321D01*
X134410881Y-105139827D01*
X134410500Y-105130100D01*
X134410500Y-104180323D01*
X134410499Y-104180319D01*
X134375512Y-104004424D01*
X134375509Y-104004415D01*
X134328794Y-103891635D01*
X134306875Y-103838716D01*
X134300308Y-103828888D01*
X134279430Y-103762214D01*
X134297913Y-103694834D01*
X134300277Y-103691155D01*
X134306874Y-103681283D01*
X134375510Y-103515583D01*
X134410500Y-103339677D01*
X134410500Y-103160323D01*
X134395896Y-103086903D01*
X134392883Y-103071755D01*
X134390500Y-103047564D01*
X134390500Y-103044500D01*
X134410185Y-102977461D01*
X134462989Y-102931706D01*
X134514500Y-102920500D01*
X134589676Y-102920500D01*
X134589677Y-102920500D01*
X134627976Y-102912881D01*
X134652166Y-102910500D01*
X135879677Y-102910500D01*
X135879678Y-102910499D01*
X135938311Y-102898836D01*
X136055575Y-102875512D01*
X136055578Y-102875510D01*
X136055583Y-102875510D01*
X136201661Y-102815003D01*
X136221277Y-102806878D01*
X136221277Y-102806877D01*
X136221284Y-102806875D01*
X136259653Y-102781236D01*
X136326327Y-102760360D01*
X136363137Y-102765264D01*
G37*
%TD.AperFunction*%
%TA.AperFunction,Conductor*%
G36*
X154139209Y-103618258D02*
G01*
X154153571Y-103629279D01*
X154153573Y-103629280D01*
X154179217Y-103639902D01*
X154290528Y-103686009D01*
X154400599Y-103700500D01*
X154537401Y-103700499D01*
X154604441Y-103720183D01*
X154625083Y-103736818D01*
X156219832Y-105331567D01*
X156225069Y-105339557D01*
X156230053Y-105343148D01*
X156239276Y-105361227D01*
X156247527Y-105373813D01*
X156249628Y-105379148D01*
X156267131Y-105439393D01*
X156285751Y-105470878D01*
X156289369Y-105480065D01*
X156291646Y-105505422D01*
X156297908Y-105530103D01*
X156294718Y-105539639D01*
X156295618Y-105549655D01*
X156283823Y-105572218D01*
X156275748Y-105596366D01*
X156267908Y-105602665D01*
X156263251Y-105611575D01*
X156241132Y-105624179D01*
X156221282Y-105640129D01*
X156208804Y-105642601D01*
X156202546Y-105646168D01*
X156193295Y-105645674D01*
X156173993Y-105649500D01*
X155602129Y-105649500D01*
X155602123Y-105649501D01*
X155542515Y-105655909D01*
X155465991Y-105684450D01*
X155396299Y-105689434D01*
X155334977Y-105655948D01*
X155301492Y-105594625D01*
X155303582Y-105533675D01*
X155317665Y-105485204D01*
X155320500Y-105449181D01*
X155320499Y-105050820D01*
X155317665Y-105014796D01*
X155272869Y-104860607D01*
X155191135Y-104722402D01*
X155191133Y-104722400D01*
X155191130Y-104722396D01*
X155077603Y-104608869D01*
X155077595Y-104608863D01*
X154939393Y-104527131D01*
X154939388Y-104527129D01*
X154785208Y-104482335D01*
X154785202Y-104482334D01*
X154749181Y-104479500D01*
X154250830Y-104479500D01*
X154250808Y-104479501D01*
X154214792Y-104482335D01*
X154208563Y-104483473D01*
X154208123Y-104481064D01*
X154149171Y-104480870D01*
X154090519Y-104442901D01*
X154061704Y-104379250D01*
X154060500Y-104362009D01*
X154060500Y-104065317D01*
X154060499Y-104065302D01*
X154057643Y-104029008D01*
X154057642Y-104029002D01*
X154012495Y-103873609D01*
X154012494Y-103873606D01*
X154012494Y-103873605D01*
X153959973Y-103784796D01*
X153956992Y-103779756D01*
X153939809Y-103712032D01*
X153961969Y-103645769D01*
X154016435Y-103602006D01*
X154085915Y-103594637D01*
X154139209Y-103618258D01*
G37*
%TD.AperFunction*%
%TA.AperFunction,Conductor*%
G36*
X151348749Y-99370185D02*
G01*
X151394504Y-99422989D01*
X151396268Y-99427041D01*
X151397543Y-99430117D01*
X151442072Y-99537621D01*
X151445721Y-99546429D01*
X151535964Y-99664036D01*
X151653571Y-99754279D01*
X151790528Y-99811009D01*
X151900599Y-99825500D01*
X152099400Y-99825499D01*
X152099401Y-99825499D01*
X152116087Y-99823302D01*
X152209472Y-99811009D01*
X152209475Y-99811007D01*
X152217326Y-99808905D01*
X152218210Y-99812207D01*
X152271925Y-99806392D01*
X152282514Y-99809501D01*
X152282674Y-99808905D01*
X152290524Y-99811008D01*
X152290526Y-99811008D01*
X152290528Y-99811009D01*
X152400599Y-99825500D01*
X152599400Y-99825499D01*
X152599401Y-99825499D01*
X152616087Y-99823302D01*
X152709472Y-99811009D01*
X152709475Y-99811007D01*
X152717326Y-99808905D01*
X152718210Y-99812207D01*
X152771925Y-99806392D01*
X152782514Y-99809501D01*
X152782674Y-99808905D01*
X152790524Y-99811008D01*
X152790526Y-99811008D01*
X152790528Y-99811009D01*
X152900599Y-99825500D01*
X153099400Y-99825499D01*
X153099401Y-99825499D01*
X153116087Y-99823302D01*
X153209472Y-99811009D01*
X153209475Y-99811007D01*
X153217326Y-99808905D01*
X153218210Y-99812207D01*
X153271925Y-99806392D01*
X153282514Y-99809501D01*
X153282674Y-99808905D01*
X153290524Y-99811008D01*
X153290526Y-99811008D01*
X153290528Y-99811009D01*
X153400599Y-99825500D01*
X153599400Y-99825499D01*
X153599401Y-99825499D01*
X153616087Y-99823302D01*
X153709472Y-99811009D01*
X153709475Y-99811007D01*
X153717326Y-99808905D01*
X153718210Y-99812207D01*
X153771925Y-99806392D01*
X153782514Y-99809501D01*
X153782674Y-99808905D01*
X153790524Y-99811008D01*
X153790526Y-99811008D01*
X153790528Y-99811009D01*
X153900599Y-99825500D01*
X154099400Y-99825499D01*
X154112039Y-99823835D01*
X154181073Y-99834600D01*
X154233329Y-99880980D01*
X154252215Y-99948249D01*
X154251164Y-99962952D01*
X154249500Y-99975596D01*
X154249500Y-100174403D01*
X154263989Y-100284468D01*
X154266094Y-100292322D01*
X154262814Y-100293200D01*
X154268581Y-100347073D01*
X154265517Y-100357522D01*
X154266095Y-100357677D01*
X154263990Y-100365529D01*
X154249500Y-100475598D01*
X154249500Y-100674403D01*
X154263989Y-100784468D01*
X154266094Y-100792322D01*
X154262814Y-100793200D01*
X154268581Y-100847073D01*
X154265517Y-100857522D01*
X154266095Y-100857677D01*
X154263990Y-100865529D01*
X154249500Y-100975598D01*
X154249500Y-101174403D01*
X154263989Y-101284468D01*
X154266094Y-101292322D01*
X154262814Y-101293200D01*
X154268581Y-101347073D01*
X154265517Y-101357522D01*
X154266095Y-101357677D01*
X154263990Y-101365529D01*
X154249500Y-101475598D01*
X154249500Y-101674403D01*
X154259750Y-101752263D01*
X154248983Y-101821298D01*
X154202603Y-101873553D01*
X154184267Y-101883005D01*
X154153571Y-101895721D01*
X154035964Y-101985964D01*
X153950572Y-102097250D01*
X153945719Y-102103574D01*
X153888991Y-102240527D01*
X153888990Y-102240529D01*
X153874500Y-102350598D01*
X153874500Y-103174403D01*
X153888988Y-103284463D01*
X153888991Y-103284472D01*
X153945719Y-103421426D01*
X153949783Y-103428464D01*
X153948115Y-103429426D01*
X153954357Y-103436003D01*
X153958874Y-103459729D01*
X153967584Y-103482264D01*
X153965291Y-103493437D01*
X153967424Y-103504640D01*
X153958396Y-103527041D01*
X153953541Y-103550708D01*
X153945571Y-103558868D01*
X153941309Y-103569446D01*
X153921601Y-103583412D01*
X153904724Y-103600694D01*
X153893608Y-103603250D01*
X153884303Y-103609845D01*
X153860171Y-103610939D01*
X153836631Y-103616353D01*
X153824097Y-103612575D01*
X153814505Y-103613011D01*
X153783239Y-103600262D01*
X153781769Y-103599819D01*
X153781318Y-103599557D01*
X153676395Y-103537506D01*
X153672406Y-103536347D01*
X153662256Y-103530456D01*
X153643017Y-103510187D01*
X153621540Y-103492313D01*
X153619294Y-103485194D01*
X153614156Y-103479780D01*
X153608929Y-103452327D01*
X153600525Y-103425678D01*
X153600500Y-103423210D01*
X153600500Y-103334507D01*
X153609940Y-103287051D01*
X153611009Y-103284472D01*
X153625500Y-103174401D01*
X153625499Y-102350600D01*
X153625499Y-102350598D01*
X153625499Y-102350596D01*
X153611011Y-102240536D01*
X153611009Y-102240529D01*
X153611009Y-102240528D01*
X153554279Y-102103571D01*
X153464036Y-101985964D01*
X153346429Y-101895721D01*
X153346425Y-101895719D01*
X153209472Y-101838991D01*
X153209470Y-101838990D01*
X153099401Y-101824500D01*
X152900596Y-101824500D01*
X152790531Y-101838989D01*
X152782678Y-101841094D01*
X152781802Y-101837824D01*
X152727853Y-101843567D01*
X152717477Y-101840518D01*
X152717323Y-101841095D01*
X152709470Y-101838990D01*
X152599401Y-101824500D01*
X152400598Y-101824500D01*
X152387953Y-101826165D01*
X152318918Y-101815395D01*
X152266665Y-101769012D01*
X152247784Y-101701742D01*
X152248836Y-101687039D01*
X152248973Y-101685997D01*
X152250500Y-101674401D01*
X152250499Y-101475600D01*
X152236009Y-101365528D01*
X152236008Y-101365525D01*
X152233905Y-101357674D01*
X152237207Y-101356789D01*
X152231392Y-101303075D01*
X152234501Y-101292485D01*
X152233905Y-101292326D01*
X152236008Y-101284475D01*
X152236008Y-101284474D01*
X152236009Y-101284472D01*
X152250500Y-101174401D01*
X152250499Y-100975600D01*
X152250499Y-100975598D01*
X152250499Y-100975596D01*
X152236011Y-100865536D01*
X152236009Y-100865529D01*
X152236009Y-100865528D01*
X152179279Y-100728571D01*
X152089036Y-100610964D01*
X151971429Y-100520721D01*
X151971425Y-100520719D01*
X151834472Y-100463991D01*
X151834470Y-100463990D01*
X151724401Y-100449500D01*
X150900596Y-100449500D01*
X150790529Y-100463989D01*
X150788122Y-100464635D01*
X150786010Y-100464584D01*
X150782469Y-100465051D01*
X150782396Y-100464498D01*
X150718272Y-100462973D01*
X150668347Y-100432543D01*
X150565687Y-100329883D01*
X150557430Y-100325000D01*
X150433028Y-100251429D01*
X150426395Y-100247506D01*
X150426394Y-100247505D01*
X150426393Y-100247505D01*
X150426390Y-100247504D01*
X150270997Y-100202357D01*
X150270991Y-100202356D01*
X150234697Y-100199500D01*
X150234690Y-100199500D01*
X149765310Y-100199500D01*
X149765302Y-100199500D01*
X149729008Y-100202356D01*
X149729005Y-100202357D01*
X149724642Y-100203625D01*
X149654773Y-100203424D01*
X149596104Y-100165482D01*
X149567261Y-100101843D01*
X149577403Y-100032713D01*
X149602366Y-99996868D01*
X150002417Y-99596819D01*
X150063740Y-99563334D01*
X150090098Y-99560500D01*
X150204682Y-99560500D01*
X150204690Y-99560500D01*
X150240993Y-99557643D01*
X150240995Y-99557642D01*
X150240997Y-99557642D01*
X150309908Y-99537621D01*
X150396395Y-99512494D01*
X150535687Y-99430117D01*
X150578984Y-99386820D01*
X150640307Y-99353334D01*
X150666666Y-99350500D01*
X151281710Y-99350500D01*
X151348749Y-99370185D01*
G37*
%TD.AperFunction*%
%TA.AperFunction,Conductor*%
G36*
X167872702Y-101317113D02*
G01*
X167995654Y-101388098D01*
X167998216Y-101389577D01*
X168150943Y-101430501D01*
X168170494Y-101430501D01*
X168217947Y-101439940D01*
X168220528Y-101441009D01*
X168330599Y-101455500D01*
X169052198Y-101455499D01*
X169119237Y-101475183D01*
X169164992Y-101527987D01*
X169174936Y-101597146D01*
X169145911Y-101660702D01*
X169099651Y-101694060D01*
X169083574Y-101700719D01*
X169083571Y-101700720D01*
X169083571Y-101700721D01*
X168965964Y-101790964D01*
X168879510Y-101903634D01*
X168875719Y-101908574D01*
X168818991Y-102045527D01*
X168818990Y-102045529D01*
X168805575Y-102147431D01*
X168804501Y-102155596D01*
X168804500Y-102155605D01*
X168804500Y-102215915D01*
X168803439Y-102232100D01*
X168794501Y-102299989D01*
X168794500Y-102300006D01*
X168794500Y-102649144D01*
X168774815Y-102716183D01*
X168725954Y-102760053D01*
X168351727Y-102947166D01*
X168282962Y-102959541D01*
X168218423Y-102932773D01*
X168183196Y-102887144D01*
X167852168Y-102151524D01*
X167824378Y-102097250D01*
X167816438Y-102086903D01*
X167741780Y-101989606D01*
X167728153Y-101971847D01*
X167602750Y-101875622D01*
X167602749Y-101875621D01*
X167602747Y-101875620D01*
X167508344Y-101836517D01*
X167456715Y-101815132D01*
X167433844Y-101812121D01*
X167300007Y-101794500D01*
X167300000Y-101794500D01*
X166523500Y-101794500D01*
X166514814Y-101791949D01*
X166505853Y-101793238D01*
X166481812Y-101782259D01*
X166456461Y-101774815D01*
X166450533Y-101767974D01*
X166442297Y-101764213D01*
X166428007Y-101741978D01*
X166410706Y-101722011D01*
X166408418Y-101711496D01*
X166404523Y-101705435D01*
X166399500Y-101670500D01*
X166399500Y-101424500D01*
X166419185Y-101357461D01*
X166471989Y-101311706D01*
X166523500Y-101300500D01*
X167810703Y-101300500D01*
X167872702Y-101317113D01*
G37*
%TD.AperFunction*%
%TA.AperFunction,Conductor*%
G36*
X140545014Y-100622001D02*
G01*
X140545174Y-100621405D01*
X140553024Y-100623508D01*
X140553026Y-100623508D01*
X140553028Y-100623509D01*
X140663099Y-100638000D01*
X140861900Y-100637999D01*
X140861901Y-100637999D01*
X140880245Y-100635584D01*
X140971972Y-100623509D01*
X140971981Y-100623505D01*
X140975589Y-100622539D01*
X140978765Y-100622614D01*
X140980031Y-100622448D01*
X140980056Y-100622645D01*
X141045439Y-100624200D01*
X141103303Y-100663361D01*
X141130809Y-100727588D01*
X141127463Y-100774398D01*
X141126491Y-100778024D01*
X141112000Y-100888098D01*
X141112000Y-101086903D01*
X141126489Y-101196968D01*
X141128594Y-101204822D01*
X141125314Y-101205700D01*
X141131081Y-101259573D01*
X141128017Y-101270022D01*
X141128595Y-101270177D01*
X141126490Y-101278029D01*
X141112000Y-101388098D01*
X141112000Y-101586903D01*
X141126489Y-101696968D01*
X141128594Y-101704822D01*
X141125314Y-101705700D01*
X141131081Y-101759573D01*
X141128017Y-101770022D01*
X141128595Y-101770177D01*
X141126490Y-101778029D01*
X141112000Y-101888098D01*
X141112000Y-102086903D01*
X141126489Y-102196968D01*
X141128594Y-102204822D01*
X141125314Y-102205700D01*
X141131081Y-102259573D01*
X141128017Y-102270022D01*
X141128595Y-102270177D01*
X141126490Y-102278029D01*
X141112000Y-102388098D01*
X141112000Y-102586903D01*
X141126489Y-102696965D01*
X141127461Y-102700592D01*
X141127385Y-102703772D01*
X141127551Y-102705031D01*
X141127354Y-102705056D01*
X141125798Y-102770441D01*
X141086636Y-102828304D01*
X141022408Y-102855809D01*
X140975599Y-102852462D01*
X140971977Y-102851491D01*
X140861901Y-102837000D01*
X140663096Y-102837000D01*
X140553031Y-102851489D01*
X140545178Y-102853594D01*
X140544302Y-102850324D01*
X140490353Y-102856067D01*
X140479977Y-102853018D01*
X140479823Y-102853595D01*
X140471970Y-102851490D01*
X140361901Y-102837000D01*
X140163096Y-102837000D01*
X140053031Y-102851489D01*
X140045178Y-102853594D01*
X140044302Y-102850324D01*
X139990353Y-102856067D01*
X139979977Y-102853018D01*
X139979823Y-102853595D01*
X139971970Y-102851490D01*
X139861901Y-102837000D01*
X139663096Y-102837000D01*
X139553031Y-102851489D01*
X139545178Y-102853594D01*
X139544302Y-102850324D01*
X139490353Y-102856067D01*
X139479977Y-102853018D01*
X139479823Y-102853595D01*
X139471970Y-102851490D01*
X139361901Y-102837000D01*
X139163096Y-102837000D01*
X139053026Y-102851490D01*
X139049395Y-102852463D01*
X139046215Y-102852386D01*
X139044969Y-102852551D01*
X139044943Y-102852356D01*
X138979545Y-102850793D01*
X138921687Y-102811625D01*
X138894189Y-102747394D01*
X138897540Y-102700585D01*
X138898505Y-102696981D01*
X138898509Y-102696972D01*
X138913000Y-102586901D01*
X138912999Y-102388100D01*
X138912165Y-102381767D01*
X138908062Y-102350596D01*
X138898509Y-102278028D01*
X138898508Y-102278025D01*
X138896405Y-102270174D01*
X138899707Y-102269289D01*
X138893892Y-102215575D01*
X138897001Y-102204985D01*
X138896405Y-102204826D01*
X138898508Y-102196975D01*
X138898508Y-102196974D01*
X138898509Y-102196972D01*
X138913000Y-102086901D01*
X138912999Y-101888100D01*
X138912999Y-101888098D01*
X138912999Y-101888096D01*
X138898511Y-101778036D01*
X138898509Y-101778029D01*
X138898509Y-101778028D01*
X138841779Y-101641071D01*
X138781860Y-101562984D01*
X138756668Y-101497818D01*
X138770706Y-101429373D01*
X138781856Y-101412021D01*
X138841779Y-101333929D01*
X138898509Y-101196972D01*
X138913000Y-101086901D01*
X138912999Y-100888100D01*
X138910027Y-100865527D01*
X138900506Y-100793200D01*
X138898509Y-100778028D01*
X138898505Y-100778020D01*
X138897538Y-100774407D01*
X138897613Y-100771227D01*
X138897448Y-100769969D01*
X138897644Y-100769943D01*
X138899201Y-100704558D01*
X138938363Y-100646695D01*
X139002591Y-100619190D01*
X139049407Y-100622538D01*
X139053020Y-100623505D01*
X139053028Y-100623509D01*
X139163099Y-100638000D01*
X139361900Y-100637999D01*
X139361901Y-100637999D01*
X139378587Y-100635802D01*
X139471972Y-100623509D01*
X139471975Y-100623507D01*
X139479826Y-100621405D01*
X139480710Y-100624707D01*
X139534425Y-100618892D01*
X139545014Y-100622001D01*
X139545174Y-100621405D01*
X139553024Y-100623508D01*
X139553026Y-100623508D01*
X139553028Y-100623509D01*
X139663099Y-100638000D01*
X139861900Y-100637999D01*
X139861901Y-100637999D01*
X139878587Y-100635802D01*
X139971972Y-100623509D01*
X139971975Y-100623507D01*
X139979826Y-100621405D01*
X139980710Y-100624707D01*
X140034425Y-100618892D01*
X140045014Y-100622001D01*
X140045174Y-100621405D01*
X140053024Y-100623508D01*
X140053026Y-100623508D01*
X140053028Y-100623509D01*
X140163099Y-100638000D01*
X140361900Y-100637999D01*
X140361901Y-100637999D01*
X140378587Y-100635802D01*
X140471972Y-100623509D01*
X140471975Y-100623507D01*
X140479826Y-100621405D01*
X140480710Y-100624707D01*
X140534425Y-100618892D01*
X140545014Y-100622001D01*
G37*
%TD.AperFunction*%
%TA.AperFunction,Conductor*%
G36*
X146886775Y-100995981D02*
G01*
X146898889Y-100996130D01*
X146918471Y-101009056D01*
X146940167Y-101018006D01*
X146951041Y-101030555D01*
X146957200Y-101034621D01*
X146959944Y-101040830D01*
X146964355Y-101045921D01*
X146964639Y-101045702D01*
X146968679Y-101050911D01*
X146969232Y-101051548D01*
X146969419Y-101051865D01*
X146969421Y-101051867D01*
X146969423Y-101051870D01*
X147085629Y-101168076D01*
X147085633Y-101168079D01*
X147085635Y-101168081D01*
X147227102Y-101251744D01*
X147268451Y-101263757D01*
X147384926Y-101297597D01*
X147384929Y-101297597D01*
X147384931Y-101297598D01*
X147421806Y-101300500D01*
X147421814Y-101300500D01*
X148578186Y-101300500D01*
X148578194Y-101300500D01*
X148615069Y-101297598D01*
X148615071Y-101297597D01*
X148615073Y-101297597D01*
X148682425Y-101278029D01*
X148772898Y-101251744D01*
X148914365Y-101168081D01*
X148978020Y-101104425D01*
X149039341Y-101070942D01*
X149109033Y-101075926D01*
X149164967Y-101117797D01*
X149189318Y-101182379D01*
X149192356Y-101220991D01*
X149192357Y-101220997D01*
X149237504Y-101376390D01*
X149237505Y-101376393D01*
X149237506Y-101376395D01*
X149245301Y-101389576D01*
X149319881Y-101515684D01*
X149319887Y-101515692D01*
X149434307Y-101630112D01*
X149434313Y-101630117D01*
X149539480Y-101692313D01*
X149587162Y-101743379D01*
X149599666Y-101812121D01*
X149573021Y-101876710D01*
X149564039Y-101886724D01*
X149381286Y-102069478D01*
X149381283Y-102069481D01*
X149340603Y-102110160D01*
X149279280Y-102143645D01*
X149209588Y-102138659D01*
X149153655Y-102096787D01*
X149133847Y-102057073D01*
X149114246Y-101989606D01*
X149114244Y-101989603D01*
X149114244Y-101989602D01*
X149030581Y-101848135D01*
X149030579Y-101848133D01*
X149030576Y-101848129D01*
X148914370Y-101731923D01*
X148914362Y-101731917D01*
X148810511Y-101670500D01*
X148772898Y-101648256D01*
X148772897Y-101648255D01*
X148772896Y-101648255D01*
X148772893Y-101648254D01*
X148615073Y-101602402D01*
X148615067Y-101602401D01*
X148578201Y-101599500D01*
X148578194Y-101599500D01*
X147421806Y-101599500D01*
X147421798Y-101599500D01*
X147384932Y-101602401D01*
X147384926Y-101602402D01*
X147219611Y-101650432D01*
X147218703Y-101647308D01*
X147164138Y-101654009D01*
X147101194Y-101623681D01*
X147096629Y-101619342D01*
X146730047Y-101252760D01*
X146727486Y-101248071D01*
X146723028Y-101245128D01*
X146710916Y-101217726D01*
X146696562Y-101191437D01*
X146696943Y-101186109D01*
X146694783Y-101181222D01*
X146699409Y-101151624D01*
X146701546Y-101121745D01*
X146704968Y-101116056D01*
X146705573Y-101112190D01*
X146717471Y-101095275D01*
X146725016Y-101082735D01*
X146727440Y-101080005D01*
X146755581Y-101051865D01*
X146761852Y-101041260D01*
X146769788Y-101032326D01*
X146789683Y-101019881D01*
X146806836Y-101003866D01*
X146818754Y-101001698D01*
X146829025Y-100995274D01*
X146852490Y-100995561D01*
X146875577Y-100991362D01*
X146886775Y-100995981D01*
G37*
%TD.AperFunction*%
%TA.AperFunction,Conductor*%
G36*
X138042454Y-93318910D02*
G01*
X138047147Y-93318236D01*
X138061576Y-93321195D01*
X138170943Y-93350500D01*
X138170946Y-93350500D01*
X139788063Y-93350500D01*
X139855102Y-93370185D01*
X139900857Y-93422989D01*
X139910801Y-93492147D01*
X139881776Y-93555703D01*
X139835515Y-93589061D01*
X139747254Y-93625619D01*
X139747253Y-93625619D01*
X139621847Y-93721847D01*
X139525620Y-93847252D01*
X139465132Y-93993284D01*
X139465132Y-93993285D01*
X139444500Y-94149992D01*
X139444500Y-97950007D01*
X139465132Y-98106714D01*
X139465132Y-98106715D01*
X139525620Y-98252747D01*
X139525621Y-98252749D01*
X139525622Y-98252750D01*
X139621847Y-98378153D01*
X139747250Y-98474378D01*
X139893285Y-98534868D01*
X140050000Y-98555500D01*
X140050007Y-98555500D01*
X141050009Y-98555500D01*
X141079637Y-98554207D01*
X141102689Y-98553203D01*
X141257014Y-98519013D01*
X141397231Y-98446045D01*
X142174392Y-97902031D01*
X142240600Y-97879714D01*
X142308365Y-97896734D01*
X142356171Y-97947688D01*
X142369500Y-98003617D01*
X142369500Y-98251006D01*
X142369500Y-98388994D01*
X142369500Y-98388996D01*
X142369499Y-98388996D01*
X142396418Y-98524322D01*
X142396421Y-98524332D01*
X142449222Y-98651807D01*
X142525887Y-98766545D01*
X142525888Y-98766546D01*
X143339499Y-99580155D01*
X143372984Y-99641478D01*
X143368000Y-99711169D01*
X143326129Y-99767103D01*
X143314939Y-99774568D01*
X143172405Y-99858862D01*
X143172396Y-99858869D01*
X143058869Y-99972396D01*
X143058862Y-99972405D01*
X142990566Y-100087888D01*
X142939496Y-100135572D01*
X142870755Y-100148075D01*
X142806165Y-100121429D01*
X142785458Y-100100253D01*
X142726537Y-100023465D01*
X142726536Y-100023464D01*
X142608929Y-99933221D01*
X142608925Y-99933219D01*
X142471972Y-99876491D01*
X142471970Y-99876490D01*
X142361910Y-99862001D01*
X142361907Y-99862000D01*
X142361901Y-99862000D01*
X142361894Y-99862000D01*
X142011999Y-99862000D01*
X141944960Y-99842315D01*
X141899205Y-99789511D01*
X141887999Y-99738000D01*
X141887999Y-99388096D01*
X141873511Y-99278036D01*
X141873509Y-99278031D01*
X141873509Y-99278028D01*
X141816779Y-99141071D01*
X141726536Y-99023464D01*
X141608929Y-98933221D01*
X141608925Y-98933219D01*
X141471972Y-98876491D01*
X141471970Y-98876490D01*
X141361901Y-98862000D01*
X141163096Y-98862000D01*
X141053031Y-98876489D01*
X141045178Y-98878594D01*
X141044302Y-98875324D01*
X140990353Y-98881067D01*
X140979977Y-98878018D01*
X140979823Y-98878595D01*
X140971970Y-98876490D01*
X140861901Y-98862000D01*
X140663096Y-98862000D01*
X140553031Y-98876489D01*
X140545178Y-98878594D01*
X140544302Y-98875324D01*
X140490353Y-98881067D01*
X140479977Y-98878018D01*
X140479823Y-98878595D01*
X140471970Y-98876490D01*
X140361901Y-98862000D01*
X140163096Y-98862000D01*
X140053031Y-98876489D01*
X140045178Y-98878594D01*
X140044302Y-98875324D01*
X139990353Y-98881067D01*
X139979977Y-98878018D01*
X139979823Y-98878595D01*
X139971970Y-98876490D01*
X139861901Y-98862000D01*
X139663096Y-98862000D01*
X139553031Y-98876489D01*
X139545178Y-98878594D01*
X139544302Y-98875324D01*
X139490353Y-98881067D01*
X139479977Y-98878018D01*
X139479823Y-98878595D01*
X139471970Y-98876490D01*
X139361901Y-98862000D01*
X139163096Y-98862000D01*
X139053031Y-98876489D01*
X139045178Y-98878594D01*
X139044302Y-98875324D01*
X138990353Y-98881067D01*
X138979977Y-98878018D01*
X138979823Y-98878595D01*
X138971970Y-98876490D01*
X138861901Y-98862000D01*
X138663096Y-98862000D01*
X138553036Y-98876488D01*
X138553027Y-98876491D01*
X138421362Y-98931029D01*
X138351892Y-98938498D01*
X138289413Y-98907223D01*
X138286228Y-98904149D01*
X138260292Y-98878213D01*
X138260288Y-98878210D01*
X138129185Y-98790609D01*
X138129172Y-98790602D01*
X137984814Y-98730808D01*
X137944585Y-98703928D01*
X135757838Y-96517181D01*
X135724353Y-96455858D01*
X135729337Y-96386166D01*
X135771209Y-96330233D01*
X135836673Y-96305816D01*
X135845519Y-96305500D01*
X137299993Y-96305500D01*
X137300000Y-96305500D01*
X137456715Y-96284868D01*
X137602750Y-96224378D01*
X137728153Y-96128153D01*
X137824378Y-96002750D01*
X137884868Y-95856715D01*
X137905500Y-95700000D01*
X137905500Y-93440974D01*
X137912543Y-93416985D01*
X137915512Y-93392161D01*
X137922218Y-93384038D01*
X137925185Y-93373935D01*
X137944075Y-93357566D01*
X137959997Y-93338283D01*
X137970031Y-93335075D01*
X137977989Y-93328180D01*
X138002732Y-93324622D01*
X138026549Y-93317009D01*
X138042454Y-93318910D01*
G37*
%TD.AperFunction*%
%TA.AperFunction,Conductor*%
G36*
X146592539Y-96375185D02*
G01*
X146638294Y-96427989D01*
X146649500Y-96479500D01*
X146649500Y-96683330D01*
X146649499Y-96683348D01*
X146649499Y-96849054D01*
X146649498Y-96849054D01*
X146690424Y-97001789D01*
X146690425Y-97001790D01*
X146717351Y-97048426D01*
X146717352Y-97048427D01*
X146747132Y-97100007D01*
X146769479Y-97138714D01*
X146769481Y-97138717D01*
X146888349Y-97257585D01*
X146888355Y-97257590D01*
X147143181Y-97512416D01*
X147176666Y-97573739D01*
X147179500Y-97600096D01*
X147179500Y-97719168D01*
X147179501Y-97719192D01*
X147182335Y-97755205D01*
X147227129Y-97909388D01*
X147227131Y-97909393D01*
X147308863Y-98047595D01*
X147308869Y-98047603D01*
X147422396Y-98161130D01*
X147422400Y-98161133D01*
X147422402Y-98161135D01*
X147560607Y-98242869D01*
X147588615Y-98251006D01*
X147714791Y-98287664D01*
X147714794Y-98287664D01*
X147714796Y-98287665D01*
X147750819Y-98290500D01*
X147869902Y-98290499D01*
X147936941Y-98310183D01*
X147957583Y-98326818D01*
X148223181Y-98592416D01*
X148256666Y-98653739D01*
X148259500Y-98680097D01*
X148259500Y-98984697D01*
X148262356Y-99020991D01*
X148262357Y-99020997D01*
X148307504Y-99176390D01*
X148307505Y-99176393D01*
X148389881Y-99315684D01*
X148389887Y-99315692D01*
X148399798Y-99325603D01*
X148404135Y-99333547D01*
X148411384Y-99338973D01*
X148420620Y-99363735D01*
X148433283Y-99386926D01*
X148432637Y-99395954D01*
X148435801Y-99404437D01*
X148430184Y-99430259D01*
X148428299Y-99456618D01*
X148422481Y-99465670D01*
X148420950Y-99472710D01*
X148399799Y-99500965D01*
X148237582Y-99663182D01*
X148176262Y-99696666D01*
X148149903Y-99699500D01*
X147421798Y-99699500D01*
X147384932Y-99702401D01*
X147384926Y-99702402D01*
X147227106Y-99748254D01*
X147227103Y-99748255D01*
X147085637Y-99831917D01*
X147085629Y-99831923D01*
X146969423Y-99948129D01*
X146969414Y-99948140D01*
X146969229Y-99948455D01*
X146969019Y-99948650D01*
X146964639Y-99954298D01*
X146963727Y-99953591D01*
X146918157Y-99996136D01*
X146849415Y-100008637D01*
X146784827Y-99981988D01*
X146760643Y-99954078D01*
X146760361Y-99954298D01*
X146756323Y-99949092D01*
X146755771Y-99948455D01*
X146755585Y-99948140D01*
X146755576Y-99948129D01*
X146639370Y-99831923D01*
X146639362Y-99831917D01*
X146505847Y-99752957D01*
X146497898Y-99748256D01*
X146497897Y-99748255D01*
X146497896Y-99748255D01*
X146497894Y-99748254D01*
X146439904Y-99731406D01*
X146417490Y-99717091D01*
X146393297Y-99706043D01*
X146388498Y-99698576D01*
X146381018Y-99693799D01*
X146369901Y-99669637D01*
X146355523Y-99647265D01*
X146353666Y-99634354D01*
X146351813Y-99630326D01*
X146350500Y-99612330D01*
X146350500Y-99419595D01*
X146370185Y-99352556D01*
X146386818Y-99331914D01*
X146391135Y-99327598D01*
X146472869Y-99189393D01*
X146517665Y-99035204D01*
X146520500Y-98999181D01*
X146520499Y-98500820D01*
X146517665Y-98464796D01*
X146472869Y-98310607D01*
X146391135Y-98172402D01*
X146391133Y-98172400D01*
X146391130Y-98172396D01*
X146277603Y-98058869D01*
X146277595Y-98058863D01*
X146139393Y-97977131D01*
X146139388Y-97977129D01*
X145985208Y-97932335D01*
X145985202Y-97932334D01*
X145949181Y-97929500D01*
X145550830Y-97929500D01*
X145550808Y-97929501D01*
X145514794Y-97932335D01*
X145360611Y-97977129D01*
X145360606Y-97977131D01*
X145222404Y-98058863D01*
X145222396Y-98058869D01*
X145108869Y-98172396D01*
X145108863Y-98172404D01*
X145027131Y-98310606D01*
X145027129Y-98310611D01*
X144982335Y-98464791D01*
X144982334Y-98464797D01*
X144979500Y-98500811D01*
X144979500Y-98896581D01*
X144970259Y-98928051D01*
X144962142Y-98959855D01*
X144960460Y-98961420D01*
X144959815Y-98963620D01*
X144935032Y-98985093D01*
X144911004Y-99007465D01*
X144908744Y-99007872D01*
X144907011Y-99009375D01*
X144874545Y-99014043D01*
X144842245Y-99019871D01*
X144839279Y-99019113D01*
X144837853Y-99019319D01*
X144808047Y-99011142D01*
X144734812Y-98980807D01*
X144694584Y-98953927D01*
X143806819Y-98066162D01*
X143773334Y-98004839D01*
X143770500Y-97978481D01*
X143770500Y-97461139D01*
X143787768Y-97398018D01*
X143791386Y-97391900D01*
X143792869Y-97389393D01*
X143831163Y-97257585D01*
X143837664Y-97235208D01*
X143837665Y-97235202D01*
X143840499Y-97199188D01*
X143840500Y-97199181D01*
X143840499Y-96700820D01*
X143837665Y-96664796D01*
X143793882Y-96514093D01*
X143794082Y-96444225D01*
X143832025Y-96385555D01*
X143895663Y-96356712D01*
X143912959Y-96355500D01*
X146525500Y-96355500D01*
X146592539Y-96375185D01*
G37*
%TD.AperFunction*%
%TA.AperFunction,Conductor*%
G36*
X160751762Y-95097531D02*
G01*
X160782336Y-95100084D01*
X160787796Y-95103150D01*
X160790474Y-95103568D01*
X160813111Y-95117365D01*
X160822250Y-95124378D01*
X160968285Y-95184868D01*
X161125000Y-95205500D01*
X162642485Y-95205500D01*
X162709524Y-95225185D01*
X162755279Y-95277989D01*
X162765223Y-95347147D01*
X162736198Y-95410703D01*
X162715371Y-95429817D01*
X162700940Y-95440302D01*
X162660207Y-95469896D01*
X162509890Y-95620213D01*
X162384951Y-95792179D01*
X162288444Y-95981585D01*
X162222753Y-96183760D01*
X162201416Y-96318479D01*
X162189500Y-96393713D01*
X162189500Y-96606287D01*
X162195104Y-96641666D01*
X162221934Y-96811071D01*
X162222754Y-96816243D01*
X162285451Y-97009205D01*
X162288444Y-97018414D01*
X162384951Y-97207820D01*
X162509890Y-97379786D01*
X162660213Y-97530109D01*
X162832182Y-97655050D01*
X162840946Y-97659516D01*
X162891742Y-97707491D01*
X162908536Y-97775312D01*
X162885998Y-97841447D01*
X162840946Y-97880484D01*
X162832182Y-97884949D01*
X162660213Y-98009890D01*
X162509890Y-98160213D01*
X162384949Y-98332182D01*
X162380484Y-98340946D01*
X162332509Y-98391742D01*
X162264688Y-98408536D01*
X162198553Y-98385998D01*
X162159516Y-98340946D01*
X162155050Y-98332182D01*
X162030109Y-98160213D01*
X161879786Y-98009890D01*
X161707820Y-97884951D01*
X161518414Y-97788444D01*
X161518413Y-97788443D01*
X161518412Y-97788443D01*
X161316243Y-97722754D01*
X161316241Y-97722753D01*
X161316240Y-97722753D01*
X161154957Y-97697208D01*
X161106287Y-97689500D01*
X160893713Y-97689500D01*
X160845042Y-97697208D01*
X160683760Y-97722753D01*
X160481585Y-97788444D01*
X160292179Y-97884951D01*
X160120213Y-98009890D01*
X160120209Y-98009894D01*
X160016923Y-98113181D01*
X159955600Y-98146666D01*
X159929242Y-98149500D01*
X158699595Y-98149500D01*
X158632556Y-98129815D01*
X158611918Y-98113185D01*
X158557598Y-98058865D01*
X158538546Y-98047598D01*
X158419393Y-97977131D01*
X158419388Y-97977129D01*
X158265208Y-97932335D01*
X158265202Y-97932334D01*
X158229181Y-97929500D01*
X157830830Y-97929500D01*
X157830808Y-97929501D01*
X157794794Y-97932335D01*
X157640611Y-97977129D01*
X157640604Y-97977132D01*
X157583119Y-98011128D01*
X157577939Y-98012442D01*
X157573978Y-98016030D01*
X157544425Y-98020944D01*
X157515395Y-98028309D01*
X157508918Y-98026848D01*
X157505055Y-98027491D01*
X157491799Y-98022988D01*
X157470980Y-98018294D01*
X157463695Y-98015158D01*
X157399393Y-97977131D01*
X157325362Y-97955623D01*
X157318308Y-97952587D01*
X157297081Y-97934996D01*
X157273847Y-97920158D01*
X157270561Y-97913018D01*
X157264511Y-97908004D01*
X157256164Y-97881729D01*
X157244641Y-97856685D01*
X157245737Y-97848902D01*
X157243358Y-97841413D01*
X157250541Y-97814796D01*
X157254387Y-97787499D01*
X157260160Y-97779158D01*
X157261564Y-97773957D01*
X157267452Y-97768623D01*
X157279644Y-97751010D01*
X158044114Y-96986542D01*
X158120775Y-96871810D01*
X158120776Y-96871805D01*
X158121746Y-96870355D01*
X158137162Y-96851569D01*
X158191135Y-96797598D01*
X158272869Y-96659393D01*
X158307605Y-96539830D01*
X158317664Y-96505208D01*
X158317665Y-96505202D01*
X158318074Y-96500006D01*
X158320500Y-96469181D01*
X158320499Y-96071907D01*
X158340183Y-96004869D01*
X158369013Y-95973532D01*
X158369877Y-95972869D01*
X158428153Y-95928153D01*
X158524378Y-95802750D01*
X158584868Y-95656715D01*
X158605500Y-95500000D01*
X158605500Y-95229500D01*
X158625185Y-95162461D01*
X158677989Y-95116706D01*
X158729500Y-95105500D01*
X160624993Y-95105500D01*
X160625000Y-95105500D01*
X160721440Y-95092803D01*
X160751762Y-95097531D01*
G37*
%TD.AperFunction*%
%TA.AperFunction,Conductor*%
G36*
X152514918Y-94686829D02*
G01*
X152570851Y-94728701D01*
X152589514Y-94764691D01*
X152609432Y-94825992D01*
X152716657Y-95036433D01*
X152855483Y-95227510D01*
X153022490Y-95394517D01*
X153098388Y-95449660D01*
X153141051Y-95504986D01*
X153149500Y-95549975D01*
X153149500Y-96525500D01*
X153129815Y-96592539D01*
X153077011Y-96638294D01*
X153025500Y-96649500D01*
X151420943Y-96649500D01*
X151268216Y-96690423D01*
X151268209Y-96690426D01*
X151131283Y-96769479D01*
X151123174Y-96777588D01*
X151061850Y-96811071D01*
X150992158Y-96806084D01*
X150972376Y-96796637D01*
X150939392Y-96777130D01*
X150939388Y-96777129D01*
X150785208Y-96732335D01*
X150785202Y-96732334D01*
X150749181Y-96729500D01*
X150250830Y-96729500D01*
X150250808Y-96729501D01*
X150214794Y-96732335D01*
X150060611Y-96777129D01*
X150060608Y-96777130D01*
X149939758Y-96848600D01*
X149872034Y-96865782D01*
X149813517Y-96848599D01*
X149692668Y-96777130D01*
X149676395Y-96767506D01*
X149676394Y-96767505D01*
X149676393Y-96767505D01*
X149676390Y-96767504D01*
X149520997Y-96722357D01*
X149520991Y-96722356D01*
X149484697Y-96719500D01*
X149484690Y-96719500D01*
X149015310Y-96719500D01*
X149015302Y-96719500D01*
X148979008Y-96722356D01*
X148979002Y-96722357D01*
X148823609Y-96767504D01*
X148823606Y-96767505D01*
X148684312Y-96849883D01*
X148683530Y-96850490D01*
X148682804Y-96850774D01*
X148677598Y-96853854D01*
X148677101Y-96853013D01*
X148618492Y-96876022D01*
X148549975Y-96862339D01*
X148544413Y-96859239D01*
X148439394Y-96797131D01*
X148439388Y-96797129D01*
X148285208Y-96752335D01*
X148285202Y-96752334D01*
X148249188Y-96749500D01*
X148249181Y-96749500D01*
X148130097Y-96749500D01*
X148100656Y-96740855D01*
X148070670Y-96734332D01*
X148065654Y-96730577D01*
X148063058Y-96729815D01*
X148042416Y-96713181D01*
X147956746Y-96627511D01*
X147923261Y-96566188D01*
X147928245Y-96496496D01*
X147956746Y-96452149D01*
X148225136Y-96183760D01*
X148522077Y-95886819D01*
X148583400Y-95853334D01*
X148609758Y-95850500D01*
X150913331Y-95850500D01*
X150913347Y-95850501D01*
X150920943Y-95850501D01*
X151079054Y-95850501D01*
X151079057Y-95850501D01*
X151231785Y-95809577D01*
X151287174Y-95777598D01*
X151368716Y-95730520D01*
X151480520Y-95618716D01*
X151480520Y-95618714D01*
X151490724Y-95608511D01*
X151490728Y-95608506D01*
X152383905Y-94715328D01*
X152445226Y-94681845D01*
X152514918Y-94686829D01*
G37*
%TD.AperFunction*%
%TA.AperFunction,Conductor*%
G36*
X155609844Y-95859144D02*
G01*
X155639831Y-95865668D01*
X155644846Y-95869422D01*
X155647443Y-95870185D01*
X155668085Y-95886819D01*
X155672396Y-95891130D01*
X155672400Y-95891133D01*
X155672402Y-95891135D01*
X155810607Y-95972869D01*
X155820076Y-95975620D01*
X155964791Y-96017664D01*
X155964794Y-96017664D01*
X155964796Y-96017665D01*
X156000819Y-96020500D01*
X156499180Y-96020499D01*
X156535204Y-96017665D01*
X156535204Y-96017664D01*
X156541520Y-96017168D01*
X156541657Y-96018915D01*
X156553230Y-96020134D01*
X156573147Y-96017271D01*
X156587268Y-96023720D01*
X156602705Y-96025346D01*
X156618398Y-96037936D01*
X156636703Y-96046296D01*
X156645095Y-96059355D01*
X156657203Y-96069069D01*
X156663598Y-96088146D01*
X156674477Y-96105074D01*
X156678385Y-96132254D01*
X156679411Y-96135315D01*
X156679500Y-96140009D01*
X156679500Y-96318479D01*
X156659815Y-96385518D01*
X156643181Y-96406160D01*
X156441161Y-96608181D01*
X156379838Y-96641666D01*
X156353480Y-96644500D01*
X154974500Y-96644500D01*
X154907461Y-96624815D01*
X154861706Y-96572011D01*
X154850500Y-96520500D01*
X154850500Y-96300097D01*
X154870185Y-96233058D01*
X154886819Y-96212416D01*
X155212416Y-95886819D01*
X155273739Y-95853334D01*
X155300097Y-95850500D01*
X155580404Y-95850500D01*
X155609844Y-95859144D01*
G37*
%TD.AperFunction*%
%TA.AperFunction,Conductor*%
G36*
X160762539Y-90619185D02*
G01*
X160808294Y-90671989D01*
X160819500Y-90723500D01*
X160819500Y-92100007D01*
X160840132Y-92256714D01*
X160840132Y-92256715D01*
X160900620Y-92402747D01*
X160900621Y-92402749D01*
X160900622Y-92402750D01*
X160973906Y-92498256D01*
X160996848Y-92528154D01*
X160999636Y-92530293D01*
X161074391Y-92587655D01*
X161082675Y-92598999D01*
X161094331Y-92606847D01*
X161102872Y-92626660D01*
X161115594Y-92644082D01*
X161116429Y-92658105D01*
X161121992Y-92671008D01*
X161118466Y-92692293D01*
X161119749Y-92713828D01*
X161112869Y-92726077D01*
X161110574Y-92739938D01*
X161096100Y-92755937D01*
X161085537Y-92774748D01*
X161072189Y-92782370D01*
X161063702Y-92791753D01*
X161042789Y-92799159D01*
X161031291Y-92805726D01*
X161023292Y-92807890D01*
X160968285Y-92815132D01*
X160915087Y-92837167D01*
X160907386Y-92839251D01*
X160880109Y-92838668D01*
X160852982Y-92841585D01*
X160840143Y-92837814D01*
X160837532Y-92837759D01*
X160835658Y-92836497D01*
X160827548Y-92834116D01*
X160781718Y-92815133D01*
X160781716Y-92815132D01*
X160781715Y-92815132D01*
X160762125Y-92812553D01*
X160625007Y-92794500D01*
X160625000Y-92794500D01*
X157025000Y-92794500D01*
X157024993Y-92794500D01*
X156875263Y-92813306D01*
X156875256Y-92813308D01*
X156728513Y-92872055D01*
X156601975Y-92966778D01*
X156542870Y-93041936D01*
X156509229Y-93084715D01*
X156504260Y-93091033D01*
X156442040Y-93236332D01*
X156442039Y-93236334D01*
X156434997Y-93285310D01*
X156405971Y-93348865D01*
X156347192Y-93386639D01*
X156277322Y-93386638D01*
X156224578Y-93355342D01*
X155456590Y-92587355D01*
X155456588Y-92587352D01*
X155337717Y-92468481D01*
X155337716Y-92468480D01*
X155249701Y-92417665D01*
X155200785Y-92389423D01*
X155048057Y-92348499D01*
X154889943Y-92348499D01*
X154882347Y-92348499D01*
X154882331Y-92348500D01*
X153221940Y-92348500D01*
X153181019Y-92359464D01*
X153181019Y-92359465D01*
X153153996Y-92366706D01*
X153069214Y-92389423D01*
X153069209Y-92389426D01*
X152932290Y-92468475D01*
X152932282Y-92468481D01*
X152872612Y-92528152D01*
X152820480Y-92580284D01*
X152820478Y-92580286D01*
X151796993Y-93603772D01*
X150787584Y-94613181D01*
X150726261Y-94646666D01*
X150699903Y-94649500D01*
X148396330Y-94649500D01*
X148396314Y-94649499D01*
X148388718Y-94649499D01*
X148230603Y-94649499D01*
X148154239Y-94669961D01*
X148077874Y-94690423D01*
X148077869Y-94690426D01*
X147940950Y-94769475D01*
X147940942Y-94769481D01*
X147767181Y-94943243D01*
X147705858Y-94976728D01*
X147636166Y-94971744D01*
X147580233Y-94929872D01*
X147555816Y-94864408D01*
X147555500Y-94855562D01*
X147555500Y-91674500D01*
X147575185Y-91607461D01*
X147627989Y-91561706D01*
X147679500Y-91550500D01*
X147828844Y-91550500D01*
X147828845Y-91550499D01*
X147983497Y-91519737D01*
X148129179Y-91459394D01*
X148260289Y-91371789D01*
X148371789Y-91260289D01*
X148459394Y-91129179D01*
X148519737Y-90983497D01*
X148550500Y-90828842D01*
X148550500Y-90723500D01*
X148570185Y-90656461D01*
X148622989Y-90610706D01*
X148674500Y-90599500D01*
X160695500Y-90599500D01*
X160762539Y-90619185D01*
G37*
%TD.AperFunction*%
%TA.AperFunction,Conductor*%
G36*
X136118363Y-92578522D02*
G01*
X136133401Y-92580773D01*
X136143285Y-92584868D01*
X136287800Y-92603893D01*
X136288863Y-92604053D01*
X136319585Y-92618300D01*
X136350582Y-92632013D01*
X136351212Y-92632968D01*
X136352248Y-92633449D01*
X136370387Y-92662040D01*
X136389053Y-92690338D01*
X136389066Y-92691480D01*
X136389679Y-92692446D01*
X136394500Y-92726686D01*
X136394500Y-94070500D01*
X136374815Y-94137539D01*
X136322011Y-94183294D01*
X136270500Y-94194500D01*
X135746335Y-94194500D01*
X135679296Y-94174815D01*
X135633541Y-94122011D01*
X135623597Y-94052853D01*
X135652622Y-93989297D01*
X135670844Y-93972127D01*
X135728153Y-93928153D01*
X135824378Y-93802750D01*
X135884868Y-93656715D01*
X135905500Y-93500000D01*
X135905500Y-92713520D01*
X135925185Y-92646481D01*
X135977989Y-92600726D01*
X136013313Y-92590581D01*
X136056715Y-92584868D01*
X136056718Y-92584866D01*
X136064569Y-92582764D01*
X136065230Y-92585233D01*
X136068460Y-92584885D01*
X136083070Y-92578316D01*
X136118363Y-92578522D01*
G37*
%TD.AperFunction*%
%TA.AperFunction,Conductor*%
G36*
X145687539Y-92375185D02*
G01*
X145733294Y-92427989D01*
X145744500Y-92479500D01*
X145744500Y-93820500D01*
X145724815Y-93887539D01*
X145672011Y-93933294D01*
X145620500Y-93944500D01*
X145543729Y-93944500D01*
X145482208Y-93928162D01*
X144950421Y-93624283D01*
X144950406Y-93624276D01*
X144864850Y-93589061D01*
X144806715Y-93565132D01*
X144771889Y-93560547D01*
X144650007Y-93544500D01*
X144650000Y-93544500D01*
X144124008Y-93544500D01*
X144056969Y-93524815D01*
X144011214Y-93472011D01*
X144001270Y-93402853D01*
X144030295Y-93339297D01*
X144076556Y-93305939D01*
X144152745Y-93274380D01*
X144152746Y-93274380D01*
X144152746Y-93274379D01*
X144152750Y-93274378D01*
X144278153Y-93178153D01*
X144374378Y-93052750D01*
X144434868Y-92906715D01*
X144455500Y-92750000D01*
X144455500Y-92479500D01*
X144475185Y-92412461D01*
X144527989Y-92366706D01*
X144579500Y-92355500D01*
X145620500Y-92355500D01*
X145687539Y-92375185D01*
G37*
%TD.AperFunction*%
%TA.AperFunction,Conductor*%
G36*
X142090659Y-93161088D02*
G01*
X142122811Y-93178893D01*
X142247250Y-93274378D01*
X142247252Y-93274378D01*
X142247254Y-93274380D01*
X142273642Y-93285310D01*
X142393285Y-93334868D01*
X142393287Y-93334868D01*
X142394663Y-93335438D01*
X142411904Y-93349331D01*
X142431706Y-93359243D01*
X142438578Y-93370826D01*
X142449067Y-93379278D01*
X142456060Y-93400289D01*
X142467359Y-93419332D01*
X142466878Y-93432792D01*
X142471132Y-93445572D01*
X142465656Y-93467026D01*
X142464866Y-93489157D01*
X142457183Y-93500221D01*
X142453853Y-93513272D01*
X142437646Y-93528360D01*
X142425018Y-93546550D01*
X142405973Y-93557850D01*
X142402716Y-93560883D01*
X142394665Y-93564560D01*
X142347454Y-93584116D01*
X142277985Y-93591585D01*
X142252548Y-93584116D01*
X142206718Y-93565133D01*
X142206716Y-93565132D01*
X142206715Y-93565132D01*
X142174441Y-93560883D01*
X142050007Y-93544500D01*
X142050000Y-93544500D01*
X141837660Y-93544500D01*
X141770621Y-93524815D01*
X141724866Y-93472011D01*
X141714922Y-93402853D01*
X141743947Y-93339297D01*
X141775660Y-93313113D01*
X141874493Y-93256052D01*
X141918716Y-93230520D01*
X141959647Y-93189588D01*
X142020968Y-93156104D01*
X142090659Y-93161088D01*
G37*
%TD.AperFunction*%
%TA.AperFunction,Conductor*%
G36*
X164322269Y-91552301D02*
G01*
X164327584Y-91552175D01*
X164353183Y-91567775D01*
X164379995Y-91581196D01*
X164382707Y-91585768D01*
X164387248Y-91588535D01*
X164400351Y-91615504D01*
X164415648Y-91641285D01*
X164416614Y-91648976D01*
X164417782Y-91651380D01*
X164417359Y-91654913D01*
X164419500Y-91671952D01*
X164419500Y-92670500D01*
X164399815Y-92737539D01*
X164347011Y-92783294D01*
X164295500Y-92794500D01*
X163171335Y-92794500D01*
X163104296Y-92774815D01*
X163058541Y-92722011D01*
X163048597Y-92652853D01*
X163077622Y-92589297D01*
X163095844Y-92572127D01*
X163153153Y-92528153D01*
X163249378Y-92402750D01*
X163309868Y-92256715D01*
X163330500Y-92100000D01*
X163330500Y-91729500D01*
X163333050Y-91720814D01*
X163331762Y-91711853D01*
X163342740Y-91687812D01*
X163350185Y-91662461D01*
X163357025Y-91656533D01*
X163360787Y-91648297D01*
X163383021Y-91634007D01*
X163402989Y-91616706D01*
X163413503Y-91614418D01*
X163419565Y-91610523D01*
X163454500Y-91605500D01*
X163520277Y-91605500D01*
X163554871Y-91610423D01*
X163579796Y-91617665D01*
X163615819Y-91620500D01*
X164014180Y-91620499D01*
X164050204Y-91617665D01*
X164147660Y-91589351D01*
X164181715Y-91584868D01*
X164252826Y-91555412D01*
X164257735Y-91553843D01*
X164287706Y-91553127D01*
X164317515Y-91549922D01*
X164322269Y-91552301D01*
G37*
%TD.AperFunction*%
%TD*%
%TA.AperFunction,Conductor*%
%TO.N,Net-(U6-RFINA)*%
G36*
X149849947Y-102618444D02*
G01*
X149852728Y-102622883D01*
X150026396Y-103123629D01*
X150025869Y-103132569D01*
X150019852Y-103138259D01*
X149755303Y-103248784D01*
X149746349Y-103248811D01*
X149745004Y-103248156D01*
X149478689Y-103096540D01*
X149473195Y-103089469D01*
X149473532Y-103082240D01*
X149647142Y-102622582D01*
X149653271Y-102616054D01*
X149658087Y-102615017D01*
X149841674Y-102615017D01*
X149849947Y-102618444D01*
G37*
%TD.AperFunction*%
%TD*%
%TA.AperFunction,Conductor*%
%TO.N,Net-(U4-RFOUT)*%
G36*
X136973892Y-101719453D02*
G01*
X137303532Y-101884266D01*
X137309400Y-101891031D01*
X137310000Y-101894731D01*
X137310000Y-102080690D01*
X137306573Y-102088963D01*
X137304080Y-102090863D01*
X136988595Y-102270108D01*
X136979709Y-102271215D01*
X136973859Y-102267464D01*
X136755015Y-102007155D01*
X136752315Y-101998617D01*
X136754650Y-101992555D01*
X136959342Y-101722843D01*
X136967071Y-101718326D01*
X136973892Y-101719453D01*
G37*
%TD.AperFunction*%
%TD*%
%TA.AperFunction,Conductor*%
%TO.N,/rf_out*%
G36*
X126704977Y-101102709D02*
G01*
X127593895Y-101586676D01*
X127599522Y-101593642D01*
X127600000Y-101596952D01*
X127600000Y-102403047D01*
X127596573Y-102411320D01*
X127593895Y-102413323D01*
X126704984Y-102897286D01*
X126696079Y-102898232D01*
X126694785Y-102897766D01*
X124624105Y-102010754D01*
X124617851Y-102004347D01*
X124617958Y-101995393D01*
X124624105Y-101989245D01*
X126694784Y-101102233D01*
X126703736Y-101102127D01*
X126704977Y-101102709D01*
G37*
%TD.AperFunction*%
%TD*%
M02*
