%TF.GenerationSoftware,KiCad,Pcbnew,9.0.1-1.fc42*%
%TF.CreationDate,2025-04-12T13:57:23+02:00*%
%TF.ProjectId,ADF4158_PCB,41444634-3135-4385-9f50-43422e6b6963,rev?*%
%TF.SameCoordinates,Original*%
%TF.FileFunction,Paste,Top*%
%TF.FilePolarity,Positive*%
%FSLAX46Y46*%
G04 Gerber Fmt 4.6, Leading zero omitted, Abs format (unit mm)*
G04 Created by KiCad (PCBNEW 9.0.1-1.fc42) date 2025-04-12 13:57:23*
%MOMM*%
%LPD*%
G01*
G04 APERTURE LIST*
G04 Aperture macros list*
%AMRoundRect*
0 Rectangle with rounded corners*
0 $1 Rounding radius*
0 $2 $3 $4 $5 $6 $7 $8 $9 X,Y pos of 4 corners*
0 Add a 4 corners polygon primitive as box body*
4,1,4,$2,$3,$4,$5,$6,$7,$8,$9,$2,$3,0*
0 Add four circle primitives for the rounded corners*
1,1,$1+$1,$2,$3*
1,1,$1+$1,$4,$5*
1,1,$1+$1,$6,$7*
1,1,$1+$1,$8,$9*
0 Add four rect primitives between the rounded corners*
20,1,$1+$1,$2,$3,$4,$5,0*
20,1,$1+$1,$4,$5,$6,$7,0*
20,1,$1+$1,$6,$7,$8,$9,0*
20,1,$1+$1,$8,$9,$2,$3,0*%
G04 Aperture macros list end*
%ADD10RoundRect,0.250000X0.315000X0.315000X-0.315000X0.315000X-0.315000X-0.315000X0.315000X-0.315000X0*%
%ADD11RoundRect,0.062500X0.325000X0.062500X-0.325000X0.062500X-0.325000X-0.062500X0.325000X-0.062500X0*%
%ADD12RoundRect,0.062500X0.062500X0.325000X-0.062500X0.325000X-0.062500X-0.325000X0.062500X-0.325000X0*%
%ADD13RoundRect,0.140000X0.140000X0.170000X-0.140000X0.170000X-0.140000X-0.170000X0.140000X-0.170000X0*%
%ADD14RoundRect,0.135000X0.135000X0.185000X-0.135000X0.185000X-0.135000X-0.185000X0.135000X-0.185000X0*%
%ADD15RoundRect,0.140000X0.170000X-0.140000X0.170000X0.140000X-0.170000X0.140000X-0.170000X-0.140000X0*%
%ADD16R,0.800000X0.600000*%
%ADD17RoundRect,0.140000X-0.170000X0.140000X-0.170000X-0.140000X0.170000X-0.140000X0.170000X0.140000X0*%
%ADD18RoundRect,0.150000X0.512500X0.150000X-0.512500X0.150000X-0.512500X-0.150000X0.512500X-0.150000X0*%
%ADD19RoundRect,0.250000X0.375000X0.850000X-0.375000X0.850000X-0.375000X-0.850000X0.375000X-0.850000X0*%
%ADD20R,1.800000X4.200000*%
%ADD21RoundRect,0.135000X-0.185000X0.135000X-0.185000X-0.135000X0.185000X-0.135000X0.185000X0.135000X0*%
%ADD22RoundRect,0.250000X-0.255000X-0.255000X0.255000X-0.255000X0.255000X0.255000X-0.255000X0.255000X0*%
%ADD23RoundRect,0.062500X-0.375000X-0.062500X0.375000X-0.062500X0.375000X0.062500X-0.375000X0.062500X0*%
%ADD24RoundRect,0.062500X-0.062500X-0.375000X0.062500X-0.375000X0.062500X0.375000X-0.062500X0.375000X0*%
%ADD25RoundRect,0.135000X-0.135000X-0.185000X0.135000X-0.185000X0.135000X0.185000X-0.135000X0.185000X0*%
%ADD26RoundRect,0.250000X-0.650000X0.325000X-0.650000X-0.325000X0.650000X-0.325000X0.650000X0.325000X0*%
%ADD27RoundRect,0.135000X0.185000X-0.135000X0.185000X0.135000X-0.185000X0.135000X-0.185000X-0.135000X0*%
%ADD28RoundRect,0.218750X0.218750X0.256250X-0.218750X0.256250X-0.218750X-0.256250X0.218750X-0.256250X0*%
%ADD29RoundRect,0.150000X-0.512500X-0.150000X0.512500X-0.150000X0.512500X0.150000X-0.512500X0.150000X0*%
%ADD30RoundRect,0.150000X0.150000X-0.587500X0.150000X0.587500X-0.150000X0.587500X-0.150000X-0.587500X0*%
%ADD31RoundRect,0.182500X0.182500X-0.182500X0.182500X0.182500X-0.182500X0.182500X-0.182500X-0.182500X0*%
%ADD32RoundRect,0.062500X0.062500X-0.350000X0.062500X0.350000X-0.062500X0.350000X-0.062500X-0.350000X0*%
%ADD33RoundRect,0.062500X0.350000X-0.062500X0.350000X0.062500X-0.350000X0.062500X-0.350000X-0.062500X0*%
%ADD34RoundRect,0.135000X0.226274X0.035355X0.035355X0.226274X-0.226274X-0.035355X-0.035355X-0.226274X0*%
%ADD35R,4.200000X1.800000*%
%ADD36RoundRect,0.225000X0.250000X-0.225000X0.250000X0.225000X-0.250000X0.225000X-0.250000X-0.225000X0*%
%ADD37RoundRect,0.250000X0.250000X0.475000X-0.250000X0.475000X-0.250000X-0.475000X0.250000X-0.475000X0*%
%ADD38RoundRect,0.140000X-0.140000X-0.170000X0.140000X-0.170000X0.140000X0.170000X-0.140000X0.170000X0*%
%ADD39RoundRect,0.140000X-0.021213X0.219203X-0.219203X0.021213X0.021213X-0.219203X0.219203X-0.021213X0*%
G04 APERTURE END LIST*
D10*
%TO.C,U4*%
X140712500Y-102437500D03*
X140712500Y-101037500D03*
X139312500Y-102437500D03*
X139312500Y-101037500D03*
D11*
X142000000Y-102987500D03*
X142000000Y-102487500D03*
X142000000Y-101987500D03*
X142000000Y-101487500D03*
X142000000Y-100987500D03*
X142000000Y-100487500D03*
D12*
X141262500Y-99750000D03*
X140762500Y-99750000D03*
X140262500Y-99750000D03*
X139762500Y-99750000D03*
X139262500Y-99750000D03*
X138762500Y-99750000D03*
D11*
X138025000Y-100487500D03*
X138025000Y-100987500D03*
X138025000Y-101487500D03*
X138025000Y-101987500D03*
X138025000Y-102487500D03*
X138025000Y-102987500D03*
D12*
X138762500Y-103725000D03*
X139262500Y-103725000D03*
X139762500Y-103725000D03*
X140262500Y-103725000D03*
X140762500Y-103725000D03*
X141262500Y-103725000D03*
%TD*%
D13*
%TO.C,C19*%
X136750000Y-102000000D03*
X135790000Y-102000000D03*
%TD*%
D14*
%TO.C,R25*%
X158010000Y-101250000D03*
X156990000Y-101250000D03*
%TD*%
%TO.C,R19*%
X154520000Y-108500000D03*
X153500000Y-108500000D03*
%TD*%
D15*
%TO.C,C9*%
X149250000Y-97500000D03*
X149250000Y-96540000D03*
%TD*%
D16*
%TO.C,Y1*%
X157250000Y-108250000D03*
X157250000Y-106450000D03*
X156050000Y-106450000D03*
X156050000Y-108250000D03*
%TD*%
D17*
%TO.C,C8*%
X138550000Y-92450000D03*
X138550000Y-93410000D03*
%TD*%
D15*
%TO.C,C20*%
X150750000Y-105210000D03*
X150750000Y-104250000D03*
%TD*%
D14*
%TO.C,R13*%
X164835000Y-90800000D03*
X163815000Y-90800000D03*
%TD*%
D18*
%TO.C,U5*%
X148000000Y-102400000D03*
X148000000Y-101450000D03*
X148000000Y-100500000D03*
X145725000Y-100500000D03*
X145725000Y-102400000D03*
%TD*%
D14*
%TO.C,R6*%
X136620000Y-91600000D03*
X135600000Y-91600000D03*
%TD*%
%TO.C,R26*%
X170120000Y-109500000D03*
X169100000Y-109500000D03*
%TD*%
D13*
%TO.C,C21*%
X130000000Y-102000000D03*
X129040000Y-102000000D03*
%TD*%
D19*
%TO.C,L1*%
X169750000Y-105500000D03*
X167600000Y-105500000D03*
%TD*%
D17*
%TO.C,C28*%
X158750000Y-107290000D03*
X158750000Y-108250000D03*
%TD*%
D20*
%TO.C,J3*%
X149000000Y-110900000D03*
X151700000Y-110900000D03*
X146300000Y-110900000D03*
%TD*%
D13*
%TO.C,C23*%
X145960000Y-104000000D03*
X145000000Y-104000000D03*
%TD*%
D21*
%TO.C,R12*%
X157500000Y-95250000D03*
X157500000Y-96270000D03*
%TD*%
D14*
%TO.C,R4*%
X146570000Y-91450000D03*
X145550000Y-91450000D03*
%TD*%
D22*
%TO.C,U6*%
X152625000Y-100200000D03*
X152625000Y-101450000D03*
X153875000Y-100200000D03*
X153875000Y-101450000D03*
D23*
X151312500Y-99575000D03*
X151312500Y-100075000D03*
X151312500Y-100575000D03*
X151312500Y-101075000D03*
X151312500Y-101575000D03*
X151312500Y-102075000D03*
D24*
X152000000Y-102762500D03*
X152500000Y-102762500D03*
X153000000Y-102762500D03*
X153500000Y-102762500D03*
X154000000Y-102762500D03*
X154500000Y-102762500D03*
D23*
X155187500Y-102075000D03*
X155187500Y-101575000D03*
X155187500Y-101075000D03*
X155187500Y-100575000D03*
X155187500Y-100075000D03*
X155187500Y-99575000D03*
D24*
X154500000Y-98887500D03*
X154000000Y-98887500D03*
X153500000Y-98887500D03*
X153000000Y-98887500D03*
X152500000Y-98887500D03*
X152000000Y-98887500D03*
%TD*%
D25*
%TO.C,R8*%
X166330000Y-99750000D03*
X167350000Y-99750000D03*
%TD*%
%TO.C,R27*%
X157250000Y-109500000D03*
X158270000Y-109500000D03*
%TD*%
D18*
%TO.C,U3*%
X162025000Y-93750000D03*
X162025000Y-92800000D03*
X162025000Y-91850000D03*
X159750000Y-91850000D03*
X159750000Y-93750000D03*
%TD*%
D14*
%TO.C,R28*%
X158010000Y-103750000D03*
X156990000Y-103750000D03*
%TD*%
D17*
%TO.C,C29*%
X156000000Y-109500000D03*
X156000000Y-110460000D03*
%TD*%
%TO.C,C13*%
X156250000Y-96520000D03*
X156250000Y-97480000D03*
%TD*%
D21*
%TO.C,R1*%
X148000000Y-96500000D03*
X148000000Y-97520000D03*
%TD*%
D14*
%TO.C,R29*%
X170120000Y-108000000D03*
X169100000Y-108000000D03*
%TD*%
D15*
%TO.C,C26*%
X152000000Y-105210000D03*
X152000000Y-104250000D03*
%TD*%
D14*
%TO.C,R10*%
X158030000Y-100000000D03*
X157010000Y-100000000D03*
%TD*%
D18*
%TO.C,U1*%
X143187500Y-94400000D03*
X143187500Y-93450000D03*
X143187500Y-92500000D03*
X140912500Y-92500000D03*
X140912500Y-94400000D03*
%TD*%
D26*
%TO.C,C12*%
X174100000Y-97500000D03*
X174100000Y-100450000D03*
%TD*%
D21*
%TO.C,R24*%
X154500000Y-106480000D03*
X154500000Y-107500000D03*
%TD*%
%TO.C,R30*%
X167600000Y-107990000D03*
X167600000Y-109010000D03*
%TD*%
D27*
%TO.C,R31*%
X160000000Y-108250000D03*
X160000000Y-107230000D03*
%TD*%
D18*
%TO.C,U2*%
X134600000Y-95100000D03*
X134600000Y-94150000D03*
X134600000Y-93200000D03*
X132325000Y-93200000D03*
X132325000Y-95100000D03*
%TD*%
D28*
%TO.C,D1*%
X175600000Y-109500000D03*
X174025000Y-109500000D03*
%TD*%
D29*
%TO.C,Q1*%
X167225000Y-92300000D03*
X167225000Y-94200000D03*
X169500000Y-93250000D03*
%TD*%
D30*
%TO.C,Q2*%
X172850000Y-106750000D03*
X174750000Y-106750000D03*
X173800000Y-104875000D03*
%TD*%
D14*
%TO.C,R32*%
X158010000Y-105000000D03*
X156990000Y-105000000D03*
%TD*%
D27*
%TO.C,R18*%
X133500000Y-104270000D03*
X133500000Y-103250000D03*
%TD*%
D14*
%TO.C,R33*%
X158030000Y-102500000D03*
X157010000Y-102500000D03*
%TD*%
D31*
%TO.C,U7*%
X169760000Y-101500000D03*
X170600000Y-101500000D03*
X169760000Y-100660000D03*
X170600000Y-100660000D03*
D32*
X169430000Y-102542500D03*
X169930000Y-102542500D03*
X170430000Y-102542500D03*
X170930000Y-102542500D03*
D33*
X171642500Y-101830000D03*
X171642500Y-101330000D03*
X171642500Y-100830000D03*
X171642500Y-100330000D03*
D32*
X170930000Y-99617500D03*
X170430000Y-99617500D03*
X169930000Y-99617500D03*
X169430000Y-99617500D03*
D33*
X168717500Y-100330000D03*
X168717500Y-100830000D03*
X168717500Y-101330000D03*
X168717500Y-101830000D03*
%TD*%
D17*
%TO.C,C11*%
X155000000Y-96540000D03*
X155000000Y-97500000D03*
%TD*%
D34*
%TO.C,R15*%
X149860624Y-106060624D03*
X149139376Y-105339376D03*
%TD*%
D35*
%TO.C,J2*%
X124600000Y-102000000D03*
X124600000Y-104700000D03*
X124600000Y-99300000D03*
%TD*%
D27*
%TO.C,R11*%
X156250000Y-95250000D03*
X156250000Y-94230000D03*
%TD*%
D14*
%TO.C,R2*%
X146770000Y-98750000D03*
X145750000Y-98750000D03*
%TD*%
D25*
%TO.C,R3*%
X142050000Y-96950000D03*
X143070000Y-96950000D03*
%TD*%
D21*
%TO.C,R14*%
X143750000Y-100500000D03*
X143750000Y-101520000D03*
%TD*%
D36*
%TO.C,C3*%
X145550000Y-95050000D03*
X145550000Y-93500000D03*
%TD*%
D37*
%TO.C,C4*%
X140450000Y-96950000D03*
X138550000Y-96950000D03*
%TD*%
D15*
%TO.C,C5*%
X136300000Y-95100000D03*
X136300000Y-94140000D03*
%TD*%
D17*
%TO.C,C6*%
X151750000Y-96540000D03*
X151750000Y-97500000D03*
%TD*%
D14*
%TO.C,R34*%
X172370000Y-109500000D03*
X171350000Y-109500000D03*
%TD*%
D36*
%TO.C,C30*%
X166600000Y-103000000D03*
X166600000Y-101450000D03*
%TD*%
%TO.C,C16*%
X157825000Y-93800000D03*
X157825000Y-92250000D03*
%TD*%
%TO.C,C10*%
X130100000Y-95150000D03*
X130100000Y-93600000D03*
%TD*%
D38*
%TO.C,C18*%
X140332500Y-105250000D03*
X141292500Y-105250000D03*
%TD*%
D39*
%TO.C,C17*%
X149750000Y-103250000D03*
X149071178Y-103928822D03*
%TD*%
D21*
%TO.C,R17*%
X143750000Y-103000000D03*
X143750000Y-104020000D03*
%TD*%
D14*
%TO.C,R16*%
X132270000Y-102010000D03*
X131250000Y-102010000D03*
%TD*%
D27*
%TO.C,R22*%
X161250000Y-108250000D03*
X161250000Y-107230000D03*
%TD*%
D25*
%TO.C,R9*%
X157010000Y-98750000D03*
X158030000Y-98750000D03*
%TD*%
D15*
%TO.C,C27*%
X139000000Y-105980000D03*
X139000000Y-105020000D03*
%TD*%
D13*
%TO.C,C7*%
X150000000Y-98750000D03*
X149040000Y-98750000D03*
%TD*%
D21*
%TO.C,R21*%
X162500000Y-107240000D03*
X162500000Y-108260000D03*
%TD*%
%TO.C,R5*%
X150500000Y-96480000D03*
X150500000Y-97500000D03*
%TD*%
D15*
%TO.C,C2*%
X150000000Y-100980000D03*
X150000000Y-100020000D03*
%TD*%
%TO.C,C25*%
X153250000Y-105230000D03*
X153250000Y-104270000D03*
%TD*%
D36*
%TO.C,C14*%
X164075000Y-93850000D03*
X164075000Y-92300000D03*
%TD*%
D15*
%TO.C,C24*%
X153250000Y-107460000D03*
X153250000Y-106500000D03*
%TD*%
D14*
%TO.C,R20*%
X134500000Y-102010000D03*
X133480000Y-102010000D03*
%TD*%
D15*
%TO.C,C22*%
X137750000Y-106000000D03*
X137750000Y-105040000D03*
%TD*%
D17*
%TO.C,C1*%
X153000000Y-96540000D03*
X153000000Y-97500000D03*
%TD*%
D37*
%TO.C,C15*%
X169500000Y-97500000D03*
X167600000Y-97500000D03*
%TD*%
D25*
%TO.C,R7*%
X130080000Y-96800000D03*
X131100000Y-96800000D03*
%TD*%
D21*
%TO.C,R23*%
X154500000Y-104230000D03*
X154500000Y-105250000D03*
%TD*%
M02*
